%TF.GenerationSoftware,KiCad,Pcbnew,5.1.6-c6e7f7d~87~ubuntu18.04.1*%
%TF.CreationDate,2021-12-13T20:47:23-08:00*%
%TF.ProjectId,non-contact-voltage-sensor,6e6f6e2d-636f-46e7-9461-63742d766f6c,rev?*%
%TF.SameCoordinates,Original*%
%TF.FileFunction,Legend,Top*%
%TF.FilePolarity,Positive*%
%FSLAX46Y46*%
G04 Gerber Fmt 4.6, Leading zero omitted, Abs format (unit mm)*
G04 Created by KiCad (PCBNEW 5.1.6-c6e7f7d~87~ubuntu18.04.1) date 2021-12-13 20:47:23*
%MOMM*%
%LPD*%
G01*
G04 APERTURE LIST*
%ADD10C,0.150000*%
%ADD11C,0.228600*%
%ADD12C,0.120000*%
%ADD13C,0.100000*%
G04 APERTURE END LIST*
D10*
X144962666Y-98750500D02*
X144867428Y-98702880D01*
X144724571Y-98702880D01*
X144581713Y-98750500D01*
X144486475Y-98845738D01*
X144438856Y-98940976D01*
X144391237Y-99131452D01*
X144391237Y-99274309D01*
X144438856Y-99464785D01*
X144486475Y-99560023D01*
X144581713Y-99655261D01*
X144724571Y-99702880D01*
X144819809Y-99702880D01*
X144962666Y-99655261D01*
X145010285Y-99607642D01*
X145010285Y-99274309D01*
X144819809Y-99274309D01*
X145438856Y-99702880D02*
X145438856Y-98702880D01*
X146010285Y-99702880D01*
X146010285Y-98702880D01*
X146486475Y-99702880D02*
X146486475Y-98702880D01*
X146724571Y-98702880D01*
X146867428Y-98750500D01*
X146962666Y-98845738D01*
X147010285Y-98940976D01*
X147057904Y-99131452D01*
X147057904Y-99274309D01*
X147010285Y-99464785D01*
X146962666Y-99560023D01*
X146867428Y-99655261D01*
X146724571Y-99702880D01*
X146486475Y-99702880D01*
X145010285Y-104878142D02*
X144962666Y-104925761D01*
X144819809Y-104973380D01*
X144724571Y-104973380D01*
X144581714Y-104925761D01*
X144486476Y-104830523D01*
X144438857Y-104735285D01*
X144391238Y-104544809D01*
X144391238Y-104401952D01*
X144438857Y-104211476D01*
X144486476Y-104116238D01*
X144581714Y-104021000D01*
X144724571Y-103973380D01*
X144819809Y-103973380D01*
X144962666Y-104021000D01*
X145010285Y-104068619D01*
X145581714Y-104973380D02*
X145486476Y-104925761D01*
X145438857Y-104878142D01*
X145391238Y-104782904D01*
X145391238Y-104497190D01*
X145438857Y-104401952D01*
X145486476Y-104354333D01*
X145581714Y-104306714D01*
X145724571Y-104306714D01*
X145819809Y-104354333D01*
X145867428Y-104401952D01*
X145915047Y-104497190D01*
X145915047Y-104782904D01*
X145867428Y-104878142D01*
X145819809Y-104925761D01*
X145724571Y-104973380D01*
X145581714Y-104973380D01*
X146343619Y-104973380D02*
X146343619Y-104306714D01*
X146343619Y-103973380D02*
X146296000Y-104021000D01*
X146343619Y-104068619D01*
X146391238Y-104021000D01*
X146343619Y-103973380D01*
X146343619Y-104068619D01*
X146962666Y-104973380D02*
X146867428Y-104925761D01*
X146819809Y-104830523D01*
X146819809Y-103973380D01*
X144438856Y-101957178D02*
X145200761Y-101957178D01*
X144819809Y-102338130D02*
X144819809Y-101576226D01*
X145724571Y-102338130D02*
X145915047Y-102338130D01*
X146010285Y-102290511D01*
X146057904Y-102242892D01*
X146153142Y-102100035D01*
X146200761Y-101909559D01*
X146200761Y-101528607D01*
X146153142Y-101433369D01*
X146105523Y-101385750D01*
X146010285Y-101338130D01*
X145819809Y-101338130D01*
X145724571Y-101385750D01*
X145676951Y-101433369D01*
X145629332Y-101528607D01*
X145629332Y-101766702D01*
X145676951Y-101861940D01*
X145724571Y-101909559D01*
X145819809Y-101957178D01*
X146010285Y-101957178D01*
X146105523Y-101909559D01*
X146153142Y-101861940D01*
X146200761Y-101766702D01*
X146486475Y-101338130D02*
X146819809Y-102338130D01*
X147153142Y-101338130D01*
X144391238Y-94384761D02*
X144534095Y-94432380D01*
X144772190Y-94432380D01*
X144867428Y-94384761D01*
X144915047Y-94337142D01*
X144962666Y-94241904D01*
X144962666Y-94146666D01*
X144915047Y-94051428D01*
X144867428Y-94003809D01*
X144772190Y-93956190D01*
X144581714Y-93908571D01*
X144486476Y-93860952D01*
X144438857Y-93813333D01*
X144391238Y-93718095D01*
X144391238Y-93622857D01*
X144438857Y-93527619D01*
X144486476Y-93480000D01*
X144581714Y-93432380D01*
X144819809Y-93432380D01*
X144962666Y-93480000D01*
X145391238Y-94432380D02*
X145391238Y-93432380D01*
X145772190Y-93432380D01*
X145867428Y-93480000D01*
X145915047Y-93527619D01*
X145962666Y-93622857D01*
X145962666Y-93765714D01*
X145915047Y-93860952D01*
X145867428Y-93908571D01*
X145772190Y-93956190D01*
X145391238Y-93956190D01*
X146391238Y-94051428D02*
X147153142Y-94051428D01*
D11*
X146127530Y-109032523D02*
X146286280Y-107762523D01*
X146853244Y-109032523D01*
X147011994Y-107762523D01*
X148531459Y-107702047D02*
X147238780Y-109334904D01*
X149529316Y-108911571D02*
X149461280Y-108972047D01*
X149272292Y-109032523D01*
X149151340Y-109032523D01*
X148977470Y-108972047D01*
X148871637Y-108851095D01*
X148826280Y-108730142D01*
X148796042Y-108488238D01*
X148818720Y-108306809D01*
X148909435Y-108064904D01*
X148985030Y-107943952D01*
X149121101Y-107823000D01*
X149310090Y-107762523D01*
X149431042Y-107762523D01*
X149604911Y-107823000D01*
X149657828Y-107883476D01*
X151010982Y-108185857D02*
X151207530Y-109032523D01*
X151615744Y-108185857D01*
X152175149Y-109032523D02*
X152061756Y-108972047D01*
X152008840Y-108911571D01*
X151963482Y-108790619D01*
X152008840Y-108427761D01*
X152084435Y-108306809D01*
X152152470Y-108246333D01*
X152280982Y-108185857D01*
X152462411Y-108185857D01*
X152575804Y-108246333D01*
X152628720Y-108306809D01*
X152674078Y-108427761D01*
X152628720Y-108790619D01*
X152553125Y-108911571D01*
X152485090Y-108972047D01*
X152356578Y-109032523D01*
X152175149Y-109032523D01*
X153324197Y-109032523D02*
X153210804Y-108972047D01*
X153165447Y-108851095D01*
X153301518Y-107762523D01*
X153732411Y-108185857D02*
X154216220Y-108185857D01*
X153966756Y-107762523D02*
X153830685Y-108851095D01*
X153876042Y-108972047D01*
X153989435Y-109032523D01*
X154110387Y-109032523D01*
X155078006Y-109032523D02*
X155161161Y-108367285D01*
X155115804Y-108246333D01*
X155002411Y-108185857D01*
X154760506Y-108185857D01*
X154631994Y-108246333D01*
X155085566Y-108972047D02*
X154957054Y-109032523D01*
X154654673Y-109032523D01*
X154541280Y-108972047D01*
X154495923Y-108851095D01*
X154511042Y-108730142D01*
X154586637Y-108609190D01*
X154715149Y-108548714D01*
X155017530Y-108548714D01*
X155146042Y-108488238D01*
X156332887Y-108185857D02*
X156204375Y-109213952D01*
X156128780Y-109334904D01*
X156060744Y-109395380D01*
X155932232Y-109455857D01*
X155750804Y-109455857D01*
X155637411Y-109395380D01*
X156234613Y-108972047D02*
X156106101Y-109032523D01*
X155864197Y-109032523D01*
X155750804Y-108972047D01*
X155697887Y-108911571D01*
X155652530Y-108790619D01*
X155697887Y-108427761D01*
X155773482Y-108306809D01*
X155841518Y-108246333D01*
X155970030Y-108185857D01*
X156211935Y-108185857D01*
X156325328Y-108246333D01*
X157323185Y-108972047D02*
X157194673Y-109032523D01*
X156952768Y-109032523D01*
X156839375Y-108972047D01*
X156794018Y-108851095D01*
X156854494Y-108367285D01*
X156930090Y-108246333D01*
X157058601Y-108185857D01*
X157300506Y-108185857D01*
X157413899Y-108246333D01*
X157459256Y-108367285D01*
X157444137Y-108488238D01*
X156824256Y-108609190D01*
X159432292Y-109032523D02*
X159591042Y-107762523D01*
X159439851Y-108972047D02*
X159311340Y-109032523D01*
X159069435Y-109032523D01*
X158956042Y-108972047D01*
X158903125Y-108911571D01*
X158857768Y-108790619D01*
X158903125Y-108427761D01*
X158978720Y-108306809D01*
X159046756Y-108246333D01*
X159175268Y-108185857D01*
X159417173Y-108185857D01*
X159530566Y-108246333D01*
X160528423Y-108972047D02*
X160399911Y-109032523D01*
X160158006Y-109032523D01*
X160044613Y-108972047D01*
X159999256Y-108851095D01*
X160059732Y-108367285D01*
X160135328Y-108246333D01*
X160263840Y-108185857D01*
X160505744Y-108185857D01*
X160619137Y-108246333D01*
X160664494Y-108367285D01*
X160649375Y-108488238D01*
X160029494Y-108609190D01*
X161050030Y-108185857D02*
X161533840Y-108185857D01*
X161284375Y-107762523D02*
X161148304Y-108851095D01*
X161193661Y-108972047D01*
X161307054Y-109032523D01*
X161428006Y-109032523D01*
X162342709Y-108972047D02*
X162214197Y-109032523D01*
X161972292Y-109032523D01*
X161858899Y-108972047D01*
X161813542Y-108851095D01*
X161874018Y-108367285D01*
X161949613Y-108246333D01*
X162078125Y-108185857D01*
X162320030Y-108185857D01*
X162433423Y-108246333D01*
X162478780Y-108367285D01*
X162463661Y-108488238D01*
X161843780Y-108609190D01*
X163491756Y-108972047D02*
X163363244Y-109032523D01*
X163121340Y-109032523D01*
X163007947Y-108972047D01*
X162955030Y-108911571D01*
X162909673Y-108790619D01*
X162955030Y-108427761D01*
X163030625Y-108306809D01*
X163098661Y-108246333D01*
X163227173Y-108185857D01*
X163469078Y-108185857D01*
X163582470Y-108246333D01*
X163952887Y-108185857D02*
X164436697Y-108185857D01*
X164187232Y-107762523D02*
X164051161Y-108851095D01*
X164096518Y-108972047D01*
X164209911Y-109032523D01*
X164330863Y-109032523D01*
X164935625Y-109032523D02*
X164822232Y-108972047D01*
X164769316Y-108911571D01*
X164723959Y-108790619D01*
X164769316Y-108427761D01*
X164844911Y-108306809D01*
X164912947Y-108246333D01*
X165041459Y-108185857D01*
X165222887Y-108185857D01*
X165336280Y-108246333D01*
X165389197Y-108306809D01*
X165434554Y-108427761D01*
X165389197Y-108790619D01*
X165313601Y-108911571D01*
X165245566Y-108972047D01*
X165117054Y-109032523D01*
X164935625Y-109032523D01*
X165903244Y-109032523D02*
X166009078Y-108185857D01*
X165978840Y-108427761D02*
X166054435Y-108306809D01*
X166122470Y-108246333D01*
X166250982Y-108185857D01*
X166371935Y-108185857D01*
D10*
X144391238Y-97020011D02*
X144534095Y-97067630D01*
X144772190Y-97067630D01*
X144867428Y-97020011D01*
X144915047Y-96972392D01*
X144962666Y-96877154D01*
X144962666Y-96781916D01*
X144915047Y-96686678D01*
X144867428Y-96639059D01*
X144772190Y-96591440D01*
X144581714Y-96543821D01*
X144486476Y-96496202D01*
X144438857Y-96448583D01*
X144391238Y-96353345D01*
X144391238Y-96258107D01*
X144438857Y-96162869D01*
X144486476Y-96115250D01*
X144581714Y-96067630D01*
X144819809Y-96067630D01*
X144962666Y-96115250D01*
X145391238Y-97067630D02*
X145391238Y-96067630D01*
X145772190Y-96067630D01*
X145867428Y-96115250D01*
X145915047Y-96162869D01*
X145962666Y-96258107D01*
X145962666Y-96400964D01*
X145915047Y-96496202D01*
X145867428Y-96543821D01*
X145772190Y-96591440D01*
X145391238Y-96591440D01*
X146391238Y-96686678D02*
X147153142Y-96686678D01*
X146772190Y-97067630D02*
X146772190Y-96305726D01*
D12*
%TO.C,SW1*%
X162699000Y-86288000D02*
X162699000Y-89988000D01*
X156579000Y-86288000D02*
X162699000Y-86288000D01*
X156579000Y-89988000D02*
X156579000Y-86288000D01*
X162699000Y-89988000D02*
X156579000Y-89988000D01*
%TO.C,J1*%
X149225000Y-92650000D02*
X150555000Y-92650000D01*
X150555000Y-92650000D02*
X150555000Y-93980000D01*
X150555000Y-95250000D02*
X150555000Y-105470000D01*
X147895000Y-105470000D02*
X150555000Y-105470000D01*
X147895000Y-95250000D02*
X147895000Y-105470000D01*
X147895000Y-95250000D02*
X150555000Y-95250000D01*
%TO.C,C1*%
X151910000Y-104757000D02*
X152610000Y-104757000D01*
X155430000Y-104757000D02*
X154730000Y-104757000D01*
X155430000Y-102126437D02*
X155430000Y-104757000D01*
X151910000Y-102126437D02*
X151910000Y-104757000D01*
X154730000Y-101426437D02*
X155430000Y-102126437D01*
X152610000Y-101426437D02*
X151910000Y-102126437D01*
X155105000Y-100622000D02*
X155105000Y-100997000D01*
X155292500Y-100809500D02*
X154917500Y-100809500D01*
%TO.C,D1*%
X166235000Y-101122000D02*
X166235000Y-99422000D01*
X165435000Y-101122000D02*
X166235000Y-101122000D01*
X165235000Y-101122000D02*
X165435000Y-101122000D01*
X165235000Y-101022000D02*
X165235000Y-101122000D01*
X165235000Y-100922000D02*
X165235000Y-101022000D01*
X165235000Y-100922000D02*
X165235000Y-99422000D01*
D13*
%TO.C,Q5*%
X155460200Y-95428800D02*
X155460200Y-95728800D01*
X155085200Y-95428800D02*
X155460200Y-95428800D01*
X155460200Y-98728800D02*
X155010200Y-98728800D01*
X155460200Y-98428800D02*
X155460200Y-98728800D01*
X155460200Y-98503800D02*
X155460200Y-98378800D01*
X153810200Y-98728800D02*
X153810200Y-98378800D01*
X154285200Y-98728800D02*
X153810200Y-98728800D01*
X153810200Y-95753800D02*
X153035200Y-95753800D01*
X153810200Y-95703800D02*
X153810200Y-95753800D01*
X154185200Y-95428800D02*
X153810200Y-95703800D01*
X154460200Y-95428800D02*
X154185200Y-95428800D01*
%TO.C,Q4*%
X167385000Y-96964000D02*
X167085000Y-96964000D01*
X167385000Y-96589000D02*
X167385000Y-96964000D01*
X164085000Y-96964000D02*
X164085000Y-96514000D01*
X164385000Y-96964000D02*
X164085000Y-96964000D01*
X164310000Y-96964000D02*
X164435000Y-96964000D01*
X164085000Y-95314000D02*
X164435000Y-95314000D01*
X164085000Y-95789000D02*
X164085000Y-95314000D01*
X167060000Y-95314000D02*
X167060000Y-94539000D01*
X167110000Y-95314000D02*
X167060000Y-95314000D01*
X167385000Y-95689000D02*
X167110000Y-95314000D01*
X167385000Y-95964000D02*
X167385000Y-95689000D01*
%TO.C,Q3*%
X167576000Y-101728000D02*
X167576000Y-102028000D01*
X167201000Y-101728000D02*
X167576000Y-101728000D01*
X167576000Y-105028000D02*
X167126000Y-105028000D01*
X167576000Y-104728000D02*
X167576000Y-105028000D01*
X167576000Y-104803000D02*
X167576000Y-104678000D01*
X165926000Y-105028000D02*
X165926000Y-104678000D01*
X166401000Y-105028000D02*
X165926000Y-105028000D01*
X165926000Y-102053000D02*
X165151000Y-102053000D01*
X165926000Y-102003000D02*
X165926000Y-102053000D01*
X166301000Y-101728000D02*
X165926000Y-102003000D01*
X166576000Y-101728000D02*
X166301000Y-101728000D01*
%TO.C,Q2*%
X163351000Y-101728000D02*
X163351000Y-102028000D01*
X162976000Y-101728000D02*
X163351000Y-101728000D01*
X163351000Y-105028000D02*
X162901000Y-105028000D01*
X163351000Y-104728000D02*
X163351000Y-105028000D01*
X163351000Y-104803000D02*
X163351000Y-104678000D01*
X161701000Y-105028000D02*
X161701000Y-104678000D01*
X162176000Y-105028000D02*
X161701000Y-105028000D01*
X161701000Y-102053000D02*
X160926000Y-102053000D01*
X161701000Y-102003000D02*
X161701000Y-102053000D01*
X162076000Y-101728000D02*
X161701000Y-102003000D01*
X162351000Y-101728000D02*
X162076000Y-101728000D01*
%TO.C,Q1*%
X158686000Y-101728000D02*
X158686000Y-102028000D01*
X158311000Y-101728000D02*
X158686000Y-101728000D01*
X158686000Y-105028000D02*
X158236000Y-105028000D01*
X158686000Y-104728000D02*
X158686000Y-105028000D01*
X158686000Y-104803000D02*
X158686000Y-104678000D01*
X157036000Y-105028000D02*
X157036000Y-104678000D01*
X157511000Y-105028000D02*
X157036000Y-105028000D01*
X157036000Y-102053000D02*
X156261000Y-102053000D01*
X157036000Y-102003000D02*
X157036000Y-102053000D01*
X157411000Y-101728000D02*
X157036000Y-102003000D01*
X157686000Y-101728000D02*
X157411000Y-101728000D01*
D12*
%TO.C,R5*%
X160441421Y-94667800D02*
X160766979Y-94667800D01*
X160441421Y-93647800D02*
X160766979Y-93647800D01*
%TO.C,R4*%
X160415921Y-96318800D02*
X160741479Y-96318800D01*
X160415921Y-95298800D02*
X160741479Y-95298800D01*
%TO.C,R3*%
X160441421Y-97842800D02*
X160766979Y-97842800D01*
X160441421Y-96822800D02*
X160766979Y-96822800D01*
%TO.C,R2*%
X160492221Y-101094000D02*
X160817779Y-101094000D01*
X160492221Y-100074000D02*
X160817779Y-100074000D01*
%TO.C,R1*%
X157642779Y-100074000D02*
X157317221Y-100074000D01*
X157642779Y-101094000D02*
X157317221Y-101094000D01*
%TO.C,C2*%
X154543979Y-93774800D02*
X154218421Y-93774800D01*
X154543979Y-94794800D02*
X154218421Y-94794800D01*
%TO.C,SW1*%
D10*
X158305666Y-92592761D02*
X158448523Y-92640380D01*
X158686619Y-92640380D01*
X158781857Y-92592761D01*
X158829476Y-92545142D01*
X158877095Y-92449904D01*
X158877095Y-92354666D01*
X158829476Y-92259428D01*
X158781857Y-92211809D01*
X158686619Y-92164190D01*
X158496142Y-92116571D01*
X158400904Y-92068952D01*
X158353285Y-92021333D01*
X158305666Y-91926095D01*
X158305666Y-91830857D01*
X158353285Y-91735619D01*
X158400904Y-91688000D01*
X158496142Y-91640380D01*
X158734238Y-91640380D01*
X158877095Y-91688000D01*
X159210428Y-91640380D02*
X159448523Y-92640380D01*
X159639000Y-91926095D01*
X159829476Y-92640380D01*
X160067571Y-91640380D01*
X160972333Y-92640380D02*
X160400904Y-92640380D01*
X160686619Y-92640380D02*
X160686619Y-91640380D01*
X160591380Y-91783238D01*
X160496142Y-91878476D01*
X160400904Y-91926095D01*
%TO.C,J1*%
X148891666Y-90662380D02*
X148891666Y-91376666D01*
X148844047Y-91519523D01*
X148748809Y-91614761D01*
X148605952Y-91662380D01*
X148510714Y-91662380D01*
X149891666Y-91662380D02*
X149320238Y-91662380D01*
X149605952Y-91662380D02*
X149605952Y-90662380D01*
X149510714Y-90805238D01*
X149415476Y-90900476D01*
X149320238Y-90948095D01*
%TO.C,C1*%
X151725333Y-99925142D02*
X151677714Y-99972761D01*
X151534857Y-100020380D01*
X151439619Y-100020380D01*
X151296761Y-99972761D01*
X151201523Y-99877523D01*
X151153904Y-99782285D01*
X151106285Y-99591809D01*
X151106285Y-99448952D01*
X151153904Y-99258476D01*
X151201523Y-99163238D01*
X151296761Y-99068000D01*
X151439619Y-99020380D01*
X151534857Y-99020380D01*
X151677714Y-99068000D01*
X151725333Y-99115619D01*
X152677714Y-100020380D02*
X152106285Y-100020380D01*
X152392000Y-100020380D02*
X152392000Y-99020380D01*
X152296761Y-99163238D01*
X152201523Y-99258476D01*
X152106285Y-99306095D01*
%TO.C,D1*%
X167584380Y-100560095D02*
X166584380Y-100560095D01*
X166584380Y-100322000D01*
X166632000Y-100179142D01*
X166727238Y-100083904D01*
X166822476Y-100036285D01*
X167012952Y-99988666D01*
X167155809Y-99988666D01*
X167346285Y-100036285D01*
X167441523Y-100083904D01*
X167536761Y-100179142D01*
X167584380Y-100322000D01*
X167584380Y-100560095D01*
X167584380Y-99036285D02*
X167584380Y-99607714D01*
X167584380Y-99322000D02*
X166584380Y-99322000D01*
X166727238Y-99417238D01*
X166822476Y-99512476D01*
X166870095Y-99607714D01*
%TO.C,Q5*%
X152642819Y-97682038D02*
X152595200Y-97777276D01*
X152499961Y-97872514D01*
X152357104Y-98015371D01*
X152309485Y-98110609D01*
X152309485Y-98205847D01*
X152547580Y-98158228D02*
X152499961Y-98253466D01*
X152404723Y-98348704D01*
X152214247Y-98396323D01*
X151880914Y-98396323D01*
X151690438Y-98348704D01*
X151595200Y-98253466D01*
X151547580Y-98158228D01*
X151547580Y-97967752D01*
X151595200Y-97872514D01*
X151690438Y-97777276D01*
X151880914Y-97729657D01*
X152214247Y-97729657D01*
X152404723Y-97777276D01*
X152499961Y-97872514D01*
X152547580Y-97967752D01*
X152547580Y-98158228D01*
X151547580Y-96824895D02*
X151547580Y-97301085D01*
X152023771Y-97348704D01*
X151976152Y-97301085D01*
X151928533Y-97205847D01*
X151928533Y-96967752D01*
X151976152Y-96872514D01*
X152023771Y-96824895D01*
X152119009Y-96777276D01*
X152357104Y-96777276D01*
X152452342Y-96824895D01*
X152499961Y-96872514D01*
X152547580Y-96967752D01*
X152547580Y-97205847D01*
X152499961Y-97301085D01*
X152452342Y-97348704D01*
%TO.C,Q4*%
X168560761Y-96813619D02*
X168465523Y-96766000D01*
X168370285Y-96670761D01*
X168227428Y-96527904D01*
X168132190Y-96480285D01*
X168036952Y-96480285D01*
X168084571Y-96718380D02*
X167989333Y-96670761D01*
X167894095Y-96575523D01*
X167846476Y-96385047D01*
X167846476Y-96051714D01*
X167894095Y-95861238D01*
X167989333Y-95766000D01*
X168084571Y-95718380D01*
X168275047Y-95718380D01*
X168370285Y-95766000D01*
X168465523Y-95861238D01*
X168513142Y-96051714D01*
X168513142Y-96385047D01*
X168465523Y-96575523D01*
X168370285Y-96670761D01*
X168275047Y-96718380D01*
X168084571Y-96718380D01*
X169370285Y-96051714D02*
X169370285Y-96718380D01*
X169132190Y-95670761D02*
X168894095Y-96385047D01*
X169513142Y-96385047D01*
%TO.C,Q3*%
X167544761Y-106592619D02*
X167449523Y-106545000D01*
X167354285Y-106449761D01*
X167211428Y-106306904D01*
X167116190Y-106259285D01*
X167020952Y-106259285D01*
X167068571Y-106497380D02*
X166973333Y-106449761D01*
X166878095Y-106354523D01*
X166830476Y-106164047D01*
X166830476Y-105830714D01*
X166878095Y-105640238D01*
X166973333Y-105545000D01*
X167068571Y-105497380D01*
X167259047Y-105497380D01*
X167354285Y-105545000D01*
X167449523Y-105640238D01*
X167497142Y-105830714D01*
X167497142Y-106164047D01*
X167449523Y-106354523D01*
X167354285Y-106449761D01*
X167259047Y-106497380D01*
X167068571Y-106497380D01*
X167830476Y-105497380D02*
X168449523Y-105497380D01*
X168116190Y-105878333D01*
X168259047Y-105878333D01*
X168354285Y-105925952D01*
X168401904Y-105973571D01*
X168449523Y-106068809D01*
X168449523Y-106306904D01*
X168401904Y-106402142D01*
X168354285Y-106449761D01*
X168259047Y-106497380D01*
X167973333Y-106497380D01*
X167878095Y-106449761D01*
X167830476Y-106402142D01*
%TO.C,Q2*%
X162464761Y-106592619D02*
X162369523Y-106545000D01*
X162274285Y-106449761D01*
X162131428Y-106306904D01*
X162036190Y-106259285D01*
X161940952Y-106259285D01*
X161988571Y-106497380D02*
X161893333Y-106449761D01*
X161798095Y-106354523D01*
X161750476Y-106164047D01*
X161750476Y-105830714D01*
X161798095Y-105640238D01*
X161893333Y-105545000D01*
X161988571Y-105497380D01*
X162179047Y-105497380D01*
X162274285Y-105545000D01*
X162369523Y-105640238D01*
X162417142Y-105830714D01*
X162417142Y-106164047D01*
X162369523Y-106354523D01*
X162274285Y-106449761D01*
X162179047Y-106497380D01*
X161988571Y-106497380D01*
X162798095Y-105592619D02*
X162845714Y-105545000D01*
X162940952Y-105497380D01*
X163179047Y-105497380D01*
X163274285Y-105545000D01*
X163321904Y-105592619D01*
X163369523Y-105687857D01*
X163369523Y-105783095D01*
X163321904Y-105925952D01*
X162750476Y-106497380D01*
X163369523Y-106497380D01*
%TO.C,Q1*%
X157638761Y-106592619D02*
X157543523Y-106545000D01*
X157448285Y-106449761D01*
X157305428Y-106306904D01*
X157210190Y-106259285D01*
X157114952Y-106259285D01*
X157162571Y-106497380D02*
X157067333Y-106449761D01*
X156972095Y-106354523D01*
X156924476Y-106164047D01*
X156924476Y-105830714D01*
X156972095Y-105640238D01*
X157067333Y-105545000D01*
X157162571Y-105497380D01*
X157353047Y-105497380D01*
X157448285Y-105545000D01*
X157543523Y-105640238D01*
X157591142Y-105830714D01*
X157591142Y-106164047D01*
X157543523Y-106354523D01*
X157448285Y-106449761D01*
X157353047Y-106497380D01*
X157162571Y-106497380D01*
X158543523Y-106497380D02*
X157972095Y-106497380D01*
X158257809Y-106497380D02*
X158257809Y-105497380D01*
X158162571Y-105640238D01*
X158067333Y-105735476D01*
X157972095Y-105783095D01*
%TO.C,R5*%
X157821333Y-94686380D02*
X157488000Y-94210190D01*
X157249904Y-94686380D02*
X157249904Y-93686380D01*
X157630857Y-93686380D01*
X157726095Y-93734000D01*
X157773714Y-93781619D01*
X157821333Y-93876857D01*
X157821333Y-94019714D01*
X157773714Y-94114952D01*
X157726095Y-94162571D01*
X157630857Y-94210190D01*
X157249904Y-94210190D01*
X158726095Y-93686380D02*
X158249904Y-93686380D01*
X158202285Y-94162571D01*
X158249904Y-94114952D01*
X158345142Y-94067333D01*
X158583238Y-94067333D01*
X158678476Y-94114952D01*
X158726095Y-94162571D01*
X158773714Y-94257809D01*
X158773714Y-94495904D01*
X158726095Y-94591142D01*
X158678476Y-94638761D01*
X158583238Y-94686380D01*
X158345142Y-94686380D01*
X158249904Y-94638761D01*
X158202285Y-94591142D01*
%TO.C,R4*%
X157821333Y-96261180D02*
X157488000Y-95784990D01*
X157249904Y-96261180D02*
X157249904Y-95261180D01*
X157630857Y-95261180D01*
X157726095Y-95308800D01*
X157773714Y-95356419D01*
X157821333Y-95451657D01*
X157821333Y-95594514D01*
X157773714Y-95689752D01*
X157726095Y-95737371D01*
X157630857Y-95784990D01*
X157249904Y-95784990D01*
X158678476Y-95594514D02*
X158678476Y-96261180D01*
X158440380Y-95213561D02*
X158202285Y-95927847D01*
X158821333Y-95927847D01*
%TO.C,R3*%
X160361333Y-99258380D02*
X160028000Y-98782190D01*
X159789904Y-99258380D02*
X159789904Y-98258380D01*
X160170857Y-98258380D01*
X160266095Y-98306000D01*
X160313714Y-98353619D01*
X160361333Y-98448857D01*
X160361333Y-98591714D01*
X160313714Y-98686952D01*
X160266095Y-98734571D01*
X160170857Y-98782190D01*
X159789904Y-98782190D01*
X160694666Y-98258380D02*
X161313714Y-98258380D01*
X160980380Y-98639333D01*
X161123238Y-98639333D01*
X161218476Y-98686952D01*
X161266095Y-98734571D01*
X161313714Y-98829809D01*
X161313714Y-99067904D01*
X161266095Y-99163142D01*
X161218476Y-99210761D01*
X161123238Y-99258380D01*
X160837523Y-99258380D01*
X160742285Y-99210761D01*
X160694666Y-99163142D01*
%TO.C,R2*%
X162901333Y-101036380D02*
X162568000Y-100560190D01*
X162329904Y-101036380D02*
X162329904Y-100036380D01*
X162710857Y-100036380D01*
X162806095Y-100084000D01*
X162853714Y-100131619D01*
X162901333Y-100226857D01*
X162901333Y-100369714D01*
X162853714Y-100464952D01*
X162806095Y-100512571D01*
X162710857Y-100560190D01*
X162329904Y-100560190D01*
X163282285Y-100131619D02*
X163329904Y-100084000D01*
X163425142Y-100036380D01*
X163663238Y-100036380D01*
X163758476Y-100084000D01*
X163806095Y-100131619D01*
X163853714Y-100226857D01*
X163853714Y-100322095D01*
X163806095Y-100464952D01*
X163234666Y-101036380D01*
X163853714Y-101036380D01*
%TO.C,R1*%
X157338833Y-99639380D02*
X157005500Y-99163190D01*
X156767404Y-99639380D02*
X156767404Y-98639380D01*
X157148357Y-98639380D01*
X157243595Y-98687000D01*
X157291214Y-98734619D01*
X157338833Y-98829857D01*
X157338833Y-98972714D01*
X157291214Y-99067952D01*
X157243595Y-99115571D01*
X157148357Y-99163190D01*
X156767404Y-99163190D01*
X158291214Y-99639380D02*
X157719785Y-99639380D01*
X158005500Y-99639380D02*
X158005500Y-98639380D01*
X157910261Y-98782238D01*
X157815023Y-98877476D01*
X157719785Y-98925095D01*
%TO.C,C2*%
X154341533Y-93244942D02*
X154293914Y-93292561D01*
X154151057Y-93340180D01*
X154055819Y-93340180D01*
X153912961Y-93292561D01*
X153817723Y-93197323D01*
X153770104Y-93102085D01*
X153722485Y-92911609D01*
X153722485Y-92768752D01*
X153770104Y-92578276D01*
X153817723Y-92483038D01*
X153912961Y-92387800D01*
X154055819Y-92340180D01*
X154151057Y-92340180D01*
X154293914Y-92387800D01*
X154341533Y-92435419D01*
X154722485Y-92435419D02*
X154770104Y-92387800D01*
X154865342Y-92340180D01*
X155103438Y-92340180D01*
X155198676Y-92387800D01*
X155246295Y-92435419D01*
X155293914Y-92530657D01*
X155293914Y-92625895D01*
X155246295Y-92768752D01*
X154674866Y-93340180D01*
X155293914Y-93340180D01*
%TD*%
M02*
