%TF.GenerationSoftware,KiCad,Pcbnew,5.1.6-c6e7f7d~87~ubuntu18.04.1*%
%TF.CreationDate,2021-12-13T20:39:48-08:00*%
%TF.ProjectId,non-contact-voltage-sensor,6e6f6e2d-636f-46e7-9461-63742d766f6c,rev?*%
%TF.SameCoordinates,Original*%
%TF.FileFunction,Copper,L2,Bot*%
%TF.FilePolarity,Positive*%
%FSLAX46Y46*%
G04 Gerber Fmt 4.6, Leading zero omitted, Abs format (unit mm)*
G04 Created by KiCad (PCBNEW 5.1.6-c6e7f7d~87~ubuntu18.04.1) date 2021-12-13 20:39:48*
%MOMM*%
%LPD*%
G01*
G04 APERTURE LIST*
%TA.AperFunction,ComponentPad*%
%ADD10O,1.700000X1.700000*%
%TD*%
%TA.AperFunction,ComponentPad*%
%ADD11R,1.700000X1.700000*%
%TD*%
%TA.AperFunction,ViaPad*%
%ADD12C,0.800000*%
%TD*%
%TA.AperFunction,Conductor*%
%ADD13C,0.250000*%
%TD*%
%TA.AperFunction,Conductor*%
%ADD14C,0.254000*%
%TD*%
G04 APERTURE END LIST*
D10*
%TO.P,J1,5*%
%TO.N,/Coil*%
X149225000Y-104140000D03*
%TO.P,J1,4*%
%TO.N,+9V*%
X149225000Y-101600000D03*
%TO.P,J1,3*%
%TO.N,GND*%
X149225000Y-99060000D03*
%TO.P,J1,2*%
%TO.N,/SP+*%
X149225000Y-96520000D03*
D11*
%TO.P,J1,1*%
%TO.N,/SP-*%
X149225000Y-93980000D03*
%TD*%
D12*
%TO.N,Net-(C1-Pad1)*%
X157861000Y-90424000D03*
X156845000Y-97155000D03*
%TO.N,/SP+*%
X152400000Y-96139000D03*
%TD*%
D13*
%TO.N,Net-(C1-Pad1)*%
X157861000Y-96139000D02*
X156845000Y-97155000D01*
X157861000Y-90424000D02*
X157861000Y-96139000D01*
%TO.N,/SP+*%
X149606000Y-96139000D02*
X149225000Y-96520000D01*
X152400000Y-96139000D02*
X149606000Y-96139000D01*
%TD*%
D14*
%TO.N,GND*%
G36*
X175743000Y-109830000D02*
G01*
X144170000Y-109830000D01*
X144170000Y-106230495D01*
X170735000Y-106230495D01*
X170735000Y-106621505D01*
X170811282Y-107005003D01*
X170960915Y-107366250D01*
X171178149Y-107691364D01*
X171454636Y-107967851D01*
X171779750Y-108185085D01*
X172140997Y-108334718D01*
X172524495Y-108411000D01*
X172915505Y-108411000D01*
X173299003Y-108334718D01*
X173660250Y-108185085D01*
X173985364Y-107967851D01*
X174261851Y-107691364D01*
X174479085Y-107366250D01*
X174628718Y-107005003D01*
X174705000Y-106621505D01*
X174705000Y-106230495D01*
X174628718Y-105846997D01*
X174479085Y-105485750D01*
X174261851Y-105160636D01*
X173985364Y-104884149D01*
X173660250Y-104666915D01*
X173299003Y-104517282D01*
X172915505Y-104441000D01*
X172524495Y-104441000D01*
X172140997Y-104517282D01*
X171779750Y-104666915D01*
X171454636Y-104884149D01*
X171178149Y-105160636D01*
X170960915Y-105485750D01*
X170811282Y-105846997D01*
X170735000Y-106230495D01*
X144170000Y-106230495D01*
X144170000Y-101453740D01*
X147740000Y-101453740D01*
X147740000Y-101746260D01*
X147797068Y-102033158D01*
X147909010Y-102303411D01*
X148071525Y-102546632D01*
X148278368Y-102753475D01*
X148452760Y-102870000D01*
X148278368Y-102986525D01*
X148071525Y-103193368D01*
X147909010Y-103436589D01*
X147797068Y-103706842D01*
X147740000Y-103993740D01*
X147740000Y-104286260D01*
X147797068Y-104573158D01*
X147909010Y-104843411D01*
X148071525Y-105086632D01*
X148278368Y-105293475D01*
X148521589Y-105455990D01*
X148791842Y-105567932D01*
X149078740Y-105625000D01*
X149371260Y-105625000D01*
X149658158Y-105567932D01*
X149928411Y-105455990D01*
X150171632Y-105293475D01*
X150378475Y-105086632D01*
X150540990Y-104843411D01*
X150652932Y-104573158D01*
X150710000Y-104286260D01*
X150710000Y-103993740D01*
X150652932Y-103706842D01*
X150540990Y-103436589D01*
X150378475Y-103193368D01*
X150171632Y-102986525D01*
X149997240Y-102870000D01*
X150171632Y-102753475D01*
X150378475Y-102546632D01*
X150540990Y-102303411D01*
X150652932Y-102033158D01*
X150710000Y-101746260D01*
X150710000Y-101453740D01*
X150652932Y-101166842D01*
X150540990Y-100896589D01*
X150378475Y-100653368D01*
X150171632Y-100446525D01*
X149989466Y-100324805D01*
X150106355Y-100255178D01*
X150322588Y-100060269D01*
X150496641Y-99826920D01*
X150621825Y-99564099D01*
X150666476Y-99416890D01*
X150545155Y-99187000D01*
X149352000Y-99187000D01*
X149352000Y-99207000D01*
X149098000Y-99207000D01*
X149098000Y-99187000D01*
X147904845Y-99187000D01*
X147783524Y-99416890D01*
X147828175Y-99564099D01*
X147953359Y-99826920D01*
X148127412Y-100060269D01*
X148343645Y-100255178D01*
X148460534Y-100324805D01*
X148278368Y-100446525D01*
X148071525Y-100653368D01*
X147909010Y-100896589D01*
X147797068Y-101166842D01*
X147740000Y-101453740D01*
X144170000Y-101453740D01*
X144170000Y-93130000D01*
X147736928Y-93130000D01*
X147736928Y-94830000D01*
X147749188Y-94954482D01*
X147785498Y-95074180D01*
X147844463Y-95184494D01*
X147923815Y-95281185D01*
X148020506Y-95360537D01*
X148130820Y-95419502D01*
X148203380Y-95441513D01*
X148071525Y-95573368D01*
X147909010Y-95816589D01*
X147797068Y-96086842D01*
X147740000Y-96373740D01*
X147740000Y-96666260D01*
X147797068Y-96953158D01*
X147909010Y-97223411D01*
X148071525Y-97466632D01*
X148278368Y-97673475D01*
X148460534Y-97795195D01*
X148343645Y-97864822D01*
X148127412Y-98059731D01*
X147953359Y-98293080D01*
X147828175Y-98555901D01*
X147783524Y-98703110D01*
X147904845Y-98933000D01*
X149098000Y-98933000D01*
X149098000Y-98913000D01*
X149352000Y-98913000D01*
X149352000Y-98933000D01*
X150545155Y-98933000D01*
X150666476Y-98703110D01*
X150621825Y-98555901D01*
X150496641Y-98293080D01*
X150322588Y-98059731D01*
X150106355Y-97864822D01*
X149989466Y-97795195D01*
X150171632Y-97673475D01*
X150378475Y-97466632D01*
X150540990Y-97223411D01*
X150652932Y-96953158D01*
X150663705Y-96899000D01*
X151696289Y-96899000D01*
X151740226Y-96942937D01*
X151909744Y-97056205D01*
X152098102Y-97134226D01*
X152298061Y-97174000D01*
X152501939Y-97174000D01*
X152701898Y-97134226D01*
X152890256Y-97056205D01*
X152894961Y-97053061D01*
X155810000Y-97053061D01*
X155810000Y-97256939D01*
X155849774Y-97456898D01*
X155927795Y-97645256D01*
X156041063Y-97814774D01*
X156185226Y-97958937D01*
X156354744Y-98072205D01*
X156543102Y-98150226D01*
X156743061Y-98190000D01*
X156946939Y-98190000D01*
X157146898Y-98150226D01*
X157335256Y-98072205D01*
X157504774Y-97958937D01*
X157648937Y-97814774D01*
X157762205Y-97645256D01*
X157840226Y-97456898D01*
X157880000Y-97256939D01*
X157880000Y-97194801D01*
X158372003Y-96702799D01*
X158401001Y-96679001D01*
X158441826Y-96629256D01*
X158495974Y-96563277D01*
X158566546Y-96431247D01*
X158583990Y-96373740D01*
X158610003Y-96287986D01*
X158621000Y-96176333D01*
X158621000Y-96176323D01*
X158624676Y-96139000D01*
X158621000Y-96101678D01*
X158621000Y-91127711D01*
X158664937Y-91083774D01*
X158778205Y-90914256D01*
X158856226Y-90725898D01*
X158896000Y-90525939D01*
X158896000Y-90322061D01*
X158856226Y-90122102D01*
X158778205Y-89933744D01*
X158664937Y-89764226D01*
X158520774Y-89620063D01*
X158351256Y-89506795D01*
X158162898Y-89428774D01*
X157962939Y-89389000D01*
X157759061Y-89389000D01*
X157559102Y-89428774D01*
X157370744Y-89506795D01*
X157201226Y-89620063D01*
X157057063Y-89764226D01*
X156943795Y-89933744D01*
X156865774Y-90122102D01*
X156826000Y-90322061D01*
X156826000Y-90525939D01*
X156865774Y-90725898D01*
X156943795Y-90914256D01*
X157057063Y-91083774D01*
X157101000Y-91127711D01*
X157101001Y-95824197D01*
X156805199Y-96120000D01*
X156743061Y-96120000D01*
X156543102Y-96159774D01*
X156354744Y-96237795D01*
X156185226Y-96351063D01*
X156041063Y-96495226D01*
X155927795Y-96664744D01*
X155849774Y-96853102D01*
X155810000Y-97053061D01*
X152894961Y-97053061D01*
X153059774Y-96942937D01*
X153203937Y-96798774D01*
X153317205Y-96629256D01*
X153395226Y-96440898D01*
X153435000Y-96240939D01*
X153435000Y-96037061D01*
X153395226Y-95837102D01*
X153317205Y-95648744D01*
X153203937Y-95479226D01*
X153059774Y-95335063D01*
X152890256Y-95221795D01*
X152701898Y-95143774D01*
X152501939Y-95104000D01*
X152298061Y-95104000D01*
X152098102Y-95143774D01*
X151909744Y-95221795D01*
X151740226Y-95335063D01*
X151696289Y-95379000D01*
X150394953Y-95379000D01*
X150429494Y-95360537D01*
X150526185Y-95281185D01*
X150605537Y-95184494D01*
X150664502Y-95074180D01*
X150700812Y-94954482D01*
X150713072Y-94830000D01*
X150713072Y-93130000D01*
X150700812Y-93005518D01*
X150664502Y-92885820D01*
X150605537Y-92775506D01*
X150526185Y-92678815D01*
X150429494Y-92599463D01*
X150319180Y-92540498D01*
X150199482Y-92504188D01*
X150075000Y-92491928D01*
X148375000Y-92491928D01*
X148250518Y-92504188D01*
X148130820Y-92540498D01*
X148020506Y-92599463D01*
X147923815Y-92678815D01*
X147844463Y-92775506D01*
X147785498Y-92885820D01*
X147749188Y-93005518D01*
X147736928Y-93130000D01*
X144170000Y-93130000D01*
X144170000Y-86672495D01*
X147875000Y-86672495D01*
X147875000Y-87063505D01*
X147951282Y-87447003D01*
X148100915Y-87808250D01*
X148318149Y-88133364D01*
X148594636Y-88409851D01*
X148919750Y-88627085D01*
X149280997Y-88776718D01*
X149664495Y-88853000D01*
X150055505Y-88853000D01*
X150439003Y-88776718D01*
X150800250Y-88627085D01*
X151125364Y-88409851D01*
X151401851Y-88133364D01*
X151619085Y-87808250D01*
X151768718Y-87447003D01*
X151845000Y-87063505D01*
X151845000Y-86672495D01*
X151768718Y-86288997D01*
X151619085Y-85927750D01*
X151401851Y-85602636D01*
X151125364Y-85326149D01*
X150800250Y-85108915D01*
X150439003Y-84959282D01*
X150055505Y-84883000D01*
X149664495Y-84883000D01*
X149280997Y-84959282D01*
X148919750Y-85108915D01*
X148594636Y-85326149D01*
X148318149Y-85602636D01*
X148100915Y-85927750D01*
X147951282Y-86288997D01*
X147875000Y-86672495D01*
X144170000Y-86672495D01*
X144170000Y-84480000D01*
X175743001Y-84480000D01*
X175743000Y-109830000D01*
G37*
X175743000Y-109830000D02*
X144170000Y-109830000D01*
X144170000Y-106230495D01*
X170735000Y-106230495D01*
X170735000Y-106621505D01*
X170811282Y-107005003D01*
X170960915Y-107366250D01*
X171178149Y-107691364D01*
X171454636Y-107967851D01*
X171779750Y-108185085D01*
X172140997Y-108334718D01*
X172524495Y-108411000D01*
X172915505Y-108411000D01*
X173299003Y-108334718D01*
X173660250Y-108185085D01*
X173985364Y-107967851D01*
X174261851Y-107691364D01*
X174479085Y-107366250D01*
X174628718Y-107005003D01*
X174705000Y-106621505D01*
X174705000Y-106230495D01*
X174628718Y-105846997D01*
X174479085Y-105485750D01*
X174261851Y-105160636D01*
X173985364Y-104884149D01*
X173660250Y-104666915D01*
X173299003Y-104517282D01*
X172915505Y-104441000D01*
X172524495Y-104441000D01*
X172140997Y-104517282D01*
X171779750Y-104666915D01*
X171454636Y-104884149D01*
X171178149Y-105160636D01*
X170960915Y-105485750D01*
X170811282Y-105846997D01*
X170735000Y-106230495D01*
X144170000Y-106230495D01*
X144170000Y-101453740D01*
X147740000Y-101453740D01*
X147740000Y-101746260D01*
X147797068Y-102033158D01*
X147909010Y-102303411D01*
X148071525Y-102546632D01*
X148278368Y-102753475D01*
X148452760Y-102870000D01*
X148278368Y-102986525D01*
X148071525Y-103193368D01*
X147909010Y-103436589D01*
X147797068Y-103706842D01*
X147740000Y-103993740D01*
X147740000Y-104286260D01*
X147797068Y-104573158D01*
X147909010Y-104843411D01*
X148071525Y-105086632D01*
X148278368Y-105293475D01*
X148521589Y-105455990D01*
X148791842Y-105567932D01*
X149078740Y-105625000D01*
X149371260Y-105625000D01*
X149658158Y-105567932D01*
X149928411Y-105455990D01*
X150171632Y-105293475D01*
X150378475Y-105086632D01*
X150540990Y-104843411D01*
X150652932Y-104573158D01*
X150710000Y-104286260D01*
X150710000Y-103993740D01*
X150652932Y-103706842D01*
X150540990Y-103436589D01*
X150378475Y-103193368D01*
X150171632Y-102986525D01*
X149997240Y-102870000D01*
X150171632Y-102753475D01*
X150378475Y-102546632D01*
X150540990Y-102303411D01*
X150652932Y-102033158D01*
X150710000Y-101746260D01*
X150710000Y-101453740D01*
X150652932Y-101166842D01*
X150540990Y-100896589D01*
X150378475Y-100653368D01*
X150171632Y-100446525D01*
X149989466Y-100324805D01*
X150106355Y-100255178D01*
X150322588Y-100060269D01*
X150496641Y-99826920D01*
X150621825Y-99564099D01*
X150666476Y-99416890D01*
X150545155Y-99187000D01*
X149352000Y-99187000D01*
X149352000Y-99207000D01*
X149098000Y-99207000D01*
X149098000Y-99187000D01*
X147904845Y-99187000D01*
X147783524Y-99416890D01*
X147828175Y-99564099D01*
X147953359Y-99826920D01*
X148127412Y-100060269D01*
X148343645Y-100255178D01*
X148460534Y-100324805D01*
X148278368Y-100446525D01*
X148071525Y-100653368D01*
X147909010Y-100896589D01*
X147797068Y-101166842D01*
X147740000Y-101453740D01*
X144170000Y-101453740D01*
X144170000Y-93130000D01*
X147736928Y-93130000D01*
X147736928Y-94830000D01*
X147749188Y-94954482D01*
X147785498Y-95074180D01*
X147844463Y-95184494D01*
X147923815Y-95281185D01*
X148020506Y-95360537D01*
X148130820Y-95419502D01*
X148203380Y-95441513D01*
X148071525Y-95573368D01*
X147909010Y-95816589D01*
X147797068Y-96086842D01*
X147740000Y-96373740D01*
X147740000Y-96666260D01*
X147797068Y-96953158D01*
X147909010Y-97223411D01*
X148071525Y-97466632D01*
X148278368Y-97673475D01*
X148460534Y-97795195D01*
X148343645Y-97864822D01*
X148127412Y-98059731D01*
X147953359Y-98293080D01*
X147828175Y-98555901D01*
X147783524Y-98703110D01*
X147904845Y-98933000D01*
X149098000Y-98933000D01*
X149098000Y-98913000D01*
X149352000Y-98913000D01*
X149352000Y-98933000D01*
X150545155Y-98933000D01*
X150666476Y-98703110D01*
X150621825Y-98555901D01*
X150496641Y-98293080D01*
X150322588Y-98059731D01*
X150106355Y-97864822D01*
X149989466Y-97795195D01*
X150171632Y-97673475D01*
X150378475Y-97466632D01*
X150540990Y-97223411D01*
X150652932Y-96953158D01*
X150663705Y-96899000D01*
X151696289Y-96899000D01*
X151740226Y-96942937D01*
X151909744Y-97056205D01*
X152098102Y-97134226D01*
X152298061Y-97174000D01*
X152501939Y-97174000D01*
X152701898Y-97134226D01*
X152890256Y-97056205D01*
X152894961Y-97053061D01*
X155810000Y-97053061D01*
X155810000Y-97256939D01*
X155849774Y-97456898D01*
X155927795Y-97645256D01*
X156041063Y-97814774D01*
X156185226Y-97958937D01*
X156354744Y-98072205D01*
X156543102Y-98150226D01*
X156743061Y-98190000D01*
X156946939Y-98190000D01*
X157146898Y-98150226D01*
X157335256Y-98072205D01*
X157504774Y-97958937D01*
X157648937Y-97814774D01*
X157762205Y-97645256D01*
X157840226Y-97456898D01*
X157880000Y-97256939D01*
X157880000Y-97194801D01*
X158372003Y-96702799D01*
X158401001Y-96679001D01*
X158441826Y-96629256D01*
X158495974Y-96563277D01*
X158566546Y-96431247D01*
X158583990Y-96373740D01*
X158610003Y-96287986D01*
X158621000Y-96176333D01*
X158621000Y-96176323D01*
X158624676Y-96139000D01*
X158621000Y-96101678D01*
X158621000Y-91127711D01*
X158664937Y-91083774D01*
X158778205Y-90914256D01*
X158856226Y-90725898D01*
X158896000Y-90525939D01*
X158896000Y-90322061D01*
X158856226Y-90122102D01*
X158778205Y-89933744D01*
X158664937Y-89764226D01*
X158520774Y-89620063D01*
X158351256Y-89506795D01*
X158162898Y-89428774D01*
X157962939Y-89389000D01*
X157759061Y-89389000D01*
X157559102Y-89428774D01*
X157370744Y-89506795D01*
X157201226Y-89620063D01*
X157057063Y-89764226D01*
X156943795Y-89933744D01*
X156865774Y-90122102D01*
X156826000Y-90322061D01*
X156826000Y-90525939D01*
X156865774Y-90725898D01*
X156943795Y-90914256D01*
X157057063Y-91083774D01*
X157101000Y-91127711D01*
X157101001Y-95824197D01*
X156805199Y-96120000D01*
X156743061Y-96120000D01*
X156543102Y-96159774D01*
X156354744Y-96237795D01*
X156185226Y-96351063D01*
X156041063Y-96495226D01*
X155927795Y-96664744D01*
X155849774Y-96853102D01*
X155810000Y-97053061D01*
X152894961Y-97053061D01*
X153059774Y-96942937D01*
X153203937Y-96798774D01*
X153317205Y-96629256D01*
X153395226Y-96440898D01*
X153435000Y-96240939D01*
X153435000Y-96037061D01*
X153395226Y-95837102D01*
X153317205Y-95648744D01*
X153203937Y-95479226D01*
X153059774Y-95335063D01*
X152890256Y-95221795D01*
X152701898Y-95143774D01*
X152501939Y-95104000D01*
X152298061Y-95104000D01*
X152098102Y-95143774D01*
X151909744Y-95221795D01*
X151740226Y-95335063D01*
X151696289Y-95379000D01*
X150394953Y-95379000D01*
X150429494Y-95360537D01*
X150526185Y-95281185D01*
X150605537Y-95184494D01*
X150664502Y-95074180D01*
X150700812Y-94954482D01*
X150713072Y-94830000D01*
X150713072Y-93130000D01*
X150700812Y-93005518D01*
X150664502Y-92885820D01*
X150605537Y-92775506D01*
X150526185Y-92678815D01*
X150429494Y-92599463D01*
X150319180Y-92540498D01*
X150199482Y-92504188D01*
X150075000Y-92491928D01*
X148375000Y-92491928D01*
X148250518Y-92504188D01*
X148130820Y-92540498D01*
X148020506Y-92599463D01*
X147923815Y-92678815D01*
X147844463Y-92775506D01*
X147785498Y-92885820D01*
X147749188Y-93005518D01*
X147736928Y-93130000D01*
X144170000Y-93130000D01*
X144170000Y-86672495D01*
X147875000Y-86672495D01*
X147875000Y-87063505D01*
X147951282Y-87447003D01*
X148100915Y-87808250D01*
X148318149Y-88133364D01*
X148594636Y-88409851D01*
X148919750Y-88627085D01*
X149280997Y-88776718D01*
X149664495Y-88853000D01*
X150055505Y-88853000D01*
X150439003Y-88776718D01*
X150800250Y-88627085D01*
X151125364Y-88409851D01*
X151401851Y-88133364D01*
X151619085Y-87808250D01*
X151768718Y-87447003D01*
X151845000Y-87063505D01*
X151845000Y-86672495D01*
X151768718Y-86288997D01*
X151619085Y-85927750D01*
X151401851Y-85602636D01*
X151125364Y-85326149D01*
X150800250Y-85108915D01*
X150439003Y-84959282D01*
X150055505Y-84883000D01*
X149664495Y-84883000D01*
X149280997Y-84959282D01*
X148919750Y-85108915D01*
X148594636Y-85326149D01*
X148318149Y-85602636D01*
X148100915Y-85927750D01*
X147951282Y-86288997D01*
X147875000Y-86672495D01*
X144170000Y-86672495D01*
X144170000Y-84480000D01*
X175743001Y-84480000D01*
X175743000Y-109830000D01*
%TD*%
M02*
