%TF.GenerationSoftware,KiCad,Pcbnew,5.1.6-c6e7f7d~87~ubuntu18.04.1*%
%TF.CreationDate,2021-12-13T20:47:23-08:00*%
%TF.ProjectId,non-contact-voltage-sensor,6e6f6e2d-636f-46e7-9461-63742d766f6c,rev?*%
%TF.SameCoordinates,Original*%
%TF.FileFunction,Soldermask,Top*%
%TF.FilePolarity,Negative*%
%FSLAX46Y46*%
G04 Gerber Fmt 4.6, Leading zero omitted, Abs format (unit mm)*
G04 Created by KiCad (PCBNEW 5.1.6-c6e7f7d~87~ubuntu18.04.1) date 2021-12-13 20:47:23*
%MOMM*%
%LPD*%
G01*
G04 APERTURE LIST*
%ADD10C,0.150000*%
%ADD11R,1.600000X1.600000*%
%ADD12O,1.800000X1.800000*%
%ADD13R,1.800000X1.800000*%
%ADD14R,1.700000X2.300000*%
%ADD15R,0.900000X0.900000*%
%ADD16R,1.440000X0.740000*%
%ADD17R,0.740000X1.440000*%
%ADD18C,2.800000*%
G04 APERTURE END LIST*
D10*
X166841967Y-86177380D02*
X166270538Y-86177380D01*
X166556252Y-86177380D02*
X166681252Y-85177380D01*
X166568157Y-85320238D01*
X166461014Y-85415476D01*
X166359824Y-85463095D01*
X167336014Y-85272619D02*
X167389586Y-85225000D01*
X167490776Y-85177380D01*
X167728872Y-85177380D01*
X167818157Y-85225000D01*
X167859824Y-85272619D01*
X167895538Y-85367857D01*
X167883633Y-85463095D01*
X167818157Y-85605952D01*
X167175300Y-86177380D01*
X167794348Y-86177380D01*
X169068157Y-85129761D02*
X168050300Y-86415476D01*
X169318157Y-86177380D02*
X169508633Y-86177380D01*
X169609824Y-86129761D01*
X169663395Y-86082142D01*
X169776491Y-85939285D01*
X169847919Y-85748809D01*
X169895538Y-85367857D01*
X169859824Y-85272619D01*
X169818157Y-85225000D01*
X169728872Y-85177380D01*
X169538395Y-85177380D01*
X169437205Y-85225000D01*
X169383633Y-85272619D01*
X169324110Y-85367857D01*
X169294348Y-85605952D01*
X169330062Y-85701190D01*
X169371729Y-85748809D01*
X169461014Y-85796428D01*
X169651491Y-85796428D01*
X169752681Y-85748809D01*
X169806252Y-85701190D01*
X169865776Y-85605952D01*
X171068157Y-85129761D02*
X170050300Y-86415476D01*
X171336014Y-85272619D02*
X171389586Y-85225000D01*
X171490776Y-85177380D01*
X171728872Y-85177380D01*
X171818157Y-85225000D01*
X171859824Y-85272619D01*
X171895538Y-85367857D01*
X171883633Y-85463095D01*
X171818157Y-85605952D01*
X171175300Y-86177380D01*
X171794348Y-86177380D01*
X172538395Y-85177380D02*
X172633633Y-85177380D01*
X172722919Y-85225000D01*
X172764586Y-85272619D01*
X172800300Y-85367857D01*
X172824110Y-85558333D01*
X172794348Y-85796428D01*
X172722919Y-85986904D01*
X172663395Y-86082142D01*
X172609824Y-86129761D01*
X172508633Y-86177380D01*
X172413395Y-86177380D01*
X172324110Y-86129761D01*
X172282443Y-86082142D01*
X172246729Y-85986904D01*
X172222919Y-85796428D01*
X172252681Y-85558333D01*
X172324110Y-85367857D01*
X172383633Y-85272619D01*
X172437205Y-85225000D01*
X172538395Y-85177380D01*
X173240776Y-85272619D02*
X173294348Y-85225000D01*
X173395538Y-85177380D01*
X173633633Y-85177380D01*
X173722919Y-85225000D01*
X173764586Y-85272619D01*
X173800300Y-85367857D01*
X173788395Y-85463095D01*
X173722919Y-85605952D01*
X173080062Y-86177380D01*
X173699110Y-86177380D01*
X174651491Y-86177380D02*
X174080062Y-86177380D01*
X174365776Y-86177380D02*
X174490776Y-85177380D01*
X174377681Y-85320238D01*
X174270538Y-85415476D01*
X174169348Y-85463095D01*
D11*
%TO.C,SW1*%
X155739000Y-88138000D03*
X163539000Y-88138000D03*
%TD*%
D12*
%TO.C,J1*%
X149225000Y-104140000D03*
X149225000Y-101600000D03*
X149225000Y-99060000D03*
X149225000Y-96520000D03*
D13*
X149225000Y-93980000D03*
%TD*%
D14*
%TO.C,C1*%
X153670000Y-104497000D03*
X153670000Y-101497000D03*
%TD*%
D15*
%TO.C,D1*%
X165735000Y-99072000D03*
X165735000Y-100572000D03*
%TD*%
D16*
%TO.C,Q5*%
X153585200Y-96128800D03*
X153585200Y-98028800D03*
X155685200Y-97078800D03*
%TD*%
D17*
%TO.C,Q4*%
X166685000Y-95089000D03*
X164785000Y-95089000D03*
X165735000Y-97189000D03*
%TD*%
D16*
%TO.C,Q3*%
X165701000Y-102428000D03*
X165701000Y-104328000D03*
X167801000Y-103378000D03*
%TD*%
%TO.C,Q2*%
X161476000Y-102428000D03*
X161476000Y-104328000D03*
X163576000Y-103378000D03*
%TD*%
%TO.C,Q1*%
X156811000Y-102428000D03*
X156811000Y-104328000D03*
X158911000Y-103378000D03*
%TD*%
%TO.C,R5*%
G36*
G01*
X160904200Y-94439050D02*
X160904200Y-93876550D01*
G75*
G02*
X161147950Y-93632800I243750J0D01*
G01*
X161635450Y-93632800D01*
G75*
G02*
X161879200Y-93876550I0J-243750D01*
G01*
X161879200Y-94439050D01*
G75*
G02*
X161635450Y-94682800I-243750J0D01*
G01*
X161147950Y-94682800D01*
G75*
G02*
X160904200Y-94439050I0J243750D01*
G01*
G37*
G36*
G01*
X159329200Y-94439050D02*
X159329200Y-93876550D01*
G75*
G02*
X159572950Y-93632800I243750J0D01*
G01*
X160060450Y-93632800D01*
G75*
G02*
X160304200Y-93876550I0J-243750D01*
G01*
X160304200Y-94439050D01*
G75*
G02*
X160060450Y-94682800I-243750J0D01*
G01*
X159572950Y-94682800D01*
G75*
G02*
X159329200Y-94439050I0J243750D01*
G01*
G37*
%TD*%
%TO.C,R4*%
G36*
G01*
X160878700Y-96090050D02*
X160878700Y-95527550D01*
G75*
G02*
X161122450Y-95283800I243750J0D01*
G01*
X161609950Y-95283800D01*
G75*
G02*
X161853700Y-95527550I0J-243750D01*
G01*
X161853700Y-96090050D01*
G75*
G02*
X161609950Y-96333800I-243750J0D01*
G01*
X161122450Y-96333800D01*
G75*
G02*
X160878700Y-96090050I0J243750D01*
G01*
G37*
G36*
G01*
X159303700Y-96090050D02*
X159303700Y-95527550D01*
G75*
G02*
X159547450Y-95283800I243750J0D01*
G01*
X160034950Y-95283800D01*
G75*
G02*
X160278700Y-95527550I0J-243750D01*
G01*
X160278700Y-96090050D01*
G75*
G02*
X160034950Y-96333800I-243750J0D01*
G01*
X159547450Y-96333800D01*
G75*
G02*
X159303700Y-96090050I0J243750D01*
G01*
G37*
%TD*%
%TO.C,R3*%
G36*
G01*
X160904200Y-97614050D02*
X160904200Y-97051550D01*
G75*
G02*
X161147950Y-96807800I243750J0D01*
G01*
X161635450Y-96807800D01*
G75*
G02*
X161879200Y-97051550I0J-243750D01*
G01*
X161879200Y-97614050D01*
G75*
G02*
X161635450Y-97857800I-243750J0D01*
G01*
X161147950Y-97857800D01*
G75*
G02*
X160904200Y-97614050I0J243750D01*
G01*
G37*
G36*
G01*
X159329200Y-97614050D02*
X159329200Y-97051550D01*
G75*
G02*
X159572950Y-96807800I243750J0D01*
G01*
X160060450Y-96807800D01*
G75*
G02*
X160304200Y-97051550I0J-243750D01*
G01*
X160304200Y-97614050D01*
G75*
G02*
X160060450Y-97857800I-243750J0D01*
G01*
X159572950Y-97857800D01*
G75*
G02*
X159329200Y-97614050I0J243750D01*
G01*
G37*
%TD*%
%TO.C,R2*%
G36*
G01*
X160955000Y-100865250D02*
X160955000Y-100302750D01*
G75*
G02*
X161198750Y-100059000I243750J0D01*
G01*
X161686250Y-100059000D01*
G75*
G02*
X161930000Y-100302750I0J-243750D01*
G01*
X161930000Y-100865250D01*
G75*
G02*
X161686250Y-101109000I-243750J0D01*
G01*
X161198750Y-101109000D01*
G75*
G02*
X160955000Y-100865250I0J243750D01*
G01*
G37*
G36*
G01*
X159380000Y-100865250D02*
X159380000Y-100302750D01*
G75*
G02*
X159623750Y-100059000I243750J0D01*
G01*
X160111250Y-100059000D01*
G75*
G02*
X160355000Y-100302750I0J-243750D01*
G01*
X160355000Y-100865250D01*
G75*
G02*
X160111250Y-101109000I-243750J0D01*
G01*
X159623750Y-101109000D01*
G75*
G02*
X159380000Y-100865250I0J243750D01*
G01*
G37*
%TD*%
%TO.C,R1*%
G36*
G01*
X157180000Y-100302750D02*
X157180000Y-100865250D01*
G75*
G02*
X156936250Y-101109000I-243750J0D01*
G01*
X156448750Y-101109000D01*
G75*
G02*
X156205000Y-100865250I0J243750D01*
G01*
X156205000Y-100302750D01*
G75*
G02*
X156448750Y-100059000I243750J0D01*
G01*
X156936250Y-100059000D01*
G75*
G02*
X157180000Y-100302750I0J-243750D01*
G01*
G37*
G36*
G01*
X158755000Y-100302750D02*
X158755000Y-100865250D01*
G75*
G02*
X158511250Y-101109000I-243750J0D01*
G01*
X158023750Y-101109000D01*
G75*
G02*
X157780000Y-100865250I0J243750D01*
G01*
X157780000Y-100302750D01*
G75*
G02*
X158023750Y-100059000I243750J0D01*
G01*
X158511250Y-100059000D01*
G75*
G02*
X158755000Y-100302750I0J-243750D01*
G01*
G37*
%TD*%
%TO.C,C2*%
G36*
G01*
X154081200Y-94003550D02*
X154081200Y-94566050D01*
G75*
G02*
X153837450Y-94809800I-243750J0D01*
G01*
X153349950Y-94809800D01*
G75*
G02*
X153106200Y-94566050I0J243750D01*
G01*
X153106200Y-94003550D01*
G75*
G02*
X153349950Y-93759800I243750J0D01*
G01*
X153837450Y-93759800D01*
G75*
G02*
X154081200Y-94003550I0J-243750D01*
G01*
G37*
G36*
G01*
X155656200Y-94003550D02*
X155656200Y-94566050D01*
G75*
G02*
X155412450Y-94809800I-243750J0D01*
G01*
X154924950Y-94809800D01*
G75*
G02*
X154681200Y-94566050I0J243750D01*
G01*
X154681200Y-94003550D01*
G75*
G02*
X154924950Y-93759800I243750J0D01*
G01*
X155412450Y-93759800D01*
G75*
G02*
X155656200Y-94003550I0J-243750D01*
G01*
G37*
%TD*%
D18*
%TO.C,H2*%
X172720000Y-106426000D03*
%TD*%
%TO.C,H1*%
X149860000Y-86868000D03*
%TD*%
M02*
