%TF.GenerationSoftware,KiCad,Pcbnew,5.1.6-c6e7f7d~87~ubuntu18.04.1*%
%TF.CreationDate,2021-12-22T00:40:55-08:00*%
%TF.ProjectId,non-contact-voltage-sensor,6e6f6e2d-636f-46e7-9461-63742d766f6c,rev?*%
%TF.SameCoordinates,Original*%
%TF.FileFunction,Paste,Top*%
%TF.FilePolarity,Positive*%
%FSLAX46Y46*%
G04 Gerber Fmt 4.6, Leading zero omitted, Abs format (unit mm)*
G04 Created by KiCad (PCBNEW 5.1.6-c6e7f7d~87~ubuntu18.04.1) date 2021-12-22 00:40:55*
%MOMM*%
%LPD*%
G01*
G04 APERTURE LIST*
%ADD10R,1.500000X1.500000*%
%ADD11R,1.600000X2.200000*%
%ADD12R,0.800000X0.800000*%
%ADD13R,1.300000X0.600000*%
%ADD14R,0.600000X1.300000*%
G04 APERTURE END LIST*
D10*
%TO.C,SW1*%
X155739000Y-88138000D03*
X163539000Y-88138000D03*
%TD*%
D11*
%TO.C,C1*%
X153670000Y-104497000D03*
X153670000Y-101497000D03*
%TD*%
D12*
%TO.C,D1*%
X165735000Y-99072000D03*
X165735000Y-100572000D03*
%TD*%
D13*
%TO.C,Q5*%
X153585200Y-96128800D03*
X153585200Y-98028800D03*
X155685200Y-97078800D03*
%TD*%
D14*
%TO.C,Q4*%
X166685000Y-95089000D03*
X164785000Y-95089000D03*
X165735000Y-97189000D03*
%TD*%
D13*
%TO.C,Q3*%
X165701000Y-102428000D03*
X165701000Y-104328000D03*
X167801000Y-103378000D03*
%TD*%
%TO.C,Q2*%
X161476000Y-102428000D03*
X161476000Y-104328000D03*
X163576000Y-103378000D03*
%TD*%
%TO.C,Q1*%
X156811000Y-102428000D03*
X156811000Y-104328000D03*
X158911000Y-103378000D03*
%TD*%
%TO.C,R5*%
G36*
G01*
X160954200Y-94414050D02*
X160954200Y-93901550D01*
G75*
G02*
X161172950Y-93682800I218750J0D01*
G01*
X161610450Y-93682800D01*
G75*
G02*
X161829200Y-93901550I0J-218750D01*
G01*
X161829200Y-94414050D01*
G75*
G02*
X161610450Y-94632800I-218750J0D01*
G01*
X161172950Y-94632800D01*
G75*
G02*
X160954200Y-94414050I0J218750D01*
G01*
G37*
G36*
G01*
X159379200Y-94414050D02*
X159379200Y-93901550D01*
G75*
G02*
X159597950Y-93682800I218750J0D01*
G01*
X160035450Y-93682800D01*
G75*
G02*
X160254200Y-93901550I0J-218750D01*
G01*
X160254200Y-94414050D01*
G75*
G02*
X160035450Y-94632800I-218750J0D01*
G01*
X159597950Y-94632800D01*
G75*
G02*
X159379200Y-94414050I0J218750D01*
G01*
G37*
%TD*%
%TO.C,R4*%
G36*
G01*
X160928700Y-96065050D02*
X160928700Y-95552550D01*
G75*
G02*
X161147450Y-95333800I218750J0D01*
G01*
X161584950Y-95333800D01*
G75*
G02*
X161803700Y-95552550I0J-218750D01*
G01*
X161803700Y-96065050D01*
G75*
G02*
X161584950Y-96283800I-218750J0D01*
G01*
X161147450Y-96283800D01*
G75*
G02*
X160928700Y-96065050I0J218750D01*
G01*
G37*
G36*
G01*
X159353700Y-96065050D02*
X159353700Y-95552550D01*
G75*
G02*
X159572450Y-95333800I218750J0D01*
G01*
X160009950Y-95333800D01*
G75*
G02*
X160228700Y-95552550I0J-218750D01*
G01*
X160228700Y-96065050D01*
G75*
G02*
X160009950Y-96283800I-218750J0D01*
G01*
X159572450Y-96283800D01*
G75*
G02*
X159353700Y-96065050I0J218750D01*
G01*
G37*
%TD*%
%TO.C,R3*%
G36*
G01*
X160954200Y-97589050D02*
X160954200Y-97076550D01*
G75*
G02*
X161172950Y-96857800I218750J0D01*
G01*
X161610450Y-96857800D01*
G75*
G02*
X161829200Y-97076550I0J-218750D01*
G01*
X161829200Y-97589050D01*
G75*
G02*
X161610450Y-97807800I-218750J0D01*
G01*
X161172950Y-97807800D01*
G75*
G02*
X160954200Y-97589050I0J218750D01*
G01*
G37*
G36*
G01*
X159379200Y-97589050D02*
X159379200Y-97076550D01*
G75*
G02*
X159597950Y-96857800I218750J0D01*
G01*
X160035450Y-96857800D01*
G75*
G02*
X160254200Y-97076550I0J-218750D01*
G01*
X160254200Y-97589050D01*
G75*
G02*
X160035450Y-97807800I-218750J0D01*
G01*
X159597950Y-97807800D01*
G75*
G02*
X159379200Y-97589050I0J218750D01*
G01*
G37*
%TD*%
%TO.C,R2*%
G36*
G01*
X161005000Y-100840250D02*
X161005000Y-100327750D01*
G75*
G02*
X161223750Y-100109000I218750J0D01*
G01*
X161661250Y-100109000D01*
G75*
G02*
X161880000Y-100327750I0J-218750D01*
G01*
X161880000Y-100840250D01*
G75*
G02*
X161661250Y-101059000I-218750J0D01*
G01*
X161223750Y-101059000D01*
G75*
G02*
X161005000Y-100840250I0J218750D01*
G01*
G37*
G36*
G01*
X159430000Y-100840250D02*
X159430000Y-100327750D01*
G75*
G02*
X159648750Y-100109000I218750J0D01*
G01*
X160086250Y-100109000D01*
G75*
G02*
X160305000Y-100327750I0J-218750D01*
G01*
X160305000Y-100840250D01*
G75*
G02*
X160086250Y-101059000I-218750J0D01*
G01*
X159648750Y-101059000D01*
G75*
G02*
X159430000Y-100840250I0J218750D01*
G01*
G37*
%TD*%
%TO.C,R1*%
G36*
G01*
X157130000Y-100327750D02*
X157130000Y-100840250D01*
G75*
G02*
X156911250Y-101059000I-218750J0D01*
G01*
X156473750Y-101059000D01*
G75*
G02*
X156255000Y-100840250I0J218750D01*
G01*
X156255000Y-100327750D01*
G75*
G02*
X156473750Y-100109000I218750J0D01*
G01*
X156911250Y-100109000D01*
G75*
G02*
X157130000Y-100327750I0J-218750D01*
G01*
G37*
G36*
G01*
X158705000Y-100327750D02*
X158705000Y-100840250D01*
G75*
G02*
X158486250Y-101059000I-218750J0D01*
G01*
X158048750Y-101059000D01*
G75*
G02*
X157830000Y-100840250I0J218750D01*
G01*
X157830000Y-100327750D01*
G75*
G02*
X158048750Y-100109000I218750J0D01*
G01*
X158486250Y-100109000D01*
G75*
G02*
X158705000Y-100327750I0J-218750D01*
G01*
G37*
%TD*%
%TO.C,C2*%
G36*
G01*
X154031200Y-94028550D02*
X154031200Y-94541050D01*
G75*
G02*
X153812450Y-94759800I-218750J0D01*
G01*
X153374950Y-94759800D01*
G75*
G02*
X153156200Y-94541050I0J218750D01*
G01*
X153156200Y-94028550D01*
G75*
G02*
X153374950Y-93809800I218750J0D01*
G01*
X153812450Y-93809800D01*
G75*
G02*
X154031200Y-94028550I0J-218750D01*
G01*
G37*
G36*
G01*
X155606200Y-94028550D02*
X155606200Y-94541050D01*
G75*
G02*
X155387450Y-94759800I-218750J0D01*
G01*
X154949950Y-94759800D01*
G75*
G02*
X154731200Y-94541050I0J218750D01*
G01*
X154731200Y-94028550D01*
G75*
G02*
X154949950Y-93809800I218750J0D01*
G01*
X155387450Y-93809800D01*
G75*
G02*
X155606200Y-94028550I0J-218750D01*
G01*
G37*
%TD*%
M02*
