%TF.GenerationSoftware,KiCad,Pcbnew,5.1.6-c6e7f7d~87~ubuntu18.04.1*%
%TF.CreationDate,2021-12-22T00:50:18-08:00*%
%TF.ProjectId,portable-voltage-regulator,706f7274-6162-46c6-952d-766f6c746167,rev?*%
%TF.SameCoordinates,Original*%
%TF.FileFunction,Soldermask,Bot*%
%TF.FilePolarity,Negative*%
%FSLAX46Y46*%
G04 Gerber Fmt 4.6, Leading zero omitted, Abs format (unit mm)*
G04 Created by KiCad (PCBNEW 5.1.6-c6e7f7d~87~ubuntu18.04.1) date 2021-12-22 00:50:18*
%MOMM*%
%LPD*%
G01*
G04 APERTURE LIST*
%ADD10C,0.150000*%
%ADD11O,2.005000X2.100000*%
%ADD12R,2.005000X2.100000*%
%ADD13O,1.800000X1.800000*%
%ADD14R,1.800000X1.800000*%
%ADD15C,2.800000*%
G04 APERTURE END LIST*
D10*
X148874032Y-108672380D02*
X148963318Y-109386666D01*
X149028794Y-109529523D01*
X149135937Y-109624761D01*
X149284747Y-109672380D01*
X149379985Y-109672380D01*
X148124032Y-109148571D02*
X148457366Y-109148571D01*
X148522842Y-109672380D02*
X148397842Y-108672380D01*
X147921651Y-108672380D01*
X146945461Y-109624761D02*
X146808556Y-109672380D01*
X146570461Y-109672380D01*
X146469270Y-109624761D01*
X146415699Y-109577142D01*
X146356175Y-109481904D01*
X146344270Y-109386666D01*
X146379985Y-109291428D01*
X146421651Y-109243809D01*
X146510937Y-109196190D01*
X146695461Y-109148571D01*
X146784747Y-109100952D01*
X146826413Y-109053333D01*
X146862127Y-108958095D01*
X146850223Y-108862857D01*
X146790699Y-108767619D01*
X146737127Y-108720000D01*
X146635937Y-108672380D01*
X146397842Y-108672380D01*
X146260937Y-108720000D01*
X145522842Y-109672380D02*
X145457366Y-109148571D01*
X145493080Y-109053333D01*
X145582366Y-109005714D01*
X145772842Y-109005714D01*
X145874032Y-109053333D01*
X145516889Y-109624761D02*
X145618080Y-109672380D01*
X145856175Y-109672380D01*
X145945461Y-109624761D01*
X145981175Y-109529523D01*
X145969270Y-109434285D01*
X145909747Y-109339047D01*
X145808556Y-109291428D01*
X145570461Y-109291428D01*
X145469270Y-109243809D01*
X145046651Y-109672380D02*
X144963318Y-109005714D01*
X144987127Y-109196190D02*
X144927604Y-109100952D01*
X144874032Y-109053333D01*
X144772842Y-109005714D01*
X144677604Y-109005714D01*
X143999032Y-109672380D02*
X143933556Y-109148571D01*
X143969270Y-109053333D01*
X144058556Y-109005714D01*
X144249032Y-109005714D01*
X144350223Y-109053333D01*
X143993080Y-109624761D02*
X144094270Y-109672380D01*
X144332366Y-109672380D01*
X144421651Y-109624761D01*
X144457366Y-109529523D01*
X144445461Y-109434285D01*
X144385937Y-109339047D01*
X144284747Y-109291428D01*
X144046651Y-109291428D01*
X143945461Y-109243809D01*
X143088318Y-109624761D02*
X143189508Y-109672380D01*
X143379985Y-109672380D01*
X143469270Y-109624761D01*
X143510937Y-109577142D01*
X143546651Y-109481904D01*
X143510937Y-109196190D01*
X143451413Y-109100952D01*
X143397842Y-109053333D01*
X143296651Y-109005714D01*
X143106175Y-109005714D01*
X143016889Y-109053333D01*
X142278794Y-109624761D02*
X142379985Y-109672380D01*
X142570461Y-109672380D01*
X142659747Y-109624761D01*
X142695461Y-109529523D01*
X142647842Y-109148571D01*
X142588318Y-109053333D01*
X142487127Y-109005714D01*
X142296651Y-109005714D01*
X142207366Y-109053333D01*
X142171651Y-109148571D01*
X142183556Y-109243809D01*
X142671651Y-109339047D01*
X141725223Y-109005714D02*
X141808556Y-109672380D01*
X141737127Y-109100952D02*
X141683556Y-109053333D01*
X141582366Y-109005714D01*
X141439508Y-109005714D01*
X141350223Y-109053333D01*
X141314508Y-109148571D01*
X141379985Y-109672380D01*
X140760937Y-109672380D02*
X140850223Y-109624761D01*
X140891889Y-109577142D01*
X140927604Y-109481904D01*
X140891889Y-109196190D01*
X140832366Y-109100952D01*
X140778794Y-109053333D01*
X140677604Y-109005714D01*
X140534747Y-109005714D01*
X140445461Y-109053333D01*
X140403794Y-109100952D01*
X140368080Y-109196190D01*
X140403794Y-109481904D01*
X140463318Y-109577142D01*
X140516889Y-109624761D01*
X140618080Y-109672380D01*
X140760937Y-109672380D01*
D11*
%TO.C,Q1*%
X153416000Y-104267000D03*
X155956000Y-104267000D03*
D12*
X158496000Y-104267000D03*
%TD*%
D13*
%TO.C,J1*%
X142367000Y-101092000D03*
X142367000Y-98552000D03*
D14*
X142367000Y-96012000D03*
%TD*%
D15*
%TO.C,H1*%
X166878000Y-106426000D03*
%TD*%
%TO.C,H2*%
X143256000Y-87122000D03*
%TD*%
M02*
