M48
; DRILL file {KiCad 5.1.6-c6e7f7d~87~ubuntu18.04.1} date Wed Dec 22 00:28:10 2021
; FORMAT={-:-/ absolute / inch / decimal}
; #@! TF.CreationDate,2021-12-22T00:28:10-08:00
; #@! TF.GenerationSoftware,Kicad,Pcbnew,5.1.6-c6e7f7d~87~ubuntu18.04.1
FMAT,2
INCH
T1C0.0157
T2C0.0394
T3C0.0433
T4C0.1063
%
G90
G05
T1
X5.58Y-3.6
X5.61Y-4.19
X5.68Y-3.68
X5.73Y-4.04
X5.75Y-3.77
X5.76Y-3.85
X5.77Y-4.18
X5.78Y-3.53
X5.835Y-3.66
X5.86Y-3.48
X5.865Y-3.66
X5.88Y-4.21
X5.9Y-3.84
X5.935Y-3.695
X5.94Y-3.4
X5.94Y-3.83
X5.98Y-4.02
X6.02Y-3.49
X6.04Y-3.71
X6.06Y-4.01
X6.07Y-3.66
X6.07Y-3.71
X6.11Y-3.81
X6.12Y-3.43
X6.13Y-3.59
X6.22Y-3.43
X6.26Y-3.7
X6.38Y-4.02
X6.42Y-3.47
X6.49Y-3.77
X6.57Y-4.06
X6.64Y-3.52
X6.65Y-3.69
X6.66Y-3.86
T2
X5.605Y-3.78
X5.605Y-3.88
X5.605Y-3.98
T3
X6.04Y-4.105
X6.14Y-4.105
X6.24Y-4.105
T4
X6.57Y-4.19
X5.64Y-3.43
T0
M30
