%TF.GenerationSoftware,KiCad,Pcbnew,5.1.6-c6e7f7d~87~ubuntu18.04.1*%
%TF.CreationDate,2021-12-22T00:30:34-08:00*%
%TF.ProjectId,portable-voltage-regulator,706f7274-6162-46c6-952d-766f6c746167,rev?*%
%TF.SameCoordinates,Original*%
%TF.FileFunction,Legend,Top*%
%TF.FilePolarity,Positive*%
%FSLAX46Y46*%
G04 Gerber Fmt 4.6, Leading zero omitted, Abs format (unit mm)*
G04 Created by KiCad (PCBNEW 5.1.6-c6e7f7d~87~ubuntu18.04.1) date 2021-12-22 00:30:34*
%MOMM*%
%LPD*%
G01*
G04 APERTURE LIST*
%ADD10C,0.150000*%
%ADD11C,0.190500*%
%ADD12C,0.228600*%
%ADD13C,0.120000*%
G04 APERTURE END LIST*
D10*
X144787904Y-98052000D02*
X144692666Y-98004380D01*
X144549809Y-98004380D01*
X144406952Y-98052000D01*
X144311714Y-98147238D01*
X144264095Y-98242476D01*
X144216476Y-98432952D01*
X144216476Y-98575809D01*
X144264095Y-98766285D01*
X144311714Y-98861523D01*
X144406952Y-98956761D01*
X144549809Y-99004380D01*
X144645047Y-99004380D01*
X144787904Y-98956761D01*
X144835523Y-98909142D01*
X144835523Y-98575809D01*
X144645047Y-98575809D01*
D11*
X141141620Y-105754714D02*
X140706191Y-105754714D01*
X140923905Y-105754714D02*
X141019155Y-104992714D01*
X140932977Y-105101571D01*
X140851334Y-105174142D01*
X140774227Y-105210428D01*
X141708584Y-104992714D02*
X141781155Y-104992714D01*
X141849191Y-105029000D01*
X141880941Y-105065285D01*
X141908155Y-105137857D01*
X141926298Y-105283000D01*
X141903620Y-105464428D01*
X141849191Y-105609571D01*
X141803834Y-105682142D01*
X141763012Y-105718428D01*
X141685905Y-105754714D01*
X141613334Y-105754714D01*
X141545298Y-105718428D01*
X141513548Y-105682142D01*
X141486334Y-105609571D01*
X141468191Y-105464428D01*
X141490870Y-105283000D01*
X141545298Y-105137857D01*
X141590655Y-105065285D01*
X141631477Y-105029000D01*
X141708584Y-104992714D01*
X142434298Y-104992714D02*
X142506870Y-104992714D01*
X142574905Y-105029000D01*
X142606655Y-105065285D01*
X142633870Y-105137857D01*
X142652012Y-105283000D01*
X142629334Y-105464428D01*
X142574905Y-105609571D01*
X142529548Y-105682142D01*
X142488727Y-105718428D01*
X142411620Y-105754714D01*
X142339048Y-105754714D01*
X142271012Y-105718428D01*
X142239262Y-105682142D01*
X142212048Y-105609571D01*
X142193905Y-105464428D01*
X142216584Y-105283000D01*
X142271012Y-105137857D01*
X142316370Y-105065285D01*
X142357191Y-105029000D01*
X142434298Y-104992714D01*
X142919620Y-105754714D02*
X142983120Y-105246714D01*
X142974048Y-105319285D02*
X143014870Y-105283000D01*
X143091977Y-105246714D01*
X143200834Y-105246714D01*
X143268870Y-105283000D01*
X143296084Y-105355571D01*
X143246191Y-105754714D01*
X143296084Y-105355571D02*
X143341441Y-105283000D01*
X143418548Y-105246714D01*
X143527405Y-105246714D01*
X143595441Y-105283000D01*
X143622655Y-105355571D01*
X143572762Y-105754714D01*
X143926548Y-105537000D02*
X144289405Y-105537000D01*
X143826762Y-105754714D02*
X144176012Y-104992714D01*
X144334762Y-105754714D01*
X145169334Y-105754714D02*
X145232834Y-105246714D01*
X145223762Y-105319285D02*
X145264584Y-105283000D01*
X145341691Y-105246714D01*
X145450548Y-105246714D01*
X145518584Y-105283000D01*
X145545798Y-105355571D01*
X145495905Y-105754714D01*
X145545798Y-105355571D02*
X145591155Y-105283000D01*
X145668262Y-105246714D01*
X145777120Y-105246714D01*
X145845155Y-105283000D01*
X145872370Y-105355571D01*
X145822477Y-105754714D01*
X146511905Y-105754714D02*
X146561798Y-105355571D01*
X146534584Y-105283000D01*
X146466548Y-105246714D01*
X146321405Y-105246714D01*
X146244298Y-105283000D01*
X146516441Y-105718428D02*
X146439334Y-105754714D01*
X146257905Y-105754714D01*
X146189870Y-105718428D01*
X146162655Y-105645857D01*
X146171727Y-105573285D01*
X146217084Y-105500714D01*
X146294191Y-105464428D01*
X146475620Y-105464428D01*
X146552727Y-105428142D01*
X146802191Y-105754714D02*
X147264834Y-105246714D01*
X146865691Y-105246714D02*
X147201334Y-105754714D01*
D12*
X141276863Y-108397523D02*
X140672101Y-108397523D01*
X140536030Y-109002285D01*
X140604066Y-108941809D01*
X140732578Y-108881333D01*
X141034958Y-108881333D01*
X141148351Y-108941809D01*
X141201268Y-109002285D01*
X141246625Y-109123238D01*
X141208828Y-109425619D01*
X141133232Y-109546571D01*
X141065197Y-109607047D01*
X140936685Y-109667523D01*
X140634304Y-109667523D01*
X140520911Y-109607047D01*
X140467994Y-109546571D01*
X141700197Y-108397523D02*
X141964780Y-109667523D01*
X142546863Y-108397523D01*
X143779066Y-109667523D02*
X143937816Y-108397523D01*
X144421625Y-108397523D01*
X144535018Y-108458000D01*
X144587935Y-108518476D01*
X144633292Y-108639428D01*
X144610613Y-108820857D01*
X144535018Y-108941809D01*
X144466982Y-109002285D01*
X144338470Y-109062761D01*
X143854661Y-109062761D01*
X145230494Y-109667523D02*
X145117101Y-109607047D01*
X145064185Y-109546571D01*
X145018828Y-109425619D01*
X145064185Y-109062761D01*
X145139780Y-108941809D01*
X145207816Y-108881333D01*
X145336328Y-108820857D01*
X145517756Y-108820857D01*
X145631149Y-108881333D01*
X145684066Y-108941809D01*
X145729423Y-109062761D01*
X145684066Y-109425619D01*
X145608470Y-109546571D01*
X145540435Y-109607047D01*
X145411923Y-109667523D01*
X145230494Y-109667523D01*
X146198113Y-109667523D02*
X146303947Y-108820857D01*
X146273708Y-109062761D02*
X146349304Y-108941809D01*
X146417339Y-108881333D01*
X146545851Y-108820857D01*
X146666804Y-108820857D01*
X146908708Y-108820857D02*
X147392518Y-108820857D01*
X147143054Y-108397523D02*
X147006982Y-109486095D01*
X147052339Y-109607047D01*
X147165732Y-109667523D01*
X147286685Y-109667523D01*
X148254304Y-109667523D02*
X148337458Y-109002285D01*
X148292101Y-108881333D01*
X148178708Y-108820857D01*
X147936804Y-108820857D01*
X147808292Y-108881333D01*
X148261863Y-109607047D02*
X148133351Y-109667523D01*
X147830970Y-109667523D01*
X147717578Y-109607047D01*
X147672220Y-109486095D01*
X147687339Y-109365142D01*
X147762935Y-109244190D01*
X147891447Y-109183714D01*
X148193828Y-109183714D01*
X148322339Y-109123238D01*
X148859066Y-109667523D02*
X149017816Y-108397523D01*
X148957339Y-108881333D02*
X149085851Y-108820857D01*
X149327756Y-108820857D01*
X149441149Y-108881333D01*
X149494066Y-108941809D01*
X149539423Y-109062761D01*
X149494066Y-109425619D01*
X149418470Y-109546571D01*
X149350435Y-109607047D01*
X149221923Y-109667523D01*
X148980018Y-109667523D01*
X148866625Y-109607047D01*
X150189542Y-109667523D02*
X150076149Y-109607047D01*
X150030792Y-109486095D01*
X150166863Y-108397523D01*
X151164720Y-109607047D02*
X151036208Y-109667523D01*
X150794304Y-109667523D01*
X150680911Y-109607047D01*
X150635554Y-109486095D01*
X150696030Y-109002285D01*
X150771625Y-108881333D01*
X150900137Y-108820857D01*
X151142042Y-108820857D01*
X151255435Y-108881333D01*
X151300792Y-109002285D01*
X151285673Y-109123238D01*
X150665792Y-109244190D01*
X152714423Y-108820857D02*
X152910970Y-109667523D01*
X153319185Y-108820857D01*
X153878589Y-109667523D02*
X153765197Y-109607047D01*
X153712280Y-109546571D01*
X153666923Y-109425619D01*
X153712280Y-109062761D01*
X153787875Y-108941809D01*
X153855911Y-108881333D01*
X153984423Y-108820857D01*
X154165851Y-108820857D01*
X154279244Y-108881333D01*
X154332161Y-108941809D01*
X154377518Y-109062761D01*
X154332161Y-109425619D01*
X154256566Y-109546571D01*
X154188530Y-109607047D01*
X154060018Y-109667523D01*
X153878589Y-109667523D01*
X155027637Y-109667523D02*
X154914244Y-109607047D01*
X154868887Y-109486095D01*
X155004958Y-108397523D01*
X155435851Y-108820857D02*
X155919661Y-108820857D01*
X155670197Y-108397523D02*
X155534125Y-109486095D01*
X155579482Y-109607047D01*
X155692875Y-109667523D01*
X155813828Y-109667523D01*
X156781447Y-109667523D02*
X156864601Y-109002285D01*
X156819244Y-108881333D01*
X156705851Y-108820857D01*
X156463947Y-108820857D01*
X156335435Y-108881333D01*
X156789006Y-109607047D02*
X156660494Y-109667523D01*
X156358113Y-109667523D01*
X156244720Y-109607047D01*
X156199363Y-109486095D01*
X156214482Y-109365142D01*
X156290078Y-109244190D01*
X156418589Y-109183714D01*
X156720970Y-109183714D01*
X156849482Y-109123238D01*
X158036328Y-108820857D02*
X157907816Y-109848952D01*
X157832220Y-109969904D01*
X157764185Y-110030380D01*
X157635673Y-110090857D01*
X157454244Y-110090857D01*
X157340851Y-110030380D01*
X157938054Y-109607047D02*
X157809542Y-109667523D01*
X157567637Y-109667523D01*
X157454244Y-109607047D01*
X157401328Y-109546571D01*
X157355970Y-109425619D01*
X157401328Y-109062761D01*
X157476923Y-108941809D01*
X157544958Y-108881333D01*
X157673470Y-108820857D01*
X157915375Y-108820857D01*
X158028768Y-108881333D01*
X159026625Y-109607047D02*
X158898113Y-109667523D01*
X158656208Y-109667523D01*
X158542816Y-109607047D01*
X158497458Y-109486095D01*
X158557935Y-109002285D01*
X158633530Y-108881333D01*
X158762042Y-108820857D01*
X159003947Y-108820857D01*
X159117339Y-108881333D01*
X159162697Y-109002285D01*
X159147578Y-109123238D01*
X158527697Y-109244190D01*
X160591447Y-109667523D02*
X160697280Y-108820857D01*
X160667042Y-109062761D02*
X160742637Y-108941809D01*
X160810673Y-108881333D01*
X160939185Y-108820857D01*
X161060137Y-108820857D01*
X161869006Y-109607047D02*
X161740494Y-109667523D01*
X161498589Y-109667523D01*
X161385197Y-109607047D01*
X161339839Y-109486095D01*
X161400316Y-109002285D01*
X161475911Y-108881333D01*
X161604423Y-108820857D01*
X161846328Y-108820857D01*
X161959720Y-108881333D01*
X162005078Y-109002285D01*
X161989958Y-109123238D01*
X161370078Y-109244190D01*
X163116328Y-108820857D02*
X162987816Y-109848952D01*
X162912220Y-109969904D01*
X162844185Y-110030380D01*
X162715673Y-110090857D01*
X162534244Y-110090857D01*
X162420851Y-110030380D01*
X163018054Y-109607047D02*
X162889542Y-109667523D01*
X162647637Y-109667523D01*
X162534244Y-109607047D01*
X162481328Y-109546571D01*
X162435970Y-109425619D01*
X162481328Y-109062761D01*
X162556923Y-108941809D01*
X162624958Y-108881333D01*
X162753470Y-108820857D01*
X162995375Y-108820857D01*
X163108768Y-108881333D01*
D10*
X141493952Y-93797380D02*
X141684428Y-93797380D01*
X141779666Y-93749761D01*
X141827285Y-93702142D01*
X141922523Y-93559285D01*
X141970142Y-93368809D01*
X141970142Y-92987857D01*
X141922523Y-92892619D01*
X141874904Y-92845000D01*
X141779666Y-92797380D01*
X141589190Y-92797380D01*
X141493952Y-92845000D01*
X141446333Y-92892619D01*
X141398714Y-92987857D01*
X141398714Y-93225952D01*
X141446333Y-93321190D01*
X141493952Y-93368809D01*
X141589190Y-93416428D01*
X141779666Y-93416428D01*
X141874904Y-93368809D01*
X141922523Y-93321190D01*
X141970142Y-93225952D01*
X142255857Y-92797380D02*
X142589190Y-93797380D01*
X142922523Y-92797380D01*
X141470142Y-103338380D02*
X140993952Y-103338380D01*
X140946333Y-103814571D01*
X140993952Y-103766952D01*
X141089190Y-103719333D01*
X141327285Y-103719333D01*
X141422523Y-103766952D01*
X141470142Y-103814571D01*
X141517761Y-103909809D01*
X141517761Y-104147904D01*
X141470142Y-104243142D01*
X141422523Y-104290761D01*
X141327285Y-104338380D01*
X141089190Y-104338380D01*
X140993952Y-104290761D01*
X140946333Y-104243142D01*
X141803476Y-103338380D02*
X142136809Y-104338380D01*
X142470142Y-103338380D01*
X142946333Y-104338380D02*
X142851095Y-104290761D01*
X142803476Y-104243142D01*
X142755857Y-104147904D01*
X142755857Y-103862190D01*
X142803476Y-103766952D01*
X142851095Y-103719333D01*
X142946333Y-103671714D01*
X143089190Y-103671714D01*
X143184428Y-103719333D01*
X143232047Y-103766952D01*
X143279666Y-103862190D01*
X143279666Y-104147904D01*
X143232047Y-104243142D01*
X143184428Y-104290761D01*
X143089190Y-104338380D01*
X142946333Y-104338380D01*
D13*
%TO.C,U2*%
X166263000Y-95377000D02*
X166263000Y-91927000D01*
X166263000Y-95377000D02*
X166263000Y-97327000D01*
X161143000Y-95377000D02*
X161143000Y-93427000D01*
X161143000Y-95377000D02*
X161143000Y-97327000D01*
%TO.C,C2*%
X146348750Y-101960750D02*
X147136250Y-101960750D01*
X146742500Y-102354500D02*
X146742500Y-101567000D01*
X150935563Y-101327000D02*
X152000000Y-100262563D01*
X146244437Y-101327000D02*
X145180000Y-100262563D01*
X146244437Y-101327000D02*
X147530000Y-101327000D01*
X150935563Y-101327000D02*
X149650000Y-101327000D01*
X152000000Y-100262563D02*
X152000000Y-94507000D01*
X145180000Y-100262563D02*
X145180000Y-94507000D01*
X145180000Y-94507000D02*
X147530000Y-94507000D01*
X152000000Y-94507000D02*
X149650000Y-94507000D01*
%TO.C,U1*%
X155448000Y-90338000D02*
X151848000Y-90338000D01*
X155448000Y-90338000D02*
X157648000Y-90338000D01*
X155448000Y-93558000D02*
X153248000Y-93558000D01*
X155448000Y-93558000D02*
X157648000Y-93558000D01*
%TO.C,Q1*%
X154105000Y-107537000D02*
X154105000Y-106027000D01*
X157806000Y-107537000D02*
X157806000Y-106027000D01*
X161076000Y-106027000D02*
X150836000Y-106027000D01*
X150836000Y-107537000D02*
X150836000Y-102896000D01*
X161076000Y-107537000D02*
X161076000Y-102896000D01*
X161076000Y-102896000D02*
X150836000Y-102896000D01*
X161076000Y-107537000D02*
X150836000Y-107537000D01*
%TO.C,J1*%
X142367000Y-94682000D02*
X143697000Y-94682000D01*
X143697000Y-94682000D02*
X143697000Y-96012000D01*
X143697000Y-97282000D02*
X143697000Y-102422000D01*
X141037000Y-102422000D02*
X143697000Y-102422000D01*
X141037000Y-97282000D02*
X141037000Y-102422000D01*
X141037000Y-97282000D02*
X143697000Y-97282000D01*
%TO.C,C4*%
X159637000Y-92928221D02*
X159637000Y-93253779D01*
X160657000Y-92928221D02*
X160657000Y-93253779D01*
%TO.C,C3*%
X150239000Y-92039221D02*
X150239000Y-92364779D01*
X151259000Y-92039221D02*
X151259000Y-92364779D01*
%TO.C,C1*%
X155434000Y-99790000D02*
X155434000Y-95405000D01*
X152414000Y-99790000D02*
X155434000Y-99790000D01*
X152414000Y-95405000D02*
X152414000Y-99790000D01*
%TO.C,R3*%
X163992779Y-99439000D02*
X163667221Y-99439000D01*
X163992779Y-100459000D02*
X163667221Y-100459000D01*
%TO.C,R2*%
X158498000Y-96174779D02*
X158498000Y-95849221D01*
X157478000Y-96174779D02*
X157478000Y-95849221D01*
%TO.C,R1*%
X155954000Y-95849221D02*
X155954000Y-96174779D01*
X156974000Y-95849221D02*
X156974000Y-96174779D01*
%TO.C,U2*%
D10*
X164719095Y-90384380D02*
X164719095Y-91193904D01*
X164766714Y-91289142D01*
X164814333Y-91336761D01*
X164909571Y-91384380D01*
X165100047Y-91384380D01*
X165195285Y-91336761D01*
X165242904Y-91289142D01*
X165290523Y-91193904D01*
X165290523Y-90384380D01*
X165719095Y-90479619D02*
X165766714Y-90432000D01*
X165861952Y-90384380D01*
X166100047Y-90384380D01*
X166195285Y-90432000D01*
X166242904Y-90479619D01*
X166290523Y-90574857D01*
X166290523Y-90670095D01*
X166242904Y-90812952D01*
X165671476Y-91384380D01*
X166290523Y-91384380D01*
%TO.C,C2*%
X145883333Y-93956142D02*
X145835714Y-94003761D01*
X145692857Y-94051380D01*
X145597619Y-94051380D01*
X145454761Y-94003761D01*
X145359523Y-93908523D01*
X145311904Y-93813285D01*
X145264285Y-93622809D01*
X145264285Y-93479952D01*
X145311904Y-93289476D01*
X145359523Y-93194238D01*
X145454761Y-93099000D01*
X145597619Y-93051380D01*
X145692857Y-93051380D01*
X145835714Y-93099000D01*
X145883333Y-93146619D01*
X146264285Y-93146619D02*
X146311904Y-93099000D01*
X146407142Y-93051380D01*
X146645238Y-93051380D01*
X146740476Y-93099000D01*
X146788095Y-93146619D01*
X146835714Y-93241857D01*
X146835714Y-93337095D01*
X146788095Y-93479952D01*
X146216666Y-94051380D01*
X146835714Y-94051380D01*
%TO.C,U1*%
X157734095Y-88860380D02*
X157734095Y-89669904D01*
X157781714Y-89765142D01*
X157829333Y-89812761D01*
X157924571Y-89860380D01*
X158115047Y-89860380D01*
X158210285Y-89812761D01*
X158257904Y-89765142D01*
X158305523Y-89669904D01*
X158305523Y-88860380D01*
X159305523Y-89860380D02*
X158734095Y-89860380D01*
X159019809Y-89860380D02*
X159019809Y-88860380D01*
X158924571Y-89003238D01*
X158829333Y-89098476D01*
X158734095Y-89146095D01*
%TO.C,Q1*%
X159162761Y-102401619D02*
X159067523Y-102354000D01*
X158972285Y-102258761D01*
X158829428Y-102115904D01*
X158734190Y-102068285D01*
X158638952Y-102068285D01*
X158686571Y-102306380D02*
X158591333Y-102258761D01*
X158496095Y-102163523D01*
X158448476Y-101973047D01*
X158448476Y-101639714D01*
X158496095Y-101449238D01*
X158591333Y-101354000D01*
X158686571Y-101306380D01*
X158877047Y-101306380D01*
X158972285Y-101354000D01*
X159067523Y-101449238D01*
X159115142Y-101639714D01*
X159115142Y-101973047D01*
X159067523Y-102163523D01*
X158972285Y-102258761D01*
X158877047Y-102306380D01*
X158686571Y-102306380D01*
X160067523Y-102306380D02*
X159496095Y-102306380D01*
X159781809Y-102306380D02*
X159781809Y-101306380D01*
X159686571Y-101449238D01*
X159591333Y-101544476D01*
X159496095Y-101592095D01*
%TO.C,C4*%
X160107333Y-91289142D02*
X160059714Y-91336761D01*
X159916857Y-91384380D01*
X159821619Y-91384380D01*
X159678761Y-91336761D01*
X159583523Y-91241523D01*
X159535904Y-91146285D01*
X159488285Y-90955809D01*
X159488285Y-90812952D01*
X159535904Y-90622476D01*
X159583523Y-90527238D01*
X159678761Y-90432000D01*
X159821619Y-90384380D01*
X159916857Y-90384380D01*
X160059714Y-90432000D01*
X160107333Y-90479619D01*
X160964476Y-90717714D02*
X160964476Y-91384380D01*
X160726380Y-90336761D02*
X160488285Y-91051047D01*
X161107333Y-91051047D01*
%TO.C,C3*%
X150455333Y-90527142D02*
X150407714Y-90574761D01*
X150264857Y-90622380D01*
X150169619Y-90622380D01*
X150026761Y-90574761D01*
X149931523Y-90479523D01*
X149883904Y-90384285D01*
X149836285Y-90193809D01*
X149836285Y-90050952D01*
X149883904Y-89860476D01*
X149931523Y-89765238D01*
X150026761Y-89670000D01*
X150169619Y-89622380D01*
X150264857Y-89622380D01*
X150407714Y-89670000D01*
X150455333Y-89717619D01*
X150788666Y-89622380D02*
X151407714Y-89622380D01*
X151074380Y-90003333D01*
X151217238Y-90003333D01*
X151312476Y-90050952D01*
X151360095Y-90098571D01*
X151407714Y-90193809D01*
X151407714Y-90431904D01*
X151360095Y-90527142D01*
X151312476Y-90574761D01*
X151217238Y-90622380D01*
X150931523Y-90622380D01*
X150836285Y-90574761D01*
X150788666Y-90527142D01*
%TO.C,C1*%
X153757333Y-100941142D02*
X153709714Y-100988761D01*
X153566857Y-101036380D01*
X153471619Y-101036380D01*
X153328761Y-100988761D01*
X153233523Y-100893523D01*
X153185904Y-100798285D01*
X153138285Y-100607809D01*
X153138285Y-100464952D01*
X153185904Y-100274476D01*
X153233523Y-100179238D01*
X153328761Y-100084000D01*
X153471619Y-100036380D01*
X153566857Y-100036380D01*
X153709714Y-100084000D01*
X153757333Y-100131619D01*
X154709714Y-101036380D02*
X154138285Y-101036380D01*
X154424000Y-101036380D02*
X154424000Y-100036380D01*
X154328761Y-100179238D01*
X154233523Y-100274476D01*
X154138285Y-100322095D01*
%TO.C,R3*%
X166203333Y-100528380D02*
X165870000Y-100052190D01*
X165631904Y-100528380D02*
X165631904Y-99528380D01*
X166012857Y-99528380D01*
X166108095Y-99576000D01*
X166155714Y-99623619D01*
X166203333Y-99718857D01*
X166203333Y-99861714D01*
X166155714Y-99956952D01*
X166108095Y-100004571D01*
X166012857Y-100052190D01*
X165631904Y-100052190D01*
X166536666Y-99528380D02*
X167155714Y-99528380D01*
X166822380Y-99909333D01*
X166965238Y-99909333D01*
X167060476Y-99956952D01*
X167108095Y-100004571D01*
X167155714Y-100099809D01*
X167155714Y-100337904D01*
X167108095Y-100433142D01*
X167060476Y-100480761D01*
X166965238Y-100528380D01*
X166679523Y-100528380D01*
X166584285Y-100480761D01*
X166536666Y-100433142D01*
%TO.C,R2*%
X158440380Y-98718666D02*
X157964190Y-99052000D01*
X158440380Y-99290095D02*
X157440380Y-99290095D01*
X157440380Y-98909142D01*
X157488000Y-98813904D01*
X157535619Y-98766285D01*
X157630857Y-98718666D01*
X157773714Y-98718666D01*
X157868952Y-98766285D01*
X157916571Y-98813904D01*
X157964190Y-98909142D01*
X157964190Y-99290095D01*
X157535619Y-98337714D02*
X157488000Y-98290095D01*
X157440380Y-98194857D01*
X157440380Y-97956761D01*
X157488000Y-97861523D01*
X157535619Y-97813904D01*
X157630857Y-97766285D01*
X157726095Y-97766285D01*
X157868952Y-97813904D01*
X158440380Y-98385333D01*
X158440380Y-97766285D01*
%TO.C,R1*%
X157043380Y-98718666D02*
X156567190Y-99052000D01*
X157043380Y-99290095D02*
X156043380Y-99290095D01*
X156043380Y-98909142D01*
X156091000Y-98813904D01*
X156138619Y-98766285D01*
X156233857Y-98718666D01*
X156376714Y-98718666D01*
X156471952Y-98766285D01*
X156519571Y-98813904D01*
X156567190Y-98909142D01*
X156567190Y-99290095D01*
X157043380Y-97766285D02*
X157043380Y-98337714D01*
X157043380Y-98052000D02*
X156043380Y-98052000D01*
X156186238Y-98147238D01*
X156281476Y-98242476D01*
X156329095Y-98337714D01*
%TD*%
M02*
