%TF.GenerationSoftware,KiCad,Pcbnew,5.1.6-c6e7f7d~87~ubuntu18.04.1*%
%TF.CreationDate,2021-12-22T00:50:18-08:00*%
%TF.ProjectId,portable-voltage-regulator,706f7274-6162-46c6-952d-766f6c746167,rev?*%
%TF.SameCoordinates,Original*%
%TF.FileFunction,Paste,Top*%
%TF.FilePolarity,Positive*%
%FSLAX46Y46*%
G04 Gerber Fmt 4.6, Leading zero omitted, Abs format (unit mm)*
G04 Created by KiCad (PCBNEW 5.1.6-c6e7f7d~87~ubuntu18.04.1) date 2021-12-22 00:50:18*
%MOMM*%
%LPD*%
G01*
G04 APERTURE LIST*
G04 APERTURE END LIST*
%TO.C,U2*%
G36*
G01*
X165458000Y-96877000D02*
X165758000Y-96877000D01*
G75*
G02*
X165908000Y-97027000I0J-150000D01*
G01*
X165908000Y-98677000D01*
G75*
G02*
X165758000Y-98827000I-150000J0D01*
G01*
X165458000Y-98827000D01*
G75*
G02*
X165308000Y-98677000I0J150000D01*
G01*
X165308000Y-97027000D01*
G75*
G02*
X165458000Y-96877000I150000J0D01*
G01*
G37*
G36*
G01*
X164188000Y-96877000D02*
X164488000Y-96877000D01*
G75*
G02*
X164638000Y-97027000I0J-150000D01*
G01*
X164638000Y-98677000D01*
G75*
G02*
X164488000Y-98827000I-150000J0D01*
G01*
X164188000Y-98827000D01*
G75*
G02*
X164038000Y-98677000I0J150000D01*
G01*
X164038000Y-97027000D01*
G75*
G02*
X164188000Y-96877000I150000J0D01*
G01*
G37*
G36*
G01*
X162918000Y-96877000D02*
X163218000Y-96877000D01*
G75*
G02*
X163368000Y-97027000I0J-150000D01*
G01*
X163368000Y-98677000D01*
G75*
G02*
X163218000Y-98827000I-150000J0D01*
G01*
X162918000Y-98827000D01*
G75*
G02*
X162768000Y-98677000I0J150000D01*
G01*
X162768000Y-97027000D01*
G75*
G02*
X162918000Y-96877000I150000J0D01*
G01*
G37*
G36*
G01*
X161648000Y-96877000D02*
X161948000Y-96877000D01*
G75*
G02*
X162098000Y-97027000I0J-150000D01*
G01*
X162098000Y-98677000D01*
G75*
G02*
X161948000Y-98827000I-150000J0D01*
G01*
X161648000Y-98827000D01*
G75*
G02*
X161498000Y-98677000I0J150000D01*
G01*
X161498000Y-97027000D01*
G75*
G02*
X161648000Y-96877000I150000J0D01*
G01*
G37*
G36*
G01*
X161648000Y-91927000D02*
X161948000Y-91927000D01*
G75*
G02*
X162098000Y-92077000I0J-150000D01*
G01*
X162098000Y-93727000D01*
G75*
G02*
X161948000Y-93877000I-150000J0D01*
G01*
X161648000Y-93877000D01*
G75*
G02*
X161498000Y-93727000I0J150000D01*
G01*
X161498000Y-92077000D01*
G75*
G02*
X161648000Y-91927000I150000J0D01*
G01*
G37*
G36*
G01*
X162918000Y-91927000D02*
X163218000Y-91927000D01*
G75*
G02*
X163368000Y-92077000I0J-150000D01*
G01*
X163368000Y-93727000D01*
G75*
G02*
X163218000Y-93877000I-150000J0D01*
G01*
X162918000Y-93877000D01*
G75*
G02*
X162768000Y-93727000I0J150000D01*
G01*
X162768000Y-92077000D01*
G75*
G02*
X162918000Y-91927000I150000J0D01*
G01*
G37*
G36*
G01*
X164188000Y-91927000D02*
X164488000Y-91927000D01*
G75*
G02*
X164638000Y-92077000I0J-150000D01*
G01*
X164638000Y-93727000D01*
G75*
G02*
X164488000Y-93877000I-150000J0D01*
G01*
X164188000Y-93877000D01*
G75*
G02*
X164038000Y-93727000I0J150000D01*
G01*
X164038000Y-92077000D01*
G75*
G02*
X164188000Y-91927000I150000J0D01*
G01*
G37*
G36*
G01*
X165458000Y-91927000D02*
X165758000Y-91927000D01*
G75*
G02*
X165908000Y-92077000I0J-150000D01*
G01*
X165908000Y-93727000D01*
G75*
G02*
X165758000Y-93877000I-150000J0D01*
G01*
X165458000Y-93877000D01*
G75*
G02*
X165308000Y-93727000I0J150000D01*
G01*
X165308000Y-92077000D01*
G75*
G02*
X165458000Y-91927000I150000J0D01*
G01*
G37*
%TD*%
%TO.C,C2*%
G36*
G01*
X149140000Y-96967000D02*
X148040000Y-96967000D01*
G75*
G02*
X147790000Y-96717000I0J250000D01*
G01*
X147790000Y-93717000D01*
G75*
G02*
X148040000Y-93467000I250000J0D01*
G01*
X149140000Y-93467000D01*
G75*
G02*
X149390000Y-93717000I0J-250000D01*
G01*
X149390000Y-96717000D01*
G75*
G02*
X149140000Y-96967000I-250000J0D01*
G01*
G37*
G36*
G01*
X149140000Y-102367000D02*
X148040000Y-102367000D01*
G75*
G02*
X147790000Y-102117000I0J250000D01*
G01*
X147790000Y-99117000D01*
G75*
G02*
X148040000Y-98867000I250000J0D01*
G01*
X149140000Y-98867000D01*
G75*
G02*
X149390000Y-99117000I0J-250000D01*
G01*
X149390000Y-102117000D01*
G75*
G02*
X149140000Y-102367000I-250000J0D01*
G01*
G37*
%TD*%
%TO.C,U1*%
G36*
G01*
X157573000Y-91073000D02*
X157573000Y-90873000D01*
G75*
G02*
X157673000Y-90773000I100000J0D01*
G01*
X158948000Y-90773000D01*
G75*
G02*
X159048000Y-90873000I0J-100000D01*
G01*
X159048000Y-91073000D01*
G75*
G02*
X158948000Y-91173000I-100000J0D01*
G01*
X157673000Y-91173000D01*
G75*
G02*
X157573000Y-91073000I0J100000D01*
G01*
G37*
G36*
G01*
X157573000Y-91723000D02*
X157573000Y-91523000D01*
G75*
G02*
X157673000Y-91423000I100000J0D01*
G01*
X158948000Y-91423000D01*
G75*
G02*
X159048000Y-91523000I0J-100000D01*
G01*
X159048000Y-91723000D01*
G75*
G02*
X158948000Y-91823000I-100000J0D01*
G01*
X157673000Y-91823000D01*
G75*
G02*
X157573000Y-91723000I0J100000D01*
G01*
G37*
G36*
G01*
X157573000Y-92373000D02*
X157573000Y-92173000D01*
G75*
G02*
X157673000Y-92073000I100000J0D01*
G01*
X158948000Y-92073000D01*
G75*
G02*
X159048000Y-92173000I0J-100000D01*
G01*
X159048000Y-92373000D01*
G75*
G02*
X158948000Y-92473000I-100000J0D01*
G01*
X157673000Y-92473000D01*
G75*
G02*
X157573000Y-92373000I0J100000D01*
G01*
G37*
G36*
G01*
X157573000Y-93023000D02*
X157573000Y-92823000D01*
G75*
G02*
X157673000Y-92723000I100000J0D01*
G01*
X158948000Y-92723000D01*
G75*
G02*
X159048000Y-92823000I0J-100000D01*
G01*
X159048000Y-93023000D01*
G75*
G02*
X158948000Y-93123000I-100000J0D01*
G01*
X157673000Y-93123000D01*
G75*
G02*
X157573000Y-93023000I0J100000D01*
G01*
G37*
G36*
G01*
X151848000Y-93023000D02*
X151848000Y-92823000D01*
G75*
G02*
X151948000Y-92723000I100000J0D01*
G01*
X153223000Y-92723000D01*
G75*
G02*
X153323000Y-92823000I0J-100000D01*
G01*
X153323000Y-93023000D01*
G75*
G02*
X153223000Y-93123000I-100000J0D01*
G01*
X151948000Y-93123000D01*
G75*
G02*
X151848000Y-93023000I0J100000D01*
G01*
G37*
G36*
G01*
X151848000Y-92373000D02*
X151848000Y-92173000D01*
G75*
G02*
X151948000Y-92073000I100000J0D01*
G01*
X153223000Y-92073000D01*
G75*
G02*
X153323000Y-92173000I0J-100000D01*
G01*
X153323000Y-92373000D01*
G75*
G02*
X153223000Y-92473000I-100000J0D01*
G01*
X151948000Y-92473000D01*
G75*
G02*
X151848000Y-92373000I0J100000D01*
G01*
G37*
G36*
G01*
X151848000Y-91723000D02*
X151848000Y-91523000D01*
G75*
G02*
X151948000Y-91423000I100000J0D01*
G01*
X153223000Y-91423000D01*
G75*
G02*
X153323000Y-91523000I0J-100000D01*
G01*
X153323000Y-91723000D01*
G75*
G02*
X153223000Y-91823000I-100000J0D01*
G01*
X151948000Y-91823000D01*
G75*
G02*
X151848000Y-91723000I0J100000D01*
G01*
G37*
G36*
G01*
X151848000Y-91073000D02*
X151848000Y-90873000D01*
G75*
G02*
X151948000Y-90773000I100000J0D01*
G01*
X153223000Y-90773000D01*
G75*
G02*
X153323000Y-90873000I0J-100000D01*
G01*
X153323000Y-91073000D01*
G75*
G02*
X153223000Y-91173000I-100000J0D01*
G01*
X151948000Y-91173000D01*
G75*
G02*
X151848000Y-91073000I0J100000D01*
G01*
G37*
%TD*%
%TO.C,C4*%
G36*
G01*
X159890750Y-93441000D02*
X160403250Y-93441000D01*
G75*
G02*
X160622000Y-93659750I0J-218750D01*
G01*
X160622000Y-94097250D01*
G75*
G02*
X160403250Y-94316000I-218750J0D01*
G01*
X159890750Y-94316000D01*
G75*
G02*
X159672000Y-94097250I0J218750D01*
G01*
X159672000Y-93659750D01*
G75*
G02*
X159890750Y-93441000I218750J0D01*
G01*
G37*
G36*
G01*
X159890750Y-91866000D02*
X160403250Y-91866000D01*
G75*
G02*
X160622000Y-92084750I0J-218750D01*
G01*
X160622000Y-92522250D01*
G75*
G02*
X160403250Y-92741000I-218750J0D01*
G01*
X159890750Y-92741000D01*
G75*
G02*
X159672000Y-92522250I0J218750D01*
G01*
X159672000Y-92084750D01*
G75*
G02*
X159890750Y-91866000I218750J0D01*
G01*
G37*
%TD*%
%TO.C,C3*%
G36*
G01*
X150492750Y-92552000D02*
X151005250Y-92552000D01*
G75*
G02*
X151224000Y-92770750I0J-218750D01*
G01*
X151224000Y-93208250D01*
G75*
G02*
X151005250Y-93427000I-218750J0D01*
G01*
X150492750Y-93427000D01*
G75*
G02*
X150274000Y-93208250I0J218750D01*
G01*
X150274000Y-92770750D01*
G75*
G02*
X150492750Y-92552000I218750J0D01*
G01*
G37*
G36*
G01*
X150492750Y-90977000D02*
X151005250Y-90977000D01*
G75*
G02*
X151224000Y-91195750I0J-218750D01*
G01*
X151224000Y-91633250D01*
G75*
G02*
X151005250Y-91852000I-218750J0D01*
G01*
X150492750Y-91852000D01*
G75*
G02*
X150274000Y-91633250I0J218750D01*
G01*
X150274000Y-91195750D01*
G75*
G02*
X150492750Y-90977000I218750J0D01*
G01*
G37*
%TD*%
%TO.C,C1*%
G36*
G01*
X154849000Y-96280000D02*
X152999000Y-96280000D01*
G75*
G02*
X152749000Y-96030000I0J250000D01*
G01*
X152749000Y-95030000D01*
G75*
G02*
X152999000Y-94780000I250000J0D01*
G01*
X154849000Y-94780000D01*
G75*
G02*
X155099000Y-95030000I0J-250000D01*
G01*
X155099000Y-96030000D01*
G75*
G02*
X154849000Y-96280000I-250000J0D01*
G01*
G37*
G36*
G01*
X154849000Y-99530000D02*
X152999000Y-99530000D01*
G75*
G02*
X152749000Y-99280000I0J250000D01*
G01*
X152749000Y-98280000D01*
G75*
G02*
X152999000Y-98030000I250000J0D01*
G01*
X154849000Y-98030000D01*
G75*
G02*
X155099000Y-98280000I0J-250000D01*
G01*
X155099000Y-99280000D01*
G75*
G02*
X154849000Y-99530000I-250000J0D01*
G01*
G37*
%TD*%
%TO.C,R3*%
G36*
G01*
X163480000Y-99692750D02*
X163480000Y-100205250D01*
G75*
G02*
X163261250Y-100424000I-218750J0D01*
G01*
X162823750Y-100424000D01*
G75*
G02*
X162605000Y-100205250I0J218750D01*
G01*
X162605000Y-99692750D01*
G75*
G02*
X162823750Y-99474000I218750J0D01*
G01*
X163261250Y-99474000D01*
G75*
G02*
X163480000Y-99692750I0J-218750D01*
G01*
G37*
G36*
G01*
X165055000Y-99692750D02*
X165055000Y-100205250D01*
G75*
G02*
X164836250Y-100424000I-218750J0D01*
G01*
X164398750Y-100424000D01*
G75*
G02*
X164180000Y-100205250I0J218750D01*
G01*
X164180000Y-99692750D01*
G75*
G02*
X164398750Y-99474000I218750J0D01*
G01*
X164836250Y-99474000D01*
G75*
G02*
X165055000Y-99692750I0J-218750D01*
G01*
G37*
%TD*%
%TO.C,R2*%
G36*
G01*
X158244250Y-95662000D02*
X157731750Y-95662000D01*
G75*
G02*
X157513000Y-95443250I0J218750D01*
G01*
X157513000Y-95005750D01*
G75*
G02*
X157731750Y-94787000I218750J0D01*
G01*
X158244250Y-94787000D01*
G75*
G02*
X158463000Y-95005750I0J-218750D01*
G01*
X158463000Y-95443250D01*
G75*
G02*
X158244250Y-95662000I-218750J0D01*
G01*
G37*
G36*
G01*
X158244250Y-97237000D02*
X157731750Y-97237000D01*
G75*
G02*
X157513000Y-97018250I0J218750D01*
G01*
X157513000Y-96580750D01*
G75*
G02*
X157731750Y-96362000I218750J0D01*
G01*
X158244250Y-96362000D01*
G75*
G02*
X158463000Y-96580750I0J-218750D01*
G01*
X158463000Y-97018250D01*
G75*
G02*
X158244250Y-97237000I-218750J0D01*
G01*
G37*
%TD*%
%TO.C,R1*%
G36*
G01*
X156207750Y-96362000D02*
X156720250Y-96362000D01*
G75*
G02*
X156939000Y-96580750I0J-218750D01*
G01*
X156939000Y-97018250D01*
G75*
G02*
X156720250Y-97237000I-218750J0D01*
G01*
X156207750Y-97237000D01*
G75*
G02*
X155989000Y-97018250I0J218750D01*
G01*
X155989000Y-96580750D01*
G75*
G02*
X156207750Y-96362000I218750J0D01*
G01*
G37*
G36*
G01*
X156207750Y-94787000D02*
X156720250Y-94787000D01*
G75*
G02*
X156939000Y-95005750I0J-218750D01*
G01*
X156939000Y-95443250D01*
G75*
G02*
X156720250Y-95662000I-218750J0D01*
G01*
X156207750Y-95662000D01*
G75*
G02*
X155989000Y-95443250I0J218750D01*
G01*
X155989000Y-95005750D01*
G75*
G02*
X156207750Y-94787000I218750J0D01*
G01*
G37*
%TD*%
M02*
