%TF.GenerationSoftware,KiCad,Pcbnew,5.1.6-c6e7f7d~87~ubuntu18.04.1*%
%TF.CreationDate,2021-12-05T00:26:55-08:00*%
%TF.ProjectId,op-amp-low-side-current-sense,6f702d61-6d70-42d6-9c6f-772d73696465,rev?*%
%TF.SameCoordinates,Original*%
%TF.FileFunction,Soldermask,Top*%
%TF.FilePolarity,Negative*%
%FSLAX46Y46*%
G04 Gerber Fmt 4.6, Leading zero omitted, Abs format (unit mm)*
G04 Created by KiCad (PCBNEW 5.1.6-c6e7f7d~87~ubuntu18.04.1) date 2021-12-05 00:26:55*
%MOMM*%
%LPD*%
G01*
G04 APERTURE LIST*
%ADD10C,0.150000*%
%ADD11R,0.740000X1.440000*%
%ADD12C,2.800000*%
%ADD13O,1.800000X1.800000*%
%ADD14R,1.800000X1.800000*%
G04 APERTURE END LIST*
D10*
X167578567Y-85669380D02*
X167007138Y-85669380D01*
X167292852Y-85669380D02*
X167417852Y-84669380D01*
X167304757Y-84812238D01*
X167197614Y-84907476D01*
X167096424Y-84955095D01*
X168072614Y-84764619D02*
X168126186Y-84717000D01*
X168227376Y-84669380D01*
X168465472Y-84669380D01*
X168554757Y-84717000D01*
X168596424Y-84764619D01*
X168632138Y-84859857D01*
X168620233Y-84955095D01*
X168554757Y-85097952D01*
X167911900Y-85669380D01*
X168530948Y-85669380D01*
X169804757Y-84621761D02*
X168786900Y-85907476D01*
X170519043Y-85002714D02*
X170435710Y-85669380D01*
X170328567Y-84621761D02*
X170001186Y-85336047D01*
X170620233Y-85336047D01*
X171804757Y-84621761D02*
X170786900Y-85907476D01*
X172072614Y-84764619D02*
X172126186Y-84717000D01*
X172227376Y-84669380D01*
X172465472Y-84669380D01*
X172554757Y-84717000D01*
X172596424Y-84764619D01*
X172632138Y-84859857D01*
X172620233Y-84955095D01*
X172554757Y-85097952D01*
X171911900Y-85669380D01*
X172530948Y-85669380D01*
X173274995Y-84669380D02*
X173370233Y-84669380D01*
X173459519Y-84717000D01*
X173501186Y-84764619D01*
X173536900Y-84859857D01*
X173560710Y-85050333D01*
X173530948Y-85288428D01*
X173459519Y-85478904D01*
X173399995Y-85574142D01*
X173346424Y-85621761D01*
X173245233Y-85669380D01*
X173149995Y-85669380D01*
X173060710Y-85621761D01*
X173019043Y-85574142D01*
X172983329Y-85478904D01*
X172959519Y-85288428D01*
X172989281Y-85050333D01*
X173060710Y-84859857D01*
X173120233Y-84764619D01*
X173173805Y-84717000D01*
X173274995Y-84669380D01*
X173977376Y-84764619D02*
X174030948Y-84717000D01*
X174132138Y-84669380D01*
X174370233Y-84669380D01*
X174459519Y-84717000D01*
X174501186Y-84764619D01*
X174536900Y-84859857D01*
X174524995Y-84955095D01*
X174459519Y-85097952D01*
X173816662Y-85669380D01*
X174435710Y-85669380D01*
X175388091Y-85669380D02*
X174816662Y-85669380D01*
X175102376Y-85669380D02*
X175227376Y-84669380D01*
X175114281Y-84812238D01*
X175007138Y-84907476D01*
X174905948Y-84955095D01*
%TO.C,R3*%
G36*
G01*
X165825000Y-93111000D02*
X165825000Y-91801000D01*
G75*
G02*
X166095000Y-91531000I270000J0D01*
G01*
X166905000Y-91531000D01*
G75*
G02*
X167175000Y-91801000I0J-270000D01*
G01*
X167175000Y-93111000D01*
G75*
G02*
X166905000Y-93381000I-270000J0D01*
G01*
X166095000Y-93381000D01*
G75*
G02*
X165825000Y-93111000I0J270000D01*
G01*
G37*
G36*
G01*
X163025000Y-93111000D02*
X163025000Y-91801000D01*
G75*
G02*
X163295000Y-91531000I270000J0D01*
G01*
X164105000Y-91531000D01*
G75*
G02*
X164375000Y-91801000I0J-270000D01*
G01*
X164375000Y-93111000D01*
G75*
G02*
X164105000Y-93381000I-270000J0D01*
G01*
X163295000Y-93381000D01*
G75*
G02*
X163025000Y-93111000I0J270000D01*
G01*
G37*
%TD*%
%TO.C,U1*%
G36*
G01*
X161437000Y-96671500D02*
X161437000Y-96921500D01*
G75*
G02*
X161312000Y-97046500I-125000J0D01*
G01*
X159837000Y-97046500D01*
G75*
G02*
X159712000Y-96921500I0J125000D01*
G01*
X159712000Y-96671500D01*
G75*
G02*
X159837000Y-96546500I125000J0D01*
G01*
X161312000Y-96546500D01*
G75*
G02*
X161437000Y-96671500I0J-125000D01*
G01*
G37*
G36*
G01*
X161437000Y-96021500D02*
X161437000Y-96271500D01*
G75*
G02*
X161312000Y-96396500I-125000J0D01*
G01*
X159837000Y-96396500D01*
G75*
G02*
X159712000Y-96271500I0J125000D01*
G01*
X159712000Y-96021500D01*
G75*
G02*
X159837000Y-95896500I125000J0D01*
G01*
X161312000Y-95896500D01*
G75*
G02*
X161437000Y-96021500I0J-125000D01*
G01*
G37*
G36*
G01*
X161437000Y-95371500D02*
X161437000Y-95621500D01*
G75*
G02*
X161312000Y-95746500I-125000J0D01*
G01*
X159837000Y-95746500D01*
G75*
G02*
X159712000Y-95621500I0J125000D01*
G01*
X159712000Y-95371500D01*
G75*
G02*
X159837000Y-95246500I125000J0D01*
G01*
X161312000Y-95246500D01*
G75*
G02*
X161437000Y-95371500I0J-125000D01*
G01*
G37*
G36*
G01*
X161437000Y-94721500D02*
X161437000Y-94971500D01*
G75*
G02*
X161312000Y-95096500I-125000J0D01*
G01*
X159837000Y-95096500D01*
G75*
G02*
X159712000Y-94971500I0J125000D01*
G01*
X159712000Y-94721500D01*
G75*
G02*
X159837000Y-94596500I125000J0D01*
G01*
X161312000Y-94596500D01*
G75*
G02*
X161437000Y-94721500I0J-125000D01*
G01*
G37*
G36*
G01*
X165662000Y-94721500D02*
X165662000Y-94971500D01*
G75*
G02*
X165537000Y-95096500I-125000J0D01*
G01*
X164062000Y-95096500D01*
G75*
G02*
X163937000Y-94971500I0J125000D01*
G01*
X163937000Y-94721500D01*
G75*
G02*
X164062000Y-94596500I125000J0D01*
G01*
X165537000Y-94596500D01*
G75*
G02*
X165662000Y-94721500I0J-125000D01*
G01*
G37*
G36*
G01*
X165662000Y-95371500D02*
X165662000Y-95621500D01*
G75*
G02*
X165537000Y-95746500I-125000J0D01*
G01*
X164062000Y-95746500D01*
G75*
G02*
X163937000Y-95621500I0J125000D01*
G01*
X163937000Y-95371500D01*
G75*
G02*
X164062000Y-95246500I125000J0D01*
G01*
X165537000Y-95246500D01*
G75*
G02*
X165662000Y-95371500I0J-125000D01*
G01*
G37*
G36*
G01*
X165662000Y-96021500D02*
X165662000Y-96271500D01*
G75*
G02*
X165537000Y-96396500I-125000J0D01*
G01*
X164062000Y-96396500D01*
G75*
G02*
X163937000Y-96271500I0J125000D01*
G01*
X163937000Y-96021500D01*
G75*
G02*
X164062000Y-95896500I125000J0D01*
G01*
X165537000Y-95896500D01*
G75*
G02*
X165662000Y-96021500I0J-125000D01*
G01*
G37*
G36*
G01*
X165662000Y-96671500D02*
X165662000Y-96921500D01*
G75*
G02*
X165537000Y-97046500I-125000J0D01*
G01*
X164062000Y-97046500D01*
G75*
G02*
X163937000Y-96921500I0J125000D01*
G01*
X163937000Y-96671500D01*
G75*
G02*
X164062000Y-96546500I125000J0D01*
G01*
X165537000Y-96546500D01*
G75*
G02*
X165662000Y-96671500I0J-125000D01*
G01*
G37*
%TD*%
%TO.C,R2*%
G36*
G01*
X154912750Y-100630000D02*
X155475250Y-100630000D01*
G75*
G02*
X155719000Y-100873750I0J-243750D01*
G01*
X155719000Y-101361250D01*
G75*
G02*
X155475250Y-101605000I-243750J0D01*
G01*
X154912750Y-101605000D01*
G75*
G02*
X154669000Y-101361250I0J243750D01*
G01*
X154669000Y-100873750D01*
G75*
G02*
X154912750Y-100630000I243750J0D01*
G01*
G37*
G36*
G01*
X154912750Y-99055000D02*
X155475250Y-99055000D01*
G75*
G02*
X155719000Y-99298750I0J-243750D01*
G01*
X155719000Y-99786250D01*
G75*
G02*
X155475250Y-100030000I-243750J0D01*
G01*
X154912750Y-100030000D01*
G75*
G02*
X154669000Y-99786250I0J243750D01*
G01*
X154669000Y-99298750D01*
G75*
G02*
X154912750Y-99055000I243750J0D01*
G01*
G37*
%TD*%
%TO.C,R1*%
G36*
G01*
X166968750Y-94950000D02*
X166406250Y-94950000D01*
G75*
G02*
X166162500Y-94706250I0J243750D01*
G01*
X166162500Y-94218750D01*
G75*
G02*
X166406250Y-93975000I243750J0D01*
G01*
X166968750Y-93975000D01*
G75*
G02*
X167212500Y-94218750I0J-243750D01*
G01*
X167212500Y-94706250D01*
G75*
G02*
X166968750Y-94950000I-243750J0D01*
G01*
G37*
G36*
G01*
X166968750Y-96525000D02*
X166406250Y-96525000D01*
G75*
G02*
X166162500Y-96281250I0J243750D01*
G01*
X166162500Y-95793750D01*
G75*
G02*
X166406250Y-95550000I243750J0D01*
G01*
X166968750Y-95550000D01*
G75*
G02*
X167212500Y-95793750I0J-243750D01*
G01*
X167212500Y-96281250D01*
G75*
G02*
X166968750Y-96525000I-243750J0D01*
G01*
G37*
%TD*%
D11*
%TO.C,Q1*%
X166558000Y-98454500D03*
X164658000Y-98454500D03*
X165608000Y-100554500D03*
%TD*%
%TO.C,C1*%
G36*
G01*
X157380250Y-97045500D02*
X156817750Y-97045500D01*
G75*
G02*
X156574000Y-96801750I0J243750D01*
G01*
X156574000Y-96314250D01*
G75*
G02*
X156817750Y-96070500I243750J0D01*
G01*
X157380250Y-96070500D01*
G75*
G02*
X157624000Y-96314250I0J-243750D01*
G01*
X157624000Y-96801750D01*
G75*
G02*
X157380250Y-97045500I-243750J0D01*
G01*
G37*
G36*
G01*
X157380250Y-98620500D02*
X156817750Y-98620500D01*
G75*
G02*
X156574000Y-98376750I0J243750D01*
G01*
X156574000Y-97889250D01*
G75*
G02*
X156817750Y-97645500I243750J0D01*
G01*
X157380250Y-97645500D01*
G75*
G02*
X157624000Y-97889250I0J-243750D01*
G01*
X157624000Y-98376750D01*
G75*
G02*
X157380250Y-98620500I-243750J0D01*
G01*
G37*
%TD*%
%TO.C,C2*%
G36*
G01*
X158955050Y-97058200D02*
X158392550Y-97058200D01*
G75*
G02*
X158148800Y-96814450I0J243750D01*
G01*
X158148800Y-96326950D01*
G75*
G02*
X158392550Y-96083200I243750J0D01*
G01*
X158955050Y-96083200D01*
G75*
G02*
X159198800Y-96326950I0J-243750D01*
G01*
X159198800Y-96814450D01*
G75*
G02*
X158955050Y-97058200I-243750J0D01*
G01*
G37*
G36*
G01*
X158955050Y-98633200D02*
X158392550Y-98633200D01*
G75*
G02*
X158148800Y-98389450I0J243750D01*
G01*
X158148800Y-97901950D01*
G75*
G02*
X158392550Y-97658200I243750J0D01*
G01*
X158955050Y-97658200D01*
G75*
G02*
X159198800Y-97901950I0J-243750D01*
G01*
X159198800Y-98389450D01*
G75*
G02*
X158955050Y-98633200I-243750J0D01*
G01*
G37*
%TD*%
D12*
%TO.C,H2*%
X172720000Y-106426000D03*
%TD*%
%TO.C,H1*%
X147574000Y-87376000D03*
%TD*%
D13*
%TO.C,J2*%
X152527000Y-100838000D03*
X152527000Y-98298000D03*
X152527000Y-95758000D03*
D14*
X152527000Y-93218000D03*
%TD*%
M02*
