%TF.GenerationSoftware,KiCad,Pcbnew,5.1.6-c6e7f7d~87~ubuntu18.04.1*%
%TF.CreationDate,2021-12-05T00:18:48-08:00*%
%TF.ProjectId,op-amp-low-side-current-sense,6f702d61-6d70-42d6-9c6f-772d73696465,rev?*%
%TF.SameCoordinates,Original*%
%TF.FileFunction,Paste,Top*%
%TF.FilePolarity,Positive*%
%FSLAX46Y46*%
G04 Gerber Fmt 4.6, Leading zero omitted, Abs format (unit mm)*
G04 Created by KiCad (PCBNEW 5.1.6-c6e7f7d~87~ubuntu18.04.1) date 2021-12-05 00:18:48*
%MOMM*%
%LPD*%
G01*
G04 APERTURE LIST*
%ADD10R,0.600000X1.300000*%
G04 APERTURE END LIST*
%TO.C,R3*%
G36*
G01*
X165875000Y-93081000D02*
X165875000Y-91831000D01*
G75*
G02*
X166125000Y-91581000I250000J0D01*
G01*
X166875000Y-91581000D01*
G75*
G02*
X167125000Y-91831000I0J-250000D01*
G01*
X167125000Y-93081000D01*
G75*
G02*
X166875000Y-93331000I-250000J0D01*
G01*
X166125000Y-93331000D01*
G75*
G02*
X165875000Y-93081000I0J250000D01*
G01*
G37*
G36*
G01*
X163075000Y-93081000D02*
X163075000Y-91831000D01*
G75*
G02*
X163325000Y-91581000I250000J0D01*
G01*
X164075000Y-91581000D01*
G75*
G02*
X164325000Y-91831000I0J-250000D01*
G01*
X164325000Y-93081000D01*
G75*
G02*
X164075000Y-93331000I-250000J0D01*
G01*
X163325000Y-93331000D01*
G75*
G02*
X163075000Y-93081000I0J250000D01*
G01*
G37*
%TD*%
%TO.C,U1*%
G36*
G01*
X161387000Y-96696500D02*
X161387000Y-96896500D01*
G75*
G02*
X161287000Y-96996500I-100000J0D01*
G01*
X159862000Y-96996500D01*
G75*
G02*
X159762000Y-96896500I0J100000D01*
G01*
X159762000Y-96696500D01*
G75*
G02*
X159862000Y-96596500I100000J0D01*
G01*
X161287000Y-96596500D01*
G75*
G02*
X161387000Y-96696500I0J-100000D01*
G01*
G37*
G36*
G01*
X161387000Y-96046500D02*
X161387000Y-96246500D01*
G75*
G02*
X161287000Y-96346500I-100000J0D01*
G01*
X159862000Y-96346500D01*
G75*
G02*
X159762000Y-96246500I0J100000D01*
G01*
X159762000Y-96046500D01*
G75*
G02*
X159862000Y-95946500I100000J0D01*
G01*
X161287000Y-95946500D01*
G75*
G02*
X161387000Y-96046500I0J-100000D01*
G01*
G37*
G36*
G01*
X161387000Y-95396500D02*
X161387000Y-95596500D01*
G75*
G02*
X161287000Y-95696500I-100000J0D01*
G01*
X159862000Y-95696500D01*
G75*
G02*
X159762000Y-95596500I0J100000D01*
G01*
X159762000Y-95396500D01*
G75*
G02*
X159862000Y-95296500I100000J0D01*
G01*
X161287000Y-95296500D01*
G75*
G02*
X161387000Y-95396500I0J-100000D01*
G01*
G37*
G36*
G01*
X161387000Y-94746500D02*
X161387000Y-94946500D01*
G75*
G02*
X161287000Y-95046500I-100000J0D01*
G01*
X159862000Y-95046500D01*
G75*
G02*
X159762000Y-94946500I0J100000D01*
G01*
X159762000Y-94746500D01*
G75*
G02*
X159862000Y-94646500I100000J0D01*
G01*
X161287000Y-94646500D01*
G75*
G02*
X161387000Y-94746500I0J-100000D01*
G01*
G37*
G36*
G01*
X165612000Y-94746500D02*
X165612000Y-94946500D01*
G75*
G02*
X165512000Y-95046500I-100000J0D01*
G01*
X164087000Y-95046500D01*
G75*
G02*
X163987000Y-94946500I0J100000D01*
G01*
X163987000Y-94746500D01*
G75*
G02*
X164087000Y-94646500I100000J0D01*
G01*
X165512000Y-94646500D01*
G75*
G02*
X165612000Y-94746500I0J-100000D01*
G01*
G37*
G36*
G01*
X165612000Y-95396500D02*
X165612000Y-95596500D01*
G75*
G02*
X165512000Y-95696500I-100000J0D01*
G01*
X164087000Y-95696500D01*
G75*
G02*
X163987000Y-95596500I0J100000D01*
G01*
X163987000Y-95396500D01*
G75*
G02*
X164087000Y-95296500I100000J0D01*
G01*
X165512000Y-95296500D01*
G75*
G02*
X165612000Y-95396500I0J-100000D01*
G01*
G37*
G36*
G01*
X165612000Y-96046500D02*
X165612000Y-96246500D01*
G75*
G02*
X165512000Y-96346500I-100000J0D01*
G01*
X164087000Y-96346500D01*
G75*
G02*
X163987000Y-96246500I0J100000D01*
G01*
X163987000Y-96046500D01*
G75*
G02*
X164087000Y-95946500I100000J0D01*
G01*
X165512000Y-95946500D01*
G75*
G02*
X165612000Y-96046500I0J-100000D01*
G01*
G37*
G36*
G01*
X165612000Y-96696500D02*
X165612000Y-96896500D01*
G75*
G02*
X165512000Y-96996500I-100000J0D01*
G01*
X164087000Y-96996500D01*
G75*
G02*
X163987000Y-96896500I0J100000D01*
G01*
X163987000Y-96696500D01*
G75*
G02*
X164087000Y-96596500I100000J0D01*
G01*
X165512000Y-96596500D01*
G75*
G02*
X165612000Y-96696500I0J-100000D01*
G01*
G37*
%TD*%
%TO.C,R2*%
G36*
G01*
X154937750Y-100680000D02*
X155450250Y-100680000D01*
G75*
G02*
X155669000Y-100898750I0J-218750D01*
G01*
X155669000Y-101336250D01*
G75*
G02*
X155450250Y-101555000I-218750J0D01*
G01*
X154937750Y-101555000D01*
G75*
G02*
X154719000Y-101336250I0J218750D01*
G01*
X154719000Y-100898750D01*
G75*
G02*
X154937750Y-100680000I218750J0D01*
G01*
G37*
G36*
G01*
X154937750Y-99105000D02*
X155450250Y-99105000D01*
G75*
G02*
X155669000Y-99323750I0J-218750D01*
G01*
X155669000Y-99761250D01*
G75*
G02*
X155450250Y-99980000I-218750J0D01*
G01*
X154937750Y-99980000D01*
G75*
G02*
X154719000Y-99761250I0J218750D01*
G01*
X154719000Y-99323750D01*
G75*
G02*
X154937750Y-99105000I218750J0D01*
G01*
G37*
%TD*%
%TO.C,R1*%
G36*
G01*
X166943750Y-94900000D02*
X166431250Y-94900000D01*
G75*
G02*
X166212500Y-94681250I0J218750D01*
G01*
X166212500Y-94243750D01*
G75*
G02*
X166431250Y-94025000I218750J0D01*
G01*
X166943750Y-94025000D01*
G75*
G02*
X167162500Y-94243750I0J-218750D01*
G01*
X167162500Y-94681250D01*
G75*
G02*
X166943750Y-94900000I-218750J0D01*
G01*
G37*
G36*
G01*
X166943750Y-96475000D02*
X166431250Y-96475000D01*
G75*
G02*
X166212500Y-96256250I0J218750D01*
G01*
X166212500Y-95818750D01*
G75*
G02*
X166431250Y-95600000I218750J0D01*
G01*
X166943750Y-95600000D01*
G75*
G02*
X167162500Y-95818750I0J-218750D01*
G01*
X167162500Y-96256250D01*
G75*
G02*
X166943750Y-96475000I-218750J0D01*
G01*
G37*
%TD*%
D10*
%TO.C,Q1*%
X166558000Y-98454500D03*
X164658000Y-98454500D03*
X165608000Y-100554500D03*
%TD*%
%TO.C,C4*%
G36*
G01*
X157355250Y-96995500D02*
X156842750Y-96995500D01*
G75*
G02*
X156624000Y-96776750I0J218750D01*
G01*
X156624000Y-96339250D01*
G75*
G02*
X156842750Y-96120500I218750J0D01*
G01*
X157355250Y-96120500D01*
G75*
G02*
X157574000Y-96339250I0J-218750D01*
G01*
X157574000Y-96776750D01*
G75*
G02*
X157355250Y-96995500I-218750J0D01*
G01*
G37*
G36*
G01*
X157355250Y-98570500D02*
X156842750Y-98570500D01*
G75*
G02*
X156624000Y-98351750I0J218750D01*
G01*
X156624000Y-97914250D01*
G75*
G02*
X156842750Y-97695500I218750J0D01*
G01*
X157355250Y-97695500D01*
G75*
G02*
X157574000Y-97914250I0J-218750D01*
G01*
X157574000Y-98351750D01*
G75*
G02*
X157355250Y-98570500I-218750J0D01*
G01*
G37*
%TD*%
%TO.C,C2*%
G36*
G01*
X158930050Y-97008200D02*
X158417550Y-97008200D01*
G75*
G02*
X158198800Y-96789450I0J218750D01*
G01*
X158198800Y-96351950D01*
G75*
G02*
X158417550Y-96133200I218750J0D01*
G01*
X158930050Y-96133200D01*
G75*
G02*
X159148800Y-96351950I0J-218750D01*
G01*
X159148800Y-96789450D01*
G75*
G02*
X158930050Y-97008200I-218750J0D01*
G01*
G37*
G36*
G01*
X158930050Y-98583200D02*
X158417550Y-98583200D01*
G75*
G02*
X158198800Y-98364450I0J218750D01*
G01*
X158198800Y-97926950D01*
G75*
G02*
X158417550Y-97708200I218750J0D01*
G01*
X158930050Y-97708200D01*
G75*
G02*
X159148800Y-97926950I0J-218750D01*
G01*
X159148800Y-98364450D01*
G75*
G02*
X158930050Y-98583200I-218750J0D01*
G01*
G37*
%TD*%
M02*
