%TF.GenerationSoftware,KiCad,Pcbnew,5.1.6-c6e7f7d~87~ubuntu18.04.1*%
%TF.CreationDate,2021-12-20T19:28:02-08:00*%
%TF.ProjectId,boosted-output-current-reference,626f6f73-7465-4642-9d6f-75747075742d,rev?*%
%TF.SameCoordinates,Original*%
%TF.FileFunction,Copper,L1,Top*%
%TF.FilePolarity,Positive*%
%FSLAX46Y46*%
G04 Gerber Fmt 4.6, Leading zero omitted, Abs format (unit mm)*
G04 Created by KiCad (PCBNEW 5.1.6-c6e7f7d~87~ubuntu18.04.1) date 2021-12-20 19:28:02*
%MOMM*%
%LPD*%
G01*
G04 APERTURE LIST*
%TA.AperFunction,ComponentPad*%
%ADD10C,1.440000*%
%TD*%
%TA.AperFunction,SMDPad,CuDef*%
%ADD11C,1.500000*%
%TD*%
%TA.AperFunction,ComponentPad*%
%ADD12O,1.700000X1.700000*%
%TD*%
%TA.AperFunction,ComponentPad*%
%ADD13R,1.700000X1.700000*%
%TD*%
%TA.AperFunction,SMDPad,CuDef*%
%ADD14R,0.650000X1.220000*%
%TD*%
%TA.AperFunction,SMDPad,CuDef*%
%ADD15R,1.300000X0.600000*%
%TD*%
%TA.AperFunction,ViaPad*%
%ADD16C,0.800000*%
%TD*%
%TA.AperFunction,Conductor*%
%ADD17C,0.254000*%
%TD*%
%TA.AperFunction,Conductor*%
%ADD18C,0.250000*%
%TD*%
G04 APERTURE END LIST*
D10*
%TO.P,TRIM,3*%
%TO.N,Net-(C3-Pad2)*%
X153822400Y-98552000D03*
%TO.P,TRIM,2*%
%TO.N,Net-(R2-Pad2)*%
X151282400Y-101092000D03*
%TO.P,TRIM,1*%
%TO.N,Net-(R3-Pad1)*%
X153822400Y-103632000D03*
%TD*%
%TO.P,R3,2*%
%TO.N,GND*%
%TA.AperFunction,SMDPad,CuDef*%
G36*
G01*
X156669450Y-102875600D02*
X156156950Y-102875600D01*
G75*
G02*
X155938200Y-102656850I0J218750D01*
G01*
X155938200Y-102219350D01*
G75*
G02*
X156156950Y-102000600I218750J0D01*
G01*
X156669450Y-102000600D01*
G75*
G02*
X156888200Y-102219350I0J-218750D01*
G01*
X156888200Y-102656850D01*
G75*
G02*
X156669450Y-102875600I-218750J0D01*
G01*
G37*
%TD.AperFunction*%
%TO.P,R3,1*%
%TO.N,Net-(R3-Pad1)*%
%TA.AperFunction,SMDPad,CuDef*%
G36*
G01*
X156669450Y-104450600D02*
X156156950Y-104450600D01*
G75*
G02*
X155938200Y-104231850I0J218750D01*
G01*
X155938200Y-103794350D01*
G75*
G02*
X156156950Y-103575600I218750J0D01*
G01*
X156669450Y-103575600D01*
G75*
G02*
X156888200Y-103794350I0J-218750D01*
G01*
X156888200Y-104231850D01*
G75*
G02*
X156669450Y-104450600I-218750J0D01*
G01*
G37*
%TD.AperFunction*%
%TD*%
%TO.P,R2,2*%
%TO.N,Net-(R2-Pad2)*%
%TA.AperFunction,SMDPad,CuDef*%
G36*
G01*
X156156950Y-99308400D02*
X156669450Y-99308400D01*
G75*
G02*
X156888200Y-99527150I0J-218750D01*
G01*
X156888200Y-99964650D01*
G75*
G02*
X156669450Y-100183400I-218750J0D01*
G01*
X156156950Y-100183400D01*
G75*
G02*
X155938200Y-99964650I0J218750D01*
G01*
X155938200Y-99527150D01*
G75*
G02*
X156156950Y-99308400I218750J0D01*
G01*
G37*
%TD.AperFunction*%
%TO.P,R2,1*%
%TO.N,Net-(R2-Pad1)*%
%TA.AperFunction,SMDPad,CuDef*%
G36*
G01*
X156156950Y-97733400D02*
X156669450Y-97733400D01*
G75*
G02*
X156888200Y-97952150I0J-218750D01*
G01*
X156888200Y-98389650D01*
G75*
G02*
X156669450Y-98608400I-218750J0D01*
G01*
X156156950Y-98608400D01*
G75*
G02*
X155938200Y-98389650I0J218750D01*
G01*
X155938200Y-97952150D01*
G75*
G02*
X156156950Y-97733400I218750J0D01*
G01*
G37*
%TD.AperFunction*%
%TD*%
D11*
%TO.P,2.048V,1*%
%TO.N,/Vout*%
X169291000Y-88265000D03*
%TD*%
D12*
%TO.P,J2,2*%
%TO.N,/Vout*%
X174117000Y-94488000D03*
D13*
%TO.P,J2,1*%
%TO.N,GND*%
X174117000Y-97028000D03*
%TD*%
D12*
%TO.P,J1,2*%
%TO.N,GND*%
X145796000Y-97018000D03*
D13*
%TO.P,J1,1*%
%TO.N,+12V*%
X145796000Y-94478000D03*
%TD*%
D14*
%TO.P,U2,5*%
%TO.N,+12V*%
X161737000Y-93305000D03*
%TO.P,U2,4*%
%TO.N,/Vout*%
X163637000Y-93305000D03*
%TO.P,U2,3*%
%TO.N,Net-(C3-Pad2)*%
X163637000Y-95925000D03*
%TO.P,U2,2*%
%TO.N,GND*%
X162687000Y-95925000D03*
%TO.P,U2,1*%
%TO.N,Net-(R1-Pad1)*%
X161737000Y-95925000D03*
%TD*%
D15*
%TO.P,Q1,1*%
%TO.N,Net-(Q1-Pad1)*%
X167801000Y-95565000D03*
%TO.P,Q1,2*%
%TO.N,/Vout*%
X167801000Y-93665000D03*
%TO.P,Q1,3*%
%TO.N,+12V*%
X165701000Y-94615000D03*
%TD*%
%TO.P,C6,2*%
%TO.N,GND*%
%TA.AperFunction,SMDPad,CuDef*%
G36*
G01*
X169288750Y-94838000D02*
X169801250Y-94838000D01*
G75*
G02*
X170020000Y-95056750I0J-218750D01*
G01*
X170020000Y-95494250D01*
G75*
G02*
X169801250Y-95713000I-218750J0D01*
G01*
X169288750Y-95713000D01*
G75*
G02*
X169070000Y-95494250I0J218750D01*
G01*
X169070000Y-95056750D01*
G75*
G02*
X169288750Y-94838000I218750J0D01*
G01*
G37*
%TD.AperFunction*%
%TO.P,C6,1*%
%TO.N,/Vout*%
%TA.AperFunction,SMDPad,CuDef*%
G36*
G01*
X169288750Y-93263000D02*
X169801250Y-93263000D01*
G75*
G02*
X170020000Y-93481750I0J-218750D01*
G01*
X170020000Y-93919250D01*
G75*
G02*
X169801250Y-94138000I-218750J0D01*
G01*
X169288750Y-94138000D01*
G75*
G02*
X169070000Y-93919250I0J218750D01*
G01*
X169070000Y-93481750D01*
G75*
G02*
X169288750Y-93263000I218750J0D01*
G01*
G37*
%TD.AperFunction*%
%TD*%
%TO.P,C5,2*%
%TO.N,GND*%
%TA.AperFunction,SMDPad,CuDef*%
G36*
G01*
X170812750Y-94838000D02*
X171325250Y-94838000D01*
G75*
G02*
X171544000Y-95056750I0J-218750D01*
G01*
X171544000Y-95494250D01*
G75*
G02*
X171325250Y-95713000I-218750J0D01*
G01*
X170812750Y-95713000D01*
G75*
G02*
X170594000Y-95494250I0J218750D01*
G01*
X170594000Y-95056750D01*
G75*
G02*
X170812750Y-94838000I218750J0D01*
G01*
G37*
%TD.AperFunction*%
%TO.P,C5,1*%
%TO.N,/Vout*%
%TA.AperFunction,SMDPad,CuDef*%
G36*
G01*
X170812750Y-93263000D02*
X171325250Y-93263000D01*
G75*
G02*
X171544000Y-93481750I0J-218750D01*
G01*
X171544000Y-93919250D01*
G75*
G02*
X171325250Y-94138000I-218750J0D01*
G01*
X170812750Y-94138000D01*
G75*
G02*
X170594000Y-93919250I0J218750D01*
G01*
X170594000Y-93481750D01*
G75*
G02*
X170812750Y-93263000I218750J0D01*
G01*
G37*
%TD.AperFunction*%
%TD*%
%TO.P,C3,2*%
%TO.N,Net-(C3-Pad2)*%
%TA.AperFunction,SMDPad,CuDef*%
G36*
G01*
X158752250Y-96424000D02*
X158239750Y-96424000D01*
G75*
G02*
X158021000Y-96205250I0J218750D01*
G01*
X158021000Y-95767750D01*
G75*
G02*
X158239750Y-95549000I218750J0D01*
G01*
X158752250Y-95549000D01*
G75*
G02*
X158971000Y-95767750I0J-218750D01*
G01*
X158971000Y-96205250D01*
G75*
G02*
X158752250Y-96424000I-218750J0D01*
G01*
G37*
%TD.AperFunction*%
%TO.P,C3,1*%
%TO.N,GND*%
%TA.AperFunction,SMDPad,CuDef*%
G36*
G01*
X158752250Y-97999000D02*
X158239750Y-97999000D01*
G75*
G02*
X158021000Y-97780250I0J218750D01*
G01*
X158021000Y-97342750D01*
G75*
G02*
X158239750Y-97124000I218750J0D01*
G01*
X158752250Y-97124000D01*
G75*
G02*
X158971000Y-97342750I0J-218750D01*
G01*
X158971000Y-97780250D01*
G75*
G02*
X158752250Y-97999000I-218750J0D01*
G01*
G37*
%TD.AperFunction*%
%TD*%
%TO.P,C1,2*%
%TO.N,GND*%
%TA.AperFunction,SMDPad,CuDef*%
G36*
G01*
X148333750Y-96108000D02*
X148846250Y-96108000D01*
G75*
G02*
X149065000Y-96326750I0J-218750D01*
G01*
X149065000Y-96764250D01*
G75*
G02*
X148846250Y-96983000I-218750J0D01*
G01*
X148333750Y-96983000D01*
G75*
G02*
X148115000Y-96764250I0J218750D01*
G01*
X148115000Y-96326750D01*
G75*
G02*
X148333750Y-96108000I218750J0D01*
G01*
G37*
%TD.AperFunction*%
%TO.P,C1,1*%
%TO.N,+12V*%
%TA.AperFunction,SMDPad,CuDef*%
G36*
G01*
X148333750Y-94533000D02*
X148846250Y-94533000D01*
G75*
G02*
X149065000Y-94751750I0J-218750D01*
G01*
X149065000Y-95189250D01*
G75*
G02*
X148846250Y-95408000I-218750J0D01*
G01*
X148333750Y-95408000D01*
G75*
G02*
X148115000Y-95189250I0J218750D01*
G01*
X148115000Y-94751750D01*
G75*
G02*
X148333750Y-94533000I218750J0D01*
G01*
G37*
%TD.AperFunction*%
%TD*%
%TO.P,C4,2*%
%TO.N,GND*%
%TA.AperFunction,SMDPad,CuDef*%
G36*
G01*
X159827250Y-97124000D02*
X160339750Y-97124000D01*
G75*
G02*
X160558500Y-97342750I0J-218750D01*
G01*
X160558500Y-97780250D01*
G75*
G02*
X160339750Y-97999000I-218750J0D01*
G01*
X159827250Y-97999000D01*
G75*
G02*
X159608500Y-97780250I0J218750D01*
G01*
X159608500Y-97342750D01*
G75*
G02*
X159827250Y-97124000I218750J0D01*
G01*
G37*
%TD.AperFunction*%
%TO.P,C4,1*%
%TO.N,Net-(C3-Pad2)*%
%TA.AperFunction,SMDPad,CuDef*%
G36*
G01*
X159827250Y-95549000D02*
X160339750Y-95549000D01*
G75*
G02*
X160558500Y-95767750I0J-218750D01*
G01*
X160558500Y-96205250D01*
G75*
G02*
X160339750Y-96424000I-218750J0D01*
G01*
X159827250Y-96424000D01*
G75*
G02*
X159608500Y-96205250I0J218750D01*
G01*
X159608500Y-95767750D01*
G75*
G02*
X159827250Y-95549000I218750J0D01*
G01*
G37*
%TD.AperFunction*%
%TD*%
%TO.P,U1,8*%
%TO.N,Net-(U1-Pad8)*%
%TA.AperFunction,SMDPad,CuDef*%
G36*
G01*
X155605000Y-94629000D02*
X155605000Y-94429000D01*
G75*
G02*
X155705000Y-94329000I100000J0D01*
G01*
X157130000Y-94329000D01*
G75*
G02*
X157230000Y-94429000I0J-100000D01*
G01*
X157230000Y-94629000D01*
G75*
G02*
X157130000Y-94729000I-100000J0D01*
G01*
X155705000Y-94729000D01*
G75*
G02*
X155605000Y-94629000I0J100000D01*
G01*
G37*
%TD.AperFunction*%
%TO.P,U1,7*%
%TO.N,Net-(U1-Pad7)*%
%TA.AperFunction,SMDPad,CuDef*%
G36*
G01*
X155605000Y-95279000D02*
X155605000Y-95079000D01*
G75*
G02*
X155705000Y-94979000I100000J0D01*
G01*
X157130000Y-94979000D01*
G75*
G02*
X157230000Y-95079000I0J-100000D01*
G01*
X157230000Y-95279000D01*
G75*
G02*
X157130000Y-95379000I-100000J0D01*
G01*
X155705000Y-95379000D01*
G75*
G02*
X155605000Y-95279000I0J100000D01*
G01*
G37*
%TD.AperFunction*%
%TO.P,U1,6*%
%TO.N,Net-(C3-Pad2)*%
%TA.AperFunction,SMDPad,CuDef*%
G36*
G01*
X155605000Y-95929000D02*
X155605000Y-95729000D01*
G75*
G02*
X155705000Y-95629000I100000J0D01*
G01*
X157130000Y-95629000D01*
G75*
G02*
X157230000Y-95729000I0J-100000D01*
G01*
X157230000Y-95929000D01*
G75*
G02*
X157130000Y-96029000I-100000J0D01*
G01*
X155705000Y-96029000D01*
G75*
G02*
X155605000Y-95929000I0J100000D01*
G01*
G37*
%TD.AperFunction*%
%TO.P,U1,5*%
%TO.N,Net-(R2-Pad1)*%
%TA.AperFunction,SMDPad,CuDef*%
G36*
G01*
X155605000Y-96579000D02*
X155605000Y-96379000D01*
G75*
G02*
X155705000Y-96279000I100000J0D01*
G01*
X157130000Y-96279000D01*
G75*
G02*
X157230000Y-96379000I0J-100000D01*
G01*
X157230000Y-96579000D01*
G75*
G02*
X157130000Y-96679000I-100000J0D01*
G01*
X155705000Y-96679000D01*
G75*
G02*
X155605000Y-96579000I0J100000D01*
G01*
G37*
%TD.AperFunction*%
%TO.P,U1,4*%
%TO.N,GND*%
%TA.AperFunction,SMDPad,CuDef*%
G36*
G01*
X151380000Y-96579000D02*
X151380000Y-96379000D01*
G75*
G02*
X151480000Y-96279000I100000J0D01*
G01*
X152905000Y-96279000D01*
G75*
G02*
X153005000Y-96379000I0J-100000D01*
G01*
X153005000Y-96579000D01*
G75*
G02*
X152905000Y-96679000I-100000J0D01*
G01*
X151480000Y-96679000D01*
G75*
G02*
X151380000Y-96579000I0J100000D01*
G01*
G37*
%TD.AperFunction*%
%TO.P,U1,3*%
%TO.N,Net-(U1-Pad3)*%
%TA.AperFunction,SMDPad,CuDef*%
G36*
G01*
X151380000Y-95929000D02*
X151380000Y-95729000D01*
G75*
G02*
X151480000Y-95629000I100000J0D01*
G01*
X152905000Y-95629000D01*
G75*
G02*
X153005000Y-95729000I0J-100000D01*
G01*
X153005000Y-95929000D01*
G75*
G02*
X152905000Y-96029000I-100000J0D01*
G01*
X151480000Y-96029000D01*
G75*
G02*
X151380000Y-95929000I0J100000D01*
G01*
G37*
%TD.AperFunction*%
%TO.P,U1,2*%
%TO.N,+12V*%
%TA.AperFunction,SMDPad,CuDef*%
G36*
G01*
X151380000Y-95279000D02*
X151380000Y-95079000D01*
G75*
G02*
X151480000Y-94979000I100000J0D01*
G01*
X152905000Y-94979000D01*
G75*
G02*
X153005000Y-95079000I0J-100000D01*
G01*
X153005000Y-95279000D01*
G75*
G02*
X152905000Y-95379000I-100000J0D01*
G01*
X151480000Y-95379000D01*
G75*
G02*
X151380000Y-95279000I0J100000D01*
G01*
G37*
%TD.AperFunction*%
%TO.P,U1,1*%
%TO.N,Net-(U1-Pad1)*%
%TA.AperFunction,SMDPad,CuDef*%
G36*
G01*
X151380000Y-94629000D02*
X151380000Y-94429000D01*
G75*
G02*
X151480000Y-94329000I100000J0D01*
G01*
X152905000Y-94329000D01*
G75*
G02*
X153005000Y-94429000I0J-100000D01*
G01*
X153005000Y-94629000D01*
G75*
G02*
X152905000Y-94729000I-100000J0D01*
G01*
X151480000Y-94729000D01*
G75*
G02*
X151380000Y-94629000I0J100000D01*
G01*
G37*
%TD.AperFunction*%
%TD*%
%TO.P,R1,2*%
%TO.N,Net-(Q1-Pad1)*%
%TA.AperFunction,SMDPad,CuDef*%
G36*
G01*
X161414750Y-98775000D02*
X161927250Y-98775000D01*
G75*
G02*
X162146000Y-98993750I0J-218750D01*
G01*
X162146000Y-99431250D01*
G75*
G02*
X161927250Y-99650000I-218750J0D01*
G01*
X161414750Y-99650000D01*
G75*
G02*
X161196000Y-99431250I0J218750D01*
G01*
X161196000Y-98993750D01*
G75*
G02*
X161414750Y-98775000I218750J0D01*
G01*
G37*
%TD.AperFunction*%
%TO.P,R1,1*%
%TO.N,Net-(R1-Pad1)*%
%TA.AperFunction,SMDPad,CuDef*%
G36*
G01*
X161414750Y-97200000D02*
X161927250Y-97200000D01*
G75*
G02*
X162146000Y-97418750I0J-218750D01*
G01*
X162146000Y-97856250D01*
G75*
G02*
X161927250Y-98075000I-218750J0D01*
G01*
X161414750Y-98075000D01*
G75*
G02*
X161196000Y-97856250I0J218750D01*
G01*
X161196000Y-97418750D01*
G75*
G02*
X161414750Y-97200000I218750J0D01*
G01*
G37*
%TD.AperFunction*%
%TD*%
%TO.P,C2,2*%
%TO.N,+12V*%
%TA.AperFunction,SMDPad,CuDef*%
G36*
G01*
X150370250Y-95408000D02*
X149857750Y-95408000D01*
G75*
G02*
X149639000Y-95189250I0J218750D01*
G01*
X149639000Y-94751750D01*
G75*
G02*
X149857750Y-94533000I218750J0D01*
G01*
X150370250Y-94533000D01*
G75*
G02*
X150589000Y-94751750I0J-218750D01*
G01*
X150589000Y-95189250D01*
G75*
G02*
X150370250Y-95408000I-218750J0D01*
G01*
G37*
%TD.AperFunction*%
%TO.P,C2,1*%
%TO.N,GND*%
%TA.AperFunction,SMDPad,CuDef*%
G36*
G01*
X150370250Y-96983000D02*
X149857750Y-96983000D01*
G75*
G02*
X149639000Y-96764250I0J218750D01*
G01*
X149639000Y-96326750D01*
G75*
G02*
X149857750Y-96108000I218750J0D01*
G01*
X150370250Y-96108000D01*
G75*
G02*
X150589000Y-96326750I0J-218750D01*
G01*
X150589000Y-96764250D01*
G75*
G02*
X150370250Y-96983000I-218750J0D01*
G01*
G37*
%TD.AperFunction*%
%TD*%
D16*
%TO.N,GND*%
X150114000Y-97409000D03*
X148590000Y-97409000D03*
X163195000Y-97409000D03*
X169545000Y-96266000D03*
X171069000Y-96266000D03*
X160083488Y-98615500D03*
X152192504Y-97362504D03*
X158496000Y-98552000D03*
X152273000Y-102870000D03*
X165227000Y-103759000D03*
X168529000Y-99822000D03*
X171958000Y-90170000D03*
X166624000Y-89535000D03*
X159004000Y-90551000D03*
X154432000Y-90297000D03*
X156413200Y-101396800D03*
%TD*%
D17*
%TO.N,GND*%
X162687000Y-96901000D02*
X163195000Y-97409000D01*
X162687000Y-95925000D02*
X162687000Y-96901000D01*
X148590000Y-96545500D02*
X148590000Y-97409000D01*
X150114000Y-96545500D02*
X150114000Y-97409000D01*
X169545000Y-95275500D02*
X169545000Y-96266000D01*
X171069000Y-95275500D02*
X171069000Y-96266000D01*
X160083500Y-98615488D02*
X160083488Y-98615500D01*
X160083500Y-97561500D02*
X160083500Y-98615488D01*
X152192500Y-97362500D02*
X152192504Y-97362504D01*
X152192500Y-96479000D02*
X152192500Y-97362500D01*
X158496000Y-97561500D02*
X158496000Y-98552000D01*
D18*
X156413200Y-102438100D02*
X156413200Y-101396800D01*
D17*
%TO.N,/Vout*%
X163637000Y-93305000D02*
X166330000Y-93305000D01*
X166690000Y-93665000D02*
X167801000Y-93665000D01*
X166330000Y-93305000D02*
X166690000Y-93665000D01*
X169509500Y-93665000D02*
X169545000Y-93700500D01*
X167801000Y-93665000D02*
X169509500Y-93665000D01*
X169545000Y-93700500D02*
X171069000Y-93700500D01*
X173329500Y-93700500D02*
X174117000Y-94488000D01*
X171069000Y-93700500D02*
X173329500Y-93700500D01*
X169291000Y-88265000D02*
X169291000Y-89916000D01*
X171069000Y-91694000D02*
X171069000Y-93700500D01*
X169291000Y-89916000D02*
X171069000Y-91694000D01*
%TO.N,+12V*%
X161982990Y-94414990D02*
X165500990Y-94414990D01*
X165500990Y-94414990D02*
X165701000Y-94615000D01*
X161737000Y-94169000D02*
X161982990Y-94414990D01*
X161737000Y-93305000D02*
X161737000Y-94169000D01*
X148097500Y-94478000D02*
X148590000Y-94970500D01*
X145796000Y-94478000D02*
X148097500Y-94478000D01*
X148590000Y-94970500D02*
X150114000Y-94970500D01*
X150322500Y-95179000D02*
X150114000Y-94970500D01*
X152192500Y-95179000D02*
X150322500Y-95179000D01*
X150114000Y-94970500D02*
X150114000Y-93599000D01*
X150408000Y-93305000D02*
X161737000Y-93305000D01*
X150114000Y-93599000D02*
X150408000Y-93305000D01*
%TO.N,Net-(Q1-Pad1)*%
X161671000Y-99212500D02*
X165201500Y-99212500D01*
X167801000Y-96613000D02*
X167801000Y-95565000D01*
X165201500Y-99212500D02*
X167801000Y-96613000D01*
%TO.N,Net-(R1-Pad1)*%
X161737000Y-97571500D02*
X161671000Y-97637500D01*
X161737000Y-95925000D02*
X161737000Y-97571500D01*
%TO.N,Net-(C3-Pad2)*%
X158338500Y-95829000D02*
X158496000Y-95986500D01*
X156417500Y-95829000D02*
X158338500Y-95829000D01*
X158496000Y-95986500D02*
X160083500Y-95986500D01*
X163637000Y-95925000D02*
X163637000Y-95057000D01*
X161201000Y-94869000D02*
X160083500Y-95986500D01*
X163449000Y-94869000D02*
X161201000Y-94869000D01*
X163637000Y-95057000D02*
X163449000Y-94869000D01*
D18*
X156417500Y-95829000D02*
X155123000Y-95829000D01*
X153822400Y-97129600D02*
X153822400Y-98552000D01*
X155123000Y-95829000D02*
X153822400Y-97129600D01*
%TO.N,Net-(R2-Pad2)*%
X156413200Y-99745900D02*
X155829100Y-100330000D01*
X152044400Y-100330000D02*
X151282400Y-101092000D01*
X155829100Y-100330000D02*
X152044400Y-100330000D01*
%TO.N,Net-(R2-Pad1)*%
X156417500Y-98166600D02*
X156413200Y-98170900D01*
X156417500Y-96479000D02*
X156417500Y-98166600D01*
%TO.N,Net-(R3-Pad1)*%
X154203500Y-104013100D02*
X153822400Y-103632000D01*
X156413200Y-104013100D02*
X154203500Y-104013100D01*
%TD*%
D17*
%TO.N,GND*%
G36*
X175743000Y-109830000D02*
G01*
X144170000Y-109830000D01*
X144170000Y-106230495D01*
X170735000Y-106230495D01*
X170735000Y-106621505D01*
X170811282Y-107005003D01*
X170960915Y-107366250D01*
X171178149Y-107691364D01*
X171454636Y-107967851D01*
X171779750Y-108185085D01*
X172140997Y-108334718D01*
X172524495Y-108411000D01*
X172915505Y-108411000D01*
X173299003Y-108334718D01*
X173660250Y-108185085D01*
X173985364Y-107967851D01*
X174261851Y-107691364D01*
X174479085Y-107366250D01*
X174628718Y-107005003D01*
X174705000Y-106621505D01*
X174705000Y-106230495D01*
X174628718Y-105846997D01*
X174479085Y-105485750D01*
X174261851Y-105160636D01*
X173985364Y-104884149D01*
X173660250Y-104666915D01*
X173299003Y-104517282D01*
X172915505Y-104441000D01*
X172524495Y-104441000D01*
X172140997Y-104517282D01*
X171779750Y-104666915D01*
X171454636Y-104884149D01*
X171178149Y-105160636D01*
X170960915Y-105485750D01*
X170811282Y-105846997D01*
X170735000Y-106230495D01*
X144170000Y-106230495D01*
X144170000Y-103498544D01*
X152467400Y-103498544D01*
X152467400Y-103765456D01*
X152519472Y-104027239D01*
X152621615Y-104273833D01*
X152769903Y-104495762D01*
X152958638Y-104684497D01*
X153180567Y-104832785D01*
X153427161Y-104934928D01*
X153688944Y-104987000D01*
X153955856Y-104987000D01*
X154217639Y-104934928D01*
X154464233Y-104832785D01*
X154553558Y-104773100D01*
X155498057Y-104773100D01*
X155551085Y-104837715D01*
X155680925Y-104944271D01*
X155829058Y-105023450D01*
X155989792Y-105072208D01*
X156156950Y-105088672D01*
X156669450Y-105088672D01*
X156836608Y-105072208D01*
X156997342Y-105023450D01*
X157145475Y-104944271D01*
X157275315Y-104837715D01*
X157381871Y-104707875D01*
X157461050Y-104559742D01*
X157509808Y-104399008D01*
X157526272Y-104231850D01*
X157526272Y-103794350D01*
X157509808Y-103627192D01*
X157461050Y-103466458D01*
X157381871Y-103318325D01*
X157364100Y-103296670D01*
X157418737Y-103230094D01*
X157477702Y-103119780D01*
X157514012Y-103000082D01*
X157526272Y-102875600D01*
X157523200Y-102723850D01*
X157364450Y-102565100D01*
X156540200Y-102565100D01*
X156540200Y-102585100D01*
X156286200Y-102585100D01*
X156286200Y-102565100D01*
X155461950Y-102565100D01*
X155303200Y-102723850D01*
X155300128Y-102875600D01*
X155312388Y-103000082D01*
X155348698Y-103119780D01*
X155407663Y-103230094D01*
X155426543Y-103253100D01*
X155128578Y-103253100D01*
X155125328Y-103236761D01*
X155023185Y-102990167D01*
X154874897Y-102768238D01*
X154686162Y-102579503D01*
X154464233Y-102431215D01*
X154217639Y-102329072D01*
X153955856Y-102277000D01*
X153688944Y-102277000D01*
X153427161Y-102329072D01*
X153180567Y-102431215D01*
X152958638Y-102579503D01*
X152769903Y-102768238D01*
X152621615Y-102990167D01*
X152519472Y-103236761D01*
X152467400Y-103498544D01*
X144170000Y-103498544D01*
X144170000Y-97374890D01*
X144354524Y-97374890D01*
X144399175Y-97522099D01*
X144524359Y-97784920D01*
X144698412Y-98018269D01*
X144914645Y-98213178D01*
X145164748Y-98362157D01*
X145439109Y-98459481D01*
X145669000Y-98338814D01*
X145669000Y-97145000D01*
X145923000Y-97145000D01*
X145923000Y-98338814D01*
X146152891Y-98459481D01*
X146427252Y-98362157D01*
X146677355Y-98213178D01*
X146893588Y-98018269D01*
X147067641Y-97784920D01*
X147192825Y-97522099D01*
X147237476Y-97374890D01*
X147116155Y-97145000D01*
X145923000Y-97145000D01*
X145669000Y-97145000D01*
X144475845Y-97145000D01*
X144354524Y-97374890D01*
X144170000Y-97374890D01*
X144170000Y-96983000D01*
X147476928Y-96983000D01*
X147489188Y-97107482D01*
X147525498Y-97227180D01*
X147584463Y-97337494D01*
X147663815Y-97434185D01*
X147760506Y-97513537D01*
X147870820Y-97572502D01*
X147990518Y-97608812D01*
X148115000Y-97621072D01*
X148304250Y-97618000D01*
X148463000Y-97459250D01*
X148463000Y-96672500D01*
X148717000Y-96672500D01*
X148717000Y-97459250D01*
X148875750Y-97618000D01*
X149065000Y-97621072D01*
X149189482Y-97608812D01*
X149309180Y-97572502D01*
X149352000Y-97549614D01*
X149394820Y-97572502D01*
X149514518Y-97608812D01*
X149639000Y-97621072D01*
X149828250Y-97618000D01*
X149987000Y-97459250D01*
X149987000Y-96672500D01*
X148717000Y-96672500D01*
X148463000Y-96672500D01*
X147638750Y-96672500D01*
X147480000Y-96831250D01*
X147476928Y-96983000D01*
X144170000Y-96983000D01*
X144170000Y-93628000D01*
X144307928Y-93628000D01*
X144307928Y-95328000D01*
X144320188Y-95452482D01*
X144356498Y-95572180D01*
X144415463Y-95682494D01*
X144494815Y-95779185D01*
X144591506Y-95858537D01*
X144701820Y-95917502D01*
X144782466Y-95941966D01*
X144698412Y-96017731D01*
X144524359Y-96251080D01*
X144399175Y-96513901D01*
X144354524Y-96661110D01*
X144475845Y-96891000D01*
X145669000Y-96891000D01*
X145669000Y-96871000D01*
X145923000Y-96871000D01*
X145923000Y-96891000D01*
X147116155Y-96891000D01*
X147237476Y-96661110D01*
X147192825Y-96513901D01*
X147067641Y-96251080D01*
X146893588Y-96017731D01*
X146809534Y-95941966D01*
X146890180Y-95917502D01*
X147000494Y-95858537D01*
X147097185Y-95779185D01*
X147176537Y-95682494D01*
X147235502Y-95572180D01*
X147271812Y-95452482D01*
X147284072Y-95328000D01*
X147284072Y-95240000D01*
X147481927Y-95240000D01*
X147493392Y-95356408D01*
X147542150Y-95517142D01*
X147621329Y-95665275D01*
X147639100Y-95686930D01*
X147584463Y-95753506D01*
X147525498Y-95863820D01*
X147489188Y-95983518D01*
X147476928Y-96108000D01*
X147480000Y-96259750D01*
X147638750Y-96418500D01*
X148463000Y-96418500D01*
X148463000Y-96398500D01*
X148717000Y-96398500D01*
X148717000Y-96418500D01*
X149987000Y-96418500D01*
X149987000Y-96398500D01*
X150241000Y-96398500D01*
X150241000Y-96418500D01*
X150261000Y-96418500D01*
X150261000Y-96672500D01*
X150241000Y-96672500D01*
X150241000Y-97459250D01*
X150399750Y-97618000D01*
X150589000Y-97621072D01*
X150713482Y-97608812D01*
X150833180Y-97572502D01*
X150943494Y-97513537D01*
X151040185Y-97434185D01*
X151119537Y-97337494D01*
X151153213Y-97274492D01*
X151264322Y-97306499D01*
X151388963Y-97317009D01*
X151906750Y-97314000D01*
X152065500Y-97155250D01*
X152065500Y-96667072D01*
X152319500Y-96667072D01*
X152319500Y-97155250D01*
X152478250Y-97314000D01*
X152996037Y-97317009D01*
X153062400Y-97311413D01*
X153062400Y-97430171D01*
X152958638Y-97499503D01*
X152769903Y-97688238D01*
X152621615Y-97910167D01*
X152519472Y-98156761D01*
X152467400Y-98418544D01*
X152467400Y-98685456D01*
X152519472Y-98947239D01*
X152621615Y-99193833D01*
X152769903Y-99415762D01*
X152924141Y-99570000D01*
X152081725Y-99570000D01*
X152044400Y-99566324D01*
X152007075Y-99570000D01*
X152007067Y-99570000D01*
X151895414Y-99580997D01*
X151752153Y-99624454D01*
X151620124Y-99695026D01*
X151539106Y-99761516D01*
X151415856Y-99737000D01*
X151148944Y-99737000D01*
X150887161Y-99789072D01*
X150640567Y-99891215D01*
X150418638Y-100039503D01*
X150229903Y-100228238D01*
X150081615Y-100450167D01*
X149979472Y-100696761D01*
X149927400Y-100958544D01*
X149927400Y-101225456D01*
X149979472Y-101487239D01*
X150081615Y-101733833D01*
X150229903Y-101955762D01*
X150418638Y-102144497D01*
X150640567Y-102292785D01*
X150887161Y-102394928D01*
X151148944Y-102447000D01*
X151415856Y-102447000D01*
X151677639Y-102394928D01*
X151924233Y-102292785D01*
X152146162Y-102144497D01*
X152290059Y-102000600D01*
X155300128Y-102000600D01*
X155303200Y-102152350D01*
X155461950Y-102311100D01*
X156286200Y-102311100D01*
X156286200Y-101524350D01*
X156540200Y-101524350D01*
X156540200Y-102311100D01*
X157364450Y-102311100D01*
X157523200Y-102152350D01*
X157526272Y-102000600D01*
X157514012Y-101876118D01*
X157477702Y-101756420D01*
X157418737Y-101646106D01*
X157339385Y-101549415D01*
X157242694Y-101470063D01*
X157132380Y-101411098D01*
X157012682Y-101374788D01*
X156888200Y-101362528D01*
X156698950Y-101365600D01*
X156540200Y-101524350D01*
X156286200Y-101524350D01*
X156127450Y-101365600D01*
X155938200Y-101362528D01*
X155813718Y-101374788D01*
X155694020Y-101411098D01*
X155583706Y-101470063D01*
X155487015Y-101549415D01*
X155407663Y-101646106D01*
X155348698Y-101756420D01*
X155312388Y-101876118D01*
X155300128Y-102000600D01*
X152290059Y-102000600D01*
X152334897Y-101955762D01*
X152483185Y-101733833D01*
X152585328Y-101487239D01*
X152637400Y-101225456D01*
X152637400Y-101090000D01*
X155791778Y-101090000D01*
X155829100Y-101093676D01*
X155866422Y-101090000D01*
X155866433Y-101090000D01*
X155978086Y-101079003D01*
X156121347Y-101035546D01*
X156253376Y-100964974D01*
X156369101Y-100870001D01*
X156392903Y-100840998D01*
X156412429Y-100821472D01*
X156669450Y-100821472D01*
X156836608Y-100805008D01*
X156997342Y-100756250D01*
X157145475Y-100677071D01*
X157275315Y-100570515D01*
X157381871Y-100440675D01*
X157461050Y-100292542D01*
X157509808Y-100131808D01*
X157526272Y-99964650D01*
X157526272Y-99527150D01*
X157509808Y-99359992D01*
X157461050Y-99199258D01*
X157381871Y-99051125D01*
X157305774Y-98958400D01*
X157381871Y-98865675D01*
X157461050Y-98717542D01*
X157509808Y-98556808D01*
X157525614Y-98396326D01*
X157569815Y-98450185D01*
X157666506Y-98529537D01*
X157776820Y-98588502D01*
X157896518Y-98624812D01*
X158021000Y-98637072D01*
X158210250Y-98634000D01*
X158369000Y-98475250D01*
X158369000Y-97688500D01*
X158623000Y-97688500D01*
X158623000Y-98475250D01*
X158781750Y-98634000D01*
X158971000Y-98637072D01*
X159095482Y-98624812D01*
X159215180Y-98588502D01*
X159289750Y-98548643D01*
X159364320Y-98588502D01*
X159484018Y-98624812D01*
X159608500Y-98637072D01*
X159797750Y-98634000D01*
X159956500Y-98475250D01*
X159956500Y-97688500D01*
X158623000Y-97688500D01*
X158369000Y-97688500D01*
X158349000Y-97688500D01*
X158349000Y-97434500D01*
X158369000Y-97434500D01*
X158369000Y-97414500D01*
X158623000Y-97414500D01*
X158623000Y-97434500D01*
X159956500Y-97434500D01*
X159956500Y-97414500D01*
X160210500Y-97414500D01*
X160210500Y-97434500D01*
X160230500Y-97434500D01*
X160230500Y-97688500D01*
X160210500Y-97688500D01*
X160210500Y-98475250D01*
X160369250Y-98634000D01*
X160558500Y-98637072D01*
X160642984Y-98628751D01*
X160623150Y-98665858D01*
X160574392Y-98826592D01*
X160557928Y-98993750D01*
X160557928Y-99431250D01*
X160574392Y-99598408D01*
X160623150Y-99759142D01*
X160702329Y-99907275D01*
X160808885Y-100037115D01*
X160938725Y-100143671D01*
X161086858Y-100222850D01*
X161247592Y-100271608D01*
X161414750Y-100288072D01*
X161927250Y-100288072D01*
X162094408Y-100271608D01*
X162255142Y-100222850D01*
X162403275Y-100143671D01*
X162533115Y-100037115D01*
X162584501Y-99974500D01*
X165164077Y-99974500D01*
X165201500Y-99978186D01*
X165238923Y-99974500D01*
X165238926Y-99974500D01*
X165350878Y-99963474D01*
X165494515Y-99919902D01*
X165626892Y-99849145D01*
X165742922Y-99753922D01*
X165766784Y-99724846D01*
X167613630Y-97878000D01*
X172628928Y-97878000D01*
X172641188Y-98002482D01*
X172677498Y-98122180D01*
X172736463Y-98232494D01*
X172815815Y-98329185D01*
X172912506Y-98408537D01*
X173022820Y-98467502D01*
X173142518Y-98503812D01*
X173267000Y-98516072D01*
X173831250Y-98513000D01*
X173990000Y-98354250D01*
X173990000Y-97155000D01*
X174244000Y-97155000D01*
X174244000Y-98354250D01*
X174402750Y-98513000D01*
X174967000Y-98516072D01*
X175091482Y-98503812D01*
X175211180Y-98467502D01*
X175321494Y-98408537D01*
X175418185Y-98329185D01*
X175497537Y-98232494D01*
X175556502Y-98122180D01*
X175592812Y-98002482D01*
X175605072Y-97878000D01*
X175602000Y-97313750D01*
X175443250Y-97155000D01*
X174244000Y-97155000D01*
X173990000Y-97155000D01*
X172790750Y-97155000D01*
X172632000Y-97313750D01*
X172628928Y-97878000D01*
X167613630Y-97878000D01*
X168313353Y-97178278D01*
X168342422Y-97154422D01*
X168437645Y-97038392D01*
X168508402Y-96906015D01*
X168551974Y-96762378D01*
X168563000Y-96650426D01*
X168563000Y-96650424D01*
X168566686Y-96613001D01*
X168563000Y-96575578D01*
X168563000Y-96492041D01*
X168575482Y-96490812D01*
X168695180Y-96454502D01*
X168805494Y-96395537D01*
X168893749Y-96323108D01*
X168945518Y-96338812D01*
X169070000Y-96351072D01*
X169259250Y-96348000D01*
X169418000Y-96189250D01*
X169418000Y-95402500D01*
X169672000Y-95402500D01*
X169672000Y-96189250D01*
X169830750Y-96348000D01*
X170020000Y-96351072D01*
X170144482Y-96338812D01*
X170264180Y-96302502D01*
X170307000Y-96279614D01*
X170349820Y-96302502D01*
X170469518Y-96338812D01*
X170594000Y-96351072D01*
X170783250Y-96348000D01*
X170942000Y-96189250D01*
X170942000Y-95402500D01*
X171196000Y-95402500D01*
X171196000Y-96189250D01*
X171354750Y-96348000D01*
X171544000Y-96351072D01*
X171668482Y-96338812D01*
X171788180Y-96302502D01*
X171898494Y-96243537D01*
X171995185Y-96164185D01*
X172074537Y-96067494D01*
X172133502Y-95957180D01*
X172169812Y-95837482D01*
X172182072Y-95713000D01*
X172179000Y-95561250D01*
X172020250Y-95402500D01*
X171196000Y-95402500D01*
X170942000Y-95402500D01*
X169672000Y-95402500D01*
X169418000Y-95402500D01*
X169398000Y-95402500D01*
X169398000Y-95148500D01*
X169418000Y-95148500D01*
X169418000Y-95128500D01*
X169672000Y-95128500D01*
X169672000Y-95148500D01*
X170942000Y-95148500D01*
X170942000Y-95128500D01*
X171196000Y-95128500D01*
X171196000Y-95148500D01*
X172020250Y-95148500D01*
X172179000Y-94989750D01*
X172182072Y-94838000D01*
X172169812Y-94713518D01*
X172133502Y-94593820D01*
X172074537Y-94483506D01*
X172057298Y-94462500D01*
X172632000Y-94462500D01*
X172632000Y-94634260D01*
X172689068Y-94921158D01*
X172801010Y-95191411D01*
X172963525Y-95434632D01*
X173095380Y-95566487D01*
X173022820Y-95588498D01*
X172912506Y-95647463D01*
X172815815Y-95726815D01*
X172736463Y-95823506D01*
X172677498Y-95933820D01*
X172641188Y-96053518D01*
X172628928Y-96178000D01*
X172632000Y-96742250D01*
X172790750Y-96901000D01*
X173990000Y-96901000D01*
X173990000Y-96881000D01*
X174244000Y-96881000D01*
X174244000Y-96901000D01*
X175443250Y-96901000D01*
X175602000Y-96742250D01*
X175605072Y-96178000D01*
X175592812Y-96053518D01*
X175556502Y-95933820D01*
X175497537Y-95823506D01*
X175418185Y-95726815D01*
X175321494Y-95647463D01*
X175211180Y-95588498D01*
X175138620Y-95566487D01*
X175270475Y-95434632D01*
X175432990Y-95191411D01*
X175544932Y-94921158D01*
X175602000Y-94634260D01*
X175602000Y-94341740D01*
X175544932Y-94054842D01*
X175432990Y-93784589D01*
X175270475Y-93541368D01*
X175063632Y-93334525D01*
X174820411Y-93172010D01*
X174550158Y-93060068D01*
X174263260Y-93003000D01*
X173970740Y-93003000D01*
X173730459Y-93050795D01*
X173622515Y-92993098D01*
X173478878Y-92949526D01*
X173366926Y-92938500D01*
X173366923Y-92938500D01*
X173329500Y-92934814D01*
X173292077Y-92938500D01*
X171982501Y-92938500D01*
X171931115Y-92875885D01*
X171831000Y-92793723D01*
X171831000Y-91731423D01*
X171834686Y-91694000D01*
X171831000Y-91656574D01*
X171819974Y-91544622D01*
X171776402Y-91400985D01*
X171705646Y-91268609D01*
X171705645Y-91268607D01*
X171670857Y-91226219D01*
X171610422Y-91152578D01*
X171581347Y-91128717D01*
X170053000Y-89600370D01*
X170053000Y-89421573D01*
X170173886Y-89340799D01*
X170366799Y-89147886D01*
X170518371Y-88921043D01*
X170622775Y-88668989D01*
X170676000Y-88401411D01*
X170676000Y-88128589D01*
X170622775Y-87861011D01*
X170518371Y-87608957D01*
X170366799Y-87382114D01*
X170173886Y-87189201D01*
X169947043Y-87037629D01*
X169694989Y-86933225D01*
X169427411Y-86880000D01*
X169154589Y-86880000D01*
X168887011Y-86933225D01*
X168634957Y-87037629D01*
X168408114Y-87189201D01*
X168215201Y-87382114D01*
X168063629Y-87608957D01*
X167959225Y-87861011D01*
X167906000Y-88128589D01*
X167906000Y-88401411D01*
X167959225Y-88668989D01*
X168063629Y-88921043D01*
X168215201Y-89147886D01*
X168408114Y-89340799D01*
X168529001Y-89421573D01*
X168529001Y-89878567D01*
X168525314Y-89916000D01*
X168540027Y-90065378D01*
X168583599Y-90209015D01*
X168654355Y-90341392D01*
X168725721Y-90428351D01*
X168749579Y-90457422D01*
X168778649Y-90481279D01*
X170307000Y-92009630D01*
X170307001Y-92793723D01*
X170307000Y-92793723D01*
X170277275Y-92769329D01*
X170129142Y-92690150D01*
X169968408Y-92641392D01*
X169801250Y-92624928D01*
X169288750Y-92624928D01*
X169121592Y-92641392D01*
X168960858Y-92690150D01*
X168812725Y-92769329D01*
X168761810Y-92811113D01*
X168695180Y-92775498D01*
X168575482Y-92739188D01*
X168451000Y-92726928D01*
X167151000Y-92726928D01*
X167026518Y-92739188D01*
X166906820Y-92775498D01*
X166889015Y-92785015D01*
X166871422Y-92763578D01*
X166755392Y-92668355D01*
X166623015Y-92597598D01*
X166479378Y-92554026D01*
X166367426Y-92543000D01*
X166367423Y-92543000D01*
X166330000Y-92539314D01*
X166292577Y-92543000D01*
X164579465Y-92543000D01*
X164551502Y-92450820D01*
X164492537Y-92340506D01*
X164413185Y-92243815D01*
X164316494Y-92164463D01*
X164206180Y-92105498D01*
X164086482Y-92069188D01*
X163962000Y-92056928D01*
X163312000Y-92056928D01*
X163187518Y-92069188D01*
X163067820Y-92105498D01*
X162957506Y-92164463D01*
X162860815Y-92243815D01*
X162781463Y-92340506D01*
X162722498Y-92450820D01*
X162687000Y-92567841D01*
X162651502Y-92450820D01*
X162592537Y-92340506D01*
X162513185Y-92243815D01*
X162416494Y-92164463D01*
X162306180Y-92105498D01*
X162186482Y-92069188D01*
X162062000Y-92056928D01*
X161412000Y-92056928D01*
X161287518Y-92069188D01*
X161167820Y-92105498D01*
X161057506Y-92164463D01*
X160960815Y-92243815D01*
X160881463Y-92340506D01*
X160822498Y-92450820D01*
X160794535Y-92543000D01*
X150445423Y-92543000D01*
X150408000Y-92539314D01*
X150370577Y-92543000D01*
X150370574Y-92543000D01*
X150258622Y-92554026D01*
X150114985Y-92597598D01*
X149982608Y-92668355D01*
X149866578Y-92763578D01*
X149842716Y-92792654D01*
X149601649Y-93033721D01*
X149572579Y-93057578D01*
X149548722Y-93086648D01*
X149548721Y-93086649D01*
X149477355Y-93173608D01*
X149406599Y-93305985D01*
X149363027Y-93449622D01*
X149348314Y-93599000D01*
X149352001Y-93636433D01*
X149352001Y-94063723D01*
X149352000Y-94063723D01*
X149322275Y-94039329D01*
X149174142Y-93960150D01*
X149013408Y-93911392D01*
X148846250Y-93894928D01*
X148588171Y-93894928D01*
X148522892Y-93841355D01*
X148390515Y-93770598D01*
X148246878Y-93727026D01*
X148134926Y-93716000D01*
X148134923Y-93716000D01*
X148097500Y-93712314D01*
X148060077Y-93716000D01*
X147284072Y-93716000D01*
X147284072Y-93628000D01*
X147271812Y-93503518D01*
X147235502Y-93383820D01*
X147176537Y-93273506D01*
X147097185Y-93176815D01*
X147000494Y-93097463D01*
X146890180Y-93038498D01*
X146770482Y-93002188D01*
X146646000Y-92989928D01*
X144946000Y-92989928D01*
X144821518Y-93002188D01*
X144701820Y-93038498D01*
X144591506Y-93097463D01*
X144494815Y-93176815D01*
X144415463Y-93273506D01*
X144356498Y-93383820D01*
X144320188Y-93503518D01*
X144307928Y-93628000D01*
X144170000Y-93628000D01*
X144170000Y-86926495D01*
X147367000Y-86926495D01*
X147367000Y-87317505D01*
X147443282Y-87701003D01*
X147592915Y-88062250D01*
X147810149Y-88387364D01*
X148086636Y-88663851D01*
X148411750Y-88881085D01*
X148772997Y-89030718D01*
X149156495Y-89107000D01*
X149547505Y-89107000D01*
X149931003Y-89030718D01*
X150292250Y-88881085D01*
X150617364Y-88663851D01*
X150893851Y-88387364D01*
X151111085Y-88062250D01*
X151260718Y-87701003D01*
X151337000Y-87317505D01*
X151337000Y-86926495D01*
X151260718Y-86542997D01*
X151111085Y-86181750D01*
X150893851Y-85856636D01*
X150617364Y-85580149D01*
X150292250Y-85362915D01*
X149931003Y-85213282D01*
X149547505Y-85137000D01*
X149156495Y-85137000D01*
X148772997Y-85213282D01*
X148411750Y-85362915D01*
X148086636Y-85580149D01*
X147810149Y-85856636D01*
X147592915Y-86181750D01*
X147443282Y-86542997D01*
X147367000Y-86926495D01*
X144170000Y-86926495D01*
X144170000Y-84480000D01*
X175743001Y-84480000D01*
X175743000Y-109830000D01*
G37*
X175743000Y-109830000D02*
X144170000Y-109830000D01*
X144170000Y-106230495D01*
X170735000Y-106230495D01*
X170735000Y-106621505D01*
X170811282Y-107005003D01*
X170960915Y-107366250D01*
X171178149Y-107691364D01*
X171454636Y-107967851D01*
X171779750Y-108185085D01*
X172140997Y-108334718D01*
X172524495Y-108411000D01*
X172915505Y-108411000D01*
X173299003Y-108334718D01*
X173660250Y-108185085D01*
X173985364Y-107967851D01*
X174261851Y-107691364D01*
X174479085Y-107366250D01*
X174628718Y-107005003D01*
X174705000Y-106621505D01*
X174705000Y-106230495D01*
X174628718Y-105846997D01*
X174479085Y-105485750D01*
X174261851Y-105160636D01*
X173985364Y-104884149D01*
X173660250Y-104666915D01*
X173299003Y-104517282D01*
X172915505Y-104441000D01*
X172524495Y-104441000D01*
X172140997Y-104517282D01*
X171779750Y-104666915D01*
X171454636Y-104884149D01*
X171178149Y-105160636D01*
X170960915Y-105485750D01*
X170811282Y-105846997D01*
X170735000Y-106230495D01*
X144170000Y-106230495D01*
X144170000Y-103498544D01*
X152467400Y-103498544D01*
X152467400Y-103765456D01*
X152519472Y-104027239D01*
X152621615Y-104273833D01*
X152769903Y-104495762D01*
X152958638Y-104684497D01*
X153180567Y-104832785D01*
X153427161Y-104934928D01*
X153688944Y-104987000D01*
X153955856Y-104987000D01*
X154217639Y-104934928D01*
X154464233Y-104832785D01*
X154553558Y-104773100D01*
X155498057Y-104773100D01*
X155551085Y-104837715D01*
X155680925Y-104944271D01*
X155829058Y-105023450D01*
X155989792Y-105072208D01*
X156156950Y-105088672D01*
X156669450Y-105088672D01*
X156836608Y-105072208D01*
X156997342Y-105023450D01*
X157145475Y-104944271D01*
X157275315Y-104837715D01*
X157381871Y-104707875D01*
X157461050Y-104559742D01*
X157509808Y-104399008D01*
X157526272Y-104231850D01*
X157526272Y-103794350D01*
X157509808Y-103627192D01*
X157461050Y-103466458D01*
X157381871Y-103318325D01*
X157364100Y-103296670D01*
X157418737Y-103230094D01*
X157477702Y-103119780D01*
X157514012Y-103000082D01*
X157526272Y-102875600D01*
X157523200Y-102723850D01*
X157364450Y-102565100D01*
X156540200Y-102565100D01*
X156540200Y-102585100D01*
X156286200Y-102585100D01*
X156286200Y-102565100D01*
X155461950Y-102565100D01*
X155303200Y-102723850D01*
X155300128Y-102875600D01*
X155312388Y-103000082D01*
X155348698Y-103119780D01*
X155407663Y-103230094D01*
X155426543Y-103253100D01*
X155128578Y-103253100D01*
X155125328Y-103236761D01*
X155023185Y-102990167D01*
X154874897Y-102768238D01*
X154686162Y-102579503D01*
X154464233Y-102431215D01*
X154217639Y-102329072D01*
X153955856Y-102277000D01*
X153688944Y-102277000D01*
X153427161Y-102329072D01*
X153180567Y-102431215D01*
X152958638Y-102579503D01*
X152769903Y-102768238D01*
X152621615Y-102990167D01*
X152519472Y-103236761D01*
X152467400Y-103498544D01*
X144170000Y-103498544D01*
X144170000Y-97374890D01*
X144354524Y-97374890D01*
X144399175Y-97522099D01*
X144524359Y-97784920D01*
X144698412Y-98018269D01*
X144914645Y-98213178D01*
X145164748Y-98362157D01*
X145439109Y-98459481D01*
X145669000Y-98338814D01*
X145669000Y-97145000D01*
X145923000Y-97145000D01*
X145923000Y-98338814D01*
X146152891Y-98459481D01*
X146427252Y-98362157D01*
X146677355Y-98213178D01*
X146893588Y-98018269D01*
X147067641Y-97784920D01*
X147192825Y-97522099D01*
X147237476Y-97374890D01*
X147116155Y-97145000D01*
X145923000Y-97145000D01*
X145669000Y-97145000D01*
X144475845Y-97145000D01*
X144354524Y-97374890D01*
X144170000Y-97374890D01*
X144170000Y-96983000D01*
X147476928Y-96983000D01*
X147489188Y-97107482D01*
X147525498Y-97227180D01*
X147584463Y-97337494D01*
X147663815Y-97434185D01*
X147760506Y-97513537D01*
X147870820Y-97572502D01*
X147990518Y-97608812D01*
X148115000Y-97621072D01*
X148304250Y-97618000D01*
X148463000Y-97459250D01*
X148463000Y-96672500D01*
X148717000Y-96672500D01*
X148717000Y-97459250D01*
X148875750Y-97618000D01*
X149065000Y-97621072D01*
X149189482Y-97608812D01*
X149309180Y-97572502D01*
X149352000Y-97549614D01*
X149394820Y-97572502D01*
X149514518Y-97608812D01*
X149639000Y-97621072D01*
X149828250Y-97618000D01*
X149987000Y-97459250D01*
X149987000Y-96672500D01*
X148717000Y-96672500D01*
X148463000Y-96672500D01*
X147638750Y-96672500D01*
X147480000Y-96831250D01*
X147476928Y-96983000D01*
X144170000Y-96983000D01*
X144170000Y-93628000D01*
X144307928Y-93628000D01*
X144307928Y-95328000D01*
X144320188Y-95452482D01*
X144356498Y-95572180D01*
X144415463Y-95682494D01*
X144494815Y-95779185D01*
X144591506Y-95858537D01*
X144701820Y-95917502D01*
X144782466Y-95941966D01*
X144698412Y-96017731D01*
X144524359Y-96251080D01*
X144399175Y-96513901D01*
X144354524Y-96661110D01*
X144475845Y-96891000D01*
X145669000Y-96891000D01*
X145669000Y-96871000D01*
X145923000Y-96871000D01*
X145923000Y-96891000D01*
X147116155Y-96891000D01*
X147237476Y-96661110D01*
X147192825Y-96513901D01*
X147067641Y-96251080D01*
X146893588Y-96017731D01*
X146809534Y-95941966D01*
X146890180Y-95917502D01*
X147000494Y-95858537D01*
X147097185Y-95779185D01*
X147176537Y-95682494D01*
X147235502Y-95572180D01*
X147271812Y-95452482D01*
X147284072Y-95328000D01*
X147284072Y-95240000D01*
X147481927Y-95240000D01*
X147493392Y-95356408D01*
X147542150Y-95517142D01*
X147621329Y-95665275D01*
X147639100Y-95686930D01*
X147584463Y-95753506D01*
X147525498Y-95863820D01*
X147489188Y-95983518D01*
X147476928Y-96108000D01*
X147480000Y-96259750D01*
X147638750Y-96418500D01*
X148463000Y-96418500D01*
X148463000Y-96398500D01*
X148717000Y-96398500D01*
X148717000Y-96418500D01*
X149987000Y-96418500D01*
X149987000Y-96398500D01*
X150241000Y-96398500D01*
X150241000Y-96418500D01*
X150261000Y-96418500D01*
X150261000Y-96672500D01*
X150241000Y-96672500D01*
X150241000Y-97459250D01*
X150399750Y-97618000D01*
X150589000Y-97621072D01*
X150713482Y-97608812D01*
X150833180Y-97572502D01*
X150943494Y-97513537D01*
X151040185Y-97434185D01*
X151119537Y-97337494D01*
X151153213Y-97274492D01*
X151264322Y-97306499D01*
X151388963Y-97317009D01*
X151906750Y-97314000D01*
X152065500Y-97155250D01*
X152065500Y-96667072D01*
X152319500Y-96667072D01*
X152319500Y-97155250D01*
X152478250Y-97314000D01*
X152996037Y-97317009D01*
X153062400Y-97311413D01*
X153062400Y-97430171D01*
X152958638Y-97499503D01*
X152769903Y-97688238D01*
X152621615Y-97910167D01*
X152519472Y-98156761D01*
X152467400Y-98418544D01*
X152467400Y-98685456D01*
X152519472Y-98947239D01*
X152621615Y-99193833D01*
X152769903Y-99415762D01*
X152924141Y-99570000D01*
X152081725Y-99570000D01*
X152044400Y-99566324D01*
X152007075Y-99570000D01*
X152007067Y-99570000D01*
X151895414Y-99580997D01*
X151752153Y-99624454D01*
X151620124Y-99695026D01*
X151539106Y-99761516D01*
X151415856Y-99737000D01*
X151148944Y-99737000D01*
X150887161Y-99789072D01*
X150640567Y-99891215D01*
X150418638Y-100039503D01*
X150229903Y-100228238D01*
X150081615Y-100450167D01*
X149979472Y-100696761D01*
X149927400Y-100958544D01*
X149927400Y-101225456D01*
X149979472Y-101487239D01*
X150081615Y-101733833D01*
X150229903Y-101955762D01*
X150418638Y-102144497D01*
X150640567Y-102292785D01*
X150887161Y-102394928D01*
X151148944Y-102447000D01*
X151415856Y-102447000D01*
X151677639Y-102394928D01*
X151924233Y-102292785D01*
X152146162Y-102144497D01*
X152290059Y-102000600D01*
X155300128Y-102000600D01*
X155303200Y-102152350D01*
X155461950Y-102311100D01*
X156286200Y-102311100D01*
X156286200Y-101524350D01*
X156540200Y-101524350D01*
X156540200Y-102311100D01*
X157364450Y-102311100D01*
X157523200Y-102152350D01*
X157526272Y-102000600D01*
X157514012Y-101876118D01*
X157477702Y-101756420D01*
X157418737Y-101646106D01*
X157339385Y-101549415D01*
X157242694Y-101470063D01*
X157132380Y-101411098D01*
X157012682Y-101374788D01*
X156888200Y-101362528D01*
X156698950Y-101365600D01*
X156540200Y-101524350D01*
X156286200Y-101524350D01*
X156127450Y-101365600D01*
X155938200Y-101362528D01*
X155813718Y-101374788D01*
X155694020Y-101411098D01*
X155583706Y-101470063D01*
X155487015Y-101549415D01*
X155407663Y-101646106D01*
X155348698Y-101756420D01*
X155312388Y-101876118D01*
X155300128Y-102000600D01*
X152290059Y-102000600D01*
X152334897Y-101955762D01*
X152483185Y-101733833D01*
X152585328Y-101487239D01*
X152637400Y-101225456D01*
X152637400Y-101090000D01*
X155791778Y-101090000D01*
X155829100Y-101093676D01*
X155866422Y-101090000D01*
X155866433Y-101090000D01*
X155978086Y-101079003D01*
X156121347Y-101035546D01*
X156253376Y-100964974D01*
X156369101Y-100870001D01*
X156392903Y-100840998D01*
X156412429Y-100821472D01*
X156669450Y-100821472D01*
X156836608Y-100805008D01*
X156997342Y-100756250D01*
X157145475Y-100677071D01*
X157275315Y-100570515D01*
X157381871Y-100440675D01*
X157461050Y-100292542D01*
X157509808Y-100131808D01*
X157526272Y-99964650D01*
X157526272Y-99527150D01*
X157509808Y-99359992D01*
X157461050Y-99199258D01*
X157381871Y-99051125D01*
X157305774Y-98958400D01*
X157381871Y-98865675D01*
X157461050Y-98717542D01*
X157509808Y-98556808D01*
X157525614Y-98396326D01*
X157569815Y-98450185D01*
X157666506Y-98529537D01*
X157776820Y-98588502D01*
X157896518Y-98624812D01*
X158021000Y-98637072D01*
X158210250Y-98634000D01*
X158369000Y-98475250D01*
X158369000Y-97688500D01*
X158623000Y-97688500D01*
X158623000Y-98475250D01*
X158781750Y-98634000D01*
X158971000Y-98637072D01*
X159095482Y-98624812D01*
X159215180Y-98588502D01*
X159289750Y-98548643D01*
X159364320Y-98588502D01*
X159484018Y-98624812D01*
X159608500Y-98637072D01*
X159797750Y-98634000D01*
X159956500Y-98475250D01*
X159956500Y-97688500D01*
X158623000Y-97688500D01*
X158369000Y-97688500D01*
X158349000Y-97688500D01*
X158349000Y-97434500D01*
X158369000Y-97434500D01*
X158369000Y-97414500D01*
X158623000Y-97414500D01*
X158623000Y-97434500D01*
X159956500Y-97434500D01*
X159956500Y-97414500D01*
X160210500Y-97414500D01*
X160210500Y-97434500D01*
X160230500Y-97434500D01*
X160230500Y-97688500D01*
X160210500Y-97688500D01*
X160210500Y-98475250D01*
X160369250Y-98634000D01*
X160558500Y-98637072D01*
X160642984Y-98628751D01*
X160623150Y-98665858D01*
X160574392Y-98826592D01*
X160557928Y-98993750D01*
X160557928Y-99431250D01*
X160574392Y-99598408D01*
X160623150Y-99759142D01*
X160702329Y-99907275D01*
X160808885Y-100037115D01*
X160938725Y-100143671D01*
X161086858Y-100222850D01*
X161247592Y-100271608D01*
X161414750Y-100288072D01*
X161927250Y-100288072D01*
X162094408Y-100271608D01*
X162255142Y-100222850D01*
X162403275Y-100143671D01*
X162533115Y-100037115D01*
X162584501Y-99974500D01*
X165164077Y-99974500D01*
X165201500Y-99978186D01*
X165238923Y-99974500D01*
X165238926Y-99974500D01*
X165350878Y-99963474D01*
X165494515Y-99919902D01*
X165626892Y-99849145D01*
X165742922Y-99753922D01*
X165766784Y-99724846D01*
X167613630Y-97878000D01*
X172628928Y-97878000D01*
X172641188Y-98002482D01*
X172677498Y-98122180D01*
X172736463Y-98232494D01*
X172815815Y-98329185D01*
X172912506Y-98408537D01*
X173022820Y-98467502D01*
X173142518Y-98503812D01*
X173267000Y-98516072D01*
X173831250Y-98513000D01*
X173990000Y-98354250D01*
X173990000Y-97155000D01*
X174244000Y-97155000D01*
X174244000Y-98354250D01*
X174402750Y-98513000D01*
X174967000Y-98516072D01*
X175091482Y-98503812D01*
X175211180Y-98467502D01*
X175321494Y-98408537D01*
X175418185Y-98329185D01*
X175497537Y-98232494D01*
X175556502Y-98122180D01*
X175592812Y-98002482D01*
X175605072Y-97878000D01*
X175602000Y-97313750D01*
X175443250Y-97155000D01*
X174244000Y-97155000D01*
X173990000Y-97155000D01*
X172790750Y-97155000D01*
X172632000Y-97313750D01*
X172628928Y-97878000D01*
X167613630Y-97878000D01*
X168313353Y-97178278D01*
X168342422Y-97154422D01*
X168437645Y-97038392D01*
X168508402Y-96906015D01*
X168551974Y-96762378D01*
X168563000Y-96650426D01*
X168563000Y-96650424D01*
X168566686Y-96613001D01*
X168563000Y-96575578D01*
X168563000Y-96492041D01*
X168575482Y-96490812D01*
X168695180Y-96454502D01*
X168805494Y-96395537D01*
X168893749Y-96323108D01*
X168945518Y-96338812D01*
X169070000Y-96351072D01*
X169259250Y-96348000D01*
X169418000Y-96189250D01*
X169418000Y-95402500D01*
X169672000Y-95402500D01*
X169672000Y-96189250D01*
X169830750Y-96348000D01*
X170020000Y-96351072D01*
X170144482Y-96338812D01*
X170264180Y-96302502D01*
X170307000Y-96279614D01*
X170349820Y-96302502D01*
X170469518Y-96338812D01*
X170594000Y-96351072D01*
X170783250Y-96348000D01*
X170942000Y-96189250D01*
X170942000Y-95402500D01*
X171196000Y-95402500D01*
X171196000Y-96189250D01*
X171354750Y-96348000D01*
X171544000Y-96351072D01*
X171668482Y-96338812D01*
X171788180Y-96302502D01*
X171898494Y-96243537D01*
X171995185Y-96164185D01*
X172074537Y-96067494D01*
X172133502Y-95957180D01*
X172169812Y-95837482D01*
X172182072Y-95713000D01*
X172179000Y-95561250D01*
X172020250Y-95402500D01*
X171196000Y-95402500D01*
X170942000Y-95402500D01*
X169672000Y-95402500D01*
X169418000Y-95402500D01*
X169398000Y-95402500D01*
X169398000Y-95148500D01*
X169418000Y-95148500D01*
X169418000Y-95128500D01*
X169672000Y-95128500D01*
X169672000Y-95148500D01*
X170942000Y-95148500D01*
X170942000Y-95128500D01*
X171196000Y-95128500D01*
X171196000Y-95148500D01*
X172020250Y-95148500D01*
X172179000Y-94989750D01*
X172182072Y-94838000D01*
X172169812Y-94713518D01*
X172133502Y-94593820D01*
X172074537Y-94483506D01*
X172057298Y-94462500D01*
X172632000Y-94462500D01*
X172632000Y-94634260D01*
X172689068Y-94921158D01*
X172801010Y-95191411D01*
X172963525Y-95434632D01*
X173095380Y-95566487D01*
X173022820Y-95588498D01*
X172912506Y-95647463D01*
X172815815Y-95726815D01*
X172736463Y-95823506D01*
X172677498Y-95933820D01*
X172641188Y-96053518D01*
X172628928Y-96178000D01*
X172632000Y-96742250D01*
X172790750Y-96901000D01*
X173990000Y-96901000D01*
X173990000Y-96881000D01*
X174244000Y-96881000D01*
X174244000Y-96901000D01*
X175443250Y-96901000D01*
X175602000Y-96742250D01*
X175605072Y-96178000D01*
X175592812Y-96053518D01*
X175556502Y-95933820D01*
X175497537Y-95823506D01*
X175418185Y-95726815D01*
X175321494Y-95647463D01*
X175211180Y-95588498D01*
X175138620Y-95566487D01*
X175270475Y-95434632D01*
X175432990Y-95191411D01*
X175544932Y-94921158D01*
X175602000Y-94634260D01*
X175602000Y-94341740D01*
X175544932Y-94054842D01*
X175432990Y-93784589D01*
X175270475Y-93541368D01*
X175063632Y-93334525D01*
X174820411Y-93172010D01*
X174550158Y-93060068D01*
X174263260Y-93003000D01*
X173970740Y-93003000D01*
X173730459Y-93050795D01*
X173622515Y-92993098D01*
X173478878Y-92949526D01*
X173366926Y-92938500D01*
X173366923Y-92938500D01*
X173329500Y-92934814D01*
X173292077Y-92938500D01*
X171982501Y-92938500D01*
X171931115Y-92875885D01*
X171831000Y-92793723D01*
X171831000Y-91731423D01*
X171834686Y-91694000D01*
X171831000Y-91656574D01*
X171819974Y-91544622D01*
X171776402Y-91400985D01*
X171705646Y-91268609D01*
X171705645Y-91268607D01*
X171670857Y-91226219D01*
X171610422Y-91152578D01*
X171581347Y-91128717D01*
X170053000Y-89600370D01*
X170053000Y-89421573D01*
X170173886Y-89340799D01*
X170366799Y-89147886D01*
X170518371Y-88921043D01*
X170622775Y-88668989D01*
X170676000Y-88401411D01*
X170676000Y-88128589D01*
X170622775Y-87861011D01*
X170518371Y-87608957D01*
X170366799Y-87382114D01*
X170173886Y-87189201D01*
X169947043Y-87037629D01*
X169694989Y-86933225D01*
X169427411Y-86880000D01*
X169154589Y-86880000D01*
X168887011Y-86933225D01*
X168634957Y-87037629D01*
X168408114Y-87189201D01*
X168215201Y-87382114D01*
X168063629Y-87608957D01*
X167959225Y-87861011D01*
X167906000Y-88128589D01*
X167906000Y-88401411D01*
X167959225Y-88668989D01*
X168063629Y-88921043D01*
X168215201Y-89147886D01*
X168408114Y-89340799D01*
X168529001Y-89421573D01*
X168529001Y-89878567D01*
X168525314Y-89916000D01*
X168540027Y-90065378D01*
X168583599Y-90209015D01*
X168654355Y-90341392D01*
X168725721Y-90428351D01*
X168749579Y-90457422D01*
X168778649Y-90481279D01*
X170307000Y-92009630D01*
X170307001Y-92793723D01*
X170307000Y-92793723D01*
X170277275Y-92769329D01*
X170129142Y-92690150D01*
X169968408Y-92641392D01*
X169801250Y-92624928D01*
X169288750Y-92624928D01*
X169121592Y-92641392D01*
X168960858Y-92690150D01*
X168812725Y-92769329D01*
X168761810Y-92811113D01*
X168695180Y-92775498D01*
X168575482Y-92739188D01*
X168451000Y-92726928D01*
X167151000Y-92726928D01*
X167026518Y-92739188D01*
X166906820Y-92775498D01*
X166889015Y-92785015D01*
X166871422Y-92763578D01*
X166755392Y-92668355D01*
X166623015Y-92597598D01*
X166479378Y-92554026D01*
X166367426Y-92543000D01*
X166367423Y-92543000D01*
X166330000Y-92539314D01*
X166292577Y-92543000D01*
X164579465Y-92543000D01*
X164551502Y-92450820D01*
X164492537Y-92340506D01*
X164413185Y-92243815D01*
X164316494Y-92164463D01*
X164206180Y-92105498D01*
X164086482Y-92069188D01*
X163962000Y-92056928D01*
X163312000Y-92056928D01*
X163187518Y-92069188D01*
X163067820Y-92105498D01*
X162957506Y-92164463D01*
X162860815Y-92243815D01*
X162781463Y-92340506D01*
X162722498Y-92450820D01*
X162687000Y-92567841D01*
X162651502Y-92450820D01*
X162592537Y-92340506D01*
X162513185Y-92243815D01*
X162416494Y-92164463D01*
X162306180Y-92105498D01*
X162186482Y-92069188D01*
X162062000Y-92056928D01*
X161412000Y-92056928D01*
X161287518Y-92069188D01*
X161167820Y-92105498D01*
X161057506Y-92164463D01*
X160960815Y-92243815D01*
X160881463Y-92340506D01*
X160822498Y-92450820D01*
X160794535Y-92543000D01*
X150445423Y-92543000D01*
X150408000Y-92539314D01*
X150370577Y-92543000D01*
X150370574Y-92543000D01*
X150258622Y-92554026D01*
X150114985Y-92597598D01*
X149982608Y-92668355D01*
X149866578Y-92763578D01*
X149842716Y-92792654D01*
X149601649Y-93033721D01*
X149572579Y-93057578D01*
X149548722Y-93086648D01*
X149548721Y-93086649D01*
X149477355Y-93173608D01*
X149406599Y-93305985D01*
X149363027Y-93449622D01*
X149348314Y-93599000D01*
X149352001Y-93636433D01*
X149352001Y-94063723D01*
X149352000Y-94063723D01*
X149322275Y-94039329D01*
X149174142Y-93960150D01*
X149013408Y-93911392D01*
X148846250Y-93894928D01*
X148588171Y-93894928D01*
X148522892Y-93841355D01*
X148390515Y-93770598D01*
X148246878Y-93727026D01*
X148134926Y-93716000D01*
X148134923Y-93716000D01*
X148097500Y-93712314D01*
X148060077Y-93716000D01*
X147284072Y-93716000D01*
X147284072Y-93628000D01*
X147271812Y-93503518D01*
X147235502Y-93383820D01*
X147176537Y-93273506D01*
X147097185Y-93176815D01*
X147000494Y-93097463D01*
X146890180Y-93038498D01*
X146770482Y-93002188D01*
X146646000Y-92989928D01*
X144946000Y-92989928D01*
X144821518Y-93002188D01*
X144701820Y-93038498D01*
X144591506Y-93097463D01*
X144494815Y-93176815D01*
X144415463Y-93273506D01*
X144356498Y-93383820D01*
X144320188Y-93503518D01*
X144307928Y-93628000D01*
X144170000Y-93628000D01*
X144170000Y-86926495D01*
X147367000Y-86926495D01*
X147367000Y-87317505D01*
X147443282Y-87701003D01*
X147592915Y-88062250D01*
X147810149Y-88387364D01*
X148086636Y-88663851D01*
X148411750Y-88881085D01*
X148772997Y-89030718D01*
X149156495Y-89107000D01*
X149547505Y-89107000D01*
X149931003Y-89030718D01*
X150292250Y-88881085D01*
X150617364Y-88663851D01*
X150893851Y-88387364D01*
X151111085Y-88062250D01*
X151260718Y-87701003D01*
X151337000Y-87317505D01*
X151337000Y-86926495D01*
X151260718Y-86542997D01*
X151111085Y-86181750D01*
X150893851Y-85856636D01*
X150617364Y-85580149D01*
X150292250Y-85362915D01*
X149931003Y-85213282D01*
X149547505Y-85137000D01*
X149156495Y-85137000D01*
X148772997Y-85213282D01*
X148411750Y-85362915D01*
X148086636Y-85580149D01*
X147810149Y-85856636D01*
X147592915Y-86181750D01*
X147443282Y-86542997D01*
X147367000Y-86926495D01*
X144170000Y-86926495D01*
X144170000Y-84480000D01*
X175743001Y-84480000D01*
X175743000Y-109830000D01*
G36*
X164696506Y-95445537D02*
G01*
X164806820Y-95504502D01*
X164926518Y-95540812D01*
X165051000Y-95553072D01*
X166351000Y-95553072D01*
X166475482Y-95540812D01*
X166512928Y-95529453D01*
X166512928Y-95865000D01*
X166525188Y-95989482D01*
X166561498Y-96109180D01*
X166620463Y-96219494D01*
X166699815Y-96316185D01*
X166796506Y-96395537D01*
X166890559Y-96445810D01*
X164885870Y-98450500D01*
X162584501Y-98450500D01*
X162563574Y-98425000D01*
X162639671Y-98332275D01*
X162718850Y-98184142D01*
X162767608Y-98023408D01*
X162784072Y-97856250D01*
X162784072Y-97418750D01*
X162767608Y-97251592D01*
X162742857Y-97170000D01*
X162814002Y-97170000D01*
X162814002Y-97011252D01*
X162972750Y-97170000D01*
X163012000Y-97173072D01*
X163136482Y-97160812D01*
X163162000Y-97153071D01*
X163187518Y-97160812D01*
X163312000Y-97173072D01*
X163962000Y-97173072D01*
X164086482Y-97160812D01*
X164206180Y-97124502D01*
X164316494Y-97065537D01*
X164413185Y-96986185D01*
X164492537Y-96889494D01*
X164551502Y-96779180D01*
X164587812Y-96659482D01*
X164600072Y-96535000D01*
X164600072Y-95366396D01*
X164696506Y-95445537D01*
G37*
X164696506Y-95445537D02*
X164806820Y-95504502D01*
X164926518Y-95540812D01*
X165051000Y-95553072D01*
X166351000Y-95553072D01*
X166475482Y-95540812D01*
X166512928Y-95529453D01*
X166512928Y-95865000D01*
X166525188Y-95989482D01*
X166561498Y-96109180D01*
X166620463Y-96219494D01*
X166699815Y-96316185D01*
X166796506Y-96395537D01*
X166890559Y-96445810D01*
X164885870Y-98450500D01*
X162584501Y-98450500D01*
X162563574Y-98425000D01*
X162639671Y-98332275D01*
X162718850Y-98184142D01*
X162767608Y-98023408D01*
X162784072Y-97856250D01*
X162784072Y-97418750D01*
X162767608Y-97251592D01*
X162742857Y-97170000D01*
X162814002Y-97170000D01*
X162814002Y-97011252D01*
X162972750Y-97170000D01*
X163012000Y-97173072D01*
X163136482Y-97160812D01*
X163162000Y-97153071D01*
X163187518Y-97160812D01*
X163312000Y-97173072D01*
X163962000Y-97173072D01*
X164086482Y-97160812D01*
X164206180Y-97124502D01*
X164316494Y-97065537D01*
X164413185Y-96986185D01*
X164492537Y-96889494D01*
X164551502Y-96779180D01*
X164587812Y-96659482D01*
X164600072Y-96535000D01*
X164600072Y-95366396D01*
X164696506Y-95445537D01*
%TD*%
M02*
