%TF.GenerationSoftware,KiCad,Pcbnew,5.1.6-c6e7f7d~87~ubuntu18.04.1*%
%TF.CreationDate,2021-12-04T00:40:26-08:00*%
%TF.ProjectId,thermocouple-amp,74686572-6d6f-4636-9f75-706c652d616d,rev?*%
%TF.SameCoordinates,Original*%
%TF.FileFunction,Copper,L2,Bot*%
%TF.FilePolarity,Positive*%
%FSLAX46Y46*%
G04 Gerber Fmt 4.6, Leading zero omitted, Abs format (unit mm)*
G04 Created by KiCad (PCBNEW 5.1.6-c6e7f7d~87~ubuntu18.04.1) date 2021-12-04 00:40:26*
%MOMM*%
%LPD*%
G01*
G04 APERTURE LIST*
%TA.AperFunction,ComponentPad*%
%ADD10C,2.600000*%
%TD*%
%TA.AperFunction,ComponentPad*%
%ADD11R,2.600000X2.600000*%
%TD*%
%TA.AperFunction,ComponentPad*%
%ADD12C,1.440000*%
%TD*%
%TA.AperFunction,ComponentPad*%
%ADD13O,1.700000X1.700000*%
%TD*%
%TA.AperFunction,ComponentPad*%
%ADD14R,1.700000X1.700000*%
%TD*%
%TA.AperFunction,ViaPad*%
%ADD15C,0.800000*%
%TD*%
%TA.AperFunction,Conductor*%
%ADD16C,0.254000*%
%TD*%
G04 APERTURE END LIST*
D10*
%TO.P,TC1,2*%
%TO.N,Net-(R2-Pad1)*%
X170865800Y-96068000D03*
D11*
%TO.P,TC1,1*%
%TO.N,Net-(R4-Pad2)*%
X170865800Y-99568000D03*
%TD*%
D12*
%TO.P,RV1,3*%
%TO.N,GND*%
X153314400Y-92151200D03*
%TO.P,RV1,2*%
%TO.N,Net-(RV1-Pad2)*%
X155854400Y-94691200D03*
%TO.P,RV1,1*%
%TO.N,Net-(R5-Pad1)*%
X158394400Y-92151200D03*
%TD*%
D13*
%TO.P,J2,4*%
%TO.N,/Vout*%
X144856200Y-100380800D03*
%TO.P,J2,3*%
%TO.N,GND*%
X144856200Y-97840800D03*
%TO.P,J2,2*%
%TO.N,+12V*%
X144856200Y-95300800D03*
D14*
%TO.P,J2,1*%
%TO.N,+5V*%
X144856200Y-92760800D03*
%TD*%
D15*
%TO.N,GND*%
X151460200Y-91008200D03*
X147345400Y-91135200D03*
X141147800Y-88722200D03*
X143002000Y-104800400D03*
X146050000Y-106375200D03*
X150901400Y-107188000D03*
X151790400Y-107188000D03*
X154076400Y-104521000D03*
X162026600Y-93091000D03*
X150571200Y-96443800D03*
X156337000Y-106146600D03*
X172237400Y-88569800D03*
X159867600Y-85547200D03*
X149225000Y-86741000D03*
X148463000Y-98983800D03*
X161671000Y-98933000D03*
X164084000Y-103632000D03*
X160147000Y-102743000D03*
%TO.N,Net-(RV1-Pad2)*%
X160147009Y-100412210D03*
%TD*%
D16*
%TO.N,Net-(RV1-Pad2)*%
X160147009Y-98983809D02*
X160147009Y-100412210D01*
X155854400Y-94691200D02*
X160147009Y-98983809D01*
%TD*%
%TO.N,GND*%
G36*
X175743000Y-109830000D02*
G01*
X140614000Y-109830000D01*
X140614000Y-106230495D01*
X170735000Y-106230495D01*
X170735000Y-106621505D01*
X170811282Y-107005003D01*
X170960915Y-107366250D01*
X171178149Y-107691364D01*
X171454636Y-107967851D01*
X171779750Y-108185085D01*
X172140997Y-108334718D01*
X172524495Y-108411000D01*
X172915505Y-108411000D01*
X173299003Y-108334718D01*
X173660250Y-108185085D01*
X173985364Y-107967851D01*
X174261851Y-107691364D01*
X174479085Y-107366250D01*
X174628718Y-107005003D01*
X174705000Y-106621505D01*
X174705000Y-106230495D01*
X174628718Y-105846997D01*
X174479085Y-105485750D01*
X174261851Y-105160636D01*
X173985364Y-104884149D01*
X173660250Y-104666915D01*
X173299003Y-104517282D01*
X172915505Y-104441000D01*
X172524495Y-104441000D01*
X172140997Y-104517282D01*
X171779750Y-104666915D01*
X171454636Y-104884149D01*
X171178149Y-105160636D01*
X170960915Y-105485750D01*
X170811282Y-105846997D01*
X170735000Y-106230495D01*
X140614000Y-106230495D01*
X140614000Y-100234540D01*
X143371200Y-100234540D01*
X143371200Y-100527060D01*
X143428268Y-100813958D01*
X143540210Y-101084211D01*
X143702725Y-101327432D01*
X143909568Y-101534275D01*
X144152789Y-101696790D01*
X144423042Y-101808732D01*
X144709940Y-101865800D01*
X145002460Y-101865800D01*
X145289358Y-101808732D01*
X145559611Y-101696790D01*
X145802832Y-101534275D01*
X146009675Y-101327432D01*
X146172190Y-101084211D01*
X146284132Y-100813958D01*
X146341200Y-100527060D01*
X146341200Y-100234540D01*
X146284132Y-99947642D01*
X146172190Y-99677389D01*
X146009675Y-99434168D01*
X145802832Y-99227325D01*
X145620666Y-99105605D01*
X145737555Y-99035978D01*
X145953788Y-98841069D01*
X146127841Y-98607720D01*
X146253025Y-98344899D01*
X146297676Y-98197690D01*
X146176355Y-97967800D01*
X144983200Y-97967800D01*
X144983200Y-97987800D01*
X144729200Y-97987800D01*
X144729200Y-97967800D01*
X143536045Y-97967800D01*
X143414724Y-98197690D01*
X143459375Y-98344899D01*
X143584559Y-98607720D01*
X143758612Y-98841069D01*
X143974845Y-99035978D01*
X144091734Y-99105605D01*
X143909568Y-99227325D01*
X143702725Y-99434168D01*
X143540210Y-99677389D01*
X143428268Y-99947642D01*
X143371200Y-100234540D01*
X140614000Y-100234540D01*
X140614000Y-91910800D01*
X143368128Y-91910800D01*
X143368128Y-93610800D01*
X143380388Y-93735282D01*
X143416698Y-93854980D01*
X143475663Y-93965294D01*
X143555015Y-94061985D01*
X143651706Y-94141337D01*
X143762020Y-94200302D01*
X143834580Y-94222313D01*
X143702725Y-94354168D01*
X143540210Y-94597389D01*
X143428268Y-94867642D01*
X143371200Y-95154540D01*
X143371200Y-95447060D01*
X143428268Y-95733958D01*
X143540210Y-96004211D01*
X143702725Y-96247432D01*
X143909568Y-96454275D01*
X144091734Y-96575995D01*
X143974845Y-96645622D01*
X143758612Y-96840531D01*
X143584559Y-97073880D01*
X143459375Y-97336701D01*
X143414724Y-97483910D01*
X143536045Y-97713800D01*
X144729200Y-97713800D01*
X144729200Y-97693800D01*
X144983200Y-97693800D01*
X144983200Y-97713800D01*
X146176355Y-97713800D01*
X146297676Y-97483910D01*
X146253025Y-97336701D01*
X146127841Y-97073880D01*
X145953788Y-96840531D01*
X145737555Y-96645622D01*
X145620666Y-96575995D01*
X145802832Y-96454275D01*
X146009675Y-96247432D01*
X146172190Y-96004211D01*
X146284132Y-95733958D01*
X146341200Y-95447060D01*
X146341200Y-95154540D01*
X146284132Y-94867642D01*
X146172190Y-94597389D01*
X146145701Y-94557744D01*
X154499400Y-94557744D01*
X154499400Y-94824656D01*
X154551472Y-95086439D01*
X154653615Y-95333033D01*
X154801903Y-95554962D01*
X154990638Y-95743697D01*
X155212567Y-95891985D01*
X155459161Y-95994128D01*
X155720944Y-96046200D01*
X155987856Y-96046200D01*
X156107893Y-96022323D01*
X159385009Y-99299440D01*
X159385010Y-99710498D01*
X159343072Y-99752436D01*
X159229804Y-99921954D01*
X159151783Y-100110312D01*
X159112009Y-100310271D01*
X159112009Y-100514149D01*
X159151783Y-100714108D01*
X159229804Y-100902466D01*
X159343072Y-101071984D01*
X159487235Y-101216147D01*
X159656753Y-101329415D01*
X159845111Y-101407436D01*
X160045070Y-101447210D01*
X160248948Y-101447210D01*
X160448907Y-101407436D01*
X160637265Y-101329415D01*
X160806783Y-101216147D01*
X160950946Y-101071984D01*
X161064214Y-100902466D01*
X161142235Y-100714108D01*
X161182009Y-100514149D01*
X161182009Y-100310271D01*
X161142235Y-100110312D01*
X161064214Y-99921954D01*
X160950946Y-99752436D01*
X160909009Y-99710499D01*
X160909009Y-99021232D01*
X160912695Y-98983809D01*
X160904027Y-98895800D01*
X160897983Y-98834431D01*
X160854411Y-98690794D01*
X160783655Y-98558418D01*
X160783654Y-98558416D01*
X160712288Y-98471457D01*
X160688431Y-98442387D01*
X160659362Y-98418531D01*
X160508831Y-98268000D01*
X168927728Y-98268000D01*
X168927728Y-100868000D01*
X168939988Y-100992482D01*
X168976298Y-101112180D01*
X169035263Y-101222494D01*
X169114615Y-101319185D01*
X169211306Y-101398537D01*
X169321620Y-101457502D01*
X169441318Y-101493812D01*
X169565800Y-101506072D01*
X172165800Y-101506072D01*
X172290282Y-101493812D01*
X172409980Y-101457502D01*
X172520294Y-101398537D01*
X172616985Y-101319185D01*
X172696337Y-101222494D01*
X172755302Y-101112180D01*
X172791612Y-100992482D01*
X172803872Y-100868000D01*
X172803872Y-98268000D01*
X172791612Y-98143518D01*
X172755302Y-98023820D01*
X172696337Y-97913506D01*
X172616985Y-97816815D01*
X172520294Y-97737463D01*
X172409980Y-97678498D01*
X172290282Y-97642188D01*
X172165800Y-97629928D01*
X172011118Y-97629928D01*
X172099291Y-97571013D01*
X172368813Y-97301491D01*
X172580575Y-96984566D01*
X172726439Y-96632419D01*
X172800800Y-96258581D01*
X172800800Y-95877419D01*
X172726439Y-95503581D01*
X172580575Y-95151434D01*
X172368813Y-94834509D01*
X172099291Y-94564987D01*
X171782366Y-94353225D01*
X171430219Y-94207361D01*
X171056381Y-94133000D01*
X170675219Y-94133000D01*
X170301381Y-94207361D01*
X169949234Y-94353225D01*
X169632309Y-94564987D01*
X169362787Y-94834509D01*
X169151025Y-95151434D01*
X169005161Y-95503581D01*
X168930800Y-95877419D01*
X168930800Y-96258581D01*
X169005161Y-96632419D01*
X169151025Y-96984566D01*
X169362787Y-97301491D01*
X169632309Y-97571013D01*
X169720482Y-97629928D01*
X169565800Y-97629928D01*
X169441318Y-97642188D01*
X169321620Y-97678498D01*
X169211306Y-97737463D01*
X169114615Y-97816815D01*
X169035263Y-97913506D01*
X168976298Y-98023820D01*
X168939988Y-98143518D01*
X168927728Y-98268000D01*
X160508831Y-98268000D01*
X157185523Y-94944693D01*
X157209400Y-94824656D01*
X157209400Y-94557744D01*
X157157328Y-94295961D01*
X157055185Y-94049367D01*
X156906897Y-93827438D01*
X156718162Y-93638703D01*
X156496233Y-93490415D01*
X156249639Y-93388272D01*
X155987856Y-93336200D01*
X155720944Y-93336200D01*
X155459161Y-93388272D01*
X155212567Y-93490415D01*
X154990638Y-93638703D01*
X154801903Y-93827438D01*
X154653615Y-94049367D01*
X154551472Y-94295961D01*
X154499400Y-94557744D01*
X146145701Y-94557744D01*
X146009675Y-94354168D01*
X145877820Y-94222313D01*
X145950380Y-94200302D01*
X146060694Y-94141337D01*
X146157385Y-94061985D01*
X146236737Y-93965294D01*
X146295702Y-93854980D01*
X146332012Y-93735282D01*
X146344272Y-93610800D01*
X146344272Y-93086760D01*
X152558445Y-93086760D01*
X152620332Y-93322568D01*
X152862190Y-93435466D01*
X153121427Y-93499011D01*
X153388080Y-93510761D01*
X153651901Y-93470263D01*
X153902753Y-93379075D01*
X154008468Y-93322568D01*
X154070355Y-93086760D01*
X153314400Y-92330805D01*
X152558445Y-93086760D01*
X146344272Y-93086760D01*
X146344272Y-92224880D01*
X151954839Y-92224880D01*
X151995337Y-92488701D01*
X152086525Y-92739553D01*
X152143032Y-92845268D01*
X152378840Y-92907155D01*
X153134795Y-92151200D01*
X153494005Y-92151200D01*
X154249960Y-92907155D01*
X154485768Y-92845268D01*
X154598666Y-92603410D01*
X154662211Y-92344173D01*
X154673961Y-92077520D01*
X154664786Y-92017744D01*
X157039400Y-92017744D01*
X157039400Y-92284656D01*
X157091472Y-92546439D01*
X157193615Y-92793033D01*
X157341903Y-93014962D01*
X157530638Y-93203697D01*
X157752567Y-93351985D01*
X157999161Y-93454128D01*
X158260944Y-93506200D01*
X158527856Y-93506200D01*
X158789639Y-93454128D01*
X159036233Y-93351985D01*
X159258162Y-93203697D01*
X159446897Y-93014962D01*
X159595185Y-92793033D01*
X159697328Y-92546439D01*
X159749400Y-92284656D01*
X159749400Y-92017744D01*
X159697328Y-91755961D01*
X159595185Y-91509367D01*
X159446897Y-91287438D01*
X159258162Y-91098703D01*
X159036233Y-90950415D01*
X158789639Y-90848272D01*
X158527856Y-90796200D01*
X158260944Y-90796200D01*
X157999161Y-90848272D01*
X157752567Y-90950415D01*
X157530638Y-91098703D01*
X157341903Y-91287438D01*
X157193615Y-91509367D01*
X157091472Y-91755961D01*
X157039400Y-92017744D01*
X154664786Y-92017744D01*
X154633463Y-91813699D01*
X154542275Y-91562847D01*
X154485768Y-91457132D01*
X154249960Y-91395245D01*
X153494005Y-92151200D01*
X153134795Y-92151200D01*
X152378840Y-91395245D01*
X152143032Y-91457132D01*
X152030134Y-91698990D01*
X151966589Y-91958227D01*
X151954839Y-92224880D01*
X146344272Y-92224880D01*
X146344272Y-91910800D01*
X146332012Y-91786318D01*
X146295702Y-91666620D01*
X146236737Y-91556306D01*
X146157385Y-91459615D01*
X146060694Y-91380263D01*
X145950380Y-91321298D01*
X145830682Y-91284988D01*
X145706200Y-91272728D01*
X144006200Y-91272728D01*
X143881718Y-91284988D01*
X143762020Y-91321298D01*
X143651706Y-91380263D01*
X143555015Y-91459615D01*
X143475663Y-91556306D01*
X143416698Y-91666620D01*
X143380388Y-91786318D01*
X143368128Y-91910800D01*
X140614000Y-91910800D01*
X140614000Y-91215640D01*
X152558445Y-91215640D01*
X153314400Y-91971595D01*
X154070355Y-91215640D01*
X154008468Y-90979832D01*
X153766610Y-90866934D01*
X153507373Y-90803389D01*
X153240720Y-90791639D01*
X152976899Y-90832137D01*
X152726047Y-90923325D01*
X152620332Y-90979832D01*
X152558445Y-91215640D01*
X140614000Y-91215640D01*
X140614000Y-86926495D01*
X143303000Y-86926495D01*
X143303000Y-87317505D01*
X143379282Y-87701003D01*
X143528915Y-88062250D01*
X143746149Y-88387364D01*
X144022636Y-88663851D01*
X144347750Y-88881085D01*
X144708997Y-89030718D01*
X145092495Y-89107000D01*
X145483505Y-89107000D01*
X145867003Y-89030718D01*
X146228250Y-88881085D01*
X146553364Y-88663851D01*
X146829851Y-88387364D01*
X147047085Y-88062250D01*
X147196718Y-87701003D01*
X147273000Y-87317505D01*
X147273000Y-86926495D01*
X147196718Y-86542997D01*
X147047085Y-86181750D01*
X146829851Y-85856636D01*
X146553364Y-85580149D01*
X146228250Y-85362915D01*
X145867003Y-85213282D01*
X145483505Y-85137000D01*
X145092495Y-85137000D01*
X144708997Y-85213282D01*
X144347750Y-85362915D01*
X144022636Y-85580149D01*
X143746149Y-85856636D01*
X143528915Y-86181750D01*
X143379282Y-86542997D01*
X143303000Y-86926495D01*
X140614000Y-86926495D01*
X140614000Y-84480000D01*
X175743001Y-84480000D01*
X175743000Y-109830000D01*
G37*
X175743000Y-109830000D02*
X140614000Y-109830000D01*
X140614000Y-106230495D01*
X170735000Y-106230495D01*
X170735000Y-106621505D01*
X170811282Y-107005003D01*
X170960915Y-107366250D01*
X171178149Y-107691364D01*
X171454636Y-107967851D01*
X171779750Y-108185085D01*
X172140997Y-108334718D01*
X172524495Y-108411000D01*
X172915505Y-108411000D01*
X173299003Y-108334718D01*
X173660250Y-108185085D01*
X173985364Y-107967851D01*
X174261851Y-107691364D01*
X174479085Y-107366250D01*
X174628718Y-107005003D01*
X174705000Y-106621505D01*
X174705000Y-106230495D01*
X174628718Y-105846997D01*
X174479085Y-105485750D01*
X174261851Y-105160636D01*
X173985364Y-104884149D01*
X173660250Y-104666915D01*
X173299003Y-104517282D01*
X172915505Y-104441000D01*
X172524495Y-104441000D01*
X172140997Y-104517282D01*
X171779750Y-104666915D01*
X171454636Y-104884149D01*
X171178149Y-105160636D01*
X170960915Y-105485750D01*
X170811282Y-105846997D01*
X170735000Y-106230495D01*
X140614000Y-106230495D01*
X140614000Y-100234540D01*
X143371200Y-100234540D01*
X143371200Y-100527060D01*
X143428268Y-100813958D01*
X143540210Y-101084211D01*
X143702725Y-101327432D01*
X143909568Y-101534275D01*
X144152789Y-101696790D01*
X144423042Y-101808732D01*
X144709940Y-101865800D01*
X145002460Y-101865800D01*
X145289358Y-101808732D01*
X145559611Y-101696790D01*
X145802832Y-101534275D01*
X146009675Y-101327432D01*
X146172190Y-101084211D01*
X146284132Y-100813958D01*
X146341200Y-100527060D01*
X146341200Y-100234540D01*
X146284132Y-99947642D01*
X146172190Y-99677389D01*
X146009675Y-99434168D01*
X145802832Y-99227325D01*
X145620666Y-99105605D01*
X145737555Y-99035978D01*
X145953788Y-98841069D01*
X146127841Y-98607720D01*
X146253025Y-98344899D01*
X146297676Y-98197690D01*
X146176355Y-97967800D01*
X144983200Y-97967800D01*
X144983200Y-97987800D01*
X144729200Y-97987800D01*
X144729200Y-97967800D01*
X143536045Y-97967800D01*
X143414724Y-98197690D01*
X143459375Y-98344899D01*
X143584559Y-98607720D01*
X143758612Y-98841069D01*
X143974845Y-99035978D01*
X144091734Y-99105605D01*
X143909568Y-99227325D01*
X143702725Y-99434168D01*
X143540210Y-99677389D01*
X143428268Y-99947642D01*
X143371200Y-100234540D01*
X140614000Y-100234540D01*
X140614000Y-91910800D01*
X143368128Y-91910800D01*
X143368128Y-93610800D01*
X143380388Y-93735282D01*
X143416698Y-93854980D01*
X143475663Y-93965294D01*
X143555015Y-94061985D01*
X143651706Y-94141337D01*
X143762020Y-94200302D01*
X143834580Y-94222313D01*
X143702725Y-94354168D01*
X143540210Y-94597389D01*
X143428268Y-94867642D01*
X143371200Y-95154540D01*
X143371200Y-95447060D01*
X143428268Y-95733958D01*
X143540210Y-96004211D01*
X143702725Y-96247432D01*
X143909568Y-96454275D01*
X144091734Y-96575995D01*
X143974845Y-96645622D01*
X143758612Y-96840531D01*
X143584559Y-97073880D01*
X143459375Y-97336701D01*
X143414724Y-97483910D01*
X143536045Y-97713800D01*
X144729200Y-97713800D01*
X144729200Y-97693800D01*
X144983200Y-97693800D01*
X144983200Y-97713800D01*
X146176355Y-97713800D01*
X146297676Y-97483910D01*
X146253025Y-97336701D01*
X146127841Y-97073880D01*
X145953788Y-96840531D01*
X145737555Y-96645622D01*
X145620666Y-96575995D01*
X145802832Y-96454275D01*
X146009675Y-96247432D01*
X146172190Y-96004211D01*
X146284132Y-95733958D01*
X146341200Y-95447060D01*
X146341200Y-95154540D01*
X146284132Y-94867642D01*
X146172190Y-94597389D01*
X146145701Y-94557744D01*
X154499400Y-94557744D01*
X154499400Y-94824656D01*
X154551472Y-95086439D01*
X154653615Y-95333033D01*
X154801903Y-95554962D01*
X154990638Y-95743697D01*
X155212567Y-95891985D01*
X155459161Y-95994128D01*
X155720944Y-96046200D01*
X155987856Y-96046200D01*
X156107893Y-96022323D01*
X159385009Y-99299440D01*
X159385010Y-99710498D01*
X159343072Y-99752436D01*
X159229804Y-99921954D01*
X159151783Y-100110312D01*
X159112009Y-100310271D01*
X159112009Y-100514149D01*
X159151783Y-100714108D01*
X159229804Y-100902466D01*
X159343072Y-101071984D01*
X159487235Y-101216147D01*
X159656753Y-101329415D01*
X159845111Y-101407436D01*
X160045070Y-101447210D01*
X160248948Y-101447210D01*
X160448907Y-101407436D01*
X160637265Y-101329415D01*
X160806783Y-101216147D01*
X160950946Y-101071984D01*
X161064214Y-100902466D01*
X161142235Y-100714108D01*
X161182009Y-100514149D01*
X161182009Y-100310271D01*
X161142235Y-100110312D01*
X161064214Y-99921954D01*
X160950946Y-99752436D01*
X160909009Y-99710499D01*
X160909009Y-99021232D01*
X160912695Y-98983809D01*
X160904027Y-98895800D01*
X160897983Y-98834431D01*
X160854411Y-98690794D01*
X160783655Y-98558418D01*
X160783654Y-98558416D01*
X160712288Y-98471457D01*
X160688431Y-98442387D01*
X160659362Y-98418531D01*
X160508831Y-98268000D01*
X168927728Y-98268000D01*
X168927728Y-100868000D01*
X168939988Y-100992482D01*
X168976298Y-101112180D01*
X169035263Y-101222494D01*
X169114615Y-101319185D01*
X169211306Y-101398537D01*
X169321620Y-101457502D01*
X169441318Y-101493812D01*
X169565800Y-101506072D01*
X172165800Y-101506072D01*
X172290282Y-101493812D01*
X172409980Y-101457502D01*
X172520294Y-101398537D01*
X172616985Y-101319185D01*
X172696337Y-101222494D01*
X172755302Y-101112180D01*
X172791612Y-100992482D01*
X172803872Y-100868000D01*
X172803872Y-98268000D01*
X172791612Y-98143518D01*
X172755302Y-98023820D01*
X172696337Y-97913506D01*
X172616985Y-97816815D01*
X172520294Y-97737463D01*
X172409980Y-97678498D01*
X172290282Y-97642188D01*
X172165800Y-97629928D01*
X172011118Y-97629928D01*
X172099291Y-97571013D01*
X172368813Y-97301491D01*
X172580575Y-96984566D01*
X172726439Y-96632419D01*
X172800800Y-96258581D01*
X172800800Y-95877419D01*
X172726439Y-95503581D01*
X172580575Y-95151434D01*
X172368813Y-94834509D01*
X172099291Y-94564987D01*
X171782366Y-94353225D01*
X171430219Y-94207361D01*
X171056381Y-94133000D01*
X170675219Y-94133000D01*
X170301381Y-94207361D01*
X169949234Y-94353225D01*
X169632309Y-94564987D01*
X169362787Y-94834509D01*
X169151025Y-95151434D01*
X169005161Y-95503581D01*
X168930800Y-95877419D01*
X168930800Y-96258581D01*
X169005161Y-96632419D01*
X169151025Y-96984566D01*
X169362787Y-97301491D01*
X169632309Y-97571013D01*
X169720482Y-97629928D01*
X169565800Y-97629928D01*
X169441318Y-97642188D01*
X169321620Y-97678498D01*
X169211306Y-97737463D01*
X169114615Y-97816815D01*
X169035263Y-97913506D01*
X168976298Y-98023820D01*
X168939988Y-98143518D01*
X168927728Y-98268000D01*
X160508831Y-98268000D01*
X157185523Y-94944693D01*
X157209400Y-94824656D01*
X157209400Y-94557744D01*
X157157328Y-94295961D01*
X157055185Y-94049367D01*
X156906897Y-93827438D01*
X156718162Y-93638703D01*
X156496233Y-93490415D01*
X156249639Y-93388272D01*
X155987856Y-93336200D01*
X155720944Y-93336200D01*
X155459161Y-93388272D01*
X155212567Y-93490415D01*
X154990638Y-93638703D01*
X154801903Y-93827438D01*
X154653615Y-94049367D01*
X154551472Y-94295961D01*
X154499400Y-94557744D01*
X146145701Y-94557744D01*
X146009675Y-94354168D01*
X145877820Y-94222313D01*
X145950380Y-94200302D01*
X146060694Y-94141337D01*
X146157385Y-94061985D01*
X146236737Y-93965294D01*
X146295702Y-93854980D01*
X146332012Y-93735282D01*
X146344272Y-93610800D01*
X146344272Y-93086760D01*
X152558445Y-93086760D01*
X152620332Y-93322568D01*
X152862190Y-93435466D01*
X153121427Y-93499011D01*
X153388080Y-93510761D01*
X153651901Y-93470263D01*
X153902753Y-93379075D01*
X154008468Y-93322568D01*
X154070355Y-93086760D01*
X153314400Y-92330805D01*
X152558445Y-93086760D01*
X146344272Y-93086760D01*
X146344272Y-92224880D01*
X151954839Y-92224880D01*
X151995337Y-92488701D01*
X152086525Y-92739553D01*
X152143032Y-92845268D01*
X152378840Y-92907155D01*
X153134795Y-92151200D01*
X153494005Y-92151200D01*
X154249960Y-92907155D01*
X154485768Y-92845268D01*
X154598666Y-92603410D01*
X154662211Y-92344173D01*
X154673961Y-92077520D01*
X154664786Y-92017744D01*
X157039400Y-92017744D01*
X157039400Y-92284656D01*
X157091472Y-92546439D01*
X157193615Y-92793033D01*
X157341903Y-93014962D01*
X157530638Y-93203697D01*
X157752567Y-93351985D01*
X157999161Y-93454128D01*
X158260944Y-93506200D01*
X158527856Y-93506200D01*
X158789639Y-93454128D01*
X159036233Y-93351985D01*
X159258162Y-93203697D01*
X159446897Y-93014962D01*
X159595185Y-92793033D01*
X159697328Y-92546439D01*
X159749400Y-92284656D01*
X159749400Y-92017744D01*
X159697328Y-91755961D01*
X159595185Y-91509367D01*
X159446897Y-91287438D01*
X159258162Y-91098703D01*
X159036233Y-90950415D01*
X158789639Y-90848272D01*
X158527856Y-90796200D01*
X158260944Y-90796200D01*
X157999161Y-90848272D01*
X157752567Y-90950415D01*
X157530638Y-91098703D01*
X157341903Y-91287438D01*
X157193615Y-91509367D01*
X157091472Y-91755961D01*
X157039400Y-92017744D01*
X154664786Y-92017744D01*
X154633463Y-91813699D01*
X154542275Y-91562847D01*
X154485768Y-91457132D01*
X154249960Y-91395245D01*
X153494005Y-92151200D01*
X153134795Y-92151200D01*
X152378840Y-91395245D01*
X152143032Y-91457132D01*
X152030134Y-91698990D01*
X151966589Y-91958227D01*
X151954839Y-92224880D01*
X146344272Y-92224880D01*
X146344272Y-91910800D01*
X146332012Y-91786318D01*
X146295702Y-91666620D01*
X146236737Y-91556306D01*
X146157385Y-91459615D01*
X146060694Y-91380263D01*
X145950380Y-91321298D01*
X145830682Y-91284988D01*
X145706200Y-91272728D01*
X144006200Y-91272728D01*
X143881718Y-91284988D01*
X143762020Y-91321298D01*
X143651706Y-91380263D01*
X143555015Y-91459615D01*
X143475663Y-91556306D01*
X143416698Y-91666620D01*
X143380388Y-91786318D01*
X143368128Y-91910800D01*
X140614000Y-91910800D01*
X140614000Y-91215640D01*
X152558445Y-91215640D01*
X153314400Y-91971595D01*
X154070355Y-91215640D01*
X154008468Y-90979832D01*
X153766610Y-90866934D01*
X153507373Y-90803389D01*
X153240720Y-90791639D01*
X152976899Y-90832137D01*
X152726047Y-90923325D01*
X152620332Y-90979832D01*
X152558445Y-91215640D01*
X140614000Y-91215640D01*
X140614000Y-86926495D01*
X143303000Y-86926495D01*
X143303000Y-87317505D01*
X143379282Y-87701003D01*
X143528915Y-88062250D01*
X143746149Y-88387364D01*
X144022636Y-88663851D01*
X144347750Y-88881085D01*
X144708997Y-89030718D01*
X145092495Y-89107000D01*
X145483505Y-89107000D01*
X145867003Y-89030718D01*
X146228250Y-88881085D01*
X146553364Y-88663851D01*
X146829851Y-88387364D01*
X147047085Y-88062250D01*
X147196718Y-87701003D01*
X147273000Y-87317505D01*
X147273000Y-86926495D01*
X147196718Y-86542997D01*
X147047085Y-86181750D01*
X146829851Y-85856636D01*
X146553364Y-85580149D01*
X146228250Y-85362915D01*
X145867003Y-85213282D01*
X145483505Y-85137000D01*
X145092495Y-85137000D01*
X144708997Y-85213282D01*
X144347750Y-85362915D01*
X144022636Y-85580149D01*
X143746149Y-85856636D01*
X143528915Y-86181750D01*
X143379282Y-86542997D01*
X143303000Y-86926495D01*
X140614000Y-86926495D01*
X140614000Y-84480000D01*
X175743001Y-84480000D01*
X175743000Y-109830000D01*
%TD*%
M02*
