%TF.GenerationSoftware,KiCad,Pcbnew,5.1.6-c6e7f7d~87~ubuntu18.04.1*%
%TF.CreationDate,2021-12-04T09:45:15-08:00*%
%TF.ProjectId,thermocouple-amp,74686572-6d6f-4636-9f75-706c652d616d,rev?*%
%TF.SameCoordinates,Original*%
%TF.FileFunction,Soldermask,Top*%
%TF.FilePolarity,Negative*%
%FSLAX46Y46*%
G04 Gerber Fmt 4.6, Leading zero omitted, Abs format (unit mm)*
G04 Created by KiCad (PCBNEW 5.1.6-c6e7f7d~87~ubuntu18.04.1) date 2021-12-04 09:45:15*
%MOMM*%
%LPD*%
G01*
G04 APERTURE LIST*
%ADD10C,0.150000*%
%ADD11C,1.100000*%
%ADD12C,2.700000*%
%ADD13R,2.700000X2.700000*%
%ADD14R,1.000000X1.300000*%
%ADD15C,1.540000*%
%ADD16C,2.800000*%
%ADD17O,1.800000X1.800000*%
%ADD18R,1.800000X1.800000*%
G04 APERTURE END LIST*
D10*
X167578567Y-85669380D02*
X167007138Y-85669380D01*
X167292852Y-85669380D02*
X167417852Y-84669380D01*
X167304757Y-84812238D01*
X167197614Y-84907476D01*
X167096424Y-84955095D01*
X168072614Y-84764619D02*
X168126186Y-84717000D01*
X168227376Y-84669380D01*
X168465472Y-84669380D01*
X168554757Y-84717000D01*
X168596424Y-84764619D01*
X168632138Y-84859857D01*
X168620233Y-84955095D01*
X168554757Y-85097952D01*
X167911900Y-85669380D01*
X168530948Y-85669380D01*
X169804757Y-84621761D02*
X168786900Y-85907476D01*
X170036900Y-84669380D02*
X170655948Y-84669380D01*
X170274995Y-85050333D01*
X170417852Y-85050333D01*
X170507138Y-85097952D01*
X170548805Y-85145571D01*
X170584519Y-85240809D01*
X170554757Y-85478904D01*
X170495233Y-85574142D01*
X170441662Y-85621761D01*
X170340472Y-85669380D01*
X170054757Y-85669380D01*
X169965472Y-85621761D01*
X169923805Y-85574142D01*
X171804757Y-84621761D02*
X170786900Y-85907476D01*
X172072614Y-84764619D02*
X172126186Y-84717000D01*
X172227376Y-84669380D01*
X172465472Y-84669380D01*
X172554757Y-84717000D01*
X172596424Y-84764619D01*
X172632138Y-84859857D01*
X172620233Y-84955095D01*
X172554757Y-85097952D01*
X171911900Y-85669380D01*
X172530948Y-85669380D01*
X173274995Y-84669380D02*
X173370233Y-84669380D01*
X173459519Y-84717000D01*
X173501186Y-84764619D01*
X173536900Y-84859857D01*
X173560710Y-85050333D01*
X173530948Y-85288428D01*
X173459519Y-85478904D01*
X173399995Y-85574142D01*
X173346424Y-85621761D01*
X173245233Y-85669380D01*
X173149995Y-85669380D01*
X173060710Y-85621761D01*
X173019043Y-85574142D01*
X172983329Y-85478904D01*
X172959519Y-85288428D01*
X172989281Y-85050333D01*
X173060710Y-84859857D01*
X173120233Y-84764619D01*
X173173805Y-84717000D01*
X173274995Y-84669380D01*
X173977376Y-84764619D02*
X174030948Y-84717000D01*
X174132138Y-84669380D01*
X174370233Y-84669380D01*
X174459519Y-84717000D01*
X174501186Y-84764619D01*
X174536900Y-84859857D01*
X174524995Y-84955095D01*
X174459519Y-85097952D01*
X173816662Y-85669380D01*
X174435710Y-85669380D01*
X175388091Y-85669380D02*
X174816662Y-85669380D01*
X175102376Y-85669380D02*
X175227376Y-84669380D01*
X175114281Y-84812238D01*
X175007138Y-84907476D01*
X174905948Y-84955095D01*
%TO.C,U1*%
G36*
G01*
X160762000Y-88177000D02*
X160762000Y-87927000D01*
G75*
G02*
X160887000Y-87802000I125000J0D01*
G01*
X162362000Y-87802000D01*
G75*
G02*
X162487000Y-87927000I0J-125000D01*
G01*
X162487000Y-88177000D01*
G75*
G02*
X162362000Y-88302000I-125000J0D01*
G01*
X160887000Y-88302000D01*
G75*
G02*
X160762000Y-88177000I0J125000D01*
G01*
G37*
G36*
G01*
X160762000Y-88827000D02*
X160762000Y-88577000D01*
G75*
G02*
X160887000Y-88452000I125000J0D01*
G01*
X162362000Y-88452000D01*
G75*
G02*
X162487000Y-88577000I0J-125000D01*
G01*
X162487000Y-88827000D01*
G75*
G02*
X162362000Y-88952000I-125000J0D01*
G01*
X160887000Y-88952000D01*
G75*
G02*
X160762000Y-88827000I0J125000D01*
G01*
G37*
G36*
G01*
X160762000Y-89477000D02*
X160762000Y-89227000D01*
G75*
G02*
X160887000Y-89102000I125000J0D01*
G01*
X162362000Y-89102000D01*
G75*
G02*
X162487000Y-89227000I0J-125000D01*
G01*
X162487000Y-89477000D01*
G75*
G02*
X162362000Y-89602000I-125000J0D01*
G01*
X160887000Y-89602000D01*
G75*
G02*
X160762000Y-89477000I0J125000D01*
G01*
G37*
G36*
G01*
X160762000Y-90127000D02*
X160762000Y-89877000D01*
G75*
G02*
X160887000Y-89752000I125000J0D01*
G01*
X162362000Y-89752000D01*
G75*
G02*
X162487000Y-89877000I0J-125000D01*
G01*
X162487000Y-90127000D01*
G75*
G02*
X162362000Y-90252000I-125000J0D01*
G01*
X160887000Y-90252000D01*
G75*
G02*
X160762000Y-90127000I0J125000D01*
G01*
G37*
G36*
G01*
X156537000Y-90127000D02*
X156537000Y-89877000D01*
G75*
G02*
X156662000Y-89752000I125000J0D01*
G01*
X158137000Y-89752000D01*
G75*
G02*
X158262000Y-89877000I0J-125000D01*
G01*
X158262000Y-90127000D01*
G75*
G02*
X158137000Y-90252000I-125000J0D01*
G01*
X156662000Y-90252000D01*
G75*
G02*
X156537000Y-90127000I0J125000D01*
G01*
G37*
G36*
G01*
X156537000Y-89477000D02*
X156537000Y-89227000D01*
G75*
G02*
X156662000Y-89102000I125000J0D01*
G01*
X158137000Y-89102000D01*
G75*
G02*
X158262000Y-89227000I0J-125000D01*
G01*
X158262000Y-89477000D01*
G75*
G02*
X158137000Y-89602000I-125000J0D01*
G01*
X156662000Y-89602000D01*
G75*
G02*
X156537000Y-89477000I0J125000D01*
G01*
G37*
G36*
G01*
X156537000Y-88827000D02*
X156537000Y-88577000D01*
G75*
G02*
X156662000Y-88452000I125000J0D01*
G01*
X158137000Y-88452000D01*
G75*
G02*
X158262000Y-88577000I0J-125000D01*
G01*
X158262000Y-88827000D01*
G75*
G02*
X158137000Y-88952000I-125000J0D01*
G01*
X156662000Y-88952000D01*
G75*
G02*
X156537000Y-88827000I0J125000D01*
G01*
G37*
G36*
G01*
X156537000Y-88177000D02*
X156537000Y-87927000D01*
G75*
G02*
X156662000Y-87802000I125000J0D01*
G01*
X158137000Y-87802000D01*
G75*
G02*
X158262000Y-87927000I0J-125000D01*
G01*
X158262000Y-88177000D01*
G75*
G02*
X158137000Y-88302000I-125000J0D01*
G01*
X156662000Y-88302000D01*
G75*
G02*
X156537000Y-88177000I0J125000D01*
G01*
G37*
%TD*%
%TO.C,U2*%
G36*
G01*
X158262000Y-101561000D02*
X158262000Y-101811000D01*
G75*
G02*
X158137000Y-101936000I-125000J0D01*
G01*
X156662000Y-101936000D01*
G75*
G02*
X156537000Y-101811000I0J125000D01*
G01*
X156537000Y-101561000D01*
G75*
G02*
X156662000Y-101436000I125000J0D01*
G01*
X158137000Y-101436000D01*
G75*
G02*
X158262000Y-101561000I0J-125000D01*
G01*
G37*
G36*
G01*
X158262000Y-100911000D02*
X158262000Y-101161000D01*
G75*
G02*
X158137000Y-101286000I-125000J0D01*
G01*
X156662000Y-101286000D01*
G75*
G02*
X156537000Y-101161000I0J125000D01*
G01*
X156537000Y-100911000D01*
G75*
G02*
X156662000Y-100786000I125000J0D01*
G01*
X158137000Y-100786000D01*
G75*
G02*
X158262000Y-100911000I0J-125000D01*
G01*
G37*
G36*
G01*
X158262000Y-100261000D02*
X158262000Y-100511000D01*
G75*
G02*
X158137000Y-100636000I-125000J0D01*
G01*
X156662000Y-100636000D01*
G75*
G02*
X156537000Y-100511000I0J125000D01*
G01*
X156537000Y-100261000D01*
G75*
G02*
X156662000Y-100136000I125000J0D01*
G01*
X158137000Y-100136000D01*
G75*
G02*
X158262000Y-100261000I0J-125000D01*
G01*
G37*
G36*
G01*
X158262000Y-99611000D02*
X158262000Y-99861000D01*
G75*
G02*
X158137000Y-99986000I-125000J0D01*
G01*
X156662000Y-99986000D01*
G75*
G02*
X156537000Y-99861000I0J125000D01*
G01*
X156537000Y-99611000D01*
G75*
G02*
X156662000Y-99486000I125000J0D01*
G01*
X158137000Y-99486000D01*
G75*
G02*
X158262000Y-99611000I0J-125000D01*
G01*
G37*
G36*
G01*
X162487000Y-99611000D02*
X162487000Y-99861000D01*
G75*
G02*
X162362000Y-99986000I-125000J0D01*
G01*
X160887000Y-99986000D01*
G75*
G02*
X160762000Y-99861000I0J125000D01*
G01*
X160762000Y-99611000D01*
G75*
G02*
X160887000Y-99486000I125000J0D01*
G01*
X162362000Y-99486000D01*
G75*
G02*
X162487000Y-99611000I0J-125000D01*
G01*
G37*
G36*
G01*
X162487000Y-100261000D02*
X162487000Y-100511000D01*
G75*
G02*
X162362000Y-100636000I-125000J0D01*
G01*
X160887000Y-100636000D01*
G75*
G02*
X160762000Y-100511000I0J125000D01*
G01*
X160762000Y-100261000D01*
G75*
G02*
X160887000Y-100136000I125000J0D01*
G01*
X162362000Y-100136000D01*
G75*
G02*
X162487000Y-100261000I0J-125000D01*
G01*
G37*
G36*
G01*
X162487000Y-100911000D02*
X162487000Y-101161000D01*
G75*
G02*
X162362000Y-101286000I-125000J0D01*
G01*
X160887000Y-101286000D01*
G75*
G02*
X160762000Y-101161000I0J125000D01*
G01*
X160762000Y-100911000D01*
G75*
G02*
X160887000Y-100786000I125000J0D01*
G01*
X162362000Y-100786000D01*
G75*
G02*
X162487000Y-100911000I0J-125000D01*
G01*
G37*
G36*
G01*
X162487000Y-101561000D02*
X162487000Y-101811000D01*
G75*
G02*
X162362000Y-101936000I-125000J0D01*
G01*
X160887000Y-101936000D01*
G75*
G02*
X160762000Y-101811000I0J125000D01*
G01*
X160762000Y-101561000D01*
G75*
G02*
X160887000Y-101436000I125000J0D01*
G01*
X162362000Y-101436000D01*
G75*
G02*
X162487000Y-101561000I0J-125000D01*
G01*
G37*
%TD*%
D11*
%TO.C,TP1*%
X168148000Y-88900000D03*
%TD*%
D12*
%TO.C,TC1*%
X170865800Y-96068000D03*
D13*
X170865800Y-99568000D03*
%TD*%
%TO.C,R8*%
G36*
G01*
X164365250Y-98379000D02*
X163802750Y-98379000D01*
G75*
G02*
X163559000Y-98135250I0J243750D01*
G01*
X163559000Y-97647750D01*
G75*
G02*
X163802750Y-97404000I243750J0D01*
G01*
X164365250Y-97404000D01*
G75*
G02*
X164609000Y-97647750I0J-243750D01*
G01*
X164609000Y-98135250D01*
G75*
G02*
X164365250Y-98379000I-243750J0D01*
G01*
G37*
G36*
G01*
X164365250Y-99954000D02*
X163802750Y-99954000D01*
G75*
G02*
X163559000Y-99710250I0J243750D01*
G01*
X163559000Y-99222750D01*
G75*
G02*
X163802750Y-98979000I243750J0D01*
G01*
X164365250Y-98979000D01*
G75*
G02*
X164609000Y-99222750I0J-243750D01*
G01*
X164609000Y-99710250D01*
G75*
G02*
X164365250Y-99954000I-243750J0D01*
G01*
G37*
%TD*%
%TO.C,R7*%
G36*
G01*
X164571400Y-100759950D02*
X164571400Y-101322450D01*
G75*
G02*
X164327650Y-101566200I-243750J0D01*
G01*
X163840150Y-101566200D01*
G75*
G02*
X163596400Y-101322450I0J243750D01*
G01*
X163596400Y-100759950D01*
G75*
G02*
X163840150Y-100516200I243750J0D01*
G01*
X164327650Y-100516200D01*
G75*
G02*
X164571400Y-100759950I0J-243750D01*
G01*
G37*
G36*
G01*
X166146400Y-100759950D02*
X166146400Y-101322450D01*
G75*
G02*
X165902650Y-101566200I-243750J0D01*
G01*
X165415150Y-101566200D01*
G75*
G02*
X165171400Y-101322450I0J243750D01*
G01*
X165171400Y-100759950D01*
G75*
G02*
X165415150Y-100516200I243750J0D01*
G01*
X165902650Y-100516200D01*
G75*
G02*
X166146400Y-100759950I0J-243750D01*
G01*
G37*
%TD*%
%TO.C,R5*%
G36*
G01*
X164441450Y-90149400D02*
X163878950Y-90149400D01*
G75*
G02*
X163635200Y-89905650I0J243750D01*
G01*
X163635200Y-89418150D01*
G75*
G02*
X163878950Y-89174400I243750J0D01*
G01*
X164441450Y-89174400D01*
G75*
G02*
X164685200Y-89418150I0J-243750D01*
G01*
X164685200Y-89905650D01*
G75*
G02*
X164441450Y-90149400I-243750J0D01*
G01*
G37*
G36*
G01*
X164441450Y-91724400D02*
X163878950Y-91724400D01*
G75*
G02*
X163635200Y-91480650I0J243750D01*
G01*
X163635200Y-90993150D01*
G75*
G02*
X163878950Y-90749400I243750J0D01*
G01*
X164441450Y-90749400D01*
G75*
G02*
X164685200Y-90993150I0J-243750D01*
G01*
X164685200Y-91480650D01*
G75*
G02*
X164441450Y-91724400I-243750J0D01*
G01*
G37*
%TD*%
%TO.C,R4*%
G36*
G01*
X165196800Y-102897250D02*
X165196800Y-102334750D01*
G75*
G02*
X165440550Y-102091000I243750J0D01*
G01*
X165928050Y-102091000D01*
G75*
G02*
X166171800Y-102334750I0J-243750D01*
G01*
X166171800Y-102897250D01*
G75*
G02*
X165928050Y-103141000I-243750J0D01*
G01*
X165440550Y-103141000D01*
G75*
G02*
X165196800Y-102897250I0J243750D01*
G01*
G37*
G36*
G01*
X163621800Y-102897250D02*
X163621800Y-102334750D01*
G75*
G02*
X163865550Y-102091000I243750J0D01*
G01*
X164353050Y-102091000D01*
G75*
G02*
X164596800Y-102334750I0J-243750D01*
G01*
X164596800Y-102897250D01*
G75*
G02*
X164353050Y-103141000I-243750J0D01*
G01*
X163865550Y-103141000D01*
G75*
G02*
X163621800Y-102897250I0J243750D01*
G01*
G37*
%TD*%
%TO.C,R3*%
G36*
G01*
X164005950Y-94788000D02*
X164568450Y-94788000D01*
G75*
G02*
X164812200Y-95031750I0J-243750D01*
G01*
X164812200Y-95519250D01*
G75*
G02*
X164568450Y-95763000I-243750J0D01*
G01*
X164005950Y-95763000D01*
G75*
G02*
X163762200Y-95519250I0J243750D01*
G01*
X163762200Y-95031750D01*
G75*
G02*
X164005950Y-94788000I243750J0D01*
G01*
G37*
G36*
G01*
X164005950Y-93213000D02*
X164568450Y-93213000D01*
G75*
G02*
X164812200Y-93456750I0J-243750D01*
G01*
X164812200Y-93944250D01*
G75*
G02*
X164568450Y-94188000I-243750J0D01*
G01*
X164005950Y-94188000D01*
G75*
G02*
X163762200Y-93944250I0J243750D01*
G01*
X163762200Y-93456750D01*
G75*
G02*
X164005950Y-93213000I243750J0D01*
G01*
G37*
%TD*%
%TO.C,R2*%
G36*
G01*
X166117850Y-94188000D02*
X165555350Y-94188000D01*
G75*
G02*
X165311600Y-93944250I0J243750D01*
G01*
X165311600Y-93456750D01*
G75*
G02*
X165555350Y-93213000I243750J0D01*
G01*
X166117850Y-93213000D01*
G75*
G02*
X166361600Y-93456750I0J-243750D01*
G01*
X166361600Y-93944250D01*
G75*
G02*
X166117850Y-94188000I-243750J0D01*
G01*
G37*
G36*
G01*
X166117850Y-95763000D02*
X165555350Y-95763000D01*
G75*
G02*
X165311600Y-95519250I0J243750D01*
G01*
X165311600Y-95031750D01*
G75*
G02*
X165555350Y-94788000I243750J0D01*
G01*
X166117850Y-94788000D01*
G75*
G02*
X166361600Y-95031750I0J-243750D01*
G01*
X166361600Y-95519250D01*
G75*
G02*
X166117850Y-95763000I-243750J0D01*
G01*
G37*
%TD*%
%TO.C,R1*%
G36*
G01*
X165965450Y-90149400D02*
X165402950Y-90149400D01*
G75*
G02*
X165159200Y-89905650I0J243750D01*
G01*
X165159200Y-89418150D01*
G75*
G02*
X165402950Y-89174400I243750J0D01*
G01*
X165965450Y-89174400D01*
G75*
G02*
X166209200Y-89418150I0J-243750D01*
G01*
X166209200Y-89905650D01*
G75*
G02*
X165965450Y-90149400I-243750J0D01*
G01*
G37*
G36*
G01*
X165965450Y-91724400D02*
X165402950Y-91724400D01*
G75*
G02*
X165159200Y-91480650I0J243750D01*
G01*
X165159200Y-90993150D01*
G75*
G02*
X165402950Y-90749400I243750J0D01*
G01*
X165965450Y-90749400D01*
G75*
G02*
X166209200Y-90993150I0J-243750D01*
G01*
X166209200Y-91480650D01*
G75*
G02*
X165965450Y-91724400I-243750J0D01*
G01*
G37*
%TD*%
D14*
%TO.C,D1*%
X167818800Y-91998800D03*
X171118800Y-91998800D03*
%TD*%
%TO.C,C2*%
G36*
G01*
X155780050Y-102773200D02*
X155217550Y-102773200D01*
G75*
G02*
X154973800Y-102529450I0J243750D01*
G01*
X154973800Y-102041950D01*
G75*
G02*
X155217550Y-101798200I243750J0D01*
G01*
X155780050Y-101798200D01*
G75*
G02*
X156023800Y-102041950I0J-243750D01*
G01*
X156023800Y-102529450D01*
G75*
G02*
X155780050Y-102773200I-243750J0D01*
G01*
G37*
G36*
G01*
X155780050Y-104348200D02*
X155217550Y-104348200D01*
G75*
G02*
X154973800Y-104104450I0J243750D01*
G01*
X154973800Y-103616950D01*
G75*
G02*
X155217550Y-103373200I243750J0D01*
G01*
X155780050Y-103373200D01*
G75*
G02*
X156023800Y-103616950I0J-243750D01*
G01*
X156023800Y-104104450D01*
G75*
G02*
X155780050Y-104348200I-243750J0D01*
G01*
G37*
%TD*%
%TO.C,C1*%
G36*
G01*
X152171225Y-104744000D02*
X153339975Y-104744000D01*
G75*
G02*
X153605600Y-105009625I0J-265625D01*
G01*
X153605600Y-106778375D01*
G75*
G02*
X153339975Y-107044000I-265625J0D01*
G01*
X152171225Y-107044000D01*
G75*
G02*
X151905600Y-106778375I0J265625D01*
G01*
X151905600Y-105009625D01*
G75*
G02*
X152171225Y-104744000I265625J0D01*
G01*
G37*
G36*
G01*
X152171225Y-101744000D02*
X153339975Y-101744000D01*
G75*
G02*
X153605600Y-102009625I0J-265625D01*
G01*
X153605600Y-103778375D01*
G75*
G02*
X153339975Y-104044000I-265625J0D01*
G01*
X152171225Y-104044000D01*
G75*
G02*
X151905600Y-103778375I0J265625D01*
G01*
X151905600Y-102009625D01*
G75*
G02*
X152171225Y-101744000I265625J0D01*
G01*
G37*
%TD*%
D15*
%TO.C,RV1*%
X156616400Y-92278200D03*
X159156400Y-94818200D03*
X161696400Y-92278200D03*
%TD*%
%TO.C,C3*%
G36*
G01*
X155678450Y-89031800D02*
X155115950Y-89031800D01*
G75*
G02*
X154872200Y-88788050I0J243750D01*
G01*
X154872200Y-88300550D01*
G75*
G02*
X155115950Y-88056800I243750J0D01*
G01*
X155678450Y-88056800D01*
G75*
G02*
X155922200Y-88300550I0J-243750D01*
G01*
X155922200Y-88788050D01*
G75*
G02*
X155678450Y-89031800I-243750J0D01*
G01*
G37*
G36*
G01*
X155678450Y-90606800D02*
X155115950Y-90606800D01*
G75*
G02*
X154872200Y-90363050I0J243750D01*
G01*
X154872200Y-89875550D01*
G75*
G02*
X155115950Y-89631800I243750J0D01*
G01*
X155678450Y-89631800D01*
G75*
G02*
X155922200Y-89875550I0J-243750D01*
G01*
X155922200Y-90363050D01*
G75*
G02*
X155678450Y-90606800I-243750J0D01*
G01*
G37*
%TD*%
D16*
%TO.C,H2*%
X172720000Y-106426000D03*
%TD*%
%TO.C,H1*%
X149352000Y-87122000D03*
%TD*%
D17*
%TO.C,J2*%
X148971000Y-100076000D03*
X148971000Y-97536000D03*
X148971000Y-94996000D03*
D18*
X148971000Y-92456000D03*
%TD*%
M02*
