%TF.GenerationSoftware,KiCad,Pcbnew,5.1.6-c6e7f7d~87~ubuntu18.04.1*%
%TF.CreationDate,2021-12-04T00:40:26-08:00*%
%TF.ProjectId,thermocouple-amp,74686572-6d6f-4636-9f75-706c652d616d,rev?*%
%TF.SameCoordinates,Original*%
%TF.FileFunction,Soldermask,Top*%
%TF.FilePolarity,Negative*%
%FSLAX46Y46*%
G04 Gerber Fmt 4.6, Leading zero omitted, Abs format (unit mm)*
G04 Created by KiCad (PCBNEW 5.1.6-c6e7f7d~87~ubuntu18.04.1) date 2021-12-04 00:40:26*
%MOMM*%
%LPD*%
G01*
G04 APERTURE LIST*
%ADD10C,0.150000*%
%ADD11C,1.100000*%
%ADD12C,2.700000*%
%ADD13R,2.700000X2.700000*%
%ADD14R,1.000000X1.300000*%
%ADD15C,1.540000*%
%ADD16C,2.800000*%
%ADD17O,1.800000X1.800000*%
%ADD18R,1.800000X1.800000*%
G04 APERTURE END LIST*
D10*
X167578567Y-85669380D02*
X167007138Y-85669380D01*
X167292852Y-85669380D02*
X167417852Y-84669380D01*
X167304757Y-84812238D01*
X167197614Y-84907476D01*
X167096424Y-84955095D01*
X168072614Y-84764619D02*
X168126186Y-84717000D01*
X168227376Y-84669380D01*
X168465472Y-84669380D01*
X168554757Y-84717000D01*
X168596424Y-84764619D01*
X168632138Y-84859857D01*
X168620233Y-84955095D01*
X168554757Y-85097952D01*
X167911900Y-85669380D01*
X168530948Y-85669380D01*
X169804757Y-84621761D02*
X168786900Y-85907476D01*
X170036900Y-84669380D02*
X170655948Y-84669380D01*
X170274995Y-85050333D01*
X170417852Y-85050333D01*
X170507138Y-85097952D01*
X170548805Y-85145571D01*
X170584519Y-85240809D01*
X170554757Y-85478904D01*
X170495233Y-85574142D01*
X170441662Y-85621761D01*
X170340472Y-85669380D01*
X170054757Y-85669380D01*
X169965472Y-85621761D01*
X169923805Y-85574142D01*
X171804757Y-84621761D02*
X170786900Y-85907476D01*
X172072614Y-84764619D02*
X172126186Y-84717000D01*
X172227376Y-84669380D01*
X172465472Y-84669380D01*
X172554757Y-84717000D01*
X172596424Y-84764619D01*
X172632138Y-84859857D01*
X172620233Y-84955095D01*
X172554757Y-85097952D01*
X171911900Y-85669380D01*
X172530948Y-85669380D01*
X173274995Y-84669380D02*
X173370233Y-84669380D01*
X173459519Y-84717000D01*
X173501186Y-84764619D01*
X173536900Y-84859857D01*
X173560710Y-85050333D01*
X173530948Y-85288428D01*
X173459519Y-85478904D01*
X173399995Y-85574142D01*
X173346424Y-85621761D01*
X173245233Y-85669380D01*
X173149995Y-85669380D01*
X173060710Y-85621761D01*
X173019043Y-85574142D01*
X172983329Y-85478904D01*
X172959519Y-85288428D01*
X172989281Y-85050333D01*
X173060710Y-84859857D01*
X173120233Y-84764619D01*
X173173805Y-84717000D01*
X173274995Y-84669380D01*
X173977376Y-84764619D02*
X174030948Y-84717000D01*
X174132138Y-84669380D01*
X174370233Y-84669380D01*
X174459519Y-84717000D01*
X174501186Y-84764619D01*
X174536900Y-84859857D01*
X174524995Y-84955095D01*
X174459519Y-85097952D01*
X173816662Y-85669380D01*
X174435710Y-85669380D01*
X175388091Y-85669380D02*
X174816662Y-85669380D01*
X175102376Y-85669380D02*
X175227376Y-84669380D01*
X175114281Y-84812238D01*
X175007138Y-84907476D01*
X174905948Y-84955095D01*
%TO.C,U1*%
G36*
G01*
X156698000Y-88100800D02*
X156698000Y-87850800D01*
G75*
G02*
X156823000Y-87725800I125000J0D01*
G01*
X158298000Y-87725800D01*
G75*
G02*
X158423000Y-87850800I0J-125000D01*
G01*
X158423000Y-88100800D01*
G75*
G02*
X158298000Y-88225800I-125000J0D01*
G01*
X156823000Y-88225800D01*
G75*
G02*
X156698000Y-88100800I0J125000D01*
G01*
G37*
G36*
G01*
X156698000Y-88750800D02*
X156698000Y-88500800D01*
G75*
G02*
X156823000Y-88375800I125000J0D01*
G01*
X158298000Y-88375800D01*
G75*
G02*
X158423000Y-88500800I0J-125000D01*
G01*
X158423000Y-88750800D01*
G75*
G02*
X158298000Y-88875800I-125000J0D01*
G01*
X156823000Y-88875800D01*
G75*
G02*
X156698000Y-88750800I0J125000D01*
G01*
G37*
G36*
G01*
X156698000Y-89400800D02*
X156698000Y-89150800D01*
G75*
G02*
X156823000Y-89025800I125000J0D01*
G01*
X158298000Y-89025800D01*
G75*
G02*
X158423000Y-89150800I0J-125000D01*
G01*
X158423000Y-89400800D01*
G75*
G02*
X158298000Y-89525800I-125000J0D01*
G01*
X156823000Y-89525800D01*
G75*
G02*
X156698000Y-89400800I0J125000D01*
G01*
G37*
G36*
G01*
X156698000Y-90050800D02*
X156698000Y-89800800D01*
G75*
G02*
X156823000Y-89675800I125000J0D01*
G01*
X158298000Y-89675800D01*
G75*
G02*
X158423000Y-89800800I0J-125000D01*
G01*
X158423000Y-90050800D01*
G75*
G02*
X158298000Y-90175800I-125000J0D01*
G01*
X156823000Y-90175800D01*
G75*
G02*
X156698000Y-90050800I0J125000D01*
G01*
G37*
G36*
G01*
X152473000Y-90050800D02*
X152473000Y-89800800D01*
G75*
G02*
X152598000Y-89675800I125000J0D01*
G01*
X154073000Y-89675800D01*
G75*
G02*
X154198000Y-89800800I0J-125000D01*
G01*
X154198000Y-90050800D01*
G75*
G02*
X154073000Y-90175800I-125000J0D01*
G01*
X152598000Y-90175800D01*
G75*
G02*
X152473000Y-90050800I0J125000D01*
G01*
G37*
G36*
G01*
X152473000Y-89400800D02*
X152473000Y-89150800D01*
G75*
G02*
X152598000Y-89025800I125000J0D01*
G01*
X154073000Y-89025800D01*
G75*
G02*
X154198000Y-89150800I0J-125000D01*
G01*
X154198000Y-89400800D01*
G75*
G02*
X154073000Y-89525800I-125000J0D01*
G01*
X152598000Y-89525800D01*
G75*
G02*
X152473000Y-89400800I0J125000D01*
G01*
G37*
G36*
G01*
X152473000Y-88750800D02*
X152473000Y-88500800D01*
G75*
G02*
X152598000Y-88375800I125000J0D01*
G01*
X154073000Y-88375800D01*
G75*
G02*
X154198000Y-88500800I0J-125000D01*
G01*
X154198000Y-88750800D01*
G75*
G02*
X154073000Y-88875800I-125000J0D01*
G01*
X152598000Y-88875800D01*
G75*
G02*
X152473000Y-88750800I0J125000D01*
G01*
G37*
G36*
G01*
X152473000Y-88100800D02*
X152473000Y-87850800D01*
G75*
G02*
X152598000Y-87725800I125000J0D01*
G01*
X154073000Y-87725800D01*
G75*
G02*
X154198000Y-87850800I0J-125000D01*
G01*
X154198000Y-88100800D01*
G75*
G02*
X154073000Y-88225800I-125000J0D01*
G01*
X152598000Y-88225800D01*
G75*
G02*
X152473000Y-88100800I0J125000D01*
G01*
G37*
%TD*%
%TO.C,U2*%
G36*
G01*
X158262000Y-101561000D02*
X158262000Y-101811000D01*
G75*
G02*
X158137000Y-101936000I-125000J0D01*
G01*
X156662000Y-101936000D01*
G75*
G02*
X156537000Y-101811000I0J125000D01*
G01*
X156537000Y-101561000D01*
G75*
G02*
X156662000Y-101436000I125000J0D01*
G01*
X158137000Y-101436000D01*
G75*
G02*
X158262000Y-101561000I0J-125000D01*
G01*
G37*
G36*
G01*
X158262000Y-100911000D02*
X158262000Y-101161000D01*
G75*
G02*
X158137000Y-101286000I-125000J0D01*
G01*
X156662000Y-101286000D01*
G75*
G02*
X156537000Y-101161000I0J125000D01*
G01*
X156537000Y-100911000D01*
G75*
G02*
X156662000Y-100786000I125000J0D01*
G01*
X158137000Y-100786000D01*
G75*
G02*
X158262000Y-100911000I0J-125000D01*
G01*
G37*
G36*
G01*
X158262000Y-100261000D02*
X158262000Y-100511000D01*
G75*
G02*
X158137000Y-100636000I-125000J0D01*
G01*
X156662000Y-100636000D01*
G75*
G02*
X156537000Y-100511000I0J125000D01*
G01*
X156537000Y-100261000D01*
G75*
G02*
X156662000Y-100136000I125000J0D01*
G01*
X158137000Y-100136000D01*
G75*
G02*
X158262000Y-100261000I0J-125000D01*
G01*
G37*
G36*
G01*
X158262000Y-99611000D02*
X158262000Y-99861000D01*
G75*
G02*
X158137000Y-99986000I-125000J0D01*
G01*
X156662000Y-99986000D01*
G75*
G02*
X156537000Y-99861000I0J125000D01*
G01*
X156537000Y-99611000D01*
G75*
G02*
X156662000Y-99486000I125000J0D01*
G01*
X158137000Y-99486000D01*
G75*
G02*
X158262000Y-99611000I0J-125000D01*
G01*
G37*
G36*
G01*
X162487000Y-99611000D02*
X162487000Y-99861000D01*
G75*
G02*
X162362000Y-99986000I-125000J0D01*
G01*
X160887000Y-99986000D01*
G75*
G02*
X160762000Y-99861000I0J125000D01*
G01*
X160762000Y-99611000D01*
G75*
G02*
X160887000Y-99486000I125000J0D01*
G01*
X162362000Y-99486000D01*
G75*
G02*
X162487000Y-99611000I0J-125000D01*
G01*
G37*
G36*
G01*
X162487000Y-100261000D02*
X162487000Y-100511000D01*
G75*
G02*
X162362000Y-100636000I-125000J0D01*
G01*
X160887000Y-100636000D01*
G75*
G02*
X160762000Y-100511000I0J125000D01*
G01*
X160762000Y-100261000D01*
G75*
G02*
X160887000Y-100136000I125000J0D01*
G01*
X162362000Y-100136000D01*
G75*
G02*
X162487000Y-100261000I0J-125000D01*
G01*
G37*
G36*
G01*
X162487000Y-100911000D02*
X162487000Y-101161000D01*
G75*
G02*
X162362000Y-101286000I-125000J0D01*
G01*
X160887000Y-101286000D01*
G75*
G02*
X160762000Y-101161000I0J125000D01*
G01*
X160762000Y-100911000D01*
G75*
G02*
X160887000Y-100786000I125000J0D01*
G01*
X162362000Y-100786000D01*
G75*
G02*
X162487000Y-100911000I0J-125000D01*
G01*
G37*
G36*
G01*
X162487000Y-101561000D02*
X162487000Y-101811000D01*
G75*
G02*
X162362000Y-101936000I-125000J0D01*
G01*
X160887000Y-101936000D01*
G75*
G02*
X160762000Y-101811000I0J125000D01*
G01*
X160762000Y-101561000D01*
G75*
G02*
X160887000Y-101436000I125000J0D01*
G01*
X162362000Y-101436000D01*
G75*
G02*
X162487000Y-101561000I0J-125000D01*
G01*
G37*
%TD*%
D11*
%TO.C,TP1*%
X166192200Y-89306400D03*
%TD*%
D12*
%TO.C,TC1*%
X170865800Y-96068000D03*
D13*
X170865800Y-99568000D03*
%TD*%
%TO.C,R8*%
G36*
G01*
X164365250Y-98379000D02*
X163802750Y-98379000D01*
G75*
G02*
X163559000Y-98135250I0J243750D01*
G01*
X163559000Y-97647750D01*
G75*
G02*
X163802750Y-97404000I243750J0D01*
G01*
X164365250Y-97404000D01*
G75*
G02*
X164609000Y-97647750I0J-243750D01*
G01*
X164609000Y-98135250D01*
G75*
G02*
X164365250Y-98379000I-243750J0D01*
G01*
G37*
G36*
G01*
X164365250Y-99954000D02*
X163802750Y-99954000D01*
G75*
G02*
X163559000Y-99710250I0J243750D01*
G01*
X163559000Y-99222750D01*
G75*
G02*
X163802750Y-98979000I243750J0D01*
G01*
X164365250Y-98979000D01*
G75*
G02*
X164609000Y-99222750I0J-243750D01*
G01*
X164609000Y-99710250D01*
G75*
G02*
X164365250Y-99954000I-243750J0D01*
G01*
G37*
%TD*%
%TO.C,R7*%
G36*
G01*
X164571400Y-100759950D02*
X164571400Y-101322450D01*
G75*
G02*
X164327650Y-101566200I-243750J0D01*
G01*
X163840150Y-101566200D01*
G75*
G02*
X163596400Y-101322450I0J243750D01*
G01*
X163596400Y-100759950D01*
G75*
G02*
X163840150Y-100516200I243750J0D01*
G01*
X164327650Y-100516200D01*
G75*
G02*
X164571400Y-100759950I0J-243750D01*
G01*
G37*
G36*
G01*
X166146400Y-100759950D02*
X166146400Y-101322450D01*
G75*
G02*
X165902650Y-101566200I-243750J0D01*
G01*
X165415150Y-101566200D01*
G75*
G02*
X165171400Y-101322450I0J243750D01*
G01*
X165171400Y-100759950D01*
G75*
G02*
X165415150Y-100516200I243750J0D01*
G01*
X165902650Y-100516200D01*
G75*
G02*
X166146400Y-100759950I0J-243750D01*
G01*
G37*
%TD*%
%TO.C,R5*%
G36*
G01*
X162282450Y-89768400D02*
X161719950Y-89768400D01*
G75*
G02*
X161476200Y-89524650I0J243750D01*
G01*
X161476200Y-89037150D01*
G75*
G02*
X161719950Y-88793400I243750J0D01*
G01*
X162282450Y-88793400D01*
G75*
G02*
X162526200Y-89037150I0J-243750D01*
G01*
X162526200Y-89524650D01*
G75*
G02*
X162282450Y-89768400I-243750J0D01*
G01*
G37*
G36*
G01*
X162282450Y-91343400D02*
X161719950Y-91343400D01*
G75*
G02*
X161476200Y-91099650I0J243750D01*
G01*
X161476200Y-90612150D01*
G75*
G02*
X161719950Y-90368400I243750J0D01*
G01*
X162282450Y-90368400D01*
G75*
G02*
X162526200Y-90612150I0J-243750D01*
G01*
X162526200Y-91099650D01*
G75*
G02*
X162282450Y-91343400I-243750J0D01*
G01*
G37*
%TD*%
%TO.C,R4*%
G36*
G01*
X165196800Y-102897250D02*
X165196800Y-102334750D01*
G75*
G02*
X165440550Y-102091000I243750J0D01*
G01*
X165928050Y-102091000D01*
G75*
G02*
X166171800Y-102334750I0J-243750D01*
G01*
X166171800Y-102897250D01*
G75*
G02*
X165928050Y-103141000I-243750J0D01*
G01*
X165440550Y-103141000D01*
G75*
G02*
X165196800Y-102897250I0J243750D01*
G01*
G37*
G36*
G01*
X163621800Y-102897250D02*
X163621800Y-102334750D01*
G75*
G02*
X163865550Y-102091000I243750J0D01*
G01*
X164353050Y-102091000D01*
G75*
G02*
X164596800Y-102334750I0J-243750D01*
G01*
X164596800Y-102897250D01*
G75*
G02*
X164353050Y-103141000I-243750J0D01*
G01*
X163865550Y-103141000D01*
G75*
G02*
X163621800Y-102897250I0J243750D01*
G01*
G37*
%TD*%
%TO.C,R3*%
G36*
G01*
X161719950Y-95042000D02*
X162282450Y-95042000D01*
G75*
G02*
X162526200Y-95285750I0J-243750D01*
G01*
X162526200Y-95773250D01*
G75*
G02*
X162282450Y-96017000I-243750J0D01*
G01*
X161719950Y-96017000D01*
G75*
G02*
X161476200Y-95773250I0J243750D01*
G01*
X161476200Y-95285750D01*
G75*
G02*
X161719950Y-95042000I243750J0D01*
G01*
G37*
G36*
G01*
X161719950Y-93467000D02*
X162282450Y-93467000D01*
G75*
G02*
X162526200Y-93710750I0J-243750D01*
G01*
X162526200Y-94198250D01*
G75*
G02*
X162282450Y-94442000I-243750J0D01*
G01*
X161719950Y-94442000D01*
G75*
G02*
X161476200Y-94198250I0J243750D01*
G01*
X161476200Y-93710750D01*
G75*
G02*
X161719950Y-93467000I243750J0D01*
G01*
G37*
%TD*%
%TO.C,R2*%
G36*
G01*
X163831850Y-94442000D02*
X163269350Y-94442000D01*
G75*
G02*
X163025600Y-94198250I0J243750D01*
G01*
X163025600Y-93710750D01*
G75*
G02*
X163269350Y-93467000I243750J0D01*
G01*
X163831850Y-93467000D01*
G75*
G02*
X164075600Y-93710750I0J-243750D01*
G01*
X164075600Y-94198250D01*
G75*
G02*
X163831850Y-94442000I-243750J0D01*
G01*
G37*
G36*
G01*
X163831850Y-96017000D02*
X163269350Y-96017000D01*
G75*
G02*
X163025600Y-95773250I0J243750D01*
G01*
X163025600Y-95285750D01*
G75*
G02*
X163269350Y-95042000I243750J0D01*
G01*
X163831850Y-95042000D01*
G75*
G02*
X164075600Y-95285750I0J-243750D01*
G01*
X164075600Y-95773250D01*
G75*
G02*
X163831850Y-96017000I-243750J0D01*
G01*
G37*
%TD*%
%TO.C,R1*%
G36*
G01*
X163806450Y-89768400D02*
X163243950Y-89768400D01*
G75*
G02*
X163000200Y-89524650I0J243750D01*
G01*
X163000200Y-89037150D01*
G75*
G02*
X163243950Y-88793400I243750J0D01*
G01*
X163806450Y-88793400D01*
G75*
G02*
X164050200Y-89037150I0J-243750D01*
G01*
X164050200Y-89524650D01*
G75*
G02*
X163806450Y-89768400I-243750J0D01*
G01*
G37*
G36*
G01*
X163806450Y-91343400D02*
X163243950Y-91343400D01*
G75*
G02*
X163000200Y-91099650I0J243750D01*
G01*
X163000200Y-90612150D01*
G75*
G02*
X163243950Y-90368400I243750J0D01*
G01*
X163806450Y-90368400D01*
G75*
G02*
X164050200Y-90612150I0J-243750D01*
G01*
X164050200Y-91099650D01*
G75*
G02*
X163806450Y-91343400I-243750J0D01*
G01*
G37*
%TD*%
D14*
%TO.C,D1*%
X167818800Y-91998800D03*
X171118800Y-91998800D03*
%TD*%
%TO.C,C2*%
G36*
G01*
X154383050Y-102265200D02*
X153820550Y-102265200D01*
G75*
G02*
X153576800Y-102021450I0J243750D01*
G01*
X153576800Y-101533950D01*
G75*
G02*
X153820550Y-101290200I243750J0D01*
G01*
X154383050Y-101290200D01*
G75*
G02*
X154626800Y-101533950I0J-243750D01*
G01*
X154626800Y-102021450D01*
G75*
G02*
X154383050Y-102265200I-243750J0D01*
G01*
G37*
G36*
G01*
X154383050Y-103840200D02*
X153820550Y-103840200D01*
G75*
G02*
X153576800Y-103596450I0J243750D01*
G01*
X153576800Y-103108950D01*
G75*
G02*
X153820550Y-102865200I243750J0D01*
G01*
X154383050Y-102865200D01*
G75*
G02*
X154626800Y-103108950I0J-243750D01*
G01*
X154626800Y-103596450D01*
G75*
G02*
X154383050Y-103840200I-243750J0D01*
G01*
G37*
%TD*%
%TO.C,C1*%
G36*
G01*
X150774225Y-104236000D02*
X151942975Y-104236000D01*
G75*
G02*
X152208600Y-104501625I0J-265625D01*
G01*
X152208600Y-106270375D01*
G75*
G02*
X151942975Y-106536000I-265625J0D01*
G01*
X150774225Y-106536000D01*
G75*
G02*
X150508600Y-106270375I0J265625D01*
G01*
X150508600Y-104501625D01*
G75*
G02*
X150774225Y-104236000I265625J0D01*
G01*
G37*
G36*
G01*
X150774225Y-101236000D02*
X151942975Y-101236000D01*
G75*
G02*
X152208600Y-101501625I0J-265625D01*
G01*
X152208600Y-103270375D01*
G75*
G02*
X151942975Y-103536000I-265625J0D01*
G01*
X150774225Y-103536000D01*
G75*
G02*
X150508600Y-103270375I0J265625D01*
G01*
X150508600Y-101501625D01*
G75*
G02*
X150774225Y-101236000I265625J0D01*
G01*
G37*
%TD*%
D15*
%TO.C,RV1*%
X153314400Y-92151200D03*
X155854400Y-94691200D03*
X158394400Y-92151200D03*
%TD*%
%TO.C,C3*%
G36*
G01*
X151741450Y-88904800D02*
X151178950Y-88904800D01*
G75*
G02*
X150935200Y-88661050I0J243750D01*
G01*
X150935200Y-88173550D01*
G75*
G02*
X151178950Y-87929800I243750J0D01*
G01*
X151741450Y-87929800D01*
G75*
G02*
X151985200Y-88173550I0J-243750D01*
G01*
X151985200Y-88661050D01*
G75*
G02*
X151741450Y-88904800I-243750J0D01*
G01*
G37*
G36*
G01*
X151741450Y-90479800D02*
X151178950Y-90479800D01*
G75*
G02*
X150935200Y-90236050I0J243750D01*
G01*
X150935200Y-89748550D01*
G75*
G02*
X151178950Y-89504800I243750J0D01*
G01*
X151741450Y-89504800D01*
G75*
G02*
X151985200Y-89748550I0J-243750D01*
G01*
X151985200Y-90236050D01*
G75*
G02*
X151741450Y-90479800I-243750J0D01*
G01*
G37*
%TD*%
D16*
%TO.C,H2*%
X172720000Y-106426000D03*
%TD*%
%TO.C,H1*%
X145288000Y-87122000D03*
%TD*%
D17*
%TO.C,J2*%
X144856200Y-100380800D03*
X144856200Y-97840800D03*
X144856200Y-95300800D03*
D18*
X144856200Y-92760800D03*
%TD*%
M02*
