%TF.GenerationSoftware,KiCad,Pcbnew,5.1.6-c6e7f7d~87~ubuntu18.04.1*%
%TF.CreationDate,2021-12-04T09:45:15-08:00*%
%TF.ProjectId,thermocouple-amp,74686572-6d6f-4636-9f75-706c652d616d,rev?*%
%TF.SameCoordinates,Original*%
%TF.FileFunction,Copper,L2,Bot*%
%TF.FilePolarity,Positive*%
%FSLAX46Y46*%
G04 Gerber Fmt 4.6, Leading zero omitted, Abs format (unit mm)*
G04 Created by KiCad (PCBNEW 5.1.6-c6e7f7d~87~ubuntu18.04.1) date 2021-12-04 09:45:15*
%MOMM*%
%LPD*%
G01*
G04 APERTURE LIST*
%TA.AperFunction,ComponentPad*%
%ADD10C,2.600000*%
%TD*%
%TA.AperFunction,ComponentPad*%
%ADD11R,2.600000X2.600000*%
%TD*%
%TA.AperFunction,ComponentPad*%
%ADD12C,1.440000*%
%TD*%
%TA.AperFunction,ComponentPad*%
%ADD13O,1.700000X1.700000*%
%TD*%
%TA.AperFunction,ComponentPad*%
%ADD14R,1.700000X1.700000*%
%TD*%
%TA.AperFunction,ViaPad*%
%ADD15C,0.800000*%
%TD*%
%TA.AperFunction,Conductor*%
%ADD16C,0.254000*%
%TD*%
G04 APERTURE END LIST*
D10*
%TO.P,TC1,2*%
%TO.N,Net-(R2-Pad1)*%
X170865800Y-96068000D03*
D11*
%TO.P,TC1,1*%
%TO.N,Net-(R4-Pad2)*%
X170865800Y-99568000D03*
%TD*%
D12*
%TO.P,RV1,3*%
%TO.N,GND*%
X156616400Y-92278200D03*
%TO.P,RV1,2*%
%TO.N,Net-(RV1-Pad2)*%
X159156400Y-94818200D03*
%TO.P,RV1,1*%
%TO.N,Net-(R5-Pad1)*%
X161696400Y-92278200D03*
%TD*%
D13*
%TO.P,J2,4*%
%TO.N,/Vout*%
X148971000Y-100076000D03*
%TO.P,J2,3*%
%TO.N,GND*%
X148971000Y-97536000D03*
%TO.P,J2,2*%
%TO.N,+5V*%
X148971000Y-94996000D03*
D14*
%TO.P,J2,1*%
%TO.N,+12V*%
X148971000Y-92456000D03*
%TD*%
D15*
%TO.N,GND*%
X154305000Y-90170000D03*
X152298400Y-107696000D03*
X153187400Y-107696000D03*
X155473400Y-105029000D03*
X157607000Y-104648000D03*
X172237400Y-88569800D03*
X159867600Y-85547200D03*
X161671000Y-98933000D03*
X164084000Y-103632000D03*
X160147000Y-102743000D03*
X164338000Y-92583000D03*
%TO.N,Net-(RV1-Pad2)*%
X160147009Y-100412210D03*
%TD*%
D16*
%TO.N,Net-(RV1-Pad2)*%
X160147009Y-98983809D02*
X160147009Y-100412210D01*
X160147000Y-95808800D02*
X160147000Y-99060000D01*
X159156400Y-94818200D02*
X160147000Y-95808800D01*
%TD*%
%TO.N,GND*%
G36*
X175743000Y-109830000D02*
G01*
X144170000Y-109830000D01*
X144170000Y-106230495D01*
X170735000Y-106230495D01*
X170735000Y-106621505D01*
X170811282Y-107005003D01*
X170960915Y-107366250D01*
X171178149Y-107691364D01*
X171454636Y-107967851D01*
X171779750Y-108185085D01*
X172140997Y-108334718D01*
X172524495Y-108411000D01*
X172915505Y-108411000D01*
X173299003Y-108334718D01*
X173660250Y-108185085D01*
X173985364Y-107967851D01*
X174261851Y-107691364D01*
X174479085Y-107366250D01*
X174628718Y-107005003D01*
X174705000Y-106621505D01*
X174705000Y-106230495D01*
X174628718Y-105846997D01*
X174479085Y-105485750D01*
X174261851Y-105160636D01*
X173985364Y-104884149D01*
X173660250Y-104666915D01*
X173299003Y-104517282D01*
X172915505Y-104441000D01*
X172524495Y-104441000D01*
X172140997Y-104517282D01*
X171779750Y-104666915D01*
X171454636Y-104884149D01*
X171178149Y-105160636D01*
X170960915Y-105485750D01*
X170811282Y-105846997D01*
X170735000Y-106230495D01*
X144170000Y-106230495D01*
X144170000Y-99929740D01*
X147486000Y-99929740D01*
X147486000Y-100222260D01*
X147543068Y-100509158D01*
X147655010Y-100779411D01*
X147817525Y-101022632D01*
X148024368Y-101229475D01*
X148267589Y-101391990D01*
X148537842Y-101503932D01*
X148824740Y-101561000D01*
X149117260Y-101561000D01*
X149404158Y-101503932D01*
X149674411Y-101391990D01*
X149917632Y-101229475D01*
X150124475Y-101022632D01*
X150286990Y-100779411D01*
X150398932Y-100509158D01*
X150456000Y-100222260D01*
X150456000Y-99929740D01*
X150398932Y-99642842D01*
X150286990Y-99372589D01*
X150124475Y-99129368D01*
X149917632Y-98922525D01*
X149735466Y-98800805D01*
X149852355Y-98731178D01*
X150068588Y-98536269D01*
X150242641Y-98302920D01*
X150367825Y-98040099D01*
X150412476Y-97892890D01*
X150291155Y-97663000D01*
X149098000Y-97663000D01*
X149098000Y-97683000D01*
X148844000Y-97683000D01*
X148844000Y-97663000D01*
X147650845Y-97663000D01*
X147529524Y-97892890D01*
X147574175Y-98040099D01*
X147699359Y-98302920D01*
X147873412Y-98536269D01*
X148089645Y-98731178D01*
X148206534Y-98800805D01*
X148024368Y-98922525D01*
X147817525Y-99129368D01*
X147655010Y-99372589D01*
X147543068Y-99642842D01*
X147486000Y-99929740D01*
X144170000Y-99929740D01*
X144170000Y-91606000D01*
X147482928Y-91606000D01*
X147482928Y-93306000D01*
X147495188Y-93430482D01*
X147531498Y-93550180D01*
X147590463Y-93660494D01*
X147669815Y-93757185D01*
X147766506Y-93836537D01*
X147876820Y-93895502D01*
X147949380Y-93917513D01*
X147817525Y-94049368D01*
X147655010Y-94292589D01*
X147543068Y-94562842D01*
X147486000Y-94849740D01*
X147486000Y-95142260D01*
X147543068Y-95429158D01*
X147655010Y-95699411D01*
X147817525Y-95942632D01*
X148024368Y-96149475D01*
X148206534Y-96271195D01*
X148089645Y-96340822D01*
X147873412Y-96535731D01*
X147699359Y-96769080D01*
X147574175Y-97031901D01*
X147529524Y-97179110D01*
X147650845Y-97409000D01*
X148844000Y-97409000D01*
X148844000Y-97389000D01*
X149098000Y-97389000D01*
X149098000Y-97409000D01*
X150291155Y-97409000D01*
X150412476Y-97179110D01*
X150367825Y-97031901D01*
X150242641Y-96769080D01*
X150068588Y-96535731D01*
X149852355Y-96340822D01*
X149735466Y-96271195D01*
X149917632Y-96149475D01*
X150124475Y-95942632D01*
X150286990Y-95699411D01*
X150398932Y-95429158D01*
X150456000Y-95142260D01*
X150456000Y-94849740D01*
X150423181Y-94684744D01*
X157801400Y-94684744D01*
X157801400Y-94951656D01*
X157853472Y-95213439D01*
X157955615Y-95460033D01*
X158103903Y-95681962D01*
X158292638Y-95870697D01*
X158514567Y-96018985D01*
X158761161Y-96121128D01*
X159022944Y-96173200D01*
X159289856Y-96173200D01*
X159385000Y-96154275D01*
X159385001Y-99097426D01*
X159385009Y-99097508D01*
X159385010Y-99710498D01*
X159343072Y-99752436D01*
X159229804Y-99921954D01*
X159151783Y-100110312D01*
X159112009Y-100310271D01*
X159112009Y-100514149D01*
X159151783Y-100714108D01*
X159229804Y-100902466D01*
X159343072Y-101071984D01*
X159487235Y-101216147D01*
X159656753Y-101329415D01*
X159845111Y-101407436D01*
X160045070Y-101447210D01*
X160248948Y-101447210D01*
X160448907Y-101407436D01*
X160637265Y-101329415D01*
X160806783Y-101216147D01*
X160950946Y-101071984D01*
X161064214Y-100902466D01*
X161142235Y-100714108D01*
X161182009Y-100514149D01*
X161182009Y-100310271D01*
X161142235Y-100110312D01*
X161064214Y-99921954D01*
X160950946Y-99752436D01*
X160909009Y-99710499D01*
X160909009Y-98946383D01*
X160909000Y-98946292D01*
X160909000Y-98268000D01*
X168927728Y-98268000D01*
X168927728Y-100868000D01*
X168939988Y-100992482D01*
X168976298Y-101112180D01*
X169035263Y-101222494D01*
X169114615Y-101319185D01*
X169211306Y-101398537D01*
X169321620Y-101457502D01*
X169441318Y-101493812D01*
X169565800Y-101506072D01*
X172165800Y-101506072D01*
X172290282Y-101493812D01*
X172409980Y-101457502D01*
X172520294Y-101398537D01*
X172616985Y-101319185D01*
X172696337Y-101222494D01*
X172755302Y-101112180D01*
X172791612Y-100992482D01*
X172803872Y-100868000D01*
X172803872Y-98268000D01*
X172791612Y-98143518D01*
X172755302Y-98023820D01*
X172696337Y-97913506D01*
X172616985Y-97816815D01*
X172520294Y-97737463D01*
X172409980Y-97678498D01*
X172290282Y-97642188D01*
X172165800Y-97629928D01*
X172011118Y-97629928D01*
X172099291Y-97571013D01*
X172368813Y-97301491D01*
X172580575Y-96984566D01*
X172726439Y-96632419D01*
X172800800Y-96258581D01*
X172800800Y-95877419D01*
X172726439Y-95503581D01*
X172580575Y-95151434D01*
X172368813Y-94834509D01*
X172099291Y-94564987D01*
X171782366Y-94353225D01*
X171430219Y-94207361D01*
X171056381Y-94133000D01*
X170675219Y-94133000D01*
X170301381Y-94207361D01*
X169949234Y-94353225D01*
X169632309Y-94564987D01*
X169362787Y-94834509D01*
X169151025Y-95151434D01*
X169005161Y-95503581D01*
X168930800Y-95877419D01*
X168930800Y-96258581D01*
X169005161Y-96632419D01*
X169151025Y-96984566D01*
X169362787Y-97301491D01*
X169632309Y-97571013D01*
X169720482Y-97629928D01*
X169565800Y-97629928D01*
X169441318Y-97642188D01*
X169321620Y-97678498D01*
X169211306Y-97737463D01*
X169114615Y-97816815D01*
X169035263Y-97913506D01*
X168976298Y-98023820D01*
X168939988Y-98143518D01*
X168927728Y-98268000D01*
X160909000Y-98268000D01*
X160909000Y-95846223D01*
X160912686Y-95808800D01*
X160901912Y-95699411D01*
X160897974Y-95659422D01*
X160854402Y-95515785D01*
X160783646Y-95383409D01*
X160783645Y-95383407D01*
X160712279Y-95296448D01*
X160688422Y-95267378D01*
X160659353Y-95243522D01*
X160487523Y-95071692D01*
X160511400Y-94951656D01*
X160511400Y-94684744D01*
X160459328Y-94422961D01*
X160357185Y-94176367D01*
X160208897Y-93954438D01*
X160020162Y-93765703D01*
X159798233Y-93617415D01*
X159551639Y-93515272D01*
X159289856Y-93463200D01*
X159022944Y-93463200D01*
X158761161Y-93515272D01*
X158514567Y-93617415D01*
X158292638Y-93765703D01*
X158103903Y-93954438D01*
X157955615Y-94176367D01*
X157853472Y-94422961D01*
X157801400Y-94684744D01*
X150423181Y-94684744D01*
X150398932Y-94562842D01*
X150286990Y-94292589D01*
X150124475Y-94049368D01*
X149992620Y-93917513D01*
X150065180Y-93895502D01*
X150175494Y-93836537D01*
X150272185Y-93757185D01*
X150351537Y-93660494D01*
X150410502Y-93550180D01*
X150446812Y-93430482D01*
X150459072Y-93306000D01*
X150459072Y-93213760D01*
X155860445Y-93213760D01*
X155922332Y-93449568D01*
X156164190Y-93562466D01*
X156423427Y-93626011D01*
X156690080Y-93637761D01*
X156953901Y-93597263D01*
X157204753Y-93506075D01*
X157310468Y-93449568D01*
X157372355Y-93213760D01*
X156616400Y-92457805D01*
X155860445Y-93213760D01*
X150459072Y-93213760D01*
X150459072Y-92351880D01*
X155256839Y-92351880D01*
X155297337Y-92615701D01*
X155388525Y-92866553D01*
X155445032Y-92972268D01*
X155680840Y-93034155D01*
X156436795Y-92278200D01*
X156796005Y-92278200D01*
X157551960Y-93034155D01*
X157787768Y-92972268D01*
X157900666Y-92730410D01*
X157964211Y-92471173D01*
X157975961Y-92204520D01*
X157966786Y-92144744D01*
X160341400Y-92144744D01*
X160341400Y-92411656D01*
X160393472Y-92673439D01*
X160495615Y-92920033D01*
X160643903Y-93141962D01*
X160832638Y-93330697D01*
X161054567Y-93478985D01*
X161301161Y-93581128D01*
X161562944Y-93633200D01*
X161829856Y-93633200D01*
X162091639Y-93581128D01*
X162338233Y-93478985D01*
X162560162Y-93330697D01*
X162748897Y-93141962D01*
X162897185Y-92920033D01*
X162999328Y-92673439D01*
X163051400Y-92411656D01*
X163051400Y-92144744D01*
X162999328Y-91882961D01*
X162897185Y-91636367D01*
X162748897Y-91414438D01*
X162560162Y-91225703D01*
X162338233Y-91077415D01*
X162091639Y-90975272D01*
X161829856Y-90923200D01*
X161562944Y-90923200D01*
X161301161Y-90975272D01*
X161054567Y-91077415D01*
X160832638Y-91225703D01*
X160643903Y-91414438D01*
X160495615Y-91636367D01*
X160393472Y-91882961D01*
X160341400Y-92144744D01*
X157966786Y-92144744D01*
X157935463Y-91940699D01*
X157844275Y-91689847D01*
X157787768Y-91584132D01*
X157551960Y-91522245D01*
X156796005Y-92278200D01*
X156436795Y-92278200D01*
X155680840Y-91522245D01*
X155445032Y-91584132D01*
X155332134Y-91825990D01*
X155268589Y-92085227D01*
X155256839Y-92351880D01*
X150459072Y-92351880D01*
X150459072Y-91606000D01*
X150446812Y-91481518D01*
X150410502Y-91361820D01*
X150400250Y-91342640D01*
X155860445Y-91342640D01*
X156616400Y-92098595D01*
X157372355Y-91342640D01*
X157310468Y-91106832D01*
X157068610Y-90993934D01*
X156809373Y-90930389D01*
X156542720Y-90918639D01*
X156278899Y-90959137D01*
X156028047Y-91050325D01*
X155922332Y-91106832D01*
X155860445Y-91342640D01*
X150400250Y-91342640D01*
X150351537Y-91251506D01*
X150272185Y-91154815D01*
X150175494Y-91075463D01*
X150065180Y-91016498D01*
X149945482Y-90980188D01*
X149821000Y-90967928D01*
X148121000Y-90967928D01*
X147996518Y-90980188D01*
X147876820Y-91016498D01*
X147766506Y-91075463D01*
X147669815Y-91154815D01*
X147590463Y-91251506D01*
X147531498Y-91361820D01*
X147495188Y-91481518D01*
X147482928Y-91606000D01*
X144170000Y-91606000D01*
X144170000Y-86926495D01*
X147367000Y-86926495D01*
X147367000Y-87317505D01*
X147443282Y-87701003D01*
X147592915Y-88062250D01*
X147810149Y-88387364D01*
X148086636Y-88663851D01*
X148411750Y-88881085D01*
X148772997Y-89030718D01*
X149156495Y-89107000D01*
X149547505Y-89107000D01*
X149931003Y-89030718D01*
X150292250Y-88881085D01*
X150617364Y-88663851D01*
X150893851Y-88387364D01*
X151111085Y-88062250D01*
X151260718Y-87701003D01*
X151337000Y-87317505D01*
X151337000Y-86926495D01*
X151260718Y-86542997D01*
X151111085Y-86181750D01*
X150893851Y-85856636D01*
X150617364Y-85580149D01*
X150292250Y-85362915D01*
X149931003Y-85213282D01*
X149547505Y-85137000D01*
X149156495Y-85137000D01*
X148772997Y-85213282D01*
X148411750Y-85362915D01*
X148086636Y-85580149D01*
X147810149Y-85856636D01*
X147592915Y-86181750D01*
X147443282Y-86542997D01*
X147367000Y-86926495D01*
X144170000Y-86926495D01*
X144170000Y-84480000D01*
X175743001Y-84480000D01*
X175743000Y-109830000D01*
G37*
X175743000Y-109830000D02*
X144170000Y-109830000D01*
X144170000Y-106230495D01*
X170735000Y-106230495D01*
X170735000Y-106621505D01*
X170811282Y-107005003D01*
X170960915Y-107366250D01*
X171178149Y-107691364D01*
X171454636Y-107967851D01*
X171779750Y-108185085D01*
X172140997Y-108334718D01*
X172524495Y-108411000D01*
X172915505Y-108411000D01*
X173299003Y-108334718D01*
X173660250Y-108185085D01*
X173985364Y-107967851D01*
X174261851Y-107691364D01*
X174479085Y-107366250D01*
X174628718Y-107005003D01*
X174705000Y-106621505D01*
X174705000Y-106230495D01*
X174628718Y-105846997D01*
X174479085Y-105485750D01*
X174261851Y-105160636D01*
X173985364Y-104884149D01*
X173660250Y-104666915D01*
X173299003Y-104517282D01*
X172915505Y-104441000D01*
X172524495Y-104441000D01*
X172140997Y-104517282D01*
X171779750Y-104666915D01*
X171454636Y-104884149D01*
X171178149Y-105160636D01*
X170960915Y-105485750D01*
X170811282Y-105846997D01*
X170735000Y-106230495D01*
X144170000Y-106230495D01*
X144170000Y-99929740D01*
X147486000Y-99929740D01*
X147486000Y-100222260D01*
X147543068Y-100509158D01*
X147655010Y-100779411D01*
X147817525Y-101022632D01*
X148024368Y-101229475D01*
X148267589Y-101391990D01*
X148537842Y-101503932D01*
X148824740Y-101561000D01*
X149117260Y-101561000D01*
X149404158Y-101503932D01*
X149674411Y-101391990D01*
X149917632Y-101229475D01*
X150124475Y-101022632D01*
X150286990Y-100779411D01*
X150398932Y-100509158D01*
X150456000Y-100222260D01*
X150456000Y-99929740D01*
X150398932Y-99642842D01*
X150286990Y-99372589D01*
X150124475Y-99129368D01*
X149917632Y-98922525D01*
X149735466Y-98800805D01*
X149852355Y-98731178D01*
X150068588Y-98536269D01*
X150242641Y-98302920D01*
X150367825Y-98040099D01*
X150412476Y-97892890D01*
X150291155Y-97663000D01*
X149098000Y-97663000D01*
X149098000Y-97683000D01*
X148844000Y-97683000D01*
X148844000Y-97663000D01*
X147650845Y-97663000D01*
X147529524Y-97892890D01*
X147574175Y-98040099D01*
X147699359Y-98302920D01*
X147873412Y-98536269D01*
X148089645Y-98731178D01*
X148206534Y-98800805D01*
X148024368Y-98922525D01*
X147817525Y-99129368D01*
X147655010Y-99372589D01*
X147543068Y-99642842D01*
X147486000Y-99929740D01*
X144170000Y-99929740D01*
X144170000Y-91606000D01*
X147482928Y-91606000D01*
X147482928Y-93306000D01*
X147495188Y-93430482D01*
X147531498Y-93550180D01*
X147590463Y-93660494D01*
X147669815Y-93757185D01*
X147766506Y-93836537D01*
X147876820Y-93895502D01*
X147949380Y-93917513D01*
X147817525Y-94049368D01*
X147655010Y-94292589D01*
X147543068Y-94562842D01*
X147486000Y-94849740D01*
X147486000Y-95142260D01*
X147543068Y-95429158D01*
X147655010Y-95699411D01*
X147817525Y-95942632D01*
X148024368Y-96149475D01*
X148206534Y-96271195D01*
X148089645Y-96340822D01*
X147873412Y-96535731D01*
X147699359Y-96769080D01*
X147574175Y-97031901D01*
X147529524Y-97179110D01*
X147650845Y-97409000D01*
X148844000Y-97409000D01*
X148844000Y-97389000D01*
X149098000Y-97389000D01*
X149098000Y-97409000D01*
X150291155Y-97409000D01*
X150412476Y-97179110D01*
X150367825Y-97031901D01*
X150242641Y-96769080D01*
X150068588Y-96535731D01*
X149852355Y-96340822D01*
X149735466Y-96271195D01*
X149917632Y-96149475D01*
X150124475Y-95942632D01*
X150286990Y-95699411D01*
X150398932Y-95429158D01*
X150456000Y-95142260D01*
X150456000Y-94849740D01*
X150423181Y-94684744D01*
X157801400Y-94684744D01*
X157801400Y-94951656D01*
X157853472Y-95213439D01*
X157955615Y-95460033D01*
X158103903Y-95681962D01*
X158292638Y-95870697D01*
X158514567Y-96018985D01*
X158761161Y-96121128D01*
X159022944Y-96173200D01*
X159289856Y-96173200D01*
X159385000Y-96154275D01*
X159385001Y-99097426D01*
X159385009Y-99097508D01*
X159385010Y-99710498D01*
X159343072Y-99752436D01*
X159229804Y-99921954D01*
X159151783Y-100110312D01*
X159112009Y-100310271D01*
X159112009Y-100514149D01*
X159151783Y-100714108D01*
X159229804Y-100902466D01*
X159343072Y-101071984D01*
X159487235Y-101216147D01*
X159656753Y-101329415D01*
X159845111Y-101407436D01*
X160045070Y-101447210D01*
X160248948Y-101447210D01*
X160448907Y-101407436D01*
X160637265Y-101329415D01*
X160806783Y-101216147D01*
X160950946Y-101071984D01*
X161064214Y-100902466D01*
X161142235Y-100714108D01*
X161182009Y-100514149D01*
X161182009Y-100310271D01*
X161142235Y-100110312D01*
X161064214Y-99921954D01*
X160950946Y-99752436D01*
X160909009Y-99710499D01*
X160909009Y-98946383D01*
X160909000Y-98946292D01*
X160909000Y-98268000D01*
X168927728Y-98268000D01*
X168927728Y-100868000D01*
X168939988Y-100992482D01*
X168976298Y-101112180D01*
X169035263Y-101222494D01*
X169114615Y-101319185D01*
X169211306Y-101398537D01*
X169321620Y-101457502D01*
X169441318Y-101493812D01*
X169565800Y-101506072D01*
X172165800Y-101506072D01*
X172290282Y-101493812D01*
X172409980Y-101457502D01*
X172520294Y-101398537D01*
X172616985Y-101319185D01*
X172696337Y-101222494D01*
X172755302Y-101112180D01*
X172791612Y-100992482D01*
X172803872Y-100868000D01*
X172803872Y-98268000D01*
X172791612Y-98143518D01*
X172755302Y-98023820D01*
X172696337Y-97913506D01*
X172616985Y-97816815D01*
X172520294Y-97737463D01*
X172409980Y-97678498D01*
X172290282Y-97642188D01*
X172165800Y-97629928D01*
X172011118Y-97629928D01*
X172099291Y-97571013D01*
X172368813Y-97301491D01*
X172580575Y-96984566D01*
X172726439Y-96632419D01*
X172800800Y-96258581D01*
X172800800Y-95877419D01*
X172726439Y-95503581D01*
X172580575Y-95151434D01*
X172368813Y-94834509D01*
X172099291Y-94564987D01*
X171782366Y-94353225D01*
X171430219Y-94207361D01*
X171056381Y-94133000D01*
X170675219Y-94133000D01*
X170301381Y-94207361D01*
X169949234Y-94353225D01*
X169632309Y-94564987D01*
X169362787Y-94834509D01*
X169151025Y-95151434D01*
X169005161Y-95503581D01*
X168930800Y-95877419D01*
X168930800Y-96258581D01*
X169005161Y-96632419D01*
X169151025Y-96984566D01*
X169362787Y-97301491D01*
X169632309Y-97571013D01*
X169720482Y-97629928D01*
X169565800Y-97629928D01*
X169441318Y-97642188D01*
X169321620Y-97678498D01*
X169211306Y-97737463D01*
X169114615Y-97816815D01*
X169035263Y-97913506D01*
X168976298Y-98023820D01*
X168939988Y-98143518D01*
X168927728Y-98268000D01*
X160909000Y-98268000D01*
X160909000Y-95846223D01*
X160912686Y-95808800D01*
X160901912Y-95699411D01*
X160897974Y-95659422D01*
X160854402Y-95515785D01*
X160783646Y-95383409D01*
X160783645Y-95383407D01*
X160712279Y-95296448D01*
X160688422Y-95267378D01*
X160659353Y-95243522D01*
X160487523Y-95071692D01*
X160511400Y-94951656D01*
X160511400Y-94684744D01*
X160459328Y-94422961D01*
X160357185Y-94176367D01*
X160208897Y-93954438D01*
X160020162Y-93765703D01*
X159798233Y-93617415D01*
X159551639Y-93515272D01*
X159289856Y-93463200D01*
X159022944Y-93463200D01*
X158761161Y-93515272D01*
X158514567Y-93617415D01*
X158292638Y-93765703D01*
X158103903Y-93954438D01*
X157955615Y-94176367D01*
X157853472Y-94422961D01*
X157801400Y-94684744D01*
X150423181Y-94684744D01*
X150398932Y-94562842D01*
X150286990Y-94292589D01*
X150124475Y-94049368D01*
X149992620Y-93917513D01*
X150065180Y-93895502D01*
X150175494Y-93836537D01*
X150272185Y-93757185D01*
X150351537Y-93660494D01*
X150410502Y-93550180D01*
X150446812Y-93430482D01*
X150459072Y-93306000D01*
X150459072Y-93213760D01*
X155860445Y-93213760D01*
X155922332Y-93449568D01*
X156164190Y-93562466D01*
X156423427Y-93626011D01*
X156690080Y-93637761D01*
X156953901Y-93597263D01*
X157204753Y-93506075D01*
X157310468Y-93449568D01*
X157372355Y-93213760D01*
X156616400Y-92457805D01*
X155860445Y-93213760D01*
X150459072Y-93213760D01*
X150459072Y-92351880D01*
X155256839Y-92351880D01*
X155297337Y-92615701D01*
X155388525Y-92866553D01*
X155445032Y-92972268D01*
X155680840Y-93034155D01*
X156436795Y-92278200D01*
X156796005Y-92278200D01*
X157551960Y-93034155D01*
X157787768Y-92972268D01*
X157900666Y-92730410D01*
X157964211Y-92471173D01*
X157975961Y-92204520D01*
X157966786Y-92144744D01*
X160341400Y-92144744D01*
X160341400Y-92411656D01*
X160393472Y-92673439D01*
X160495615Y-92920033D01*
X160643903Y-93141962D01*
X160832638Y-93330697D01*
X161054567Y-93478985D01*
X161301161Y-93581128D01*
X161562944Y-93633200D01*
X161829856Y-93633200D01*
X162091639Y-93581128D01*
X162338233Y-93478985D01*
X162560162Y-93330697D01*
X162748897Y-93141962D01*
X162897185Y-92920033D01*
X162999328Y-92673439D01*
X163051400Y-92411656D01*
X163051400Y-92144744D01*
X162999328Y-91882961D01*
X162897185Y-91636367D01*
X162748897Y-91414438D01*
X162560162Y-91225703D01*
X162338233Y-91077415D01*
X162091639Y-90975272D01*
X161829856Y-90923200D01*
X161562944Y-90923200D01*
X161301161Y-90975272D01*
X161054567Y-91077415D01*
X160832638Y-91225703D01*
X160643903Y-91414438D01*
X160495615Y-91636367D01*
X160393472Y-91882961D01*
X160341400Y-92144744D01*
X157966786Y-92144744D01*
X157935463Y-91940699D01*
X157844275Y-91689847D01*
X157787768Y-91584132D01*
X157551960Y-91522245D01*
X156796005Y-92278200D01*
X156436795Y-92278200D01*
X155680840Y-91522245D01*
X155445032Y-91584132D01*
X155332134Y-91825990D01*
X155268589Y-92085227D01*
X155256839Y-92351880D01*
X150459072Y-92351880D01*
X150459072Y-91606000D01*
X150446812Y-91481518D01*
X150410502Y-91361820D01*
X150400250Y-91342640D01*
X155860445Y-91342640D01*
X156616400Y-92098595D01*
X157372355Y-91342640D01*
X157310468Y-91106832D01*
X157068610Y-90993934D01*
X156809373Y-90930389D01*
X156542720Y-90918639D01*
X156278899Y-90959137D01*
X156028047Y-91050325D01*
X155922332Y-91106832D01*
X155860445Y-91342640D01*
X150400250Y-91342640D01*
X150351537Y-91251506D01*
X150272185Y-91154815D01*
X150175494Y-91075463D01*
X150065180Y-91016498D01*
X149945482Y-90980188D01*
X149821000Y-90967928D01*
X148121000Y-90967928D01*
X147996518Y-90980188D01*
X147876820Y-91016498D01*
X147766506Y-91075463D01*
X147669815Y-91154815D01*
X147590463Y-91251506D01*
X147531498Y-91361820D01*
X147495188Y-91481518D01*
X147482928Y-91606000D01*
X144170000Y-91606000D01*
X144170000Y-86926495D01*
X147367000Y-86926495D01*
X147367000Y-87317505D01*
X147443282Y-87701003D01*
X147592915Y-88062250D01*
X147810149Y-88387364D01*
X148086636Y-88663851D01*
X148411750Y-88881085D01*
X148772997Y-89030718D01*
X149156495Y-89107000D01*
X149547505Y-89107000D01*
X149931003Y-89030718D01*
X150292250Y-88881085D01*
X150617364Y-88663851D01*
X150893851Y-88387364D01*
X151111085Y-88062250D01*
X151260718Y-87701003D01*
X151337000Y-87317505D01*
X151337000Y-86926495D01*
X151260718Y-86542997D01*
X151111085Y-86181750D01*
X150893851Y-85856636D01*
X150617364Y-85580149D01*
X150292250Y-85362915D01*
X149931003Y-85213282D01*
X149547505Y-85137000D01*
X149156495Y-85137000D01*
X148772997Y-85213282D01*
X148411750Y-85362915D01*
X148086636Y-85580149D01*
X147810149Y-85856636D01*
X147592915Y-86181750D01*
X147443282Y-86542997D01*
X147367000Y-86926495D01*
X144170000Y-86926495D01*
X144170000Y-84480000D01*
X175743001Y-84480000D01*
X175743000Y-109830000D01*
%TD*%
M02*
