M48
; DRILL file {KiCad 5.1.6-c6e7f7d~87~ubuntu18.04.1} date Sat Dec  4 00:40:28 2021
; FORMAT={-:-/ absolute / inch / decimal}
; #@! TF.CreationDate,2021-12-04T00:40:28-08:00
; #@! TF.GenerationSoftware,Kicad,Pcbnew,5.1.6-c6e7f7d~87~ubuntu18.04.1
FMAT,2
INCH
T1C0.0157
T2C0.0315
T3C0.0394
T4C0.0512
T5C0.1063
%
G90
G05
T1
X5.557Y-3.493
X5.63Y-4.126
X5.75Y-4.188
X5.801Y-3.588
X5.845Y-3.897
X5.875Y-3.415
X5.928Y-3.797
X5.941Y-4.22
X5.963Y-3.583
X5.976Y-4.22
X6.066Y-4.115
X6.155Y-4.179
X6.294Y-3.368
X6.305Y-4.045
X6.305Y-3.9532
X6.365Y-3.895
X6.379Y-3.665
X6.46Y-4.08
X6.781Y-3.487
T2
X6.036Y-3.628
X6.136Y-3.728
X6.236Y-3.628
T3
X5.703Y-3.652
X5.703Y-3.752
X5.703Y-3.852
X5.703Y-3.952
T4
X6.727Y-3.7822
X6.727Y-3.92
T5
X6.8Y-4.19
X5.72Y-3.43
T0
M30
