%TF.GenerationSoftware,KiCad,Pcbnew,5.1.6-c6e7f7d~87~ubuntu18.04.1*%
%TF.CreationDate,2021-12-07T16:35:33-08:00*%
%TF.ProjectId,photodiode-amp,70686f74-6f64-4696-9f64-652d616d702e,rev?*%
%TF.SameCoordinates,Original*%
%TF.FileFunction,Copper,L2,Bot*%
%TF.FilePolarity,Positive*%
%FSLAX46Y46*%
G04 Gerber Fmt 4.6, Leading zero omitted, Abs format (unit mm)*
G04 Created by KiCad (PCBNEW 5.1.6-c6e7f7d~87~ubuntu18.04.1) date 2021-12-07 16:35:33*
%MOMM*%
%LPD*%
G01*
G04 APERTURE LIST*
%TA.AperFunction,ComponentPad*%
%ADD10O,1.200000X1.200000*%
%TD*%
%TA.AperFunction,ComponentPad*%
%ADD11O,1.200000X1.600000*%
%TD*%
%TA.AperFunction,ComponentPad*%
%ADD12O,1.700000X1.700000*%
%TD*%
%TA.AperFunction,ComponentPad*%
%ADD13R,1.700000X1.700000*%
%TD*%
%TA.AperFunction,ViaPad*%
%ADD14C,0.800000*%
%TD*%
%TA.AperFunction,Conductor*%
%ADD15C,0.254000*%
%TD*%
G04 APERTURE END LIST*
D10*
%TO.P,D1,2*%
%TO.N,GND*%
X158877000Y-94742000D03*
D11*
%TO.P,D1,1*%
%TO.N,Net-(C1-Pad1)*%
X158877000Y-99822000D03*
%TD*%
D12*
%TO.P,J2,4*%
%TO.N,/Vout*%
X145542000Y-101981000D03*
%TO.P,J2,3*%
%TO.N,/Vref*%
X145542000Y-99441000D03*
%TO.P,J2,2*%
%TO.N,GND*%
X145542000Y-96901000D03*
D13*
%TO.P,J2,1*%
%TO.N,+5V*%
X145542000Y-94361000D03*
%TD*%
D14*
%TO.N,GND*%
X148971000Y-94996000D03*
X149479000Y-99187000D03*
X155575000Y-99187000D03*
X152654000Y-104775000D03*
X153797000Y-104775000D03*
X154178000Y-101727000D03*
X154178000Y-102743000D03*
X154178000Y-103759000D03*
X156464000Y-99187000D03*
X157480000Y-99187000D03*
X154178000Y-100838000D03*
X155194000Y-100838000D03*
X156337000Y-100838000D03*
X157480000Y-100838000D03*
X160020000Y-100965000D03*
X160147000Y-99822000D03*
X160020000Y-98806000D03*
X158800800Y-101244400D03*
X159131000Y-98298000D03*
X158089600Y-98475800D03*
%TD*%
D15*
%TO.N,GND*%
G36*
X164186000Y-109830000D02*
G01*
X140614000Y-109830000D01*
X140614000Y-106230495D01*
X159559000Y-106230495D01*
X159559000Y-106621505D01*
X159635282Y-107005003D01*
X159784915Y-107366250D01*
X160002149Y-107691364D01*
X160278636Y-107967851D01*
X160603750Y-108185085D01*
X160964997Y-108334718D01*
X161348495Y-108411000D01*
X161739505Y-108411000D01*
X162123003Y-108334718D01*
X162484250Y-108185085D01*
X162809364Y-107967851D01*
X163085851Y-107691364D01*
X163303085Y-107366250D01*
X163452718Y-107005003D01*
X163529000Y-106621505D01*
X163529000Y-106230495D01*
X163452718Y-105846997D01*
X163303085Y-105485750D01*
X163085851Y-105160636D01*
X162809364Y-104884149D01*
X162484250Y-104666915D01*
X162123003Y-104517282D01*
X161739505Y-104441000D01*
X161348495Y-104441000D01*
X160964997Y-104517282D01*
X160603750Y-104666915D01*
X160278636Y-104884149D01*
X160002149Y-105160636D01*
X159784915Y-105485750D01*
X159635282Y-105846997D01*
X159559000Y-106230495D01*
X140614000Y-106230495D01*
X140614000Y-99294740D01*
X144057000Y-99294740D01*
X144057000Y-99587260D01*
X144114068Y-99874158D01*
X144226010Y-100144411D01*
X144388525Y-100387632D01*
X144595368Y-100594475D01*
X144769760Y-100711000D01*
X144595368Y-100827525D01*
X144388525Y-101034368D01*
X144226010Y-101277589D01*
X144114068Y-101547842D01*
X144057000Y-101834740D01*
X144057000Y-102127260D01*
X144114068Y-102414158D01*
X144226010Y-102684411D01*
X144388525Y-102927632D01*
X144595368Y-103134475D01*
X144838589Y-103296990D01*
X145108842Y-103408932D01*
X145395740Y-103466000D01*
X145688260Y-103466000D01*
X145975158Y-103408932D01*
X146245411Y-103296990D01*
X146488632Y-103134475D01*
X146695475Y-102927632D01*
X146857990Y-102684411D01*
X146969932Y-102414158D01*
X147027000Y-102127260D01*
X147027000Y-101834740D01*
X146969932Y-101547842D01*
X146857990Y-101277589D01*
X146695475Y-101034368D01*
X146488632Y-100827525D01*
X146314240Y-100711000D01*
X146488632Y-100594475D01*
X146695475Y-100387632D01*
X146857990Y-100144411D01*
X146969932Y-99874158D01*
X147027000Y-99587260D01*
X147027000Y-99561336D01*
X157642000Y-99561336D01*
X157642000Y-100082665D01*
X157659870Y-100264102D01*
X157730489Y-100496901D01*
X157845168Y-100711449D01*
X157999499Y-100899502D01*
X158187552Y-101053833D01*
X158402100Y-101168511D01*
X158634899Y-101239130D01*
X158877000Y-101262975D01*
X159119102Y-101239130D01*
X159351901Y-101168511D01*
X159566449Y-101053833D01*
X159754502Y-100899502D01*
X159908833Y-100711449D01*
X160023511Y-100496900D01*
X160094130Y-100264101D01*
X160112000Y-100082664D01*
X160112000Y-99561335D01*
X160094130Y-99379898D01*
X160023511Y-99147099D01*
X159908833Y-98932551D01*
X159754502Y-98744498D01*
X159566448Y-98590167D01*
X159351900Y-98475489D01*
X159119101Y-98404870D01*
X158877000Y-98381025D01*
X158634898Y-98404870D01*
X158402099Y-98475489D01*
X158187551Y-98590167D01*
X157999498Y-98744498D01*
X157845167Y-98932552D01*
X157730489Y-99147100D01*
X157659870Y-99379899D01*
X157642000Y-99561336D01*
X147027000Y-99561336D01*
X147027000Y-99294740D01*
X146969932Y-99007842D01*
X146857990Y-98737589D01*
X146695475Y-98494368D01*
X146488632Y-98287525D01*
X146306466Y-98165805D01*
X146423355Y-98096178D01*
X146639588Y-97901269D01*
X146813641Y-97667920D01*
X146938825Y-97405099D01*
X146983476Y-97257890D01*
X146862155Y-97028000D01*
X145669000Y-97028000D01*
X145669000Y-97048000D01*
X145415000Y-97048000D01*
X145415000Y-97028000D01*
X144221845Y-97028000D01*
X144100524Y-97257890D01*
X144145175Y-97405099D01*
X144270359Y-97667920D01*
X144444412Y-97901269D01*
X144660645Y-98096178D01*
X144777534Y-98165805D01*
X144595368Y-98287525D01*
X144388525Y-98494368D01*
X144226010Y-98737589D01*
X144114068Y-99007842D01*
X144057000Y-99294740D01*
X140614000Y-99294740D01*
X140614000Y-93511000D01*
X144053928Y-93511000D01*
X144053928Y-95211000D01*
X144066188Y-95335482D01*
X144102498Y-95455180D01*
X144161463Y-95565494D01*
X144240815Y-95662185D01*
X144337506Y-95741537D01*
X144447820Y-95800502D01*
X144528466Y-95824966D01*
X144444412Y-95900731D01*
X144270359Y-96134080D01*
X144145175Y-96396901D01*
X144100524Y-96544110D01*
X144221845Y-96774000D01*
X145415000Y-96774000D01*
X145415000Y-96754000D01*
X145669000Y-96754000D01*
X145669000Y-96774000D01*
X146862155Y-96774000D01*
X146983476Y-96544110D01*
X146938825Y-96396901D01*
X146813641Y-96134080D01*
X146639588Y-95900731D01*
X146555534Y-95824966D01*
X146636180Y-95800502D01*
X146746494Y-95741537D01*
X146843185Y-95662185D01*
X146922537Y-95565494D01*
X146981502Y-95455180D01*
X147017812Y-95335482D01*
X147030072Y-95211000D01*
X147030072Y-95059610D01*
X157683533Y-95059610D01*
X157768428Y-95286341D01*
X157895925Y-95492153D01*
X158061124Y-95669137D01*
X158257676Y-95810492D01*
X158478029Y-95910785D01*
X158559391Y-95935462D01*
X158750000Y-95810731D01*
X158750000Y-94869000D01*
X159004000Y-94869000D01*
X159004000Y-95810731D01*
X159194609Y-95935462D01*
X159275971Y-95910785D01*
X159496324Y-95810492D01*
X159692876Y-95669137D01*
X159858075Y-95492153D01*
X159985572Y-95286341D01*
X160070467Y-95059610D01*
X159946709Y-94869000D01*
X159004000Y-94869000D01*
X158750000Y-94869000D01*
X157807291Y-94869000D01*
X157683533Y-95059610D01*
X147030072Y-95059610D01*
X147030072Y-94424390D01*
X157683533Y-94424390D01*
X157807291Y-94615000D01*
X158750000Y-94615000D01*
X158750000Y-93673269D01*
X159004000Y-93673269D01*
X159004000Y-94615000D01*
X159946709Y-94615000D01*
X160070467Y-94424390D01*
X159985572Y-94197659D01*
X159858075Y-93991847D01*
X159692876Y-93814863D01*
X159496324Y-93673508D01*
X159275971Y-93573215D01*
X159194609Y-93548538D01*
X159004000Y-93673269D01*
X158750000Y-93673269D01*
X158559391Y-93548538D01*
X158478029Y-93573215D01*
X158257676Y-93673508D01*
X158061124Y-93814863D01*
X157895925Y-93991847D01*
X157768428Y-94197659D01*
X157683533Y-94424390D01*
X147030072Y-94424390D01*
X147030072Y-93511000D01*
X147017812Y-93386518D01*
X146981502Y-93266820D01*
X146922537Y-93156506D01*
X146843185Y-93059815D01*
X146746494Y-92980463D01*
X146636180Y-92921498D01*
X146516482Y-92885188D01*
X146392000Y-92872928D01*
X144692000Y-92872928D01*
X144567518Y-92885188D01*
X144447820Y-92921498D01*
X144337506Y-92980463D01*
X144240815Y-93059815D01*
X144161463Y-93156506D01*
X144102498Y-93266820D01*
X144066188Y-93386518D01*
X144053928Y-93511000D01*
X140614000Y-93511000D01*
X140614000Y-86926495D01*
X141271000Y-86926495D01*
X141271000Y-87317505D01*
X141347282Y-87701003D01*
X141496915Y-88062250D01*
X141714149Y-88387364D01*
X141990636Y-88663851D01*
X142315750Y-88881085D01*
X142676997Y-89030718D01*
X143060495Y-89107000D01*
X143451505Y-89107000D01*
X143835003Y-89030718D01*
X144196250Y-88881085D01*
X144521364Y-88663851D01*
X144797851Y-88387364D01*
X145015085Y-88062250D01*
X145164718Y-87701003D01*
X145241000Y-87317505D01*
X145241000Y-86926495D01*
X145164718Y-86542997D01*
X145015085Y-86181750D01*
X144797851Y-85856636D01*
X144521364Y-85580149D01*
X144196250Y-85362915D01*
X143835003Y-85213282D01*
X143451505Y-85137000D01*
X143060495Y-85137000D01*
X142676997Y-85213282D01*
X142315750Y-85362915D01*
X141990636Y-85580149D01*
X141714149Y-85856636D01*
X141496915Y-86181750D01*
X141347282Y-86542997D01*
X141271000Y-86926495D01*
X140614000Y-86926495D01*
X140614000Y-84480000D01*
X164186001Y-84480000D01*
X164186000Y-109830000D01*
G37*
X164186000Y-109830000D02*
X140614000Y-109830000D01*
X140614000Y-106230495D01*
X159559000Y-106230495D01*
X159559000Y-106621505D01*
X159635282Y-107005003D01*
X159784915Y-107366250D01*
X160002149Y-107691364D01*
X160278636Y-107967851D01*
X160603750Y-108185085D01*
X160964997Y-108334718D01*
X161348495Y-108411000D01*
X161739505Y-108411000D01*
X162123003Y-108334718D01*
X162484250Y-108185085D01*
X162809364Y-107967851D01*
X163085851Y-107691364D01*
X163303085Y-107366250D01*
X163452718Y-107005003D01*
X163529000Y-106621505D01*
X163529000Y-106230495D01*
X163452718Y-105846997D01*
X163303085Y-105485750D01*
X163085851Y-105160636D01*
X162809364Y-104884149D01*
X162484250Y-104666915D01*
X162123003Y-104517282D01*
X161739505Y-104441000D01*
X161348495Y-104441000D01*
X160964997Y-104517282D01*
X160603750Y-104666915D01*
X160278636Y-104884149D01*
X160002149Y-105160636D01*
X159784915Y-105485750D01*
X159635282Y-105846997D01*
X159559000Y-106230495D01*
X140614000Y-106230495D01*
X140614000Y-99294740D01*
X144057000Y-99294740D01*
X144057000Y-99587260D01*
X144114068Y-99874158D01*
X144226010Y-100144411D01*
X144388525Y-100387632D01*
X144595368Y-100594475D01*
X144769760Y-100711000D01*
X144595368Y-100827525D01*
X144388525Y-101034368D01*
X144226010Y-101277589D01*
X144114068Y-101547842D01*
X144057000Y-101834740D01*
X144057000Y-102127260D01*
X144114068Y-102414158D01*
X144226010Y-102684411D01*
X144388525Y-102927632D01*
X144595368Y-103134475D01*
X144838589Y-103296990D01*
X145108842Y-103408932D01*
X145395740Y-103466000D01*
X145688260Y-103466000D01*
X145975158Y-103408932D01*
X146245411Y-103296990D01*
X146488632Y-103134475D01*
X146695475Y-102927632D01*
X146857990Y-102684411D01*
X146969932Y-102414158D01*
X147027000Y-102127260D01*
X147027000Y-101834740D01*
X146969932Y-101547842D01*
X146857990Y-101277589D01*
X146695475Y-101034368D01*
X146488632Y-100827525D01*
X146314240Y-100711000D01*
X146488632Y-100594475D01*
X146695475Y-100387632D01*
X146857990Y-100144411D01*
X146969932Y-99874158D01*
X147027000Y-99587260D01*
X147027000Y-99561336D01*
X157642000Y-99561336D01*
X157642000Y-100082665D01*
X157659870Y-100264102D01*
X157730489Y-100496901D01*
X157845168Y-100711449D01*
X157999499Y-100899502D01*
X158187552Y-101053833D01*
X158402100Y-101168511D01*
X158634899Y-101239130D01*
X158877000Y-101262975D01*
X159119102Y-101239130D01*
X159351901Y-101168511D01*
X159566449Y-101053833D01*
X159754502Y-100899502D01*
X159908833Y-100711449D01*
X160023511Y-100496900D01*
X160094130Y-100264101D01*
X160112000Y-100082664D01*
X160112000Y-99561335D01*
X160094130Y-99379898D01*
X160023511Y-99147099D01*
X159908833Y-98932551D01*
X159754502Y-98744498D01*
X159566448Y-98590167D01*
X159351900Y-98475489D01*
X159119101Y-98404870D01*
X158877000Y-98381025D01*
X158634898Y-98404870D01*
X158402099Y-98475489D01*
X158187551Y-98590167D01*
X157999498Y-98744498D01*
X157845167Y-98932552D01*
X157730489Y-99147100D01*
X157659870Y-99379899D01*
X157642000Y-99561336D01*
X147027000Y-99561336D01*
X147027000Y-99294740D01*
X146969932Y-99007842D01*
X146857990Y-98737589D01*
X146695475Y-98494368D01*
X146488632Y-98287525D01*
X146306466Y-98165805D01*
X146423355Y-98096178D01*
X146639588Y-97901269D01*
X146813641Y-97667920D01*
X146938825Y-97405099D01*
X146983476Y-97257890D01*
X146862155Y-97028000D01*
X145669000Y-97028000D01*
X145669000Y-97048000D01*
X145415000Y-97048000D01*
X145415000Y-97028000D01*
X144221845Y-97028000D01*
X144100524Y-97257890D01*
X144145175Y-97405099D01*
X144270359Y-97667920D01*
X144444412Y-97901269D01*
X144660645Y-98096178D01*
X144777534Y-98165805D01*
X144595368Y-98287525D01*
X144388525Y-98494368D01*
X144226010Y-98737589D01*
X144114068Y-99007842D01*
X144057000Y-99294740D01*
X140614000Y-99294740D01*
X140614000Y-93511000D01*
X144053928Y-93511000D01*
X144053928Y-95211000D01*
X144066188Y-95335482D01*
X144102498Y-95455180D01*
X144161463Y-95565494D01*
X144240815Y-95662185D01*
X144337506Y-95741537D01*
X144447820Y-95800502D01*
X144528466Y-95824966D01*
X144444412Y-95900731D01*
X144270359Y-96134080D01*
X144145175Y-96396901D01*
X144100524Y-96544110D01*
X144221845Y-96774000D01*
X145415000Y-96774000D01*
X145415000Y-96754000D01*
X145669000Y-96754000D01*
X145669000Y-96774000D01*
X146862155Y-96774000D01*
X146983476Y-96544110D01*
X146938825Y-96396901D01*
X146813641Y-96134080D01*
X146639588Y-95900731D01*
X146555534Y-95824966D01*
X146636180Y-95800502D01*
X146746494Y-95741537D01*
X146843185Y-95662185D01*
X146922537Y-95565494D01*
X146981502Y-95455180D01*
X147017812Y-95335482D01*
X147030072Y-95211000D01*
X147030072Y-95059610D01*
X157683533Y-95059610D01*
X157768428Y-95286341D01*
X157895925Y-95492153D01*
X158061124Y-95669137D01*
X158257676Y-95810492D01*
X158478029Y-95910785D01*
X158559391Y-95935462D01*
X158750000Y-95810731D01*
X158750000Y-94869000D01*
X159004000Y-94869000D01*
X159004000Y-95810731D01*
X159194609Y-95935462D01*
X159275971Y-95910785D01*
X159496324Y-95810492D01*
X159692876Y-95669137D01*
X159858075Y-95492153D01*
X159985572Y-95286341D01*
X160070467Y-95059610D01*
X159946709Y-94869000D01*
X159004000Y-94869000D01*
X158750000Y-94869000D01*
X157807291Y-94869000D01*
X157683533Y-95059610D01*
X147030072Y-95059610D01*
X147030072Y-94424390D01*
X157683533Y-94424390D01*
X157807291Y-94615000D01*
X158750000Y-94615000D01*
X158750000Y-93673269D01*
X159004000Y-93673269D01*
X159004000Y-94615000D01*
X159946709Y-94615000D01*
X160070467Y-94424390D01*
X159985572Y-94197659D01*
X159858075Y-93991847D01*
X159692876Y-93814863D01*
X159496324Y-93673508D01*
X159275971Y-93573215D01*
X159194609Y-93548538D01*
X159004000Y-93673269D01*
X158750000Y-93673269D01*
X158559391Y-93548538D01*
X158478029Y-93573215D01*
X158257676Y-93673508D01*
X158061124Y-93814863D01*
X157895925Y-93991847D01*
X157768428Y-94197659D01*
X157683533Y-94424390D01*
X147030072Y-94424390D01*
X147030072Y-93511000D01*
X147017812Y-93386518D01*
X146981502Y-93266820D01*
X146922537Y-93156506D01*
X146843185Y-93059815D01*
X146746494Y-92980463D01*
X146636180Y-92921498D01*
X146516482Y-92885188D01*
X146392000Y-92872928D01*
X144692000Y-92872928D01*
X144567518Y-92885188D01*
X144447820Y-92921498D01*
X144337506Y-92980463D01*
X144240815Y-93059815D01*
X144161463Y-93156506D01*
X144102498Y-93266820D01*
X144066188Y-93386518D01*
X144053928Y-93511000D01*
X140614000Y-93511000D01*
X140614000Y-86926495D01*
X141271000Y-86926495D01*
X141271000Y-87317505D01*
X141347282Y-87701003D01*
X141496915Y-88062250D01*
X141714149Y-88387364D01*
X141990636Y-88663851D01*
X142315750Y-88881085D01*
X142676997Y-89030718D01*
X143060495Y-89107000D01*
X143451505Y-89107000D01*
X143835003Y-89030718D01*
X144196250Y-88881085D01*
X144521364Y-88663851D01*
X144797851Y-88387364D01*
X145015085Y-88062250D01*
X145164718Y-87701003D01*
X145241000Y-87317505D01*
X145241000Y-86926495D01*
X145164718Y-86542997D01*
X145015085Y-86181750D01*
X144797851Y-85856636D01*
X144521364Y-85580149D01*
X144196250Y-85362915D01*
X143835003Y-85213282D01*
X143451505Y-85137000D01*
X143060495Y-85137000D01*
X142676997Y-85213282D01*
X142315750Y-85362915D01*
X141990636Y-85580149D01*
X141714149Y-85856636D01*
X141496915Y-86181750D01*
X141347282Y-86542997D01*
X141271000Y-86926495D01*
X140614000Y-86926495D01*
X140614000Y-84480000D01*
X164186001Y-84480000D01*
X164186000Y-109830000D01*
%TD*%
M02*
