%TF.GenerationSoftware,KiCad,Pcbnew,5.1.6-c6e7f7d~87~ubuntu18.04.1*%
%TF.CreationDate,2021-12-07T16:29:37-08:00*%
%TF.ProjectId,photodiode-amp,70686f74-6f64-4696-9f64-652d616d702e,rev?*%
%TF.SameCoordinates,Original*%
%TF.FileFunction,Soldermask,Top*%
%TF.FilePolarity,Negative*%
%FSLAX46Y46*%
G04 Gerber Fmt 4.6, Leading zero omitted, Abs format (unit mm)*
G04 Created by KiCad (PCBNEW 5.1.6-c6e7f7d~87~ubuntu18.04.1) date 2021-12-07 16:29:37*
%MOMM*%
%LPD*%
G01*
G04 APERTURE LIST*
%ADD10C,0.150000*%
%ADD11O,1.300000X1.300000*%
%ADD12O,1.300000X1.700000*%
%ADD13R,1.160000X0.750000*%
%ADD14C,2.800000*%
%ADD15O,1.800000X1.800000*%
%ADD16R,1.800000X1.800000*%
G04 APERTURE END LIST*
D10*
X155665967Y-89352380D02*
X155094538Y-89352380D01*
X155380252Y-89352380D02*
X155505252Y-88352380D01*
X155392157Y-88495238D01*
X155285014Y-88590476D01*
X155183824Y-88638095D01*
X156160014Y-88447619D02*
X156213586Y-88400000D01*
X156314776Y-88352380D01*
X156552872Y-88352380D01*
X156642157Y-88400000D01*
X156683824Y-88447619D01*
X156719538Y-88542857D01*
X156707633Y-88638095D01*
X156642157Y-88780952D01*
X155999300Y-89352380D01*
X156618348Y-89352380D01*
X157892157Y-88304761D02*
X156874300Y-89590476D01*
X158124300Y-88352380D02*
X158790967Y-88352380D01*
X158237395Y-89352380D01*
X159892157Y-88304761D02*
X158874300Y-89590476D01*
X160160014Y-88447619D02*
X160213586Y-88400000D01*
X160314776Y-88352380D01*
X160552872Y-88352380D01*
X160642157Y-88400000D01*
X160683824Y-88447619D01*
X160719538Y-88542857D01*
X160707633Y-88638095D01*
X160642157Y-88780952D01*
X159999300Y-89352380D01*
X160618348Y-89352380D01*
X161362395Y-88352380D02*
X161457633Y-88352380D01*
X161546919Y-88400000D01*
X161588586Y-88447619D01*
X161624300Y-88542857D01*
X161648110Y-88733333D01*
X161618348Y-88971428D01*
X161546919Y-89161904D01*
X161487395Y-89257142D01*
X161433824Y-89304761D01*
X161332633Y-89352380D01*
X161237395Y-89352380D01*
X161148110Y-89304761D01*
X161106443Y-89257142D01*
X161070729Y-89161904D01*
X161046919Y-88971428D01*
X161076681Y-88733333D01*
X161148110Y-88542857D01*
X161207633Y-88447619D01*
X161261205Y-88400000D01*
X161362395Y-88352380D01*
X162064776Y-88447619D02*
X162118348Y-88400000D01*
X162219538Y-88352380D01*
X162457633Y-88352380D01*
X162546919Y-88400000D01*
X162588586Y-88447619D01*
X162624300Y-88542857D01*
X162612395Y-88638095D01*
X162546919Y-88780952D01*
X161904062Y-89352380D01*
X162523110Y-89352380D01*
X163475491Y-89352380D02*
X162904062Y-89352380D01*
X163189776Y-89352380D02*
X163314776Y-88352380D01*
X163201681Y-88495238D01*
X163094538Y-88590476D01*
X162993348Y-88638095D01*
D11*
%TO.C,D1*%
X158877000Y-94742000D03*
D12*
X158877000Y-99822000D03*
%TD*%
D13*
%TO.C,U1*%
X152992000Y-98237000D03*
X152992000Y-100137000D03*
X150792000Y-100137000D03*
X150792000Y-99187000D03*
X150792000Y-98237000D03*
%TD*%
%TO.C,R3*%
G36*
G01*
X151846000Y-101572750D02*
X151846000Y-102135250D01*
G75*
G02*
X151602250Y-102379000I-243750J0D01*
G01*
X151114750Y-102379000D01*
G75*
G02*
X150871000Y-102135250I0J243750D01*
G01*
X150871000Y-101572750D01*
G75*
G02*
X151114750Y-101329000I243750J0D01*
G01*
X151602250Y-101329000D01*
G75*
G02*
X151846000Y-101572750I0J-243750D01*
G01*
G37*
G36*
G01*
X153421000Y-101572750D02*
X153421000Y-102135250D01*
G75*
G02*
X153177250Y-102379000I-243750J0D01*
G01*
X152689750Y-102379000D01*
G75*
G02*
X152446000Y-102135250I0J243750D01*
G01*
X152446000Y-101572750D01*
G75*
G02*
X152689750Y-101329000I243750J0D01*
G01*
X153177250Y-101329000D01*
G75*
G02*
X153421000Y-101572750I0J-243750D01*
G01*
G37*
%TD*%
%TO.C,R1*%
G36*
G01*
X152573000Y-96801250D02*
X152573000Y-96238750D01*
G75*
G02*
X152816750Y-95995000I243750J0D01*
G01*
X153304250Y-95995000D01*
G75*
G02*
X153548000Y-96238750I0J-243750D01*
G01*
X153548000Y-96801250D01*
G75*
G02*
X153304250Y-97045000I-243750J0D01*
G01*
X152816750Y-97045000D01*
G75*
G02*
X152573000Y-96801250I0J243750D01*
G01*
G37*
G36*
G01*
X150998000Y-96801250D02*
X150998000Y-96238750D01*
G75*
G02*
X151241750Y-95995000I243750J0D01*
G01*
X151729250Y-95995000D01*
G75*
G02*
X151973000Y-96238750I0J-243750D01*
G01*
X151973000Y-96801250D01*
G75*
G02*
X151729250Y-97045000I-243750J0D01*
G01*
X151241750Y-97045000D01*
G75*
G02*
X150998000Y-96801250I0J243750D01*
G01*
G37*
%TD*%
%TO.C,C1*%
G36*
G01*
X151846000Y-103096750D02*
X151846000Y-103659250D01*
G75*
G02*
X151602250Y-103903000I-243750J0D01*
G01*
X151114750Y-103903000D01*
G75*
G02*
X150871000Y-103659250I0J243750D01*
G01*
X150871000Y-103096750D01*
G75*
G02*
X151114750Y-102853000I243750J0D01*
G01*
X151602250Y-102853000D01*
G75*
G02*
X151846000Y-103096750I0J-243750D01*
G01*
G37*
G36*
G01*
X153421000Y-103096750D02*
X153421000Y-103659250D01*
G75*
G02*
X153177250Y-103903000I-243750J0D01*
G01*
X152689750Y-103903000D01*
G75*
G02*
X152446000Y-103659250I0J243750D01*
G01*
X152446000Y-103096750D01*
G75*
G02*
X152689750Y-102853000I243750J0D01*
G01*
X153177250Y-102853000D01*
G75*
G02*
X153421000Y-103096750I0J-243750D01*
G01*
G37*
%TD*%
%TO.C,C3*%
G36*
G01*
X149705750Y-96058000D02*
X150268250Y-96058000D01*
G75*
G02*
X150512000Y-96301750I0J-243750D01*
G01*
X150512000Y-96789250D01*
G75*
G02*
X150268250Y-97033000I-243750J0D01*
G01*
X149705750Y-97033000D01*
G75*
G02*
X149462000Y-96789250I0J243750D01*
G01*
X149462000Y-96301750D01*
G75*
G02*
X149705750Y-96058000I243750J0D01*
G01*
G37*
G36*
G01*
X149705750Y-94483000D02*
X150268250Y-94483000D01*
G75*
G02*
X150512000Y-94726750I0J-243750D01*
G01*
X150512000Y-95214250D01*
G75*
G02*
X150268250Y-95458000I-243750J0D01*
G01*
X149705750Y-95458000D01*
G75*
G02*
X149462000Y-95214250I0J243750D01*
G01*
X149462000Y-94726750D01*
G75*
G02*
X149705750Y-94483000I243750J0D01*
G01*
G37*
%TD*%
D14*
%TO.C,H2*%
X161544000Y-106426000D03*
%TD*%
%TO.C,H1*%
X143256000Y-87122000D03*
%TD*%
%TO.C,R2*%
G36*
G01*
X152573000Y-95277250D02*
X152573000Y-94714750D01*
G75*
G02*
X152816750Y-94471000I243750J0D01*
G01*
X153304250Y-94471000D01*
G75*
G02*
X153548000Y-94714750I0J-243750D01*
G01*
X153548000Y-95277250D01*
G75*
G02*
X153304250Y-95521000I-243750J0D01*
G01*
X152816750Y-95521000D01*
G75*
G02*
X152573000Y-95277250I0J243750D01*
G01*
G37*
G36*
G01*
X150998000Y-95277250D02*
X150998000Y-94714750D01*
G75*
G02*
X151241750Y-94471000I243750J0D01*
G01*
X151729250Y-94471000D01*
G75*
G02*
X151973000Y-94714750I0J-243750D01*
G01*
X151973000Y-95277250D01*
G75*
G02*
X151729250Y-95521000I-243750J0D01*
G01*
X151241750Y-95521000D01*
G75*
G02*
X150998000Y-95277250I0J243750D01*
G01*
G37*
%TD*%
D15*
%TO.C,J2*%
X145542000Y-101981000D03*
X145542000Y-99441000D03*
X145542000Y-96901000D03*
D16*
X145542000Y-94361000D03*
%TD*%
M02*
