%TF.GenerationSoftware,KiCad,Pcbnew,5.1.6-c6e7f7d~87~ubuntu18.04.1*%
%TF.CreationDate,2021-12-07T18:17:24-08:00*%
%TF.ProjectId,full-wave-rectifier,66756c6c-2d77-4617-9665-2d7265637469,rev?*%
%TF.SameCoordinates,Original*%
%TF.FileFunction,Paste,Top*%
%TF.FilePolarity,Positive*%
%FSLAX46Y46*%
G04 Gerber Fmt 4.6, Leading zero omitted, Abs format (unit mm)*
G04 Created by KiCad (PCBNEW 5.1.6-c6e7f7d~87~ubuntu18.04.1) date 2021-12-07 18:17:24*
%MOMM*%
%LPD*%
G01*
G04 APERTURE LIST*
%ADD10R,0.400000X0.650000*%
%ADD11R,1.000000X1.000000*%
G04 APERTURE END LIST*
D10*
%TO.C,U2*%
X158257000Y-98232000D03*
X156957000Y-98232000D03*
X157607000Y-96332000D03*
X156957000Y-96332000D03*
X158257000Y-96332000D03*
%TD*%
%TO.C,U1*%
X147589000Y-96454000D03*
X146289000Y-96454000D03*
X146939000Y-94554000D03*
X146289000Y-94554000D03*
X147589000Y-94554000D03*
%TD*%
D11*
%TO.C,D2*%
X152801000Y-96570800D03*
X155301000Y-96570800D03*
%TD*%
%TO.C,D1*%
X149479000Y-94177800D03*
X149479000Y-96677800D03*
%TD*%
%TO.C,R3*%
G36*
G01*
X155577250Y-98710000D02*
X155064750Y-98710000D01*
G75*
G02*
X154846000Y-98491250I0J218750D01*
G01*
X154846000Y-98053750D01*
G75*
G02*
X155064750Y-97835000I218750J0D01*
G01*
X155577250Y-97835000D01*
G75*
G02*
X155796000Y-98053750I0J-218750D01*
G01*
X155796000Y-98491250D01*
G75*
G02*
X155577250Y-98710000I-218750J0D01*
G01*
G37*
G36*
G01*
X155577250Y-100285000D02*
X155064750Y-100285000D01*
G75*
G02*
X154846000Y-100066250I0J218750D01*
G01*
X154846000Y-99628750D01*
G75*
G02*
X155064750Y-99410000I218750J0D01*
G01*
X155577250Y-99410000D01*
G75*
G02*
X155796000Y-99628750I0J-218750D01*
G01*
X155796000Y-100066250D01*
G75*
G02*
X155577250Y-100285000I-218750J0D01*
G01*
G37*
%TD*%
%TO.C,R1*%
G36*
G01*
X153193000Y-94485750D02*
X153193000Y-94998250D01*
G75*
G02*
X152974250Y-95217000I-218750J0D01*
G01*
X152536750Y-95217000D01*
G75*
G02*
X152318000Y-94998250I0J218750D01*
G01*
X152318000Y-94485750D01*
G75*
G02*
X152536750Y-94267000I218750J0D01*
G01*
X152974250Y-94267000D01*
G75*
G02*
X153193000Y-94485750I0J-218750D01*
G01*
G37*
G36*
G01*
X154768000Y-94485750D02*
X154768000Y-94998250D01*
G75*
G02*
X154549250Y-95217000I-218750J0D01*
G01*
X154111750Y-95217000D01*
G75*
G02*
X153893000Y-94998250I0J218750D01*
G01*
X153893000Y-94485750D01*
G75*
G02*
X154111750Y-94267000I218750J0D01*
G01*
X154549250Y-94267000D01*
G75*
G02*
X154768000Y-94485750I0J-218750D01*
G01*
G37*
%TD*%
%TO.C,C1*%
G36*
G01*
X151000750Y-96108000D02*
X151513250Y-96108000D01*
G75*
G02*
X151732000Y-96326750I0J-218750D01*
G01*
X151732000Y-96764250D01*
G75*
G02*
X151513250Y-96983000I-218750J0D01*
G01*
X151000750Y-96983000D01*
G75*
G02*
X150782000Y-96764250I0J218750D01*
G01*
X150782000Y-96326750D01*
G75*
G02*
X151000750Y-96108000I218750J0D01*
G01*
G37*
G36*
G01*
X151000750Y-94533000D02*
X151513250Y-94533000D01*
G75*
G02*
X151732000Y-94751750I0J-218750D01*
G01*
X151732000Y-95189250D01*
G75*
G02*
X151513250Y-95408000I-218750J0D01*
G01*
X151000750Y-95408000D01*
G75*
G02*
X150782000Y-95189250I0J218750D01*
G01*
X150782000Y-94751750D01*
G75*
G02*
X151000750Y-94533000I218750J0D01*
G01*
G37*
%TD*%
%TO.C,R2*%
G36*
G01*
X156241000Y-94485750D02*
X156241000Y-94998250D01*
G75*
G02*
X156022250Y-95217000I-218750J0D01*
G01*
X155584750Y-95217000D01*
G75*
G02*
X155366000Y-94998250I0J218750D01*
G01*
X155366000Y-94485750D01*
G75*
G02*
X155584750Y-94267000I218750J0D01*
G01*
X156022250Y-94267000D01*
G75*
G02*
X156241000Y-94485750I0J-218750D01*
G01*
G37*
G36*
G01*
X157816000Y-94485750D02*
X157816000Y-94998250D01*
G75*
G02*
X157597250Y-95217000I-218750J0D01*
G01*
X157159750Y-95217000D01*
G75*
G02*
X156941000Y-94998250I0J218750D01*
G01*
X156941000Y-94485750D01*
G75*
G02*
X157159750Y-94267000I218750J0D01*
G01*
X157597250Y-94267000D01*
G75*
G02*
X157816000Y-94485750I0J-218750D01*
G01*
G37*
%TD*%
M02*
