%TF.GenerationSoftware,KiCad,Pcbnew,5.1.6-c6e7f7d~87~ubuntu18.04.1*%
%TF.CreationDate,2021-12-09T15:00:27-08:00*%
%TF.ProjectId,boosted-output-current-reference,626f6f73-7465-4642-9d6f-75747075742d,rev?*%
%TF.SameCoordinates,Original*%
%TF.FileFunction,Paste,Top*%
%TF.FilePolarity,Positive*%
%FSLAX46Y46*%
G04 Gerber Fmt 4.6, Leading zero omitted, Abs format (unit mm)*
G04 Created by KiCad (PCBNEW 5.1.6-c6e7f7d~87~ubuntu18.04.1) date 2021-12-09 15:00:27*
%MOMM*%
%LPD*%
G01*
G04 APERTURE LIST*
%ADD10R,0.650000X1.220000*%
%ADD11R,1.300000X0.600000*%
G04 APERTURE END LIST*
D10*
%TO.C,U2*%
X161737000Y-93305000D03*
X163637000Y-93305000D03*
X163637000Y-95925000D03*
X162687000Y-95925000D03*
X161737000Y-95925000D03*
%TD*%
D11*
%TO.C,Q1*%
X167801000Y-95565000D03*
X167801000Y-93665000D03*
X165701000Y-94615000D03*
%TD*%
%TO.C,C6*%
G36*
G01*
X169288750Y-94838000D02*
X169801250Y-94838000D01*
G75*
G02*
X170020000Y-95056750I0J-218750D01*
G01*
X170020000Y-95494250D01*
G75*
G02*
X169801250Y-95713000I-218750J0D01*
G01*
X169288750Y-95713000D01*
G75*
G02*
X169070000Y-95494250I0J218750D01*
G01*
X169070000Y-95056750D01*
G75*
G02*
X169288750Y-94838000I218750J0D01*
G01*
G37*
G36*
G01*
X169288750Y-93263000D02*
X169801250Y-93263000D01*
G75*
G02*
X170020000Y-93481750I0J-218750D01*
G01*
X170020000Y-93919250D01*
G75*
G02*
X169801250Y-94138000I-218750J0D01*
G01*
X169288750Y-94138000D01*
G75*
G02*
X169070000Y-93919250I0J218750D01*
G01*
X169070000Y-93481750D01*
G75*
G02*
X169288750Y-93263000I218750J0D01*
G01*
G37*
%TD*%
%TO.C,C5*%
G36*
G01*
X170812750Y-94838000D02*
X171325250Y-94838000D01*
G75*
G02*
X171544000Y-95056750I0J-218750D01*
G01*
X171544000Y-95494250D01*
G75*
G02*
X171325250Y-95713000I-218750J0D01*
G01*
X170812750Y-95713000D01*
G75*
G02*
X170594000Y-95494250I0J218750D01*
G01*
X170594000Y-95056750D01*
G75*
G02*
X170812750Y-94838000I218750J0D01*
G01*
G37*
G36*
G01*
X170812750Y-93263000D02*
X171325250Y-93263000D01*
G75*
G02*
X171544000Y-93481750I0J-218750D01*
G01*
X171544000Y-93919250D01*
G75*
G02*
X171325250Y-94138000I-218750J0D01*
G01*
X170812750Y-94138000D01*
G75*
G02*
X170594000Y-93919250I0J218750D01*
G01*
X170594000Y-93481750D01*
G75*
G02*
X170812750Y-93263000I218750J0D01*
G01*
G37*
%TD*%
%TO.C,C3*%
G36*
G01*
X158752250Y-96424000D02*
X158239750Y-96424000D01*
G75*
G02*
X158021000Y-96205250I0J218750D01*
G01*
X158021000Y-95767750D01*
G75*
G02*
X158239750Y-95549000I218750J0D01*
G01*
X158752250Y-95549000D01*
G75*
G02*
X158971000Y-95767750I0J-218750D01*
G01*
X158971000Y-96205250D01*
G75*
G02*
X158752250Y-96424000I-218750J0D01*
G01*
G37*
G36*
G01*
X158752250Y-97999000D02*
X158239750Y-97999000D01*
G75*
G02*
X158021000Y-97780250I0J218750D01*
G01*
X158021000Y-97342750D01*
G75*
G02*
X158239750Y-97124000I218750J0D01*
G01*
X158752250Y-97124000D01*
G75*
G02*
X158971000Y-97342750I0J-218750D01*
G01*
X158971000Y-97780250D01*
G75*
G02*
X158752250Y-97999000I-218750J0D01*
G01*
G37*
%TD*%
%TO.C,C1*%
G36*
G01*
X148333750Y-96108000D02*
X148846250Y-96108000D01*
G75*
G02*
X149065000Y-96326750I0J-218750D01*
G01*
X149065000Y-96764250D01*
G75*
G02*
X148846250Y-96983000I-218750J0D01*
G01*
X148333750Y-96983000D01*
G75*
G02*
X148115000Y-96764250I0J218750D01*
G01*
X148115000Y-96326750D01*
G75*
G02*
X148333750Y-96108000I218750J0D01*
G01*
G37*
G36*
G01*
X148333750Y-94533000D02*
X148846250Y-94533000D01*
G75*
G02*
X149065000Y-94751750I0J-218750D01*
G01*
X149065000Y-95189250D01*
G75*
G02*
X148846250Y-95408000I-218750J0D01*
G01*
X148333750Y-95408000D01*
G75*
G02*
X148115000Y-95189250I0J218750D01*
G01*
X148115000Y-94751750D01*
G75*
G02*
X148333750Y-94533000I218750J0D01*
G01*
G37*
%TD*%
%TO.C,C4*%
G36*
G01*
X159827250Y-97124000D02*
X160339750Y-97124000D01*
G75*
G02*
X160558500Y-97342750I0J-218750D01*
G01*
X160558500Y-97780250D01*
G75*
G02*
X160339750Y-97999000I-218750J0D01*
G01*
X159827250Y-97999000D01*
G75*
G02*
X159608500Y-97780250I0J218750D01*
G01*
X159608500Y-97342750D01*
G75*
G02*
X159827250Y-97124000I218750J0D01*
G01*
G37*
G36*
G01*
X159827250Y-95549000D02*
X160339750Y-95549000D01*
G75*
G02*
X160558500Y-95767750I0J-218750D01*
G01*
X160558500Y-96205250D01*
G75*
G02*
X160339750Y-96424000I-218750J0D01*
G01*
X159827250Y-96424000D01*
G75*
G02*
X159608500Y-96205250I0J218750D01*
G01*
X159608500Y-95767750D01*
G75*
G02*
X159827250Y-95549000I218750J0D01*
G01*
G37*
%TD*%
%TO.C,U1*%
G36*
G01*
X155605000Y-94629000D02*
X155605000Y-94429000D01*
G75*
G02*
X155705000Y-94329000I100000J0D01*
G01*
X157130000Y-94329000D01*
G75*
G02*
X157230000Y-94429000I0J-100000D01*
G01*
X157230000Y-94629000D01*
G75*
G02*
X157130000Y-94729000I-100000J0D01*
G01*
X155705000Y-94729000D01*
G75*
G02*
X155605000Y-94629000I0J100000D01*
G01*
G37*
G36*
G01*
X155605000Y-95279000D02*
X155605000Y-95079000D01*
G75*
G02*
X155705000Y-94979000I100000J0D01*
G01*
X157130000Y-94979000D01*
G75*
G02*
X157230000Y-95079000I0J-100000D01*
G01*
X157230000Y-95279000D01*
G75*
G02*
X157130000Y-95379000I-100000J0D01*
G01*
X155705000Y-95379000D01*
G75*
G02*
X155605000Y-95279000I0J100000D01*
G01*
G37*
G36*
G01*
X155605000Y-95929000D02*
X155605000Y-95729000D01*
G75*
G02*
X155705000Y-95629000I100000J0D01*
G01*
X157130000Y-95629000D01*
G75*
G02*
X157230000Y-95729000I0J-100000D01*
G01*
X157230000Y-95929000D01*
G75*
G02*
X157130000Y-96029000I-100000J0D01*
G01*
X155705000Y-96029000D01*
G75*
G02*
X155605000Y-95929000I0J100000D01*
G01*
G37*
G36*
G01*
X155605000Y-96579000D02*
X155605000Y-96379000D01*
G75*
G02*
X155705000Y-96279000I100000J0D01*
G01*
X157130000Y-96279000D01*
G75*
G02*
X157230000Y-96379000I0J-100000D01*
G01*
X157230000Y-96579000D01*
G75*
G02*
X157130000Y-96679000I-100000J0D01*
G01*
X155705000Y-96679000D01*
G75*
G02*
X155605000Y-96579000I0J100000D01*
G01*
G37*
G36*
G01*
X151380000Y-96579000D02*
X151380000Y-96379000D01*
G75*
G02*
X151480000Y-96279000I100000J0D01*
G01*
X152905000Y-96279000D01*
G75*
G02*
X153005000Y-96379000I0J-100000D01*
G01*
X153005000Y-96579000D01*
G75*
G02*
X152905000Y-96679000I-100000J0D01*
G01*
X151480000Y-96679000D01*
G75*
G02*
X151380000Y-96579000I0J100000D01*
G01*
G37*
G36*
G01*
X151380000Y-95929000D02*
X151380000Y-95729000D01*
G75*
G02*
X151480000Y-95629000I100000J0D01*
G01*
X152905000Y-95629000D01*
G75*
G02*
X153005000Y-95729000I0J-100000D01*
G01*
X153005000Y-95929000D01*
G75*
G02*
X152905000Y-96029000I-100000J0D01*
G01*
X151480000Y-96029000D01*
G75*
G02*
X151380000Y-95929000I0J100000D01*
G01*
G37*
G36*
G01*
X151380000Y-95279000D02*
X151380000Y-95079000D01*
G75*
G02*
X151480000Y-94979000I100000J0D01*
G01*
X152905000Y-94979000D01*
G75*
G02*
X153005000Y-95079000I0J-100000D01*
G01*
X153005000Y-95279000D01*
G75*
G02*
X152905000Y-95379000I-100000J0D01*
G01*
X151480000Y-95379000D01*
G75*
G02*
X151380000Y-95279000I0J100000D01*
G01*
G37*
G36*
G01*
X151380000Y-94629000D02*
X151380000Y-94429000D01*
G75*
G02*
X151480000Y-94329000I100000J0D01*
G01*
X152905000Y-94329000D01*
G75*
G02*
X153005000Y-94429000I0J-100000D01*
G01*
X153005000Y-94629000D01*
G75*
G02*
X152905000Y-94729000I-100000J0D01*
G01*
X151480000Y-94729000D01*
G75*
G02*
X151380000Y-94629000I0J100000D01*
G01*
G37*
%TD*%
%TO.C,R1*%
G36*
G01*
X161414750Y-98775000D02*
X161927250Y-98775000D01*
G75*
G02*
X162146000Y-98993750I0J-218750D01*
G01*
X162146000Y-99431250D01*
G75*
G02*
X161927250Y-99650000I-218750J0D01*
G01*
X161414750Y-99650000D01*
G75*
G02*
X161196000Y-99431250I0J218750D01*
G01*
X161196000Y-98993750D01*
G75*
G02*
X161414750Y-98775000I218750J0D01*
G01*
G37*
G36*
G01*
X161414750Y-97200000D02*
X161927250Y-97200000D01*
G75*
G02*
X162146000Y-97418750I0J-218750D01*
G01*
X162146000Y-97856250D01*
G75*
G02*
X161927250Y-98075000I-218750J0D01*
G01*
X161414750Y-98075000D01*
G75*
G02*
X161196000Y-97856250I0J218750D01*
G01*
X161196000Y-97418750D01*
G75*
G02*
X161414750Y-97200000I218750J0D01*
G01*
G37*
%TD*%
%TO.C,C2*%
G36*
G01*
X150370250Y-95408000D02*
X149857750Y-95408000D01*
G75*
G02*
X149639000Y-95189250I0J218750D01*
G01*
X149639000Y-94751750D01*
G75*
G02*
X149857750Y-94533000I218750J0D01*
G01*
X150370250Y-94533000D01*
G75*
G02*
X150589000Y-94751750I0J-218750D01*
G01*
X150589000Y-95189250D01*
G75*
G02*
X150370250Y-95408000I-218750J0D01*
G01*
G37*
G36*
G01*
X150370250Y-96983000D02*
X149857750Y-96983000D01*
G75*
G02*
X149639000Y-96764250I0J218750D01*
G01*
X149639000Y-96326750D01*
G75*
G02*
X149857750Y-96108000I218750J0D01*
G01*
X150370250Y-96108000D01*
G75*
G02*
X150589000Y-96326750I0J-218750D01*
G01*
X150589000Y-96764250D01*
G75*
G02*
X150370250Y-96983000I-218750J0D01*
G01*
G37*
%TD*%
M02*
