M48
; DRILL file {KiCad 5.1.6-c6e7f7d~87~ubuntu18.04.1} date Mon Dec 20 19:28:00 2021
; FORMAT={-:-/ absolute / inch / decimal}
; #@! TF.CreationDate,2021-12-20T19:28:00-08:00
; #@! TF.GenerationSoftware,Kicad,Pcbnew,5.1.6-c6e7f7d~87~ubuntu18.04.1
FMAT,2
INCH
T1C0.0157
T2C0.0315
T3C0.0394
T4C0.1063
%
G90
G05
T1
X5.85Y-3.835
X5.91Y-3.835
X5.9918Y-3.8332
X5.995Y-4.05
X6.08Y-3.555
X6.158Y-3.992
X6.24Y-3.88
X6.26Y-3.565
X6.3025Y-3.8825
X6.425Y-3.835
X6.505Y-4.085
X6.56Y-3.525
X6.635Y-3.93
X6.675Y-3.79
X6.735Y-3.79
X6.77Y-3.55
T2
X5.956Y-3.98
X6.056Y-3.88
X6.056Y-4.08
T3
X6.855Y-3.72
X6.855Y-3.82
X5.74Y-3.7196
X5.74Y-3.8196
T4
X5.88Y-3.43
X6.8Y-4.19
T0
M30
