%TF.GenerationSoftware,KiCad,Pcbnew,5.1.6-c6e7f7d~87~ubuntu18.04.1*%
%TF.CreationDate,2021-12-09T15:00:27-08:00*%
%TF.ProjectId,boosted-output-current-reference,626f6f73-7465-4642-9d6f-75747075742d,rev?*%
%TF.SameCoordinates,Original*%
%TF.FileFunction,Soldermask,Top*%
%TF.FilePolarity,Negative*%
%FSLAX46Y46*%
G04 Gerber Fmt 4.6, Leading zero omitted, Abs format (unit mm)*
G04 Created by KiCad (PCBNEW 5.1.6-c6e7f7d~87~ubuntu18.04.1) date 2021-12-09 15:00:27*
%MOMM*%
%LPD*%
G01*
G04 APERTURE LIST*
%ADD10C,0.150000*%
%ADD11C,1.600000*%
%ADD12O,1.800000X1.800000*%
%ADD13R,1.800000X1.800000*%
%ADD14R,0.750000X1.320000*%
%ADD15R,1.440000X0.740000*%
%ADD16C,2.800000*%
G04 APERTURE END LIST*
D10*
X153125967Y-85796380D02*
X152554538Y-85796380D01*
X152840252Y-85796380D02*
X152965252Y-84796380D01*
X152852157Y-84939238D01*
X152745014Y-85034476D01*
X152643824Y-85082095D01*
X153620014Y-84891619D02*
X153673586Y-84844000D01*
X153774776Y-84796380D01*
X154012872Y-84796380D01*
X154102157Y-84844000D01*
X154143824Y-84891619D01*
X154179538Y-84986857D01*
X154167633Y-85082095D01*
X154102157Y-85224952D01*
X153459300Y-85796380D01*
X154078348Y-85796380D01*
X155352157Y-84748761D02*
X154334300Y-86034476D01*
X155768824Y-85224952D02*
X155679538Y-85177333D01*
X155637872Y-85129714D01*
X155602157Y-85034476D01*
X155608110Y-84986857D01*
X155667633Y-84891619D01*
X155721205Y-84844000D01*
X155822395Y-84796380D01*
X156012872Y-84796380D01*
X156102157Y-84844000D01*
X156143824Y-84891619D01*
X156179538Y-84986857D01*
X156173586Y-85034476D01*
X156114062Y-85129714D01*
X156060491Y-85177333D01*
X155959300Y-85224952D01*
X155768824Y-85224952D01*
X155667633Y-85272571D01*
X155614062Y-85320190D01*
X155554538Y-85415428D01*
X155530729Y-85605904D01*
X155566443Y-85701142D01*
X155608110Y-85748761D01*
X155697395Y-85796380D01*
X155887872Y-85796380D01*
X155989062Y-85748761D01*
X156042633Y-85701142D01*
X156102157Y-85605904D01*
X156125967Y-85415428D01*
X156090252Y-85320190D01*
X156048586Y-85272571D01*
X155959300Y-85224952D01*
X157352157Y-84748761D02*
X156334300Y-86034476D01*
X157620014Y-84891619D02*
X157673586Y-84844000D01*
X157774776Y-84796380D01*
X158012872Y-84796380D01*
X158102157Y-84844000D01*
X158143824Y-84891619D01*
X158179538Y-84986857D01*
X158167633Y-85082095D01*
X158102157Y-85224952D01*
X157459300Y-85796380D01*
X158078348Y-85796380D01*
X158822395Y-84796380D02*
X158917633Y-84796380D01*
X159006919Y-84844000D01*
X159048586Y-84891619D01*
X159084300Y-84986857D01*
X159108110Y-85177333D01*
X159078348Y-85415428D01*
X159006919Y-85605904D01*
X158947395Y-85701142D01*
X158893824Y-85748761D01*
X158792633Y-85796380D01*
X158697395Y-85796380D01*
X158608110Y-85748761D01*
X158566443Y-85701142D01*
X158530729Y-85605904D01*
X158506919Y-85415428D01*
X158536681Y-85177333D01*
X158608110Y-84986857D01*
X158667633Y-84891619D01*
X158721205Y-84844000D01*
X158822395Y-84796380D01*
X159524776Y-84891619D02*
X159578348Y-84844000D01*
X159679538Y-84796380D01*
X159917633Y-84796380D01*
X160006919Y-84844000D01*
X160048586Y-84891619D01*
X160084300Y-84986857D01*
X160072395Y-85082095D01*
X160006919Y-85224952D01*
X159364062Y-85796380D01*
X159983110Y-85796380D01*
X160935491Y-85796380D02*
X160364062Y-85796380D01*
X160649776Y-85796380D02*
X160774776Y-84796380D01*
X160661681Y-84939238D01*
X160554538Y-85034476D01*
X160453348Y-85082095D01*
D11*
%TO.C,TP1*%
X169291000Y-88265000D03*
%TD*%
D12*
%TO.C,J2*%
X174117000Y-94488000D03*
D13*
X174117000Y-97028000D03*
%TD*%
D12*
%TO.C,J1*%
X145796000Y-97018000D03*
D13*
X145796000Y-94478000D03*
%TD*%
D14*
%TO.C,U2*%
X161737000Y-93305000D03*
X163637000Y-93305000D03*
X163637000Y-95925000D03*
X162687000Y-95925000D03*
X161737000Y-95925000D03*
%TD*%
D15*
%TO.C,Q1*%
X167801000Y-95565000D03*
X167801000Y-93665000D03*
X165701000Y-94615000D03*
%TD*%
%TO.C,C6*%
G36*
G01*
X169263750Y-94788000D02*
X169826250Y-94788000D01*
G75*
G02*
X170070000Y-95031750I0J-243750D01*
G01*
X170070000Y-95519250D01*
G75*
G02*
X169826250Y-95763000I-243750J0D01*
G01*
X169263750Y-95763000D01*
G75*
G02*
X169020000Y-95519250I0J243750D01*
G01*
X169020000Y-95031750D01*
G75*
G02*
X169263750Y-94788000I243750J0D01*
G01*
G37*
G36*
G01*
X169263750Y-93213000D02*
X169826250Y-93213000D01*
G75*
G02*
X170070000Y-93456750I0J-243750D01*
G01*
X170070000Y-93944250D01*
G75*
G02*
X169826250Y-94188000I-243750J0D01*
G01*
X169263750Y-94188000D01*
G75*
G02*
X169020000Y-93944250I0J243750D01*
G01*
X169020000Y-93456750D01*
G75*
G02*
X169263750Y-93213000I243750J0D01*
G01*
G37*
%TD*%
%TO.C,C5*%
G36*
G01*
X170787750Y-94788000D02*
X171350250Y-94788000D01*
G75*
G02*
X171594000Y-95031750I0J-243750D01*
G01*
X171594000Y-95519250D01*
G75*
G02*
X171350250Y-95763000I-243750J0D01*
G01*
X170787750Y-95763000D01*
G75*
G02*
X170544000Y-95519250I0J243750D01*
G01*
X170544000Y-95031750D01*
G75*
G02*
X170787750Y-94788000I243750J0D01*
G01*
G37*
G36*
G01*
X170787750Y-93213000D02*
X171350250Y-93213000D01*
G75*
G02*
X171594000Y-93456750I0J-243750D01*
G01*
X171594000Y-93944250D01*
G75*
G02*
X171350250Y-94188000I-243750J0D01*
G01*
X170787750Y-94188000D01*
G75*
G02*
X170544000Y-93944250I0J243750D01*
G01*
X170544000Y-93456750D01*
G75*
G02*
X170787750Y-93213000I243750J0D01*
G01*
G37*
%TD*%
%TO.C,C3*%
G36*
G01*
X158777250Y-96474000D02*
X158214750Y-96474000D01*
G75*
G02*
X157971000Y-96230250I0J243750D01*
G01*
X157971000Y-95742750D01*
G75*
G02*
X158214750Y-95499000I243750J0D01*
G01*
X158777250Y-95499000D01*
G75*
G02*
X159021000Y-95742750I0J-243750D01*
G01*
X159021000Y-96230250D01*
G75*
G02*
X158777250Y-96474000I-243750J0D01*
G01*
G37*
G36*
G01*
X158777250Y-98049000D02*
X158214750Y-98049000D01*
G75*
G02*
X157971000Y-97805250I0J243750D01*
G01*
X157971000Y-97317750D01*
G75*
G02*
X158214750Y-97074000I243750J0D01*
G01*
X158777250Y-97074000D01*
G75*
G02*
X159021000Y-97317750I0J-243750D01*
G01*
X159021000Y-97805250D01*
G75*
G02*
X158777250Y-98049000I-243750J0D01*
G01*
G37*
%TD*%
%TO.C,C1*%
G36*
G01*
X148308750Y-96058000D02*
X148871250Y-96058000D01*
G75*
G02*
X149115000Y-96301750I0J-243750D01*
G01*
X149115000Y-96789250D01*
G75*
G02*
X148871250Y-97033000I-243750J0D01*
G01*
X148308750Y-97033000D01*
G75*
G02*
X148065000Y-96789250I0J243750D01*
G01*
X148065000Y-96301750D01*
G75*
G02*
X148308750Y-96058000I243750J0D01*
G01*
G37*
G36*
G01*
X148308750Y-94483000D02*
X148871250Y-94483000D01*
G75*
G02*
X149115000Y-94726750I0J-243750D01*
G01*
X149115000Y-95214250D01*
G75*
G02*
X148871250Y-95458000I-243750J0D01*
G01*
X148308750Y-95458000D01*
G75*
G02*
X148065000Y-95214250I0J243750D01*
G01*
X148065000Y-94726750D01*
G75*
G02*
X148308750Y-94483000I243750J0D01*
G01*
G37*
%TD*%
%TO.C,C4*%
G36*
G01*
X159802250Y-97074000D02*
X160364750Y-97074000D01*
G75*
G02*
X160608500Y-97317750I0J-243750D01*
G01*
X160608500Y-97805250D01*
G75*
G02*
X160364750Y-98049000I-243750J0D01*
G01*
X159802250Y-98049000D01*
G75*
G02*
X159558500Y-97805250I0J243750D01*
G01*
X159558500Y-97317750D01*
G75*
G02*
X159802250Y-97074000I243750J0D01*
G01*
G37*
G36*
G01*
X159802250Y-95499000D02*
X160364750Y-95499000D01*
G75*
G02*
X160608500Y-95742750I0J-243750D01*
G01*
X160608500Y-96230250D01*
G75*
G02*
X160364750Y-96474000I-243750J0D01*
G01*
X159802250Y-96474000D01*
G75*
G02*
X159558500Y-96230250I0J243750D01*
G01*
X159558500Y-95742750D01*
G75*
G02*
X159802250Y-95499000I243750J0D01*
G01*
G37*
%TD*%
%TO.C,U1*%
G36*
G01*
X155555000Y-94654000D02*
X155555000Y-94404000D01*
G75*
G02*
X155680000Y-94279000I125000J0D01*
G01*
X157155000Y-94279000D01*
G75*
G02*
X157280000Y-94404000I0J-125000D01*
G01*
X157280000Y-94654000D01*
G75*
G02*
X157155000Y-94779000I-125000J0D01*
G01*
X155680000Y-94779000D01*
G75*
G02*
X155555000Y-94654000I0J125000D01*
G01*
G37*
G36*
G01*
X155555000Y-95304000D02*
X155555000Y-95054000D01*
G75*
G02*
X155680000Y-94929000I125000J0D01*
G01*
X157155000Y-94929000D01*
G75*
G02*
X157280000Y-95054000I0J-125000D01*
G01*
X157280000Y-95304000D01*
G75*
G02*
X157155000Y-95429000I-125000J0D01*
G01*
X155680000Y-95429000D01*
G75*
G02*
X155555000Y-95304000I0J125000D01*
G01*
G37*
G36*
G01*
X155555000Y-95954000D02*
X155555000Y-95704000D01*
G75*
G02*
X155680000Y-95579000I125000J0D01*
G01*
X157155000Y-95579000D01*
G75*
G02*
X157280000Y-95704000I0J-125000D01*
G01*
X157280000Y-95954000D01*
G75*
G02*
X157155000Y-96079000I-125000J0D01*
G01*
X155680000Y-96079000D01*
G75*
G02*
X155555000Y-95954000I0J125000D01*
G01*
G37*
G36*
G01*
X155555000Y-96604000D02*
X155555000Y-96354000D01*
G75*
G02*
X155680000Y-96229000I125000J0D01*
G01*
X157155000Y-96229000D01*
G75*
G02*
X157280000Y-96354000I0J-125000D01*
G01*
X157280000Y-96604000D01*
G75*
G02*
X157155000Y-96729000I-125000J0D01*
G01*
X155680000Y-96729000D01*
G75*
G02*
X155555000Y-96604000I0J125000D01*
G01*
G37*
G36*
G01*
X151330000Y-96604000D02*
X151330000Y-96354000D01*
G75*
G02*
X151455000Y-96229000I125000J0D01*
G01*
X152930000Y-96229000D01*
G75*
G02*
X153055000Y-96354000I0J-125000D01*
G01*
X153055000Y-96604000D01*
G75*
G02*
X152930000Y-96729000I-125000J0D01*
G01*
X151455000Y-96729000D01*
G75*
G02*
X151330000Y-96604000I0J125000D01*
G01*
G37*
G36*
G01*
X151330000Y-95954000D02*
X151330000Y-95704000D01*
G75*
G02*
X151455000Y-95579000I125000J0D01*
G01*
X152930000Y-95579000D01*
G75*
G02*
X153055000Y-95704000I0J-125000D01*
G01*
X153055000Y-95954000D01*
G75*
G02*
X152930000Y-96079000I-125000J0D01*
G01*
X151455000Y-96079000D01*
G75*
G02*
X151330000Y-95954000I0J125000D01*
G01*
G37*
G36*
G01*
X151330000Y-95304000D02*
X151330000Y-95054000D01*
G75*
G02*
X151455000Y-94929000I125000J0D01*
G01*
X152930000Y-94929000D01*
G75*
G02*
X153055000Y-95054000I0J-125000D01*
G01*
X153055000Y-95304000D01*
G75*
G02*
X152930000Y-95429000I-125000J0D01*
G01*
X151455000Y-95429000D01*
G75*
G02*
X151330000Y-95304000I0J125000D01*
G01*
G37*
G36*
G01*
X151330000Y-94654000D02*
X151330000Y-94404000D01*
G75*
G02*
X151455000Y-94279000I125000J0D01*
G01*
X152930000Y-94279000D01*
G75*
G02*
X153055000Y-94404000I0J-125000D01*
G01*
X153055000Y-94654000D01*
G75*
G02*
X152930000Y-94779000I-125000J0D01*
G01*
X151455000Y-94779000D01*
G75*
G02*
X151330000Y-94654000I0J125000D01*
G01*
G37*
%TD*%
%TO.C,R1*%
G36*
G01*
X161389750Y-98725000D02*
X161952250Y-98725000D01*
G75*
G02*
X162196000Y-98968750I0J-243750D01*
G01*
X162196000Y-99456250D01*
G75*
G02*
X161952250Y-99700000I-243750J0D01*
G01*
X161389750Y-99700000D01*
G75*
G02*
X161146000Y-99456250I0J243750D01*
G01*
X161146000Y-98968750D01*
G75*
G02*
X161389750Y-98725000I243750J0D01*
G01*
G37*
G36*
G01*
X161389750Y-97150000D02*
X161952250Y-97150000D01*
G75*
G02*
X162196000Y-97393750I0J-243750D01*
G01*
X162196000Y-97881250D01*
G75*
G02*
X161952250Y-98125000I-243750J0D01*
G01*
X161389750Y-98125000D01*
G75*
G02*
X161146000Y-97881250I0J243750D01*
G01*
X161146000Y-97393750D01*
G75*
G02*
X161389750Y-97150000I243750J0D01*
G01*
G37*
%TD*%
%TO.C,C2*%
G36*
G01*
X150395250Y-95458000D02*
X149832750Y-95458000D01*
G75*
G02*
X149589000Y-95214250I0J243750D01*
G01*
X149589000Y-94726750D01*
G75*
G02*
X149832750Y-94483000I243750J0D01*
G01*
X150395250Y-94483000D01*
G75*
G02*
X150639000Y-94726750I0J-243750D01*
G01*
X150639000Y-95214250D01*
G75*
G02*
X150395250Y-95458000I-243750J0D01*
G01*
G37*
G36*
G01*
X150395250Y-97033000D02*
X149832750Y-97033000D01*
G75*
G02*
X149589000Y-96789250I0J243750D01*
G01*
X149589000Y-96301750D01*
G75*
G02*
X149832750Y-96058000I243750J0D01*
G01*
X150395250Y-96058000D01*
G75*
G02*
X150639000Y-96301750I0J-243750D01*
G01*
X150639000Y-96789250D01*
G75*
G02*
X150395250Y-97033000I-243750J0D01*
G01*
G37*
%TD*%
D16*
%TO.C,H2*%
X172720000Y-106426000D03*
%TD*%
%TO.C,H1*%
X149352000Y-87122000D03*
%TD*%
M02*
