%TF.GenerationSoftware,KiCad,Pcbnew,5.1.6-c6e7f7d~87~ubuntu18.04.1*%
%TF.CreationDate,2021-12-21T21:19:14-08:00*%
%TF.ProjectId,portable-calibrator,706f7274-6162-46c6-952d-63616c696272,rev?*%
%TF.SameCoordinates,Original*%
%TF.FileFunction,Copper,L1,Top*%
%TF.FilePolarity,Positive*%
%FSLAX46Y46*%
G04 Gerber Fmt 4.6, Leading zero omitted, Abs format (unit mm)*
G04 Created by KiCad (PCBNEW 5.1.6-c6e7f7d~87~ubuntu18.04.1) date 2021-12-21 21:19:14*
%MOMM*%
%LPD*%
G01*
G04 APERTURE LIST*
%TA.AperFunction,ComponentPad*%
%ADD10O,1.700000X1.700000*%
%TD*%
%TA.AperFunction,ComponentPad*%
%ADD11R,1.700000X1.700000*%
%TD*%
%TA.AperFunction,ComponentPad*%
%ADD12O,1.200000X1.200000*%
%TD*%
%TA.AperFunction,ComponentPad*%
%ADD13O,1.600000X1.200000*%
%TD*%
%TA.AperFunction,SMDPad,CuDef*%
%ADD14R,1.300000X0.600000*%
%TD*%
%TA.AperFunction,ViaPad*%
%ADD15C,0.800000*%
%TD*%
%TA.AperFunction,Conductor*%
%ADD16C,0.250000*%
%TD*%
%TA.AperFunction,Conductor*%
%ADD17C,0.381000*%
%TD*%
%TA.AperFunction,Conductor*%
%ADD18C,0.152400*%
%TD*%
%TA.AperFunction,Conductor*%
%ADD19C,0.254000*%
%TD*%
G04 APERTURE END LIST*
D10*
%TO.P,J2,2*%
%TO.N,/Vout*%
X168402000Y-96099000D03*
D11*
%TO.P,J2,1*%
%TO.N,GND*%
X168402000Y-98639000D03*
%TD*%
D10*
%TO.P,J1,2*%
%TO.N,GND*%
X142367000Y-98552000D03*
D11*
%TO.P,J1,1*%
%TO.N,+15V*%
X142367000Y-96012000D03*
%TD*%
%TO.P,U2,8*%
%TO.N,Net-(U2-Pad8)*%
%TA.AperFunction,SMDPad,CuDef*%
G36*
G01*
X159743000Y-99163000D02*
X160043000Y-99163000D01*
G75*
G02*
X160193000Y-99313000I0J-150000D01*
G01*
X160193000Y-100963000D01*
G75*
G02*
X160043000Y-101113000I-150000J0D01*
G01*
X159743000Y-101113000D01*
G75*
G02*
X159593000Y-100963000I0J150000D01*
G01*
X159593000Y-99313000D01*
G75*
G02*
X159743000Y-99163000I150000J0D01*
G01*
G37*
%TD.AperFunction*%
%TO.P,U2,7*%
%TO.N,+15V*%
%TA.AperFunction,SMDPad,CuDef*%
G36*
G01*
X158473000Y-99163000D02*
X158773000Y-99163000D01*
G75*
G02*
X158923000Y-99313000I0J-150000D01*
G01*
X158923000Y-100963000D01*
G75*
G02*
X158773000Y-101113000I-150000J0D01*
G01*
X158473000Y-101113000D01*
G75*
G02*
X158323000Y-100963000I0J150000D01*
G01*
X158323000Y-99313000D01*
G75*
G02*
X158473000Y-99163000I150000J0D01*
G01*
G37*
%TD.AperFunction*%
%TO.P,U2,6*%
%TO.N,Net-(R5-Pad2)*%
%TA.AperFunction,SMDPad,CuDef*%
G36*
G01*
X157203000Y-99163000D02*
X157503000Y-99163000D01*
G75*
G02*
X157653000Y-99313000I0J-150000D01*
G01*
X157653000Y-100963000D01*
G75*
G02*
X157503000Y-101113000I-150000J0D01*
G01*
X157203000Y-101113000D01*
G75*
G02*
X157053000Y-100963000I0J150000D01*
G01*
X157053000Y-99313000D01*
G75*
G02*
X157203000Y-99163000I150000J0D01*
G01*
G37*
%TD.AperFunction*%
%TO.P,U2,5*%
%TO.N,Net-(U2-Pad5)*%
%TA.AperFunction,SMDPad,CuDef*%
G36*
G01*
X155933000Y-99163000D02*
X156233000Y-99163000D01*
G75*
G02*
X156383000Y-99313000I0J-150000D01*
G01*
X156383000Y-100963000D01*
G75*
G02*
X156233000Y-101113000I-150000J0D01*
G01*
X155933000Y-101113000D01*
G75*
G02*
X155783000Y-100963000I0J150000D01*
G01*
X155783000Y-99313000D01*
G75*
G02*
X155933000Y-99163000I150000J0D01*
G01*
G37*
%TD.AperFunction*%
%TO.P,U2,4*%
%TO.N,GND*%
%TA.AperFunction,SMDPad,CuDef*%
G36*
G01*
X155933000Y-94213000D02*
X156233000Y-94213000D01*
G75*
G02*
X156383000Y-94363000I0J-150000D01*
G01*
X156383000Y-96013000D01*
G75*
G02*
X156233000Y-96163000I-150000J0D01*
G01*
X155933000Y-96163000D01*
G75*
G02*
X155783000Y-96013000I0J150000D01*
G01*
X155783000Y-94363000D01*
G75*
G02*
X155933000Y-94213000I150000J0D01*
G01*
G37*
%TD.AperFunction*%
%TO.P,U2,3*%
%TO.N,Net-(R1-Pad2)*%
%TA.AperFunction,SMDPad,CuDef*%
G36*
G01*
X157203000Y-94213000D02*
X157503000Y-94213000D01*
G75*
G02*
X157653000Y-94363000I0J-150000D01*
G01*
X157653000Y-96013000D01*
G75*
G02*
X157503000Y-96163000I-150000J0D01*
G01*
X157203000Y-96163000D01*
G75*
G02*
X157053000Y-96013000I0J150000D01*
G01*
X157053000Y-94363000D01*
G75*
G02*
X157203000Y-94213000I150000J0D01*
G01*
G37*
%TD.AperFunction*%
%TO.P,U2,2*%
%TO.N,Net-(R2-Pad2)*%
%TA.AperFunction,SMDPad,CuDef*%
G36*
G01*
X158473000Y-94213000D02*
X158773000Y-94213000D01*
G75*
G02*
X158923000Y-94363000I0J-150000D01*
G01*
X158923000Y-96013000D01*
G75*
G02*
X158773000Y-96163000I-150000J0D01*
G01*
X158473000Y-96163000D01*
G75*
G02*
X158323000Y-96013000I0J150000D01*
G01*
X158323000Y-94363000D01*
G75*
G02*
X158473000Y-94213000I150000J0D01*
G01*
G37*
%TD.AperFunction*%
%TO.P,U2,1*%
%TO.N,Net-(U2-Pad1)*%
%TA.AperFunction,SMDPad,CuDef*%
G36*
G01*
X159743000Y-94213000D02*
X160043000Y-94213000D01*
G75*
G02*
X160193000Y-94363000I0J-150000D01*
G01*
X160193000Y-96013000D01*
G75*
G02*
X160043000Y-96163000I-150000J0D01*
G01*
X159743000Y-96163000D01*
G75*
G02*
X159593000Y-96013000I0J150000D01*
G01*
X159593000Y-94363000D01*
G75*
G02*
X159743000Y-94213000I150000J0D01*
G01*
G37*
%TD.AperFunction*%
%TD*%
D12*
%TO.P,U1,4*%
%TO.N,GND*%
X149733000Y-98298000D03*
%TO.P,U1,3*%
%TO.N,+15V*%
X148463000Y-97028000D03*
%TO.P,U1,2*%
%TO.N,GND*%
X149733000Y-95758000D03*
D13*
%TO.P,U1,1*%
%TO.N,Net-(R1-Pad2)*%
X151003000Y-97028000D03*
%TD*%
%TO.P,R7,2*%
%TO.N,/Vout*%
%TA.AperFunction,SMDPad,CuDef*%
G36*
G01*
X163545000Y-91188250D02*
X163545000Y-90675750D01*
G75*
G02*
X163763750Y-90457000I218750J0D01*
G01*
X164201250Y-90457000D01*
G75*
G02*
X164420000Y-90675750I0J-218750D01*
G01*
X164420000Y-91188250D01*
G75*
G02*
X164201250Y-91407000I-218750J0D01*
G01*
X163763750Y-91407000D01*
G75*
G02*
X163545000Y-91188250I0J218750D01*
G01*
G37*
%TD.AperFunction*%
%TO.P,R7,1*%
%TO.N,GND*%
%TA.AperFunction,SMDPad,CuDef*%
G36*
G01*
X161970000Y-91188250D02*
X161970000Y-90675750D01*
G75*
G02*
X162188750Y-90457000I218750J0D01*
G01*
X162626250Y-90457000D01*
G75*
G02*
X162845000Y-90675750I0J-218750D01*
G01*
X162845000Y-91188250D01*
G75*
G02*
X162626250Y-91407000I-218750J0D01*
G01*
X162188750Y-91407000D01*
G75*
G02*
X161970000Y-91188250I0J218750D01*
G01*
G37*
%TD.AperFunction*%
%TD*%
%TO.P,R6,2*%
%TO.N,+15V*%
%TA.AperFunction,SMDPad,CuDef*%
G36*
G01*
X161668750Y-97759000D02*
X162181250Y-97759000D01*
G75*
G02*
X162400000Y-97977750I0J-218750D01*
G01*
X162400000Y-98415250D01*
G75*
G02*
X162181250Y-98634000I-218750J0D01*
G01*
X161668750Y-98634000D01*
G75*
G02*
X161450000Y-98415250I0J218750D01*
G01*
X161450000Y-97977750D01*
G75*
G02*
X161668750Y-97759000I218750J0D01*
G01*
G37*
%TD.AperFunction*%
%TO.P,R6,1*%
%TO.N,Net-(Q1-Pad3)*%
%TA.AperFunction,SMDPad,CuDef*%
G36*
G01*
X161668750Y-96184000D02*
X162181250Y-96184000D01*
G75*
G02*
X162400000Y-96402750I0J-218750D01*
G01*
X162400000Y-96840250D01*
G75*
G02*
X162181250Y-97059000I-218750J0D01*
G01*
X161668750Y-97059000D01*
G75*
G02*
X161450000Y-96840250I0J218750D01*
G01*
X161450000Y-96402750D01*
G75*
G02*
X161668750Y-96184000I218750J0D01*
G01*
G37*
%TD.AperFunction*%
%TD*%
%TO.P,R5,2*%
%TO.N,Net-(R5-Pad2)*%
%TA.AperFunction,SMDPad,CuDef*%
G36*
G01*
X163700750Y-97759000D02*
X164213250Y-97759000D01*
G75*
G02*
X164432000Y-97977750I0J-218750D01*
G01*
X164432000Y-98415250D01*
G75*
G02*
X164213250Y-98634000I-218750J0D01*
G01*
X163700750Y-98634000D01*
G75*
G02*
X163482000Y-98415250I0J218750D01*
G01*
X163482000Y-97977750D01*
G75*
G02*
X163700750Y-97759000I218750J0D01*
G01*
G37*
%TD.AperFunction*%
%TO.P,R5,1*%
%TO.N,Net-(Q1-Pad1)*%
%TA.AperFunction,SMDPad,CuDef*%
G36*
G01*
X163700750Y-96184000D02*
X164213250Y-96184000D01*
G75*
G02*
X164432000Y-96402750I0J-218750D01*
G01*
X164432000Y-96840250D01*
G75*
G02*
X164213250Y-97059000I-218750J0D01*
G01*
X163700750Y-97059000D01*
G75*
G02*
X163482000Y-96840250I0J218750D01*
G01*
X163482000Y-96402750D01*
G75*
G02*
X163700750Y-96184000I218750J0D01*
G01*
G37*
%TD.AperFunction*%
%TD*%
%TO.P,R4,2*%
%TO.N,/Vout*%
%TA.AperFunction,SMDPad,CuDef*%
G36*
G01*
X159735000Y-92839250D02*
X159735000Y-92326750D01*
G75*
G02*
X159953750Y-92108000I218750J0D01*
G01*
X160391250Y-92108000D01*
G75*
G02*
X160610000Y-92326750I0J-218750D01*
G01*
X160610000Y-92839250D01*
G75*
G02*
X160391250Y-93058000I-218750J0D01*
G01*
X159953750Y-93058000D01*
G75*
G02*
X159735000Y-92839250I0J218750D01*
G01*
G37*
%TD.AperFunction*%
%TO.P,R4,1*%
%TO.N,Net-(R2-Pad2)*%
%TA.AperFunction,SMDPad,CuDef*%
G36*
G01*
X158160000Y-92839250D02*
X158160000Y-92326750D01*
G75*
G02*
X158378750Y-92108000I218750J0D01*
G01*
X158816250Y-92108000D01*
G75*
G02*
X159035000Y-92326750I0J-218750D01*
G01*
X159035000Y-92839250D01*
G75*
G02*
X158816250Y-93058000I-218750J0D01*
G01*
X158378750Y-93058000D01*
G75*
G02*
X158160000Y-92839250I0J218750D01*
G01*
G37*
%TD.AperFunction*%
%TD*%
%TO.P,R3,2*%
%TO.N,Net-(R2-Pad1)*%
%TA.AperFunction,SMDPad,CuDef*%
G36*
G01*
X157355250Y-89947000D02*
X156842750Y-89947000D01*
G75*
G02*
X156624000Y-89728250I0J218750D01*
G01*
X156624000Y-89290750D01*
G75*
G02*
X156842750Y-89072000I218750J0D01*
G01*
X157355250Y-89072000D01*
G75*
G02*
X157574000Y-89290750I0J-218750D01*
G01*
X157574000Y-89728250D01*
G75*
G02*
X157355250Y-89947000I-218750J0D01*
G01*
G37*
%TD.AperFunction*%
%TO.P,R3,1*%
%TO.N,GND*%
%TA.AperFunction,SMDPad,CuDef*%
G36*
G01*
X157355250Y-91522000D02*
X156842750Y-91522000D01*
G75*
G02*
X156624000Y-91303250I0J218750D01*
G01*
X156624000Y-90865750D01*
G75*
G02*
X156842750Y-90647000I218750J0D01*
G01*
X157355250Y-90647000D01*
G75*
G02*
X157574000Y-90865750I0J-218750D01*
G01*
X157574000Y-91303250D01*
G75*
G02*
X157355250Y-91522000I-218750J0D01*
G01*
G37*
%TD.AperFunction*%
%TD*%
%TO.P,R2,2*%
%TO.N,Net-(R2-Pad2)*%
%TA.AperFunction,SMDPad,CuDef*%
G36*
G01*
X158366750Y-90647000D02*
X158879250Y-90647000D01*
G75*
G02*
X159098000Y-90865750I0J-218750D01*
G01*
X159098000Y-91303250D01*
G75*
G02*
X158879250Y-91522000I-218750J0D01*
G01*
X158366750Y-91522000D01*
G75*
G02*
X158148000Y-91303250I0J218750D01*
G01*
X158148000Y-90865750D01*
G75*
G02*
X158366750Y-90647000I218750J0D01*
G01*
G37*
%TD.AperFunction*%
%TO.P,R2,1*%
%TO.N,Net-(R2-Pad1)*%
%TA.AperFunction,SMDPad,CuDef*%
G36*
G01*
X158366750Y-89072000D02*
X158879250Y-89072000D01*
G75*
G02*
X159098000Y-89290750I0J-218750D01*
G01*
X159098000Y-89728250D01*
G75*
G02*
X158879250Y-89947000I-218750J0D01*
G01*
X158366750Y-89947000D01*
G75*
G02*
X158148000Y-89728250I0J218750D01*
G01*
X158148000Y-89290750D01*
G75*
G02*
X158366750Y-89072000I218750J0D01*
G01*
G37*
%TD.AperFunction*%
%TD*%
%TO.P,R1,2*%
%TO.N,Net-(R1-Pad2)*%
%TA.AperFunction,SMDPad,CuDef*%
G36*
G01*
X156560000Y-92839250D02*
X156560000Y-92326750D01*
G75*
G02*
X156778750Y-92108000I218750J0D01*
G01*
X157216250Y-92108000D01*
G75*
G02*
X157435000Y-92326750I0J-218750D01*
G01*
X157435000Y-92839250D01*
G75*
G02*
X157216250Y-93058000I-218750J0D01*
G01*
X156778750Y-93058000D01*
G75*
G02*
X156560000Y-92839250I0J218750D01*
G01*
G37*
%TD.AperFunction*%
%TO.P,R1,1*%
%TO.N,+15V*%
%TA.AperFunction,SMDPad,CuDef*%
G36*
G01*
X154985000Y-92839250D02*
X154985000Y-92326750D01*
G75*
G02*
X155203750Y-92108000I218750J0D01*
G01*
X155641250Y-92108000D01*
G75*
G02*
X155860000Y-92326750I0J-218750D01*
G01*
X155860000Y-92839250D01*
G75*
G02*
X155641250Y-93058000I-218750J0D01*
G01*
X155203750Y-93058000D01*
G75*
G02*
X154985000Y-92839250I0J218750D01*
G01*
G37*
%TD.AperFunction*%
%TD*%
D14*
%TO.P,Q1,1*%
%TO.N,Net-(Q1-Pad1)*%
X163991000Y-94676000D03*
%TO.P,Q1,2*%
%TO.N,/Vout*%
X163991000Y-92776000D03*
%TO.P,Q1,3*%
%TO.N,Net-(Q1-Pad3)*%
X161891000Y-93726000D03*
%TD*%
%TO.P,C1,2*%
%TO.N,GND*%
%TA.AperFunction,SMDPad,CuDef*%
G36*
G01*
X159735000Y-102491250D02*
X159735000Y-101978750D01*
G75*
G02*
X159953750Y-101760000I218750J0D01*
G01*
X160391250Y-101760000D01*
G75*
G02*
X160610000Y-101978750I0J-218750D01*
G01*
X160610000Y-102491250D01*
G75*
G02*
X160391250Y-102710000I-218750J0D01*
G01*
X159953750Y-102710000D01*
G75*
G02*
X159735000Y-102491250I0J218750D01*
G01*
G37*
%TD.AperFunction*%
%TO.P,C1,1*%
%TO.N,+15V*%
%TA.AperFunction,SMDPad,CuDef*%
G36*
G01*
X158160000Y-102491250D02*
X158160000Y-101978750D01*
G75*
G02*
X158378750Y-101760000I218750J0D01*
G01*
X158816250Y-101760000D01*
G75*
G02*
X159035000Y-101978750I0J-218750D01*
G01*
X159035000Y-102491250D01*
G75*
G02*
X158816250Y-102710000I-218750J0D01*
G01*
X158378750Y-102710000D01*
G75*
G02*
X158160000Y-102491250I0J218750D01*
G01*
G37*
%TD.AperFunction*%
%TD*%
D15*
%TO.N,GND*%
X154305000Y-94615000D03*
X168529000Y-90551000D03*
X154178000Y-99441000D03*
X158242000Y-98171000D03*
X155829000Y-91059000D03*
%TD*%
D16*
%TO.N,GND*%
X157073500Y-91059000D02*
X157099000Y-91084500D01*
X155829000Y-91059000D02*
X157073500Y-91059000D01*
D17*
%TO.N,/Vout*%
X160172500Y-92583000D02*
X162560000Y-92583000D01*
X162753000Y-92776000D02*
X163991000Y-92776000D01*
X162560000Y-92583000D02*
X162753000Y-92776000D01*
X163982500Y-92767500D02*
X163991000Y-92776000D01*
X163982500Y-90932000D02*
X163982500Y-92767500D01*
X163991000Y-92776000D02*
X166436000Y-92776000D01*
X168529000Y-94869000D02*
X168529000Y-96099000D01*
X166436000Y-92776000D02*
X168529000Y-94869000D01*
%TO.N,+15V*%
X158623000Y-102209500D02*
X158597500Y-102235000D01*
X158623000Y-100138000D02*
X158623000Y-102209500D01*
X150876000Y-102235000D02*
X158597500Y-102235000D01*
X148463000Y-97028000D02*
X148463000Y-99822000D01*
X148463000Y-99822000D02*
X150876000Y-102235000D01*
X155422500Y-92583000D02*
X149479000Y-92583000D01*
X148463000Y-93599000D02*
X148463000Y-97028000D01*
X149479000Y-92583000D02*
X148463000Y-93599000D01*
X147447000Y-96012000D02*
X148463000Y-97028000D01*
X142367000Y-96012000D02*
X147447000Y-96012000D01*
X161925000Y-98196500D02*
X159486500Y-98196500D01*
X158623000Y-99060000D02*
X158623000Y-100138000D01*
X159486500Y-98196500D02*
X158623000Y-99060000D01*
%TO.N,Net-(Q1-Pad1)*%
X163957000Y-94710000D02*
X163991000Y-94676000D01*
X163957000Y-96621500D02*
X163957000Y-94710000D01*
%TO.N,Net-(Q1-Pad3)*%
X161891000Y-96587500D02*
X161925000Y-96621500D01*
X161891000Y-93726000D02*
X161891000Y-96587500D01*
D16*
%TO.N,Net-(R1-Pad2)*%
X157353000Y-92938500D02*
X156997500Y-92583000D01*
X157353000Y-95188000D02*
X157353000Y-92938500D01*
D17*
X156488000Y-97028000D02*
X151003000Y-97028000D01*
X157353000Y-96163000D02*
X156488000Y-97028000D01*
X157353000Y-95188000D02*
X157353000Y-96163000D01*
D16*
%TO.N,Net-(R2-Pad2)*%
X158597500Y-95162500D02*
X158623000Y-95188000D01*
X158597500Y-92583000D02*
X158597500Y-95162500D01*
D17*
X158623000Y-92557500D02*
X158597500Y-92583000D01*
X158623000Y-91084500D02*
X158623000Y-92557500D01*
%TO.N,Net-(R2-Pad1)*%
X158648500Y-89484000D02*
X158623000Y-89509500D01*
X156972000Y-89535000D02*
X158572000Y-89535000D01*
D18*
%TO.N,Net-(R5-Pad2)*%
X157353000Y-98171000D02*
X157353000Y-100138000D01*
X158115000Y-97409000D02*
X157353000Y-98171000D01*
X163957000Y-98196500D02*
X163169500Y-97409000D01*
X163169500Y-97409000D02*
X158115000Y-97409000D01*
%TD*%
D19*
%TO.N,GND*%
G36*
X170028000Y-109830000D02*
G01*
X140614000Y-109830000D01*
X140614000Y-106230495D01*
X164893000Y-106230495D01*
X164893000Y-106621505D01*
X164969282Y-107005003D01*
X165118915Y-107366250D01*
X165336149Y-107691364D01*
X165612636Y-107967851D01*
X165937750Y-108185085D01*
X166298997Y-108334718D01*
X166682495Y-108411000D01*
X167073505Y-108411000D01*
X167457003Y-108334718D01*
X167818250Y-108185085D01*
X168143364Y-107967851D01*
X168419851Y-107691364D01*
X168637085Y-107366250D01*
X168786718Y-107005003D01*
X168863000Y-106621505D01*
X168863000Y-106230495D01*
X168786718Y-105846997D01*
X168637085Y-105485750D01*
X168419851Y-105160636D01*
X168143364Y-104884149D01*
X167818250Y-104666915D01*
X167457003Y-104517282D01*
X167073505Y-104441000D01*
X166682495Y-104441000D01*
X166298997Y-104517282D01*
X165937750Y-104666915D01*
X165612636Y-104884149D01*
X165336149Y-105160636D01*
X165118915Y-105485750D01*
X164969282Y-105846997D01*
X164893000Y-106230495D01*
X140614000Y-106230495D01*
X140614000Y-98908890D01*
X140925524Y-98908890D01*
X140970175Y-99056099D01*
X141095359Y-99318920D01*
X141269412Y-99552269D01*
X141485645Y-99747178D01*
X141735748Y-99896157D01*
X142010109Y-99993481D01*
X142240000Y-99872814D01*
X142240000Y-98679000D01*
X142494000Y-98679000D01*
X142494000Y-99872814D01*
X142723891Y-99993481D01*
X142998252Y-99896157D01*
X143248355Y-99747178D01*
X143464588Y-99552269D01*
X143638641Y-99318920D01*
X143763825Y-99056099D01*
X143808476Y-98908890D01*
X143687155Y-98679000D01*
X142494000Y-98679000D01*
X142240000Y-98679000D01*
X141046845Y-98679000D01*
X140925524Y-98908890D01*
X140614000Y-98908890D01*
X140614000Y-95162000D01*
X140878928Y-95162000D01*
X140878928Y-96862000D01*
X140891188Y-96986482D01*
X140927498Y-97106180D01*
X140986463Y-97216494D01*
X141065815Y-97313185D01*
X141162506Y-97392537D01*
X141272820Y-97451502D01*
X141353466Y-97475966D01*
X141269412Y-97551731D01*
X141095359Y-97785080D01*
X140970175Y-98047901D01*
X140925524Y-98195110D01*
X141046845Y-98425000D01*
X142240000Y-98425000D01*
X142240000Y-98405000D01*
X142494000Y-98405000D01*
X142494000Y-98425000D01*
X143687155Y-98425000D01*
X143808476Y-98195110D01*
X143763825Y-98047901D01*
X143638641Y-97785080D01*
X143464588Y-97551731D01*
X143380534Y-97475966D01*
X143461180Y-97451502D01*
X143571494Y-97392537D01*
X143668185Y-97313185D01*
X143747537Y-97216494D01*
X143806502Y-97106180D01*
X143842812Y-96986482D01*
X143855072Y-96862000D01*
X143855072Y-96837500D01*
X147105068Y-96837500D01*
X147228000Y-96960432D01*
X147228000Y-97149637D01*
X147275460Y-97388236D01*
X147368557Y-97612992D01*
X147503713Y-97815267D01*
X147637500Y-97949054D01*
X147637501Y-99781440D01*
X147633506Y-99822000D01*
X147649445Y-99983826D01*
X147696647Y-100139433D01*
X147773301Y-100282842D01*
X147787240Y-100299826D01*
X147876460Y-100408541D01*
X147907961Y-100434393D01*
X150263606Y-102790039D01*
X150289459Y-102821541D01*
X150415158Y-102924699D01*
X150558566Y-103001353D01*
X150714174Y-103048556D01*
X150835447Y-103060500D01*
X150835449Y-103060500D01*
X150875999Y-103064494D01*
X150916550Y-103060500D01*
X157742836Y-103060500D01*
X157772885Y-103097115D01*
X157902725Y-103203671D01*
X158050858Y-103282850D01*
X158211592Y-103331608D01*
X158378750Y-103348072D01*
X158816250Y-103348072D01*
X158983408Y-103331608D01*
X159144142Y-103282850D01*
X159292275Y-103203671D01*
X159313930Y-103185900D01*
X159380506Y-103240537D01*
X159490820Y-103299502D01*
X159610518Y-103335812D01*
X159735000Y-103348072D01*
X159886750Y-103345000D01*
X160045500Y-103186250D01*
X160045500Y-102362000D01*
X160299500Y-102362000D01*
X160299500Y-103186250D01*
X160458250Y-103345000D01*
X160610000Y-103348072D01*
X160734482Y-103335812D01*
X160854180Y-103299502D01*
X160964494Y-103240537D01*
X161061185Y-103161185D01*
X161140537Y-103064494D01*
X161199502Y-102954180D01*
X161235812Y-102834482D01*
X161248072Y-102710000D01*
X161245000Y-102520750D01*
X161086250Y-102362000D01*
X160299500Y-102362000D01*
X160045500Y-102362000D01*
X160025500Y-102362000D01*
X160025500Y-102108000D01*
X160045500Y-102108000D01*
X160045500Y-102088000D01*
X160299500Y-102088000D01*
X160299500Y-102108000D01*
X161086250Y-102108000D01*
X161245000Y-101949250D01*
X161248072Y-101760000D01*
X161235812Y-101635518D01*
X161199502Y-101515820D01*
X161140537Y-101405506D01*
X161061185Y-101308815D01*
X160964494Y-101229463D01*
X160854180Y-101170498D01*
X160804221Y-101155343D01*
X160815929Y-101116745D01*
X160831072Y-100963000D01*
X160831072Y-99489000D01*
X166913928Y-99489000D01*
X166926188Y-99613482D01*
X166962498Y-99733180D01*
X167021463Y-99843494D01*
X167100815Y-99940185D01*
X167197506Y-100019537D01*
X167307820Y-100078502D01*
X167427518Y-100114812D01*
X167552000Y-100127072D01*
X168116250Y-100124000D01*
X168275000Y-99965250D01*
X168275000Y-98766000D01*
X168529000Y-98766000D01*
X168529000Y-99965250D01*
X168687750Y-100124000D01*
X169252000Y-100127072D01*
X169376482Y-100114812D01*
X169496180Y-100078502D01*
X169606494Y-100019537D01*
X169703185Y-99940185D01*
X169782537Y-99843494D01*
X169841502Y-99733180D01*
X169877812Y-99613482D01*
X169890072Y-99489000D01*
X169887000Y-98924750D01*
X169728250Y-98766000D01*
X168529000Y-98766000D01*
X168275000Y-98766000D01*
X167075750Y-98766000D01*
X166917000Y-98924750D01*
X166913928Y-99489000D01*
X160831072Y-99489000D01*
X160831072Y-99313000D01*
X160815929Y-99159255D01*
X160774294Y-99022000D01*
X161063963Y-99022000D01*
X161192725Y-99127671D01*
X161340858Y-99206850D01*
X161501592Y-99255608D01*
X161668750Y-99272072D01*
X162181250Y-99272072D01*
X162348408Y-99255608D01*
X162509142Y-99206850D01*
X162657275Y-99127671D01*
X162787115Y-99021115D01*
X162893671Y-98891275D01*
X162941000Y-98802729D01*
X162988329Y-98891275D01*
X163094885Y-99021115D01*
X163224725Y-99127671D01*
X163372858Y-99206850D01*
X163533592Y-99255608D01*
X163700750Y-99272072D01*
X164213250Y-99272072D01*
X164380408Y-99255608D01*
X164541142Y-99206850D01*
X164689275Y-99127671D01*
X164819115Y-99021115D01*
X164925671Y-98891275D01*
X165004850Y-98743142D01*
X165053608Y-98582408D01*
X165070072Y-98415250D01*
X165070072Y-97977750D01*
X165053608Y-97810592D01*
X165004850Y-97649858D01*
X164925671Y-97501725D01*
X164849574Y-97409000D01*
X164925671Y-97316275D01*
X165004850Y-97168142D01*
X165053608Y-97007408D01*
X165070072Y-96840250D01*
X165070072Y-96402750D01*
X165053608Y-96235592D01*
X165004850Y-96074858D01*
X164925671Y-95926725D01*
X164819115Y-95796885D01*
X164782500Y-95766836D01*
X164782500Y-95596650D01*
X164885180Y-95565502D01*
X164995494Y-95506537D01*
X165092185Y-95427185D01*
X165171537Y-95330494D01*
X165230502Y-95220180D01*
X165266812Y-95100482D01*
X165279072Y-94976000D01*
X165279072Y-94376000D01*
X165266812Y-94251518D01*
X165230502Y-94131820D01*
X165171537Y-94021506D01*
X165092185Y-93924815D01*
X164995494Y-93845463D01*
X164885180Y-93786498D01*
X164765482Y-93750188D01*
X164641000Y-93737928D01*
X163341000Y-93737928D01*
X163216518Y-93750188D01*
X163179072Y-93761547D01*
X163179072Y-93690453D01*
X163216518Y-93701812D01*
X163341000Y-93714072D01*
X164641000Y-93714072D01*
X164765482Y-93701812D01*
X164885180Y-93665502D01*
X164995494Y-93606537D01*
X165001632Y-93601500D01*
X166094068Y-93601500D01*
X167446730Y-94954163D01*
X167248525Y-95152368D01*
X167086010Y-95395589D01*
X166974068Y-95665842D01*
X166917000Y-95952740D01*
X166917000Y-96245260D01*
X166974068Y-96532158D01*
X167086010Y-96802411D01*
X167248525Y-97045632D01*
X167380380Y-97177487D01*
X167307820Y-97199498D01*
X167197506Y-97258463D01*
X167100815Y-97337815D01*
X167021463Y-97434506D01*
X166962498Y-97544820D01*
X166926188Y-97664518D01*
X166913928Y-97789000D01*
X166917000Y-98353250D01*
X167075750Y-98512000D01*
X168275000Y-98512000D01*
X168275000Y-98492000D01*
X168529000Y-98492000D01*
X168529000Y-98512000D01*
X169728250Y-98512000D01*
X169887000Y-98353250D01*
X169890072Y-97789000D01*
X169877812Y-97664518D01*
X169841502Y-97544820D01*
X169782537Y-97434506D01*
X169703185Y-97337815D01*
X169606494Y-97258463D01*
X169496180Y-97199498D01*
X169423620Y-97177487D01*
X169555475Y-97045632D01*
X169717990Y-96802411D01*
X169829932Y-96532158D01*
X169887000Y-96245260D01*
X169887000Y-95952740D01*
X169829932Y-95665842D01*
X169717990Y-95395589D01*
X169555475Y-95152368D01*
X169354500Y-94951393D01*
X169354500Y-94909550D01*
X169358494Y-94869000D01*
X169354500Y-94828447D01*
X169342556Y-94707174D01*
X169295353Y-94551566D01*
X169255595Y-94477185D01*
X169218699Y-94408157D01*
X169141391Y-94313958D01*
X169115541Y-94282459D01*
X169084041Y-94256608D01*
X167048398Y-92220966D01*
X167022541Y-92189459D01*
X166896842Y-92086301D01*
X166753434Y-92009647D01*
X166597826Y-91962444D01*
X166476553Y-91950500D01*
X166476550Y-91950500D01*
X166436000Y-91946506D01*
X166395450Y-91950500D01*
X165001632Y-91950500D01*
X164995494Y-91945463D01*
X164885180Y-91886498D01*
X164808000Y-91863086D01*
X164808000Y-91793037D01*
X164913671Y-91664275D01*
X164992850Y-91516142D01*
X165041608Y-91355408D01*
X165058072Y-91188250D01*
X165058072Y-90675750D01*
X165041608Y-90508592D01*
X164992850Y-90347858D01*
X164913671Y-90199725D01*
X164807115Y-90069885D01*
X164677275Y-89963329D01*
X164529142Y-89884150D01*
X164368408Y-89835392D01*
X164201250Y-89818928D01*
X163763750Y-89818928D01*
X163596592Y-89835392D01*
X163435858Y-89884150D01*
X163287725Y-89963329D01*
X163266070Y-89981100D01*
X163199494Y-89926463D01*
X163089180Y-89867498D01*
X162969482Y-89831188D01*
X162845000Y-89818928D01*
X162693250Y-89822000D01*
X162534500Y-89980750D01*
X162534500Y-90805000D01*
X162554500Y-90805000D01*
X162554500Y-91059000D01*
X162534500Y-91059000D01*
X162534500Y-91079000D01*
X162280500Y-91079000D01*
X162280500Y-91059000D01*
X161493750Y-91059000D01*
X161335000Y-91217750D01*
X161331928Y-91407000D01*
X161344188Y-91531482D01*
X161380498Y-91651180D01*
X161437328Y-91757500D01*
X161027164Y-91757500D01*
X160997115Y-91720885D01*
X160867275Y-91614329D01*
X160719142Y-91535150D01*
X160558408Y-91486392D01*
X160391250Y-91469928D01*
X159953750Y-91469928D01*
X159786592Y-91486392D01*
X159707479Y-91510390D01*
X159719608Y-91470408D01*
X159736072Y-91303250D01*
X159736072Y-90865750D01*
X159719608Y-90698592D01*
X159670850Y-90537858D01*
X159627631Y-90457000D01*
X161331928Y-90457000D01*
X161335000Y-90646250D01*
X161493750Y-90805000D01*
X162280500Y-90805000D01*
X162280500Y-89980750D01*
X162121750Y-89822000D01*
X161970000Y-89818928D01*
X161845518Y-89831188D01*
X161725820Y-89867498D01*
X161615506Y-89926463D01*
X161518815Y-90005815D01*
X161439463Y-90102506D01*
X161380498Y-90212820D01*
X161344188Y-90332518D01*
X161331928Y-90457000D01*
X159627631Y-90457000D01*
X159591671Y-90389725D01*
X159515574Y-90297000D01*
X159591671Y-90204275D01*
X159670850Y-90056142D01*
X159719608Y-89895408D01*
X159736072Y-89728250D01*
X159736072Y-89290750D01*
X159719608Y-89123592D01*
X159670850Y-88962858D01*
X159591671Y-88814725D01*
X159485115Y-88684885D01*
X159355275Y-88578329D01*
X159207142Y-88499150D01*
X159046408Y-88450392D01*
X158879250Y-88433928D01*
X158366750Y-88433928D01*
X158199592Y-88450392D01*
X158038858Y-88499150D01*
X157890725Y-88578329D01*
X157861000Y-88602723D01*
X157831275Y-88578329D01*
X157683142Y-88499150D01*
X157522408Y-88450392D01*
X157355250Y-88433928D01*
X156842750Y-88433928D01*
X156675592Y-88450392D01*
X156514858Y-88499150D01*
X156366725Y-88578329D01*
X156236885Y-88684885D01*
X156130329Y-88814725D01*
X156051150Y-88962858D01*
X156002392Y-89123592D01*
X155985928Y-89290750D01*
X155985928Y-89728250D01*
X156002392Y-89895408D01*
X156051150Y-90056142D01*
X156130329Y-90204275D01*
X156148100Y-90225930D01*
X156093463Y-90292506D01*
X156034498Y-90402820D01*
X155998188Y-90522518D01*
X155985928Y-90647000D01*
X155989000Y-90798750D01*
X156147750Y-90957500D01*
X156972000Y-90957500D01*
X156972000Y-90937500D01*
X157226000Y-90937500D01*
X157226000Y-90957500D01*
X157246000Y-90957500D01*
X157246000Y-91211500D01*
X157226000Y-91211500D01*
X157226000Y-91231500D01*
X156972000Y-91231500D01*
X156972000Y-91211500D01*
X156147750Y-91211500D01*
X155989000Y-91370250D01*
X155985928Y-91522000D01*
X155988228Y-91545352D01*
X155969142Y-91535150D01*
X155808408Y-91486392D01*
X155641250Y-91469928D01*
X155203750Y-91469928D01*
X155036592Y-91486392D01*
X154875858Y-91535150D01*
X154727725Y-91614329D01*
X154597885Y-91720885D01*
X154567836Y-91757500D01*
X149519550Y-91757500D01*
X149479000Y-91753506D01*
X149438449Y-91757500D01*
X149438447Y-91757500D01*
X149317174Y-91769444D01*
X149161566Y-91816647D01*
X149018157Y-91893301D01*
X148956596Y-91943823D01*
X148892459Y-91996459D01*
X148866608Y-92027959D01*
X147907966Y-92986602D01*
X147876459Y-93012459D01*
X147824313Y-93076000D01*
X147773301Y-93138158D01*
X147720553Y-93236842D01*
X147696647Y-93281567D01*
X147649444Y-93437175D01*
X147637500Y-93558447D01*
X147633506Y-93599000D01*
X147637500Y-93639551D01*
X147637500Y-95207142D01*
X147608826Y-95198444D01*
X147487553Y-95186500D01*
X147487550Y-95186500D01*
X147447000Y-95182506D01*
X147406450Y-95186500D01*
X143855072Y-95186500D01*
X143855072Y-95162000D01*
X143842812Y-95037518D01*
X143806502Y-94917820D01*
X143747537Y-94807506D01*
X143668185Y-94710815D01*
X143571494Y-94631463D01*
X143461180Y-94572498D01*
X143341482Y-94536188D01*
X143217000Y-94523928D01*
X141517000Y-94523928D01*
X141392518Y-94536188D01*
X141272820Y-94572498D01*
X141162506Y-94631463D01*
X141065815Y-94710815D01*
X140986463Y-94807506D01*
X140927498Y-94917820D01*
X140891188Y-95037518D01*
X140878928Y-95162000D01*
X140614000Y-95162000D01*
X140614000Y-86926495D01*
X141271000Y-86926495D01*
X141271000Y-87317505D01*
X141347282Y-87701003D01*
X141496915Y-88062250D01*
X141714149Y-88387364D01*
X141990636Y-88663851D01*
X142315750Y-88881085D01*
X142676997Y-89030718D01*
X143060495Y-89107000D01*
X143451505Y-89107000D01*
X143835003Y-89030718D01*
X144196250Y-88881085D01*
X144521364Y-88663851D01*
X144797851Y-88387364D01*
X145015085Y-88062250D01*
X145164718Y-87701003D01*
X145241000Y-87317505D01*
X145241000Y-86926495D01*
X145164718Y-86542997D01*
X145015085Y-86181750D01*
X144797851Y-85856636D01*
X144521364Y-85580149D01*
X144196250Y-85362915D01*
X143835003Y-85213282D01*
X143451505Y-85137000D01*
X143060495Y-85137000D01*
X142676997Y-85213282D01*
X142315750Y-85362915D01*
X141990636Y-85580149D01*
X141714149Y-85856636D01*
X141496915Y-86181750D01*
X141347282Y-86542997D01*
X141271000Y-86926495D01*
X140614000Y-86926495D01*
X140614000Y-84480000D01*
X170028001Y-84480000D01*
X170028000Y-109830000D01*
G37*
X170028000Y-109830000D02*
X140614000Y-109830000D01*
X140614000Y-106230495D01*
X164893000Y-106230495D01*
X164893000Y-106621505D01*
X164969282Y-107005003D01*
X165118915Y-107366250D01*
X165336149Y-107691364D01*
X165612636Y-107967851D01*
X165937750Y-108185085D01*
X166298997Y-108334718D01*
X166682495Y-108411000D01*
X167073505Y-108411000D01*
X167457003Y-108334718D01*
X167818250Y-108185085D01*
X168143364Y-107967851D01*
X168419851Y-107691364D01*
X168637085Y-107366250D01*
X168786718Y-107005003D01*
X168863000Y-106621505D01*
X168863000Y-106230495D01*
X168786718Y-105846997D01*
X168637085Y-105485750D01*
X168419851Y-105160636D01*
X168143364Y-104884149D01*
X167818250Y-104666915D01*
X167457003Y-104517282D01*
X167073505Y-104441000D01*
X166682495Y-104441000D01*
X166298997Y-104517282D01*
X165937750Y-104666915D01*
X165612636Y-104884149D01*
X165336149Y-105160636D01*
X165118915Y-105485750D01*
X164969282Y-105846997D01*
X164893000Y-106230495D01*
X140614000Y-106230495D01*
X140614000Y-98908890D01*
X140925524Y-98908890D01*
X140970175Y-99056099D01*
X141095359Y-99318920D01*
X141269412Y-99552269D01*
X141485645Y-99747178D01*
X141735748Y-99896157D01*
X142010109Y-99993481D01*
X142240000Y-99872814D01*
X142240000Y-98679000D01*
X142494000Y-98679000D01*
X142494000Y-99872814D01*
X142723891Y-99993481D01*
X142998252Y-99896157D01*
X143248355Y-99747178D01*
X143464588Y-99552269D01*
X143638641Y-99318920D01*
X143763825Y-99056099D01*
X143808476Y-98908890D01*
X143687155Y-98679000D01*
X142494000Y-98679000D01*
X142240000Y-98679000D01*
X141046845Y-98679000D01*
X140925524Y-98908890D01*
X140614000Y-98908890D01*
X140614000Y-95162000D01*
X140878928Y-95162000D01*
X140878928Y-96862000D01*
X140891188Y-96986482D01*
X140927498Y-97106180D01*
X140986463Y-97216494D01*
X141065815Y-97313185D01*
X141162506Y-97392537D01*
X141272820Y-97451502D01*
X141353466Y-97475966D01*
X141269412Y-97551731D01*
X141095359Y-97785080D01*
X140970175Y-98047901D01*
X140925524Y-98195110D01*
X141046845Y-98425000D01*
X142240000Y-98425000D01*
X142240000Y-98405000D01*
X142494000Y-98405000D01*
X142494000Y-98425000D01*
X143687155Y-98425000D01*
X143808476Y-98195110D01*
X143763825Y-98047901D01*
X143638641Y-97785080D01*
X143464588Y-97551731D01*
X143380534Y-97475966D01*
X143461180Y-97451502D01*
X143571494Y-97392537D01*
X143668185Y-97313185D01*
X143747537Y-97216494D01*
X143806502Y-97106180D01*
X143842812Y-96986482D01*
X143855072Y-96862000D01*
X143855072Y-96837500D01*
X147105068Y-96837500D01*
X147228000Y-96960432D01*
X147228000Y-97149637D01*
X147275460Y-97388236D01*
X147368557Y-97612992D01*
X147503713Y-97815267D01*
X147637500Y-97949054D01*
X147637501Y-99781440D01*
X147633506Y-99822000D01*
X147649445Y-99983826D01*
X147696647Y-100139433D01*
X147773301Y-100282842D01*
X147787240Y-100299826D01*
X147876460Y-100408541D01*
X147907961Y-100434393D01*
X150263606Y-102790039D01*
X150289459Y-102821541D01*
X150415158Y-102924699D01*
X150558566Y-103001353D01*
X150714174Y-103048556D01*
X150835447Y-103060500D01*
X150835449Y-103060500D01*
X150875999Y-103064494D01*
X150916550Y-103060500D01*
X157742836Y-103060500D01*
X157772885Y-103097115D01*
X157902725Y-103203671D01*
X158050858Y-103282850D01*
X158211592Y-103331608D01*
X158378750Y-103348072D01*
X158816250Y-103348072D01*
X158983408Y-103331608D01*
X159144142Y-103282850D01*
X159292275Y-103203671D01*
X159313930Y-103185900D01*
X159380506Y-103240537D01*
X159490820Y-103299502D01*
X159610518Y-103335812D01*
X159735000Y-103348072D01*
X159886750Y-103345000D01*
X160045500Y-103186250D01*
X160045500Y-102362000D01*
X160299500Y-102362000D01*
X160299500Y-103186250D01*
X160458250Y-103345000D01*
X160610000Y-103348072D01*
X160734482Y-103335812D01*
X160854180Y-103299502D01*
X160964494Y-103240537D01*
X161061185Y-103161185D01*
X161140537Y-103064494D01*
X161199502Y-102954180D01*
X161235812Y-102834482D01*
X161248072Y-102710000D01*
X161245000Y-102520750D01*
X161086250Y-102362000D01*
X160299500Y-102362000D01*
X160045500Y-102362000D01*
X160025500Y-102362000D01*
X160025500Y-102108000D01*
X160045500Y-102108000D01*
X160045500Y-102088000D01*
X160299500Y-102088000D01*
X160299500Y-102108000D01*
X161086250Y-102108000D01*
X161245000Y-101949250D01*
X161248072Y-101760000D01*
X161235812Y-101635518D01*
X161199502Y-101515820D01*
X161140537Y-101405506D01*
X161061185Y-101308815D01*
X160964494Y-101229463D01*
X160854180Y-101170498D01*
X160804221Y-101155343D01*
X160815929Y-101116745D01*
X160831072Y-100963000D01*
X160831072Y-99489000D01*
X166913928Y-99489000D01*
X166926188Y-99613482D01*
X166962498Y-99733180D01*
X167021463Y-99843494D01*
X167100815Y-99940185D01*
X167197506Y-100019537D01*
X167307820Y-100078502D01*
X167427518Y-100114812D01*
X167552000Y-100127072D01*
X168116250Y-100124000D01*
X168275000Y-99965250D01*
X168275000Y-98766000D01*
X168529000Y-98766000D01*
X168529000Y-99965250D01*
X168687750Y-100124000D01*
X169252000Y-100127072D01*
X169376482Y-100114812D01*
X169496180Y-100078502D01*
X169606494Y-100019537D01*
X169703185Y-99940185D01*
X169782537Y-99843494D01*
X169841502Y-99733180D01*
X169877812Y-99613482D01*
X169890072Y-99489000D01*
X169887000Y-98924750D01*
X169728250Y-98766000D01*
X168529000Y-98766000D01*
X168275000Y-98766000D01*
X167075750Y-98766000D01*
X166917000Y-98924750D01*
X166913928Y-99489000D01*
X160831072Y-99489000D01*
X160831072Y-99313000D01*
X160815929Y-99159255D01*
X160774294Y-99022000D01*
X161063963Y-99022000D01*
X161192725Y-99127671D01*
X161340858Y-99206850D01*
X161501592Y-99255608D01*
X161668750Y-99272072D01*
X162181250Y-99272072D01*
X162348408Y-99255608D01*
X162509142Y-99206850D01*
X162657275Y-99127671D01*
X162787115Y-99021115D01*
X162893671Y-98891275D01*
X162941000Y-98802729D01*
X162988329Y-98891275D01*
X163094885Y-99021115D01*
X163224725Y-99127671D01*
X163372858Y-99206850D01*
X163533592Y-99255608D01*
X163700750Y-99272072D01*
X164213250Y-99272072D01*
X164380408Y-99255608D01*
X164541142Y-99206850D01*
X164689275Y-99127671D01*
X164819115Y-99021115D01*
X164925671Y-98891275D01*
X165004850Y-98743142D01*
X165053608Y-98582408D01*
X165070072Y-98415250D01*
X165070072Y-97977750D01*
X165053608Y-97810592D01*
X165004850Y-97649858D01*
X164925671Y-97501725D01*
X164849574Y-97409000D01*
X164925671Y-97316275D01*
X165004850Y-97168142D01*
X165053608Y-97007408D01*
X165070072Y-96840250D01*
X165070072Y-96402750D01*
X165053608Y-96235592D01*
X165004850Y-96074858D01*
X164925671Y-95926725D01*
X164819115Y-95796885D01*
X164782500Y-95766836D01*
X164782500Y-95596650D01*
X164885180Y-95565502D01*
X164995494Y-95506537D01*
X165092185Y-95427185D01*
X165171537Y-95330494D01*
X165230502Y-95220180D01*
X165266812Y-95100482D01*
X165279072Y-94976000D01*
X165279072Y-94376000D01*
X165266812Y-94251518D01*
X165230502Y-94131820D01*
X165171537Y-94021506D01*
X165092185Y-93924815D01*
X164995494Y-93845463D01*
X164885180Y-93786498D01*
X164765482Y-93750188D01*
X164641000Y-93737928D01*
X163341000Y-93737928D01*
X163216518Y-93750188D01*
X163179072Y-93761547D01*
X163179072Y-93690453D01*
X163216518Y-93701812D01*
X163341000Y-93714072D01*
X164641000Y-93714072D01*
X164765482Y-93701812D01*
X164885180Y-93665502D01*
X164995494Y-93606537D01*
X165001632Y-93601500D01*
X166094068Y-93601500D01*
X167446730Y-94954163D01*
X167248525Y-95152368D01*
X167086010Y-95395589D01*
X166974068Y-95665842D01*
X166917000Y-95952740D01*
X166917000Y-96245260D01*
X166974068Y-96532158D01*
X167086010Y-96802411D01*
X167248525Y-97045632D01*
X167380380Y-97177487D01*
X167307820Y-97199498D01*
X167197506Y-97258463D01*
X167100815Y-97337815D01*
X167021463Y-97434506D01*
X166962498Y-97544820D01*
X166926188Y-97664518D01*
X166913928Y-97789000D01*
X166917000Y-98353250D01*
X167075750Y-98512000D01*
X168275000Y-98512000D01*
X168275000Y-98492000D01*
X168529000Y-98492000D01*
X168529000Y-98512000D01*
X169728250Y-98512000D01*
X169887000Y-98353250D01*
X169890072Y-97789000D01*
X169877812Y-97664518D01*
X169841502Y-97544820D01*
X169782537Y-97434506D01*
X169703185Y-97337815D01*
X169606494Y-97258463D01*
X169496180Y-97199498D01*
X169423620Y-97177487D01*
X169555475Y-97045632D01*
X169717990Y-96802411D01*
X169829932Y-96532158D01*
X169887000Y-96245260D01*
X169887000Y-95952740D01*
X169829932Y-95665842D01*
X169717990Y-95395589D01*
X169555475Y-95152368D01*
X169354500Y-94951393D01*
X169354500Y-94909550D01*
X169358494Y-94869000D01*
X169354500Y-94828447D01*
X169342556Y-94707174D01*
X169295353Y-94551566D01*
X169255595Y-94477185D01*
X169218699Y-94408157D01*
X169141391Y-94313958D01*
X169115541Y-94282459D01*
X169084041Y-94256608D01*
X167048398Y-92220966D01*
X167022541Y-92189459D01*
X166896842Y-92086301D01*
X166753434Y-92009647D01*
X166597826Y-91962444D01*
X166476553Y-91950500D01*
X166476550Y-91950500D01*
X166436000Y-91946506D01*
X166395450Y-91950500D01*
X165001632Y-91950500D01*
X164995494Y-91945463D01*
X164885180Y-91886498D01*
X164808000Y-91863086D01*
X164808000Y-91793037D01*
X164913671Y-91664275D01*
X164992850Y-91516142D01*
X165041608Y-91355408D01*
X165058072Y-91188250D01*
X165058072Y-90675750D01*
X165041608Y-90508592D01*
X164992850Y-90347858D01*
X164913671Y-90199725D01*
X164807115Y-90069885D01*
X164677275Y-89963329D01*
X164529142Y-89884150D01*
X164368408Y-89835392D01*
X164201250Y-89818928D01*
X163763750Y-89818928D01*
X163596592Y-89835392D01*
X163435858Y-89884150D01*
X163287725Y-89963329D01*
X163266070Y-89981100D01*
X163199494Y-89926463D01*
X163089180Y-89867498D01*
X162969482Y-89831188D01*
X162845000Y-89818928D01*
X162693250Y-89822000D01*
X162534500Y-89980750D01*
X162534500Y-90805000D01*
X162554500Y-90805000D01*
X162554500Y-91059000D01*
X162534500Y-91059000D01*
X162534500Y-91079000D01*
X162280500Y-91079000D01*
X162280500Y-91059000D01*
X161493750Y-91059000D01*
X161335000Y-91217750D01*
X161331928Y-91407000D01*
X161344188Y-91531482D01*
X161380498Y-91651180D01*
X161437328Y-91757500D01*
X161027164Y-91757500D01*
X160997115Y-91720885D01*
X160867275Y-91614329D01*
X160719142Y-91535150D01*
X160558408Y-91486392D01*
X160391250Y-91469928D01*
X159953750Y-91469928D01*
X159786592Y-91486392D01*
X159707479Y-91510390D01*
X159719608Y-91470408D01*
X159736072Y-91303250D01*
X159736072Y-90865750D01*
X159719608Y-90698592D01*
X159670850Y-90537858D01*
X159627631Y-90457000D01*
X161331928Y-90457000D01*
X161335000Y-90646250D01*
X161493750Y-90805000D01*
X162280500Y-90805000D01*
X162280500Y-89980750D01*
X162121750Y-89822000D01*
X161970000Y-89818928D01*
X161845518Y-89831188D01*
X161725820Y-89867498D01*
X161615506Y-89926463D01*
X161518815Y-90005815D01*
X161439463Y-90102506D01*
X161380498Y-90212820D01*
X161344188Y-90332518D01*
X161331928Y-90457000D01*
X159627631Y-90457000D01*
X159591671Y-90389725D01*
X159515574Y-90297000D01*
X159591671Y-90204275D01*
X159670850Y-90056142D01*
X159719608Y-89895408D01*
X159736072Y-89728250D01*
X159736072Y-89290750D01*
X159719608Y-89123592D01*
X159670850Y-88962858D01*
X159591671Y-88814725D01*
X159485115Y-88684885D01*
X159355275Y-88578329D01*
X159207142Y-88499150D01*
X159046408Y-88450392D01*
X158879250Y-88433928D01*
X158366750Y-88433928D01*
X158199592Y-88450392D01*
X158038858Y-88499150D01*
X157890725Y-88578329D01*
X157861000Y-88602723D01*
X157831275Y-88578329D01*
X157683142Y-88499150D01*
X157522408Y-88450392D01*
X157355250Y-88433928D01*
X156842750Y-88433928D01*
X156675592Y-88450392D01*
X156514858Y-88499150D01*
X156366725Y-88578329D01*
X156236885Y-88684885D01*
X156130329Y-88814725D01*
X156051150Y-88962858D01*
X156002392Y-89123592D01*
X155985928Y-89290750D01*
X155985928Y-89728250D01*
X156002392Y-89895408D01*
X156051150Y-90056142D01*
X156130329Y-90204275D01*
X156148100Y-90225930D01*
X156093463Y-90292506D01*
X156034498Y-90402820D01*
X155998188Y-90522518D01*
X155985928Y-90647000D01*
X155989000Y-90798750D01*
X156147750Y-90957500D01*
X156972000Y-90957500D01*
X156972000Y-90937500D01*
X157226000Y-90937500D01*
X157226000Y-90957500D01*
X157246000Y-90957500D01*
X157246000Y-91211500D01*
X157226000Y-91211500D01*
X157226000Y-91231500D01*
X156972000Y-91231500D01*
X156972000Y-91211500D01*
X156147750Y-91211500D01*
X155989000Y-91370250D01*
X155985928Y-91522000D01*
X155988228Y-91545352D01*
X155969142Y-91535150D01*
X155808408Y-91486392D01*
X155641250Y-91469928D01*
X155203750Y-91469928D01*
X155036592Y-91486392D01*
X154875858Y-91535150D01*
X154727725Y-91614329D01*
X154597885Y-91720885D01*
X154567836Y-91757500D01*
X149519550Y-91757500D01*
X149479000Y-91753506D01*
X149438449Y-91757500D01*
X149438447Y-91757500D01*
X149317174Y-91769444D01*
X149161566Y-91816647D01*
X149018157Y-91893301D01*
X148956596Y-91943823D01*
X148892459Y-91996459D01*
X148866608Y-92027959D01*
X147907966Y-92986602D01*
X147876459Y-93012459D01*
X147824313Y-93076000D01*
X147773301Y-93138158D01*
X147720553Y-93236842D01*
X147696647Y-93281567D01*
X147649444Y-93437175D01*
X147637500Y-93558447D01*
X147633506Y-93599000D01*
X147637500Y-93639551D01*
X147637500Y-95207142D01*
X147608826Y-95198444D01*
X147487553Y-95186500D01*
X147487550Y-95186500D01*
X147447000Y-95182506D01*
X147406450Y-95186500D01*
X143855072Y-95186500D01*
X143855072Y-95162000D01*
X143842812Y-95037518D01*
X143806502Y-94917820D01*
X143747537Y-94807506D01*
X143668185Y-94710815D01*
X143571494Y-94631463D01*
X143461180Y-94572498D01*
X143341482Y-94536188D01*
X143217000Y-94523928D01*
X141517000Y-94523928D01*
X141392518Y-94536188D01*
X141272820Y-94572498D01*
X141162506Y-94631463D01*
X141065815Y-94710815D01*
X140986463Y-94807506D01*
X140927498Y-94917820D01*
X140891188Y-95037518D01*
X140878928Y-95162000D01*
X140614000Y-95162000D01*
X140614000Y-86926495D01*
X141271000Y-86926495D01*
X141271000Y-87317505D01*
X141347282Y-87701003D01*
X141496915Y-88062250D01*
X141714149Y-88387364D01*
X141990636Y-88663851D01*
X142315750Y-88881085D01*
X142676997Y-89030718D01*
X143060495Y-89107000D01*
X143451505Y-89107000D01*
X143835003Y-89030718D01*
X144196250Y-88881085D01*
X144521364Y-88663851D01*
X144797851Y-88387364D01*
X145015085Y-88062250D01*
X145164718Y-87701003D01*
X145241000Y-87317505D01*
X145241000Y-86926495D01*
X145164718Y-86542997D01*
X145015085Y-86181750D01*
X144797851Y-85856636D01*
X144521364Y-85580149D01*
X144196250Y-85362915D01*
X143835003Y-85213282D01*
X143451505Y-85137000D01*
X143060495Y-85137000D01*
X142676997Y-85213282D01*
X142315750Y-85362915D01*
X141990636Y-85580149D01*
X141714149Y-85856636D01*
X141496915Y-86181750D01*
X141347282Y-86542997D01*
X141271000Y-86926495D01*
X140614000Y-86926495D01*
X140614000Y-84480000D01*
X170028001Y-84480000D01*
X170028000Y-109830000D01*
G36*
X156692758Y-97897520D02*
G01*
X156652091Y-98031581D01*
X156641800Y-98136065D01*
X156641800Y-98136074D01*
X156638360Y-98171000D01*
X156641800Y-98205926D01*
X156641800Y-98642226D01*
X156534582Y-98584916D01*
X156386745Y-98540071D01*
X156233000Y-98524928D01*
X155933000Y-98524928D01*
X155779255Y-98540071D01*
X155631418Y-98584916D01*
X155495171Y-98657742D01*
X155375749Y-98755749D01*
X155277742Y-98875171D01*
X155204916Y-99011418D01*
X155160071Y-99159255D01*
X155144928Y-99313000D01*
X155144928Y-100963000D01*
X155160071Y-101116745D01*
X155204916Y-101264582D01*
X155277742Y-101400829D01*
X155284858Y-101409500D01*
X151217933Y-101409500D01*
X149288500Y-99480068D01*
X149288500Y-99443956D01*
X149415390Y-99491467D01*
X149606000Y-99367709D01*
X149606000Y-98425000D01*
X149860000Y-98425000D01*
X149860000Y-99367709D01*
X150050610Y-99491467D01*
X150277341Y-99406572D01*
X150483153Y-99279075D01*
X150660137Y-99113876D01*
X150801492Y-98917324D01*
X150901785Y-98696971D01*
X150926462Y-98615609D01*
X150801731Y-98425000D01*
X149860000Y-98425000D01*
X149606000Y-98425000D01*
X149586000Y-98425000D01*
X149586000Y-98171000D01*
X149606000Y-98171000D01*
X149606000Y-98151000D01*
X149860000Y-98151000D01*
X149860000Y-98171000D01*
X150321530Y-98171000D01*
X150328099Y-98174511D01*
X150560898Y-98245130D01*
X150742335Y-98263000D01*
X151263665Y-98263000D01*
X151445102Y-98245130D01*
X151677901Y-98174511D01*
X151892449Y-98059833D01*
X152080502Y-97905502D01*
X152123179Y-97853500D01*
X156447450Y-97853500D01*
X156488000Y-97857494D01*
X156528550Y-97853500D01*
X156528553Y-97853500D01*
X156649826Y-97841556D01*
X156736768Y-97815182D01*
X156692758Y-97897520D01*
G37*
X156692758Y-97897520D02*
X156652091Y-98031581D01*
X156641800Y-98136065D01*
X156641800Y-98136074D01*
X156638360Y-98171000D01*
X156641800Y-98205926D01*
X156641800Y-98642226D01*
X156534582Y-98584916D01*
X156386745Y-98540071D01*
X156233000Y-98524928D01*
X155933000Y-98524928D01*
X155779255Y-98540071D01*
X155631418Y-98584916D01*
X155495171Y-98657742D01*
X155375749Y-98755749D01*
X155277742Y-98875171D01*
X155204916Y-99011418D01*
X155160071Y-99159255D01*
X155144928Y-99313000D01*
X155144928Y-100963000D01*
X155160071Y-101116745D01*
X155204916Y-101264582D01*
X155277742Y-101400829D01*
X155284858Y-101409500D01*
X151217933Y-101409500D01*
X149288500Y-99480068D01*
X149288500Y-99443956D01*
X149415390Y-99491467D01*
X149606000Y-99367709D01*
X149606000Y-98425000D01*
X149860000Y-98425000D01*
X149860000Y-99367709D01*
X150050610Y-99491467D01*
X150277341Y-99406572D01*
X150483153Y-99279075D01*
X150660137Y-99113876D01*
X150801492Y-98917324D01*
X150901785Y-98696971D01*
X150926462Y-98615609D01*
X150801731Y-98425000D01*
X149860000Y-98425000D01*
X149606000Y-98425000D01*
X149586000Y-98425000D01*
X149586000Y-98171000D01*
X149606000Y-98171000D01*
X149606000Y-98151000D01*
X149860000Y-98151000D01*
X149860000Y-98171000D01*
X150321530Y-98171000D01*
X150328099Y-98174511D01*
X150560898Y-98245130D01*
X150742335Y-98263000D01*
X151263665Y-98263000D01*
X151445102Y-98245130D01*
X151677901Y-98174511D01*
X151892449Y-98059833D01*
X152080502Y-97905502D01*
X152123179Y-97853500D01*
X156447450Y-97853500D01*
X156488000Y-97857494D01*
X156528550Y-97853500D01*
X156528553Y-97853500D01*
X156649826Y-97841556D01*
X156736768Y-97815182D01*
X156692758Y-97897520D01*
G36*
X154597885Y-93445115D02*
G01*
X154727725Y-93551671D01*
X154875858Y-93630850D01*
X155036592Y-93679608D01*
X155203750Y-93696072D01*
X155411923Y-93696072D01*
X155331815Y-93761815D01*
X155252463Y-93858506D01*
X155193498Y-93968820D01*
X155157188Y-94088518D01*
X155144928Y-94213000D01*
X155148000Y-94902250D01*
X155306750Y-95061000D01*
X155956000Y-95061000D01*
X155956000Y-93736750D01*
X155877806Y-93658556D01*
X155969142Y-93630850D01*
X156117275Y-93551671D01*
X156210000Y-93475574D01*
X156302725Y-93551671D01*
X156362910Y-93583840D01*
X156210000Y-93736750D01*
X156210000Y-95061000D01*
X156230000Y-95061000D01*
X156230000Y-95315000D01*
X156210000Y-95315000D01*
X156210000Y-95335000D01*
X155956000Y-95335000D01*
X155956000Y-95315000D01*
X155306750Y-95315000D01*
X155148000Y-95473750D01*
X155144928Y-96163000D01*
X155148818Y-96202500D01*
X152123179Y-96202500D01*
X152080502Y-96150498D01*
X151892449Y-95996167D01*
X151677901Y-95881489D01*
X151445102Y-95810870D01*
X151263665Y-95793000D01*
X150742335Y-95793000D01*
X150560898Y-95810870D01*
X150328099Y-95881489D01*
X150321530Y-95885000D01*
X149860000Y-95885000D01*
X149860000Y-95905000D01*
X149606000Y-95905000D01*
X149606000Y-95885000D01*
X149586000Y-95885000D01*
X149586000Y-95631000D01*
X149606000Y-95631000D01*
X149606000Y-94688291D01*
X149860000Y-94688291D01*
X149860000Y-95631000D01*
X150801731Y-95631000D01*
X150926462Y-95440391D01*
X150901785Y-95359029D01*
X150801492Y-95138676D01*
X150660137Y-94942124D01*
X150483153Y-94776925D01*
X150277341Y-94649428D01*
X150050610Y-94564533D01*
X149860000Y-94688291D01*
X149606000Y-94688291D01*
X149415390Y-94564533D01*
X149288500Y-94612044D01*
X149288500Y-93940932D01*
X149820933Y-93408500D01*
X154567836Y-93408500D01*
X154597885Y-93445115D01*
G37*
X154597885Y-93445115D02*
X154727725Y-93551671D01*
X154875858Y-93630850D01*
X155036592Y-93679608D01*
X155203750Y-93696072D01*
X155411923Y-93696072D01*
X155331815Y-93761815D01*
X155252463Y-93858506D01*
X155193498Y-93968820D01*
X155157188Y-94088518D01*
X155144928Y-94213000D01*
X155148000Y-94902250D01*
X155306750Y-95061000D01*
X155956000Y-95061000D01*
X155956000Y-93736750D01*
X155877806Y-93658556D01*
X155969142Y-93630850D01*
X156117275Y-93551671D01*
X156210000Y-93475574D01*
X156302725Y-93551671D01*
X156362910Y-93583840D01*
X156210000Y-93736750D01*
X156210000Y-95061000D01*
X156230000Y-95061000D01*
X156230000Y-95315000D01*
X156210000Y-95315000D01*
X156210000Y-95335000D01*
X155956000Y-95335000D01*
X155956000Y-95315000D01*
X155306750Y-95315000D01*
X155148000Y-95473750D01*
X155144928Y-96163000D01*
X155148818Y-96202500D01*
X152123179Y-96202500D01*
X152080502Y-96150498D01*
X151892449Y-95996167D01*
X151677901Y-95881489D01*
X151445102Y-95810870D01*
X151263665Y-95793000D01*
X150742335Y-95793000D01*
X150560898Y-95810870D01*
X150328099Y-95881489D01*
X150321530Y-95885000D01*
X149860000Y-95885000D01*
X149860000Y-95905000D01*
X149606000Y-95905000D01*
X149606000Y-95885000D01*
X149586000Y-95885000D01*
X149586000Y-95631000D01*
X149606000Y-95631000D01*
X149606000Y-94688291D01*
X149860000Y-94688291D01*
X149860000Y-95631000D01*
X150801731Y-95631000D01*
X150926462Y-95440391D01*
X150901785Y-95359029D01*
X150801492Y-95138676D01*
X150660137Y-94942124D01*
X150483153Y-94776925D01*
X150277341Y-94649428D01*
X150050610Y-94564533D01*
X149860000Y-94688291D01*
X149606000Y-94688291D01*
X149415390Y-94564533D01*
X149288500Y-94612044D01*
X149288500Y-93940932D01*
X149820933Y-93408500D01*
X154567836Y-93408500D01*
X154597885Y-93445115D01*
%TD*%
M02*
