%TF.GenerationSoftware,KiCad,Pcbnew,5.1.6-c6e7f7d~87~ubuntu18.04.1*%
%TF.CreationDate,2021-12-08T10:02:53-08:00*%
%TF.ProjectId,wien-bridge-oscillator,7769656e-2d62-4726-9964-67652d6f7363,rev?*%
%TF.SameCoordinates,Original*%
%TF.FileFunction,Legend,Top*%
%TF.FilePolarity,Positive*%
%FSLAX46Y46*%
G04 Gerber Fmt 4.6, Leading zero omitted, Abs format (unit mm)*
G04 Created by KiCad (PCBNEW 5.1.6-c6e7f7d~87~ubuntu18.04.1) date 2021-12-08 10:02:53*
%MOMM*%
%LPD*%
G01*
G04 APERTURE LIST*
%ADD10C,0.150000*%
%ADD11C,0.228600*%
%ADD12C,0.120000*%
G04 APERTURE END LIST*
D10*
X150352285Y-93670428D02*
X151114190Y-93670428D01*
X151638000Y-94051380D02*
X151828476Y-94051380D01*
X151923714Y-94003761D01*
X151971333Y-93956142D01*
X152066571Y-93813285D01*
X152114190Y-93622809D01*
X152114190Y-93241857D01*
X152066571Y-93146619D01*
X152018952Y-93099000D01*
X151923714Y-93051380D01*
X151733238Y-93051380D01*
X151638000Y-93099000D01*
X151590380Y-93146619D01*
X151542761Y-93241857D01*
X151542761Y-93479952D01*
X151590380Y-93575190D01*
X151638000Y-93622809D01*
X151733238Y-93670428D01*
X151923714Y-93670428D01*
X152018952Y-93622809D01*
X152066571Y-93575190D01*
X152114190Y-93479952D01*
X152399904Y-93051380D02*
X152733238Y-94051380D01*
X153066571Y-93051380D01*
X150352285Y-96083428D02*
X151114190Y-96083428D01*
X150733238Y-96464380D02*
X150733238Y-95702476D01*
X151638000Y-96464380D02*
X151828476Y-96464380D01*
X151923714Y-96416761D01*
X151971333Y-96369142D01*
X152066571Y-96226285D01*
X152114190Y-96035809D01*
X152114190Y-95654857D01*
X152066571Y-95559619D01*
X152018952Y-95512000D01*
X151923714Y-95464380D01*
X151733238Y-95464380D01*
X151638000Y-95512000D01*
X151590380Y-95559619D01*
X151542761Y-95654857D01*
X151542761Y-95892952D01*
X151590380Y-95988190D01*
X151638000Y-96035809D01*
X151733238Y-96083428D01*
X151923714Y-96083428D01*
X152018952Y-96035809D01*
X152066571Y-95988190D01*
X152114190Y-95892952D01*
X152399904Y-95464380D02*
X152733238Y-96464380D01*
X153066571Y-95464380D01*
X152923714Y-98306000D02*
X152828476Y-98258380D01*
X152685619Y-98258380D01*
X152542762Y-98306000D01*
X152447524Y-98401238D01*
X152399905Y-98496476D01*
X152352286Y-98686952D01*
X152352286Y-98829809D01*
X152399905Y-99020285D01*
X152447524Y-99115523D01*
X152542762Y-99210761D01*
X152685619Y-99258380D01*
X152780857Y-99258380D01*
X152923714Y-99210761D01*
X152971333Y-99163142D01*
X152971333Y-98829809D01*
X152780857Y-98829809D01*
D11*
X145312613Y-106889247D02*
X145486482Y-106949723D01*
X145788863Y-106949723D01*
X145917375Y-106889247D01*
X145985411Y-106828771D01*
X146061006Y-106707819D01*
X146076125Y-106586866D01*
X146030768Y-106465914D01*
X145977851Y-106405438D01*
X145864459Y-106344961D01*
X145630113Y-106284485D01*
X145516720Y-106224009D01*
X145463804Y-106163533D01*
X145418447Y-106042580D01*
X145433566Y-105921628D01*
X145509161Y-105800676D01*
X145577197Y-105740200D01*
X145705709Y-105679723D01*
X146008090Y-105679723D01*
X146181959Y-105740200D01*
X146575054Y-106949723D02*
X146680887Y-106103057D01*
X146733804Y-105679723D02*
X146665768Y-105740200D01*
X146718685Y-105800676D01*
X146786720Y-105740200D01*
X146733804Y-105679723D01*
X146718685Y-105800676D01*
X147285649Y-106103057D02*
X147179816Y-106949723D01*
X147270530Y-106224009D02*
X147338566Y-106163533D01*
X147467078Y-106103057D01*
X147648506Y-106103057D01*
X147761899Y-106163533D01*
X147807256Y-106284485D01*
X147724101Y-106949723D01*
X148820232Y-106889247D02*
X148691720Y-106949723D01*
X148449816Y-106949723D01*
X148336423Y-106889247D01*
X148291066Y-106768295D01*
X148351542Y-106284485D01*
X148427137Y-106163533D01*
X148555649Y-106103057D01*
X148797554Y-106103057D01*
X148910947Y-106163533D01*
X148956304Y-106284485D01*
X148941185Y-106405438D01*
X148321304Y-106526390D01*
X150369935Y-106103057D02*
X150506006Y-106949723D01*
X150823506Y-106344961D01*
X150989816Y-106949723D01*
X151337554Y-106103057D01*
X152259816Y-106949723D02*
X152342970Y-106284485D01*
X152297613Y-106163533D01*
X152184220Y-106103057D01*
X151942316Y-106103057D01*
X151813804Y-106163533D01*
X152267375Y-106889247D02*
X152138863Y-106949723D01*
X151836482Y-106949723D01*
X151723090Y-106889247D01*
X151677732Y-106768295D01*
X151692851Y-106647342D01*
X151768447Y-106526390D01*
X151896959Y-106465914D01*
X152199340Y-106465914D01*
X152327851Y-106405438D01*
X152849459Y-106103057D02*
X153046006Y-106949723D01*
X153454220Y-106103057D01*
X154323566Y-106889247D02*
X154195054Y-106949723D01*
X153953149Y-106949723D01*
X153839756Y-106889247D01*
X153794399Y-106768295D01*
X153854875Y-106284485D01*
X153930470Y-106163533D01*
X154058982Y-106103057D01*
X154300887Y-106103057D01*
X154414280Y-106163533D01*
X154459637Y-106284485D01*
X154444518Y-106405438D01*
X153824637Y-106526390D01*
X145403328Y-107813323D02*
X145546959Y-109083323D01*
X145902256Y-108176180D01*
X146030768Y-109083323D01*
X146491899Y-107813323D01*
X146816959Y-109083323D02*
X146922792Y-108236657D01*
X146975709Y-107813323D02*
X146907673Y-107873800D01*
X146960590Y-107934276D01*
X147028625Y-107873800D01*
X146975709Y-107813323D01*
X146960590Y-107934276D01*
X147913090Y-109022847D02*
X147784578Y-109083323D01*
X147542673Y-109083323D01*
X147429280Y-109022847D01*
X147383923Y-108901895D01*
X147444399Y-108418085D01*
X147519994Y-108297133D01*
X147648506Y-108236657D01*
X147890411Y-108236657D01*
X148003804Y-108297133D01*
X148049161Y-108418085D01*
X148034042Y-108539038D01*
X147414161Y-108659990D01*
X148616125Y-108236657D02*
X148510292Y-109083323D01*
X148601006Y-108357609D02*
X148669042Y-108297133D01*
X148797554Y-108236657D01*
X148978982Y-108236657D01*
X149092375Y-108297133D01*
X149137732Y-108418085D01*
X149054578Y-109083323D01*
X150626959Y-109083323D02*
X150785709Y-107813323D01*
X150725232Y-108297133D02*
X150853744Y-108236657D01*
X151095649Y-108236657D01*
X151209042Y-108297133D01*
X151261959Y-108357609D01*
X151307316Y-108478561D01*
X151261959Y-108841419D01*
X151186363Y-108962371D01*
X151118328Y-109022847D01*
X150989816Y-109083323D01*
X150747911Y-109083323D01*
X150634518Y-109022847D01*
X151776006Y-109083323D02*
X151881840Y-108236657D01*
X151851601Y-108478561D02*
X151927197Y-108357609D01*
X151995232Y-108297133D01*
X152123744Y-108236657D01*
X152244697Y-108236657D01*
X152562197Y-109083323D02*
X152668030Y-108236657D01*
X152720947Y-107813323D02*
X152652911Y-107873800D01*
X152705828Y-107934276D01*
X152773863Y-107873800D01*
X152720947Y-107813323D01*
X152705828Y-107934276D01*
X153711244Y-109083323D02*
X153869994Y-107813323D01*
X153718804Y-109022847D02*
X153590292Y-109083323D01*
X153348387Y-109083323D01*
X153234994Y-109022847D01*
X153182078Y-108962371D01*
X153136720Y-108841419D01*
X153182078Y-108478561D01*
X153257673Y-108357609D01*
X153325709Y-108297133D01*
X153454220Y-108236657D01*
X153696125Y-108236657D01*
X153809518Y-108297133D01*
X154966125Y-108236657D02*
X154837613Y-109264752D01*
X154762018Y-109385704D01*
X154693982Y-109446180D01*
X154565470Y-109506657D01*
X154384042Y-109506657D01*
X154270649Y-109446180D01*
X154867851Y-109022847D02*
X154739340Y-109083323D01*
X154497435Y-109083323D01*
X154384042Y-109022847D01*
X154331125Y-108962371D01*
X154285768Y-108841419D01*
X154331125Y-108478561D01*
X154406720Y-108357609D01*
X154474756Y-108297133D01*
X154603268Y-108236657D01*
X154845173Y-108236657D01*
X154958566Y-108297133D01*
X155956423Y-109022847D02*
X155827911Y-109083323D01*
X155586006Y-109083323D01*
X155472613Y-109022847D01*
X155427256Y-108901895D01*
X155487732Y-108418085D01*
X155563328Y-108297133D01*
X155691840Y-108236657D01*
X155933744Y-108236657D01*
X156047137Y-108297133D01*
X156092494Y-108418085D01*
X156077375Y-108539038D01*
X155457494Y-108659990D01*
X157702673Y-109083323D02*
X157589280Y-109022847D01*
X157536363Y-108962371D01*
X157491006Y-108841419D01*
X157536363Y-108478561D01*
X157611959Y-108357609D01*
X157679994Y-108297133D01*
X157808506Y-108236657D01*
X157989935Y-108236657D01*
X158103328Y-108297133D01*
X158156244Y-108357609D01*
X158201601Y-108478561D01*
X158156244Y-108841419D01*
X158080649Y-108962371D01*
X158012613Y-109022847D01*
X157884101Y-109083323D01*
X157702673Y-109083323D01*
X158617375Y-109022847D02*
X158730768Y-109083323D01*
X158972673Y-109083323D01*
X159101185Y-109022847D01*
X159176780Y-108901895D01*
X159184340Y-108841419D01*
X159138982Y-108720466D01*
X159025590Y-108659990D01*
X158844161Y-108659990D01*
X158730768Y-108599514D01*
X158685411Y-108478561D01*
X158692970Y-108418085D01*
X158768566Y-108297133D01*
X158897078Y-108236657D01*
X159078506Y-108236657D01*
X159191899Y-108297133D01*
X160250232Y-109022847D02*
X160121720Y-109083323D01*
X159879816Y-109083323D01*
X159766423Y-109022847D01*
X159713506Y-108962371D01*
X159668149Y-108841419D01*
X159713506Y-108478561D01*
X159789101Y-108357609D01*
X159857137Y-108297133D01*
X159985649Y-108236657D01*
X160227554Y-108236657D01*
X160340947Y-108297133D01*
X160786959Y-109083323D02*
X160892792Y-108236657D01*
X160945709Y-107813323D02*
X160877673Y-107873800D01*
X160930590Y-107934276D01*
X160998625Y-107873800D01*
X160945709Y-107813323D01*
X160930590Y-107934276D01*
X161573149Y-109083323D02*
X161459756Y-109022847D01*
X161414399Y-108901895D01*
X161550470Y-107813323D01*
X162238387Y-109083323D02*
X162124994Y-109022847D01*
X162079637Y-108901895D01*
X162215709Y-107813323D01*
X163266482Y-109083323D02*
X163349637Y-108418085D01*
X163304280Y-108297133D01*
X163190887Y-108236657D01*
X162948982Y-108236657D01*
X162820470Y-108297133D01*
X163274042Y-109022847D02*
X163145530Y-109083323D01*
X162843149Y-109083323D01*
X162729756Y-109022847D01*
X162684399Y-108901895D01*
X162699518Y-108780942D01*
X162775113Y-108659990D01*
X162903625Y-108599514D01*
X163206006Y-108599514D01*
X163334518Y-108539038D01*
X163795649Y-108236657D02*
X164279459Y-108236657D01*
X164029994Y-107813323D02*
X163893923Y-108901895D01*
X163939280Y-109022847D01*
X164052673Y-109083323D01*
X164173625Y-109083323D01*
X164778387Y-109083323D02*
X164664994Y-109022847D01*
X164612078Y-108962371D01*
X164566720Y-108841419D01*
X164612078Y-108478561D01*
X164687673Y-108357609D01*
X164755709Y-108297133D01*
X164884220Y-108236657D01*
X165065649Y-108236657D01*
X165179042Y-108297133D01*
X165231959Y-108357609D01*
X165277316Y-108478561D01*
X165231959Y-108841419D01*
X165156363Y-108962371D01*
X165088328Y-109022847D01*
X164959816Y-109083323D01*
X164778387Y-109083323D01*
X165746006Y-109083323D02*
X165851840Y-108236657D01*
X165821601Y-108478561D02*
X165897197Y-108357609D01*
X165965232Y-108297133D01*
X166093744Y-108236657D01*
X166214697Y-108236657D01*
D10*
X150018952Y-100798380D02*
X150352285Y-101798380D01*
X150685619Y-100798380D01*
X151161809Y-101798380D02*
X151066571Y-101750761D01*
X151018952Y-101703142D01*
X150971333Y-101607904D01*
X150971333Y-101322190D01*
X151018952Y-101226952D01*
X151066571Y-101179333D01*
X151161809Y-101131714D01*
X151304666Y-101131714D01*
X151399904Y-101179333D01*
X151447523Y-101226952D01*
X151495142Y-101322190D01*
X151495142Y-101607904D01*
X151447523Y-101703142D01*
X151399904Y-101750761D01*
X151304666Y-101798380D01*
X151161809Y-101798380D01*
X152352285Y-101131714D02*
X152352285Y-101798380D01*
X151923714Y-101131714D02*
X151923714Y-101655523D01*
X151971333Y-101750761D01*
X152066571Y-101798380D01*
X152209428Y-101798380D01*
X152304666Y-101750761D01*
X152352285Y-101703142D01*
X152685619Y-101131714D02*
X153066571Y-101131714D01*
X152828476Y-100798380D02*
X152828476Y-101655523D01*
X152876095Y-101750761D01*
X152971333Y-101798380D01*
X153066571Y-101798380D01*
D12*
%TO.C,U1*%
X167660000Y-96520000D02*
X167660000Y-93070000D01*
X167660000Y-96520000D02*
X167660000Y-98470000D01*
X162540000Y-96520000D02*
X162540000Y-94570000D01*
X162540000Y-96520000D02*
X162540000Y-98470000D01*
%TO.C,R4*%
X159510000Y-96992221D02*
X159510000Y-97317779D01*
X160530000Y-96992221D02*
X160530000Y-97317779D01*
%TO.C,R3*%
X162054000Y-100365779D02*
X162054000Y-100040221D01*
X161034000Y-100365779D02*
X161034000Y-100040221D01*
%TO.C,R2*%
X168146000Y-96357221D02*
X168146000Y-96682779D01*
X169166000Y-96357221D02*
X169166000Y-96682779D01*
%TO.C,C2*%
X159006000Y-97317779D02*
X159006000Y-96992221D01*
X157986000Y-97317779D02*
X157986000Y-96992221D01*
%TO.C,C1*%
X161034000Y-96992221D02*
X161034000Y-97317779D01*
X162054000Y-96992221D02*
X162054000Y-97317779D01*
%TO.C,R1*%
X169670000Y-96682779D02*
X169670000Y-96357221D01*
X170690000Y-96682779D02*
X170690000Y-96357221D01*
%TO.C,J2*%
X155448000Y-92269000D02*
X156778000Y-92269000D01*
X156778000Y-92269000D02*
X156778000Y-93599000D01*
X156778000Y-94869000D02*
X156778000Y-102549000D01*
X154118000Y-102549000D02*
X156778000Y-102549000D01*
X154118000Y-94869000D02*
X154118000Y-102549000D01*
X154118000Y-94869000D02*
X156778000Y-94869000D01*
%TO.C,U1*%
D10*
X168743380Y-94614904D02*
X169552904Y-94614904D01*
X169648142Y-94567285D01*
X169695761Y-94519666D01*
X169743380Y-94424428D01*
X169743380Y-94233952D01*
X169695761Y-94138714D01*
X169648142Y-94091095D01*
X169552904Y-94043476D01*
X168743380Y-94043476D01*
X169743380Y-93043476D02*
X169743380Y-93614904D01*
X169743380Y-93329190D02*
X168743380Y-93329190D01*
X168886238Y-93424428D01*
X168981476Y-93519666D01*
X169029095Y-93614904D01*
%TO.C,R4*%
X160472380Y-94908666D02*
X159996190Y-95242000D01*
X160472380Y-95480095D02*
X159472380Y-95480095D01*
X159472380Y-95099142D01*
X159520000Y-95003904D01*
X159567619Y-94956285D01*
X159662857Y-94908666D01*
X159805714Y-94908666D01*
X159900952Y-94956285D01*
X159948571Y-95003904D01*
X159996190Y-95099142D01*
X159996190Y-95480095D01*
X159805714Y-94051523D02*
X160472380Y-94051523D01*
X159424761Y-94289619D02*
X160139047Y-94527714D01*
X160139047Y-93908666D01*
%TO.C,R3*%
X162123380Y-103036666D02*
X161647190Y-103370000D01*
X162123380Y-103608095D02*
X161123380Y-103608095D01*
X161123380Y-103227142D01*
X161171000Y-103131904D01*
X161218619Y-103084285D01*
X161313857Y-103036666D01*
X161456714Y-103036666D01*
X161551952Y-103084285D01*
X161599571Y-103131904D01*
X161647190Y-103227142D01*
X161647190Y-103608095D01*
X161123380Y-102703333D02*
X161123380Y-102084285D01*
X161504333Y-102417619D01*
X161504333Y-102274761D01*
X161551952Y-102179523D01*
X161599571Y-102131904D01*
X161694809Y-102084285D01*
X161932904Y-102084285D01*
X162028142Y-102131904D01*
X162075761Y-102179523D01*
X162123380Y-102274761D01*
X162123380Y-102560476D01*
X162075761Y-102655714D01*
X162028142Y-102703333D01*
%TO.C,R2*%
X169108380Y-99226666D02*
X168632190Y-99560000D01*
X169108380Y-99798095D02*
X168108380Y-99798095D01*
X168108380Y-99417142D01*
X168156000Y-99321904D01*
X168203619Y-99274285D01*
X168298857Y-99226666D01*
X168441714Y-99226666D01*
X168536952Y-99274285D01*
X168584571Y-99321904D01*
X168632190Y-99417142D01*
X168632190Y-99798095D01*
X168203619Y-98845714D02*
X168156000Y-98798095D01*
X168108380Y-98702857D01*
X168108380Y-98464761D01*
X168156000Y-98369523D01*
X168203619Y-98321904D01*
X168298857Y-98274285D01*
X168394095Y-98274285D01*
X168536952Y-98321904D01*
X169108380Y-98893333D01*
X169108380Y-98274285D01*
%TO.C,C2*%
X158726142Y-94781666D02*
X158773761Y-94829285D01*
X158821380Y-94972142D01*
X158821380Y-95067380D01*
X158773761Y-95210238D01*
X158678523Y-95305476D01*
X158583285Y-95353095D01*
X158392809Y-95400714D01*
X158249952Y-95400714D01*
X158059476Y-95353095D01*
X157964238Y-95305476D01*
X157869000Y-95210238D01*
X157821380Y-95067380D01*
X157821380Y-94972142D01*
X157869000Y-94829285D01*
X157916619Y-94781666D01*
X157916619Y-94400714D02*
X157869000Y-94353095D01*
X157821380Y-94257857D01*
X157821380Y-94019761D01*
X157869000Y-93924523D01*
X157916619Y-93876904D01*
X158011857Y-93829285D01*
X158107095Y-93829285D01*
X158249952Y-93876904D01*
X158821380Y-94448333D01*
X158821380Y-93829285D01*
%TO.C,C1*%
X161901142Y-94781666D02*
X161948761Y-94829285D01*
X161996380Y-94972142D01*
X161996380Y-95067380D01*
X161948761Y-95210238D01*
X161853523Y-95305476D01*
X161758285Y-95353095D01*
X161567809Y-95400714D01*
X161424952Y-95400714D01*
X161234476Y-95353095D01*
X161139238Y-95305476D01*
X161044000Y-95210238D01*
X160996380Y-95067380D01*
X160996380Y-94972142D01*
X161044000Y-94829285D01*
X161091619Y-94781666D01*
X161996380Y-93829285D02*
X161996380Y-94400714D01*
X161996380Y-94115000D02*
X160996380Y-94115000D01*
X161139238Y-94210238D01*
X161234476Y-94305476D01*
X161282095Y-94400714D01*
%TO.C,R1*%
X170632380Y-99150466D02*
X170156190Y-99483800D01*
X170632380Y-99721895D02*
X169632380Y-99721895D01*
X169632380Y-99340942D01*
X169680000Y-99245704D01*
X169727619Y-99198085D01*
X169822857Y-99150466D01*
X169965714Y-99150466D01*
X170060952Y-99198085D01*
X170108571Y-99245704D01*
X170156190Y-99340942D01*
X170156190Y-99721895D01*
X170632380Y-98198085D02*
X170632380Y-98769514D01*
X170632380Y-98483800D02*
X169632380Y-98483800D01*
X169775238Y-98579038D01*
X169870476Y-98674276D01*
X169918095Y-98769514D01*
%TO.C,J2*%
X154987666Y-90384380D02*
X154987666Y-91098666D01*
X154940047Y-91241523D01*
X154844809Y-91336761D01*
X154701952Y-91384380D01*
X154606714Y-91384380D01*
X155416238Y-90479619D02*
X155463857Y-90432000D01*
X155559095Y-90384380D01*
X155797190Y-90384380D01*
X155892428Y-90432000D01*
X155940047Y-90479619D01*
X155987666Y-90574857D01*
X155987666Y-90670095D01*
X155940047Y-90812952D01*
X155368619Y-91384380D01*
X155987666Y-91384380D01*
%TD*%
M02*
