%TF.GenerationSoftware,KiCad,Pcbnew,5.1.6-c6e7f7d~87~ubuntu18.04.1*%
%TF.CreationDate,2021-12-08T10:02:53-08:00*%
%TF.ProjectId,wien-bridge-oscillator,7769656e-2d62-4726-9964-67652d6f7363,rev?*%
%TF.SameCoordinates,Original*%
%TF.FileFunction,Soldermask,Bot*%
%TF.FilePolarity,Negative*%
%FSLAX46Y46*%
G04 Gerber Fmt 4.6, Leading zero omitted, Abs format (unit mm)*
G04 Created by KiCad (PCBNEW 5.1.6-c6e7f7d~87~ubuntu18.04.1) date 2021-12-08 10:02:53*
%MOMM*%
%LPD*%
G01*
G04 APERTURE LIST*
%ADD10C,0.150000*%
%ADD11C,2.800000*%
%ADD12O,1.800000X1.800000*%
%ADD13R,1.800000X1.800000*%
G04 APERTURE END LIST*
D10*
X167797032Y-108037380D02*
X167886318Y-108751666D01*
X167951794Y-108894523D01*
X168058937Y-108989761D01*
X168207747Y-109037380D01*
X168302985Y-109037380D01*
X167047032Y-108513571D02*
X167380366Y-108513571D01*
X167445842Y-109037380D02*
X167320842Y-108037380D01*
X166844651Y-108037380D01*
X165868461Y-108989761D02*
X165731556Y-109037380D01*
X165493461Y-109037380D01*
X165392270Y-108989761D01*
X165338699Y-108942142D01*
X165279175Y-108846904D01*
X165267270Y-108751666D01*
X165302985Y-108656428D01*
X165344651Y-108608809D01*
X165433937Y-108561190D01*
X165618461Y-108513571D01*
X165707747Y-108465952D01*
X165749413Y-108418333D01*
X165785127Y-108323095D01*
X165773223Y-108227857D01*
X165713699Y-108132619D01*
X165660127Y-108085000D01*
X165558937Y-108037380D01*
X165320842Y-108037380D01*
X165183937Y-108085000D01*
X164445842Y-109037380D02*
X164380366Y-108513571D01*
X164416080Y-108418333D01*
X164505366Y-108370714D01*
X164695842Y-108370714D01*
X164797032Y-108418333D01*
X164439889Y-108989761D02*
X164541080Y-109037380D01*
X164779175Y-109037380D01*
X164868461Y-108989761D01*
X164904175Y-108894523D01*
X164892270Y-108799285D01*
X164832747Y-108704047D01*
X164731556Y-108656428D01*
X164493461Y-108656428D01*
X164392270Y-108608809D01*
X163969651Y-109037380D02*
X163886318Y-108370714D01*
X163910127Y-108561190D02*
X163850604Y-108465952D01*
X163797032Y-108418333D01*
X163695842Y-108370714D01*
X163600604Y-108370714D01*
X162922032Y-109037380D02*
X162856556Y-108513571D01*
X162892270Y-108418333D01*
X162981556Y-108370714D01*
X163172032Y-108370714D01*
X163273223Y-108418333D01*
X162916080Y-108989761D02*
X163017270Y-109037380D01*
X163255366Y-109037380D01*
X163344651Y-108989761D01*
X163380366Y-108894523D01*
X163368461Y-108799285D01*
X163308937Y-108704047D01*
X163207747Y-108656428D01*
X162969651Y-108656428D01*
X162868461Y-108608809D01*
X162011318Y-108989761D02*
X162112508Y-109037380D01*
X162302985Y-109037380D01*
X162392270Y-108989761D01*
X162433937Y-108942142D01*
X162469651Y-108846904D01*
X162433937Y-108561190D01*
X162374413Y-108465952D01*
X162320842Y-108418333D01*
X162219651Y-108370714D01*
X162029175Y-108370714D01*
X161939889Y-108418333D01*
X161201794Y-108989761D02*
X161302985Y-109037380D01*
X161493461Y-109037380D01*
X161582747Y-108989761D01*
X161618461Y-108894523D01*
X161570842Y-108513571D01*
X161511318Y-108418333D01*
X161410127Y-108370714D01*
X161219651Y-108370714D01*
X161130366Y-108418333D01*
X161094651Y-108513571D01*
X161106556Y-108608809D01*
X161594651Y-108704047D01*
X160648223Y-108370714D02*
X160731556Y-109037380D01*
X160660127Y-108465952D02*
X160606556Y-108418333D01*
X160505366Y-108370714D01*
X160362508Y-108370714D01*
X160273223Y-108418333D01*
X160237508Y-108513571D01*
X160302985Y-109037380D01*
X159683937Y-109037380D02*
X159773223Y-108989761D01*
X159814889Y-108942142D01*
X159850604Y-108846904D01*
X159814889Y-108561190D01*
X159755366Y-108465952D01*
X159701794Y-108418333D01*
X159600604Y-108370714D01*
X159457747Y-108370714D01*
X159368461Y-108418333D01*
X159326794Y-108465952D01*
X159291080Y-108561190D01*
X159326794Y-108846904D01*
X159386318Y-108942142D01*
X159439889Y-108989761D01*
X159541080Y-109037380D01*
X159683937Y-109037380D01*
D11*
%TO.C,H2*%
X172720000Y-106426000D03*
%TD*%
%TO.C,H1*%
X149352000Y-87122000D03*
%TD*%
D12*
%TO.C,J2*%
X155448000Y-101219000D03*
X155448000Y-98679000D03*
X155448000Y-96139000D03*
D13*
X155448000Y-93599000D03*
%TD*%
M02*
