%TF.GenerationSoftware,KiCad,Pcbnew,5.1.6-c6e7f7d~87~ubuntu18.04.1*%
%TF.CreationDate,2021-12-08T10:02:53-08:00*%
%TF.ProjectId,wien-bridge-oscillator,7769656e-2d62-4726-9964-67652d6f7363,rev?*%
%TF.SameCoordinates,Original*%
%TF.FileFunction,Copper,L1,Top*%
%TF.FilePolarity,Positive*%
%FSLAX46Y46*%
G04 Gerber Fmt 4.6, Leading zero omitted, Abs format (unit mm)*
G04 Created by KiCad (PCBNEW 5.1.6-c6e7f7d~87~ubuntu18.04.1) date 2021-12-08 10:02:53*
%MOMM*%
%LPD*%
G01*
G04 APERTURE LIST*
%TA.AperFunction,ComponentPad*%
%ADD10O,1.700000X1.700000*%
%TD*%
%TA.AperFunction,ComponentPad*%
%ADD11R,1.700000X1.700000*%
%TD*%
%TA.AperFunction,ViaPad*%
%ADD12C,0.800000*%
%TD*%
%TA.AperFunction,Conductor*%
%ADD13C,0.254000*%
%TD*%
G04 APERTURE END LIST*
%TO.P,U1,8*%
%TO.N,Net-(U1-Pad8)*%
%TA.AperFunction,SMDPad,CuDef*%
G36*
G01*
X166855000Y-98220000D02*
X167155000Y-98220000D01*
G75*
G02*
X167305000Y-98370000I0J-150000D01*
G01*
X167305000Y-99820000D01*
G75*
G02*
X167155000Y-99970000I-150000J0D01*
G01*
X166855000Y-99970000D01*
G75*
G02*
X166705000Y-99820000I0J150000D01*
G01*
X166705000Y-98370000D01*
G75*
G02*
X166855000Y-98220000I150000J0D01*
G01*
G37*
%TD.AperFunction*%
%TO.P,U1,7*%
%TO.N,+9V*%
%TA.AperFunction,SMDPad,CuDef*%
G36*
G01*
X165585000Y-98220000D02*
X165885000Y-98220000D01*
G75*
G02*
X166035000Y-98370000I0J-150000D01*
G01*
X166035000Y-99820000D01*
G75*
G02*
X165885000Y-99970000I-150000J0D01*
G01*
X165585000Y-99970000D01*
G75*
G02*
X165435000Y-99820000I0J150000D01*
G01*
X165435000Y-98370000D01*
G75*
G02*
X165585000Y-98220000I150000J0D01*
G01*
G37*
%TD.AperFunction*%
%TO.P,U1,6*%
%TO.N,/Vout*%
%TA.AperFunction,SMDPad,CuDef*%
G36*
G01*
X164315000Y-98220000D02*
X164615000Y-98220000D01*
G75*
G02*
X164765000Y-98370000I0J-150000D01*
G01*
X164765000Y-99820000D01*
G75*
G02*
X164615000Y-99970000I-150000J0D01*
G01*
X164315000Y-99970000D01*
G75*
G02*
X164165000Y-99820000I0J150000D01*
G01*
X164165000Y-98370000D01*
G75*
G02*
X164315000Y-98220000I150000J0D01*
G01*
G37*
%TD.AperFunction*%
%TO.P,U1,5*%
%TO.N,Net-(U1-Pad5)*%
%TA.AperFunction,SMDPad,CuDef*%
G36*
G01*
X163045000Y-98220000D02*
X163345000Y-98220000D01*
G75*
G02*
X163495000Y-98370000I0J-150000D01*
G01*
X163495000Y-99820000D01*
G75*
G02*
X163345000Y-99970000I-150000J0D01*
G01*
X163045000Y-99970000D01*
G75*
G02*
X162895000Y-99820000I0J150000D01*
G01*
X162895000Y-98370000D01*
G75*
G02*
X163045000Y-98220000I150000J0D01*
G01*
G37*
%TD.AperFunction*%
%TO.P,U1,4*%
%TO.N,-9V*%
%TA.AperFunction,SMDPad,CuDef*%
G36*
G01*
X163045000Y-93070000D02*
X163345000Y-93070000D01*
G75*
G02*
X163495000Y-93220000I0J-150000D01*
G01*
X163495000Y-94670000D01*
G75*
G02*
X163345000Y-94820000I-150000J0D01*
G01*
X163045000Y-94820000D01*
G75*
G02*
X162895000Y-94670000I0J150000D01*
G01*
X162895000Y-93220000D01*
G75*
G02*
X163045000Y-93070000I150000J0D01*
G01*
G37*
%TD.AperFunction*%
%TO.P,U1,3*%
%TO.N,Net-(C1-Pad1)*%
%TA.AperFunction,SMDPad,CuDef*%
G36*
G01*
X164315000Y-93070000D02*
X164615000Y-93070000D01*
G75*
G02*
X164765000Y-93220000I0J-150000D01*
G01*
X164765000Y-94670000D01*
G75*
G02*
X164615000Y-94820000I-150000J0D01*
G01*
X164315000Y-94820000D01*
G75*
G02*
X164165000Y-94670000I0J150000D01*
G01*
X164165000Y-93220000D01*
G75*
G02*
X164315000Y-93070000I150000J0D01*
G01*
G37*
%TD.AperFunction*%
%TO.P,U1,2*%
%TO.N,Net-(R1-Pad2)*%
%TA.AperFunction,SMDPad,CuDef*%
G36*
G01*
X165585000Y-93070000D02*
X165885000Y-93070000D01*
G75*
G02*
X166035000Y-93220000I0J-150000D01*
G01*
X166035000Y-94670000D01*
G75*
G02*
X165885000Y-94820000I-150000J0D01*
G01*
X165585000Y-94820000D01*
G75*
G02*
X165435000Y-94670000I0J150000D01*
G01*
X165435000Y-93220000D01*
G75*
G02*
X165585000Y-93070000I150000J0D01*
G01*
G37*
%TD.AperFunction*%
%TO.P,U1,1*%
%TO.N,Net-(U1-Pad1)*%
%TA.AperFunction,SMDPad,CuDef*%
G36*
G01*
X166855000Y-93070000D02*
X167155000Y-93070000D01*
G75*
G02*
X167305000Y-93220000I0J-150000D01*
G01*
X167305000Y-94670000D01*
G75*
G02*
X167155000Y-94820000I-150000J0D01*
G01*
X166855000Y-94820000D01*
G75*
G02*
X166705000Y-94670000I0J150000D01*
G01*
X166705000Y-93220000D01*
G75*
G02*
X166855000Y-93070000I150000J0D01*
G01*
G37*
%TD.AperFunction*%
%TD*%
%TO.P,R4,2*%
%TO.N,GND*%
%TA.AperFunction,SMDPad,CuDef*%
G36*
G01*
X159763750Y-97505000D02*
X160276250Y-97505000D01*
G75*
G02*
X160495000Y-97723750I0J-218750D01*
G01*
X160495000Y-98161250D01*
G75*
G02*
X160276250Y-98380000I-218750J0D01*
G01*
X159763750Y-98380000D01*
G75*
G02*
X159545000Y-98161250I0J218750D01*
G01*
X159545000Y-97723750D01*
G75*
G02*
X159763750Y-97505000I218750J0D01*
G01*
G37*
%TD.AperFunction*%
%TO.P,R4,1*%
%TO.N,Net-(C1-Pad1)*%
%TA.AperFunction,SMDPad,CuDef*%
G36*
G01*
X159763750Y-95930000D02*
X160276250Y-95930000D01*
G75*
G02*
X160495000Y-96148750I0J-218750D01*
G01*
X160495000Y-96586250D01*
G75*
G02*
X160276250Y-96805000I-218750J0D01*
G01*
X159763750Y-96805000D01*
G75*
G02*
X159545000Y-96586250I0J218750D01*
G01*
X159545000Y-96148750D01*
G75*
G02*
X159763750Y-95930000I218750J0D01*
G01*
G37*
%TD.AperFunction*%
%TD*%
%TO.P,R3,2*%
%TO.N,Net-(C1-Pad2)*%
%TA.AperFunction,SMDPad,CuDef*%
G36*
G01*
X161800250Y-99853000D02*
X161287750Y-99853000D01*
G75*
G02*
X161069000Y-99634250I0J218750D01*
G01*
X161069000Y-99196750D01*
G75*
G02*
X161287750Y-98978000I218750J0D01*
G01*
X161800250Y-98978000D01*
G75*
G02*
X162019000Y-99196750I0J-218750D01*
G01*
X162019000Y-99634250D01*
G75*
G02*
X161800250Y-99853000I-218750J0D01*
G01*
G37*
%TD.AperFunction*%
%TO.P,R3,1*%
%TO.N,/Vout*%
%TA.AperFunction,SMDPad,CuDef*%
G36*
G01*
X161800250Y-101428000D02*
X161287750Y-101428000D01*
G75*
G02*
X161069000Y-101209250I0J218750D01*
G01*
X161069000Y-100771750D01*
G75*
G02*
X161287750Y-100553000I218750J0D01*
G01*
X161800250Y-100553000D01*
G75*
G02*
X162019000Y-100771750I0J-218750D01*
G01*
X162019000Y-101209250D01*
G75*
G02*
X161800250Y-101428000I-218750J0D01*
G01*
G37*
%TD.AperFunction*%
%TD*%
%TO.P,R2,2*%
%TO.N,/Vout*%
%TA.AperFunction,SMDPad,CuDef*%
G36*
G01*
X168399750Y-96870000D02*
X168912250Y-96870000D01*
G75*
G02*
X169131000Y-97088750I0J-218750D01*
G01*
X169131000Y-97526250D01*
G75*
G02*
X168912250Y-97745000I-218750J0D01*
G01*
X168399750Y-97745000D01*
G75*
G02*
X168181000Y-97526250I0J218750D01*
G01*
X168181000Y-97088750D01*
G75*
G02*
X168399750Y-96870000I218750J0D01*
G01*
G37*
%TD.AperFunction*%
%TO.P,R2,1*%
%TO.N,Net-(R1-Pad2)*%
%TA.AperFunction,SMDPad,CuDef*%
G36*
G01*
X168399750Y-95295000D02*
X168912250Y-95295000D01*
G75*
G02*
X169131000Y-95513750I0J-218750D01*
G01*
X169131000Y-95951250D01*
G75*
G02*
X168912250Y-96170000I-218750J0D01*
G01*
X168399750Y-96170000D01*
G75*
G02*
X168181000Y-95951250I0J218750D01*
G01*
X168181000Y-95513750D01*
G75*
G02*
X168399750Y-95295000I218750J0D01*
G01*
G37*
%TD.AperFunction*%
%TD*%
%TO.P,C2,2*%
%TO.N,Net-(C1-Pad1)*%
%TA.AperFunction,SMDPad,CuDef*%
G36*
G01*
X158752250Y-96805000D02*
X158239750Y-96805000D01*
G75*
G02*
X158021000Y-96586250I0J218750D01*
G01*
X158021000Y-96148750D01*
G75*
G02*
X158239750Y-95930000I218750J0D01*
G01*
X158752250Y-95930000D01*
G75*
G02*
X158971000Y-96148750I0J-218750D01*
G01*
X158971000Y-96586250D01*
G75*
G02*
X158752250Y-96805000I-218750J0D01*
G01*
G37*
%TD.AperFunction*%
%TO.P,C2,1*%
%TO.N,GND*%
%TA.AperFunction,SMDPad,CuDef*%
G36*
G01*
X158752250Y-98380000D02*
X158239750Y-98380000D01*
G75*
G02*
X158021000Y-98161250I0J218750D01*
G01*
X158021000Y-97723750D01*
G75*
G02*
X158239750Y-97505000I218750J0D01*
G01*
X158752250Y-97505000D01*
G75*
G02*
X158971000Y-97723750I0J-218750D01*
G01*
X158971000Y-98161250D01*
G75*
G02*
X158752250Y-98380000I-218750J0D01*
G01*
G37*
%TD.AperFunction*%
%TD*%
%TO.P,C1,2*%
%TO.N,Net-(C1-Pad2)*%
%TA.AperFunction,SMDPad,CuDef*%
G36*
G01*
X161287750Y-97505000D02*
X161800250Y-97505000D01*
G75*
G02*
X162019000Y-97723750I0J-218750D01*
G01*
X162019000Y-98161250D01*
G75*
G02*
X161800250Y-98380000I-218750J0D01*
G01*
X161287750Y-98380000D01*
G75*
G02*
X161069000Y-98161250I0J218750D01*
G01*
X161069000Y-97723750D01*
G75*
G02*
X161287750Y-97505000I218750J0D01*
G01*
G37*
%TD.AperFunction*%
%TO.P,C1,1*%
%TO.N,Net-(C1-Pad1)*%
%TA.AperFunction,SMDPad,CuDef*%
G36*
G01*
X161287750Y-95930000D02*
X161800250Y-95930000D01*
G75*
G02*
X162019000Y-96148750I0J-218750D01*
G01*
X162019000Y-96586250D01*
G75*
G02*
X161800250Y-96805000I-218750J0D01*
G01*
X161287750Y-96805000D01*
G75*
G02*
X161069000Y-96586250I0J218750D01*
G01*
X161069000Y-96148750D01*
G75*
G02*
X161287750Y-95930000I218750J0D01*
G01*
G37*
%TD.AperFunction*%
%TD*%
%TO.P,R1,2*%
%TO.N,Net-(R1-Pad2)*%
%TA.AperFunction,SMDPad,CuDef*%
G36*
G01*
X170436250Y-96170000D02*
X169923750Y-96170000D01*
G75*
G02*
X169705000Y-95951250I0J218750D01*
G01*
X169705000Y-95513750D01*
G75*
G02*
X169923750Y-95295000I218750J0D01*
G01*
X170436250Y-95295000D01*
G75*
G02*
X170655000Y-95513750I0J-218750D01*
G01*
X170655000Y-95951250D01*
G75*
G02*
X170436250Y-96170000I-218750J0D01*
G01*
G37*
%TD.AperFunction*%
%TO.P,R1,1*%
%TO.N,GND*%
%TA.AperFunction,SMDPad,CuDef*%
G36*
G01*
X170436250Y-97745000D02*
X169923750Y-97745000D01*
G75*
G02*
X169705000Y-97526250I0J218750D01*
G01*
X169705000Y-97088750D01*
G75*
G02*
X169923750Y-96870000I218750J0D01*
G01*
X170436250Y-96870000D01*
G75*
G02*
X170655000Y-97088750I0J-218750D01*
G01*
X170655000Y-97526250D01*
G75*
G02*
X170436250Y-97745000I-218750J0D01*
G01*
G37*
%TD.AperFunction*%
%TD*%
D10*
%TO.P,J2,4*%
%TO.N,/Vout*%
X155448000Y-101219000D03*
%TO.P,J2,3*%
%TO.N,GND*%
X155448000Y-98679000D03*
%TO.P,J2,2*%
%TO.N,+9V*%
X155448000Y-96139000D03*
D11*
%TO.P,J2,1*%
%TO.N,-9V*%
X155448000Y-93599000D03*
%TD*%
D12*
%TO.N,GND*%
X158496000Y-98806000D03*
X160020000Y-98806000D03*
%TO.N,Net-(U1-Pad8)*%
X167132000Y-98298000D03*
%TO.N,+9V*%
X165735000Y-102616000D03*
X165735000Y-100711000D03*
%TD*%
D13*
%TO.N,GND*%
X170967500Y-97307500D02*
X171069000Y-97409000D01*
X170180000Y-97307500D02*
X170967500Y-97307500D01*
X158496000Y-97942500D02*
X158496000Y-98806000D01*
X160020000Y-97942500D02*
X160020000Y-98806000D01*
%TO.N,/Vout*%
X168656000Y-97307500D02*
X168656000Y-100711000D01*
X163444500Y-100990500D02*
X161544000Y-100990500D01*
X167928999Y-101438001D02*
X168656000Y-100711000D01*
X163892001Y-101438001D02*
X167928999Y-101438001D01*
X163444500Y-100990500D02*
X163892001Y-101438001D01*
X155676500Y-100990500D02*
X155448000Y-101219000D01*
X164557001Y-101438001D02*
X163892001Y-101438001D01*
X164465000Y-99095000D02*
X164465000Y-101346000D01*
X164465000Y-101346000D02*
X164557001Y-101438001D01*
X161544000Y-100990500D02*
X155676500Y-100990500D01*
%TO.N,Net-(C1-Pad2)*%
X161544000Y-97942500D02*
X161544000Y-99415500D01*
%TO.N,Net-(C1-Pad1)*%
X164465000Y-93945000D02*
X164465000Y-95885000D01*
X163982500Y-96367500D02*
X158496000Y-96367500D01*
X164465000Y-95885000D02*
X163982500Y-96367500D01*
%TO.N,-9V*%
X155794000Y-93945000D02*
X155448000Y-93599000D01*
X163195000Y-93945000D02*
X155794000Y-93945000D01*
%TO.N,+9V*%
X165735000Y-99095000D02*
X165735000Y-100711000D01*
X155448000Y-96139000D02*
X153543000Y-96139000D01*
X153543000Y-96139000D02*
X152527000Y-97155000D01*
X152527000Y-97155000D02*
X152527000Y-102362000D01*
X152527000Y-102362000D02*
X153416000Y-103251000D01*
X165100000Y-103251000D02*
X165735000Y-102616000D01*
X153416000Y-103251000D02*
X165100000Y-103251000D01*
%TO.N,Net-(R1-Pad2)*%
X170205500Y-95758000D02*
X170180000Y-95732500D01*
X170180000Y-95732500D02*
X168656000Y-95732500D01*
X165735000Y-93945000D02*
X165735000Y-94996000D01*
X166471500Y-95732500D02*
X168656000Y-95732500D01*
X165735000Y-94996000D02*
X166471500Y-95732500D01*
%TD*%
%TO.N,GND*%
G36*
X175743000Y-109830000D02*
G01*
X144170000Y-109830000D01*
X144170000Y-106230495D01*
X170735000Y-106230495D01*
X170735000Y-106621505D01*
X170811282Y-107005003D01*
X170960915Y-107366250D01*
X171178149Y-107691364D01*
X171454636Y-107967851D01*
X171779750Y-108185085D01*
X172140997Y-108334718D01*
X172524495Y-108411000D01*
X172915505Y-108411000D01*
X173299003Y-108334718D01*
X173660250Y-108185085D01*
X173985364Y-107967851D01*
X174261851Y-107691364D01*
X174479085Y-107366250D01*
X174628718Y-107005003D01*
X174705000Y-106621505D01*
X174705000Y-106230495D01*
X174628718Y-105846997D01*
X174479085Y-105485750D01*
X174261851Y-105160636D01*
X173985364Y-104884149D01*
X173660250Y-104666915D01*
X173299003Y-104517282D01*
X172915505Y-104441000D01*
X172524495Y-104441000D01*
X172140997Y-104517282D01*
X171779750Y-104666915D01*
X171454636Y-104884149D01*
X171178149Y-105160636D01*
X170960915Y-105485750D01*
X170811282Y-105846997D01*
X170735000Y-106230495D01*
X144170000Y-106230495D01*
X144170000Y-97155000D01*
X151761314Y-97155000D01*
X151765000Y-97192423D01*
X151765001Y-102324567D01*
X151761314Y-102362000D01*
X151776027Y-102511378D01*
X151819599Y-102655015D01*
X151890355Y-102787392D01*
X151961721Y-102874351D01*
X151985579Y-102903422D01*
X152014649Y-102927279D01*
X152850721Y-103763351D01*
X152874578Y-103792422D01*
X152903648Y-103816279D01*
X152990607Y-103887645D01*
X153061364Y-103925465D01*
X153122985Y-103958402D01*
X153266622Y-104001974D01*
X153378574Y-104013000D01*
X153378577Y-104013000D01*
X153416000Y-104016686D01*
X153453423Y-104013000D01*
X165062577Y-104013000D01*
X165100000Y-104016686D01*
X165137423Y-104013000D01*
X165137426Y-104013000D01*
X165249378Y-104001974D01*
X165393015Y-103958402D01*
X165525392Y-103887645D01*
X165641422Y-103792422D01*
X165665284Y-103763346D01*
X165777630Y-103651000D01*
X165836939Y-103651000D01*
X166036898Y-103611226D01*
X166225256Y-103533205D01*
X166394774Y-103419937D01*
X166538937Y-103275774D01*
X166652205Y-103106256D01*
X166730226Y-102917898D01*
X166770000Y-102717939D01*
X166770000Y-102514061D01*
X166730226Y-102314102D01*
X166682963Y-102200001D01*
X167891576Y-102200001D01*
X167928999Y-102203687D01*
X167966422Y-102200001D01*
X167966425Y-102200001D01*
X168078377Y-102188975D01*
X168222014Y-102145403D01*
X168354391Y-102074646D01*
X168470421Y-101979423D01*
X168494283Y-101950347D01*
X169168346Y-101276284D01*
X169197422Y-101252422D01*
X169257857Y-101178781D01*
X169292645Y-101136393D01*
X169363401Y-101004016D01*
X169363402Y-101004015D01*
X169406974Y-100860378D01*
X169418000Y-100748426D01*
X169418000Y-100748423D01*
X169421686Y-100711000D01*
X169418000Y-100673577D01*
X169418000Y-98311614D01*
X169460820Y-98334502D01*
X169580518Y-98370812D01*
X169705000Y-98383072D01*
X169894250Y-98380000D01*
X170053000Y-98221250D01*
X170053000Y-97434500D01*
X170307000Y-97434500D01*
X170307000Y-98221250D01*
X170465750Y-98380000D01*
X170655000Y-98383072D01*
X170779482Y-98370812D01*
X170899180Y-98334502D01*
X171009494Y-98275537D01*
X171106185Y-98196185D01*
X171185537Y-98099494D01*
X171244502Y-97989180D01*
X171280812Y-97869482D01*
X171293072Y-97745000D01*
X171290000Y-97593250D01*
X171131250Y-97434500D01*
X170307000Y-97434500D01*
X170053000Y-97434500D01*
X170033000Y-97434500D01*
X170033000Y-97180500D01*
X170053000Y-97180500D01*
X170053000Y-97160500D01*
X170307000Y-97160500D01*
X170307000Y-97180500D01*
X171131250Y-97180500D01*
X171290000Y-97021750D01*
X171293072Y-96870000D01*
X171280812Y-96745518D01*
X171244502Y-96625820D01*
X171185537Y-96515506D01*
X171130900Y-96448930D01*
X171148671Y-96427275D01*
X171227850Y-96279142D01*
X171276608Y-96118408D01*
X171293072Y-95951250D01*
X171293072Y-95513750D01*
X171276608Y-95346592D01*
X171227850Y-95185858D01*
X171148671Y-95037725D01*
X171042115Y-94907885D01*
X170912275Y-94801329D01*
X170764142Y-94722150D01*
X170603408Y-94673392D01*
X170436250Y-94656928D01*
X169923750Y-94656928D01*
X169756592Y-94673392D01*
X169595858Y-94722150D01*
X169447725Y-94801329D01*
X169418000Y-94825723D01*
X169388275Y-94801329D01*
X169240142Y-94722150D01*
X169079408Y-94673392D01*
X168912250Y-94656928D01*
X168399750Y-94656928D01*
X168232592Y-94673392D01*
X168071858Y-94722150D01*
X167930493Y-94797711D01*
X167943072Y-94670000D01*
X167943072Y-93220000D01*
X167927929Y-93066255D01*
X167883084Y-92918418D01*
X167810258Y-92782171D01*
X167712251Y-92662749D01*
X167592829Y-92564742D01*
X167456582Y-92491916D01*
X167308745Y-92447071D01*
X167155000Y-92431928D01*
X166855000Y-92431928D01*
X166701255Y-92447071D01*
X166553418Y-92491916D01*
X166417171Y-92564742D01*
X166370000Y-92603454D01*
X166322829Y-92564742D01*
X166186582Y-92491916D01*
X166038745Y-92447071D01*
X165885000Y-92431928D01*
X165585000Y-92431928D01*
X165431255Y-92447071D01*
X165283418Y-92491916D01*
X165147171Y-92564742D01*
X165100000Y-92603454D01*
X165052829Y-92564742D01*
X164916582Y-92491916D01*
X164768745Y-92447071D01*
X164615000Y-92431928D01*
X164315000Y-92431928D01*
X164161255Y-92447071D01*
X164013418Y-92491916D01*
X163877171Y-92564742D01*
X163830000Y-92603454D01*
X163782829Y-92564742D01*
X163646582Y-92491916D01*
X163498745Y-92447071D01*
X163345000Y-92431928D01*
X163045000Y-92431928D01*
X162891255Y-92447071D01*
X162743418Y-92491916D01*
X162607171Y-92564742D01*
X162487749Y-92662749D01*
X162389742Y-92782171D01*
X162316916Y-92918418D01*
X162272071Y-93066255D01*
X162260572Y-93183000D01*
X156936072Y-93183000D01*
X156936072Y-92749000D01*
X156923812Y-92624518D01*
X156887502Y-92504820D01*
X156828537Y-92394506D01*
X156749185Y-92297815D01*
X156652494Y-92218463D01*
X156542180Y-92159498D01*
X156422482Y-92123188D01*
X156298000Y-92110928D01*
X154598000Y-92110928D01*
X154473518Y-92123188D01*
X154353820Y-92159498D01*
X154243506Y-92218463D01*
X154146815Y-92297815D01*
X154067463Y-92394506D01*
X154008498Y-92504820D01*
X153972188Y-92624518D01*
X153959928Y-92749000D01*
X153959928Y-94449000D01*
X153972188Y-94573482D01*
X154008498Y-94693180D01*
X154067463Y-94803494D01*
X154146815Y-94900185D01*
X154243506Y-94979537D01*
X154353820Y-95038502D01*
X154426380Y-95060513D01*
X154294525Y-95192368D01*
X154171158Y-95377000D01*
X153580423Y-95377000D01*
X153543000Y-95373314D01*
X153505577Y-95377000D01*
X153505574Y-95377000D01*
X153393622Y-95388026D01*
X153249985Y-95431598D01*
X153200456Y-95458072D01*
X153117607Y-95502355D01*
X153034904Y-95570228D01*
X153001578Y-95597578D01*
X152977721Y-95626649D01*
X152014654Y-96589716D01*
X151985578Y-96613578D01*
X151938573Y-96670855D01*
X151890355Y-96729608D01*
X151852535Y-96800365D01*
X151819598Y-96861986D01*
X151776026Y-97005623D01*
X151769203Y-97074901D01*
X151761314Y-97155000D01*
X144170000Y-97155000D01*
X144170000Y-86926495D01*
X147367000Y-86926495D01*
X147367000Y-87317505D01*
X147443282Y-87701003D01*
X147592915Y-88062250D01*
X147810149Y-88387364D01*
X148086636Y-88663851D01*
X148411750Y-88881085D01*
X148772997Y-89030718D01*
X149156495Y-89107000D01*
X149547505Y-89107000D01*
X149931003Y-89030718D01*
X150292250Y-88881085D01*
X150617364Y-88663851D01*
X150893851Y-88387364D01*
X151111085Y-88062250D01*
X151260718Y-87701003D01*
X151337000Y-87317505D01*
X151337000Y-86926495D01*
X151260718Y-86542997D01*
X151111085Y-86181750D01*
X150893851Y-85856636D01*
X150617364Y-85580149D01*
X150292250Y-85362915D01*
X149931003Y-85213282D01*
X149547505Y-85137000D01*
X149156495Y-85137000D01*
X148772997Y-85213282D01*
X148411750Y-85362915D01*
X148086636Y-85580149D01*
X147810149Y-85856636D01*
X147592915Y-86181750D01*
X147443282Y-86542997D01*
X147367000Y-86926495D01*
X144170000Y-86926495D01*
X144170000Y-84480000D01*
X175743001Y-84480000D01*
X175743000Y-109830000D01*
G37*
X175743000Y-109830000D02*
X144170000Y-109830000D01*
X144170000Y-106230495D01*
X170735000Y-106230495D01*
X170735000Y-106621505D01*
X170811282Y-107005003D01*
X170960915Y-107366250D01*
X171178149Y-107691364D01*
X171454636Y-107967851D01*
X171779750Y-108185085D01*
X172140997Y-108334718D01*
X172524495Y-108411000D01*
X172915505Y-108411000D01*
X173299003Y-108334718D01*
X173660250Y-108185085D01*
X173985364Y-107967851D01*
X174261851Y-107691364D01*
X174479085Y-107366250D01*
X174628718Y-107005003D01*
X174705000Y-106621505D01*
X174705000Y-106230495D01*
X174628718Y-105846997D01*
X174479085Y-105485750D01*
X174261851Y-105160636D01*
X173985364Y-104884149D01*
X173660250Y-104666915D01*
X173299003Y-104517282D01*
X172915505Y-104441000D01*
X172524495Y-104441000D01*
X172140997Y-104517282D01*
X171779750Y-104666915D01*
X171454636Y-104884149D01*
X171178149Y-105160636D01*
X170960915Y-105485750D01*
X170811282Y-105846997D01*
X170735000Y-106230495D01*
X144170000Y-106230495D01*
X144170000Y-97155000D01*
X151761314Y-97155000D01*
X151765000Y-97192423D01*
X151765001Y-102324567D01*
X151761314Y-102362000D01*
X151776027Y-102511378D01*
X151819599Y-102655015D01*
X151890355Y-102787392D01*
X151961721Y-102874351D01*
X151985579Y-102903422D01*
X152014649Y-102927279D01*
X152850721Y-103763351D01*
X152874578Y-103792422D01*
X152903648Y-103816279D01*
X152990607Y-103887645D01*
X153061364Y-103925465D01*
X153122985Y-103958402D01*
X153266622Y-104001974D01*
X153378574Y-104013000D01*
X153378577Y-104013000D01*
X153416000Y-104016686D01*
X153453423Y-104013000D01*
X165062577Y-104013000D01*
X165100000Y-104016686D01*
X165137423Y-104013000D01*
X165137426Y-104013000D01*
X165249378Y-104001974D01*
X165393015Y-103958402D01*
X165525392Y-103887645D01*
X165641422Y-103792422D01*
X165665284Y-103763346D01*
X165777630Y-103651000D01*
X165836939Y-103651000D01*
X166036898Y-103611226D01*
X166225256Y-103533205D01*
X166394774Y-103419937D01*
X166538937Y-103275774D01*
X166652205Y-103106256D01*
X166730226Y-102917898D01*
X166770000Y-102717939D01*
X166770000Y-102514061D01*
X166730226Y-102314102D01*
X166682963Y-102200001D01*
X167891576Y-102200001D01*
X167928999Y-102203687D01*
X167966422Y-102200001D01*
X167966425Y-102200001D01*
X168078377Y-102188975D01*
X168222014Y-102145403D01*
X168354391Y-102074646D01*
X168470421Y-101979423D01*
X168494283Y-101950347D01*
X169168346Y-101276284D01*
X169197422Y-101252422D01*
X169257857Y-101178781D01*
X169292645Y-101136393D01*
X169363401Y-101004016D01*
X169363402Y-101004015D01*
X169406974Y-100860378D01*
X169418000Y-100748426D01*
X169418000Y-100748423D01*
X169421686Y-100711000D01*
X169418000Y-100673577D01*
X169418000Y-98311614D01*
X169460820Y-98334502D01*
X169580518Y-98370812D01*
X169705000Y-98383072D01*
X169894250Y-98380000D01*
X170053000Y-98221250D01*
X170053000Y-97434500D01*
X170307000Y-97434500D01*
X170307000Y-98221250D01*
X170465750Y-98380000D01*
X170655000Y-98383072D01*
X170779482Y-98370812D01*
X170899180Y-98334502D01*
X171009494Y-98275537D01*
X171106185Y-98196185D01*
X171185537Y-98099494D01*
X171244502Y-97989180D01*
X171280812Y-97869482D01*
X171293072Y-97745000D01*
X171290000Y-97593250D01*
X171131250Y-97434500D01*
X170307000Y-97434500D01*
X170053000Y-97434500D01*
X170033000Y-97434500D01*
X170033000Y-97180500D01*
X170053000Y-97180500D01*
X170053000Y-97160500D01*
X170307000Y-97160500D01*
X170307000Y-97180500D01*
X171131250Y-97180500D01*
X171290000Y-97021750D01*
X171293072Y-96870000D01*
X171280812Y-96745518D01*
X171244502Y-96625820D01*
X171185537Y-96515506D01*
X171130900Y-96448930D01*
X171148671Y-96427275D01*
X171227850Y-96279142D01*
X171276608Y-96118408D01*
X171293072Y-95951250D01*
X171293072Y-95513750D01*
X171276608Y-95346592D01*
X171227850Y-95185858D01*
X171148671Y-95037725D01*
X171042115Y-94907885D01*
X170912275Y-94801329D01*
X170764142Y-94722150D01*
X170603408Y-94673392D01*
X170436250Y-94656928D01*
X169923750Y-94656928D01*
X169756592Y-94673392D01*
X169595858Y-94722150D01*
X169447725Y-94801329D01*
X169418000Y-94825723D01*
X169388275Y-94801329D01*
X169240142Y-94722150D01*
X169079408Y-94673392D01*
X168912250Y-94656928D01*
X168399750Y-94656928D01*
X168232592Y-94673392D01*
X168071858Y-94722150D01*
X167930493Y-94797711D01*
X167943072Y-94670000D01*
X167943072Y-93220000D01*
X167927929Y-93066255D01*
X167883084Y-92918418D01*
X167810258Y-92782171D01*
X167712251Y-92662749D01*
X167592829Y-92564742D01*
X167456582Y-92491916D01*
X167308745Y-92447071D01*
X167155000Y-92431928D01*
X166855000Y-92431928D01*
X166701255Y-92447071D01*
X166553418Y-92491916D01*
X166417171Y-92564742D01*
X166370000Y-92603454D01*
X166322829Y-92564742D01*
X166186582Y-92491916D01*
X166038745Y-92447071D01*
X165885000Y-92431928D01*
X165585000Y-92431928D01*
X165431255Y-92447071D01*
X165283418Y-92491916D01*
X165147171Y-92564742D01*
X165100000Y-92603454D01*
X165052829Y-92564742D01*
X164916582Y-92491916D01*
X164768745Y-92447071D01*
X164615000Y-92431928D01*
X164315000Y-92431928D01*
X164161255Y-92447071D01*
X164013418Y-92491916D01*
X163877171Y-92564742D01*
X163830000Y-92603454D01*
X163782829Y-92564742D01*
X163646582Y-92491916D01*
X163498745Y-92447071D01*
X163345000Y-92431928D01*
X163045000Y-92431928D01*
X162891255Y-92447071D01*
X162743418Y-92491916D01*
X162607171Y-92564742D01*
X162487749Y-92662749D01*
X162389742Y-92782171D01*
X162316916Y-92918418D01*
X162272071Y-93066255D01*
X162260572Y-93183000D01*
X156936072Y-93183000D01*
X156936072Y-92749000D01*
X156923812Y-92624518D01*
X156887502Y-92504820D01*
X156828537Y-92394506D01*
X156749185Y-92297815D01*
X156652494Y-92218463D01*
X156542180Y-92159498D01*
X156422482Y-92123188D01*
X156298000Y-92110928D01*
X154598000Y-92110928D01*
X154473518Y-92123188D01*
X154353820Y-92159498D01*
X154243506Y-92218463D01*
X154146815Y-92297815D01*
X154067463Y-92394506D01*
X154008498Y-92504820D01*
X153972188Y-92624518D01*
X153959928Y-92749000D01*
X153959928Y-94449000D01*
X153972188Y-94573482D01*
X154008498Y-94693180D01*
X154067463Y-94803494D01*
X154146815Y-94900185D01*
X154243506Y-94979537D01*
X154353820Y-95038502D01*
X154426380Y-95060513D01*
X154294525Y-95192368D01*
X154171158Y-95377000D01*
X153580423Y-95377000D01*
X153543000Y-95373314D01*
X153505577Y-95377000D01*
X153505574Y-95377000D01*
X153393622Y-95388026D01*
X153249985Y-95431598D01*
X153200456Y-95458072D01*
X153117607Y-95502355D01*
X153034904Y-95570228D01*
X153001578Y-95597578D01*
X152977721Y-95626649D01*
X152014654Y-96589716D01*
X151985578Y-96613578D01*
X151938573Y-96670855D01*
X151890355Y-96729608D01*
X151852535Y-96800365D01*
X151819598Y-96861986D01*
X151776026Y-97005623D01*
X151769203Y-97074901D01*
X151761314Y-97155000D01*
X144170000Y-97155000D01*
X144170000Y-86926495D01*
X147367000Y-86926495D01*
X147367000Y-87317505D01*
X147443282Y-87701003D01*
X147592915Y-88062250D01*
X147810149Y-88387364D01*
X148086636Y-88663851D01*
X148411750Y-88881085D01*
X148772997Y-89030718D01*
X149156495Y-89107000D01*
X149547505Y-89107000D01*
X149931003Y-89030718D01*
X150292250Y-88881085D01*
X150617364Y-88663851D01*
X150893851Y-88387364D01*
X151111085Y-88062250D01*
X151260718Y-87701003D01*
X151337000Y-87317505D01*
X151337000Y-86926495D01*
X151260718Y-86542997D01*
X151111085Y-86181750D01*
X150893851Y-85856636D01*
X150617364Y-85580149D01*
X150292250Y-85362915D01*
X149931003Y-85213282D01*
X149547505Y-85137000D01*
X149156495Y-85137000D01*
X148772997Y-85213282D01*
X148411750Y-85362915D01*
X148086636Y-85580149D01*
X147810149Y-85856636D01*
X147592915Y-86181750D01*
X147443282Y-86542997D01*
X147367000Y-86926495D01*
X144170000Y-86926495D01*
X144170000Y-84480000D01*
X175743001Y-84480000D01*
X175743000Y-109830000D01*
G36*
X162272071Y-94823745D02*
G01*
X162316916Y-94971582D01*
X162389742Y-95107829D01*
X162487749Y-95227251D01*
X162607171Y-95325258D01*
X162743418Y-95398084D01*
X162891255Y-95442929D01*
X163045000Y-95458072D01*
X163345000Y-95458072D01*
X163498745Y-95442929D01*
X163646582Y-95398084D01*
X163703001Y-95367927D01*
X163703001Y-95569369D01*
X163666870Y-95605500D01*
X162457501Y-95605500D01*
X162406115Y-95542885D01*
X162276275Y-95436329D01*
X162128142Y-95357150D01*
X161967408Y-95308392D01*
X161800250Y-95291928D01*
X161287750Y-95291928D01*
X161120592Y-95308392D01*
X160959858Y-95357150D01*
X160811725Y-95436329D01*
X160782000Y-95460723D01*
X160752275Y-95436329D01*
X160604142Y-95357150D01*
X160443408Y-95308392D01*
X160276250Y-95291928D01*
X159763750Y-95291928D01*
X159596592Y-95308392D01*
X159435858Y-95357150D01*
X159287725Y-95436329D01*
X159258000Y-95460723D01*
X159228275Y-95436329D01*
X159080142Y-95357150D01*
X158919408Y-95308392D01*
X158752250Y-95291928D01*
X158239750Y-95291928D01*
X158072592Y-95308392D01*
X157911858Y-95357150D01*
X157763725Y-95436329D01*
X157633885Y-95542885D01*
X157527329Y-95672725D01*
X157448150Y-95820858D01*
X157399392Y-95981592D01*
X157382928Y-96148750D01*
X157382928Y-96586250D01*
X157399392Y-96753408D01*
X157448150Y-96914142D01*
X157527329Y-97062275D01*
X157545100Y-97083930D01*
X157490463Y-97150506D01*
X157431498Y-97260820D01*
X157395188Y-97380518D01*
X157382928Y-97505000D01*
X157386000Y-97656750D01*
X157544750Y-97815500D01*
X158369000Y-97815500D01*
X158369000Y-97795500D01*
X158623000Y-97795500D01*
X158623000Y-97815500D01*
X159893000Y-97815500D01*
X159893000Y-97795500D01*
X160147000Y-97795500D01*
X160147000Y-97815500D01*
X160167000Y-97815500D01*
X160167000Y-98069500D01*
X160147000Y-98069500D01*
X160147000Y-98856250D01*
X160305750Y-99015000D01*
X160451103Y-99017359D01*
X160447392Y-99029592D01*
X160430928Y-99196750D01*
X160430928Y-99634250D01*
X160447392Y-99801408D01*
X160496150Y-99962142D01*
X160575329Y-100110275D01*
X160651426Y-100203000D01*
X160630499Y-100228500D01*
X156557607Y-100228500D01*
X156394632Y-100065525D01*
X156212466Y-99943805D01*
X156329355Y-99874178D01*
X156545588Y-99679269D01*
X156719641Y-99445920D01*
X156844825Y-99183099D01*
X156889476Y-99035890D01*
X156768155Y-98806000D01*
X155575000Y-98806000D01*
X155575000Y-98826000D01*
X155321000Y-98826000D01*
X155321000Y-98806000D01*
X154127845Y-98806000D01*
X154006524Y-99035890D01*
X154051175Y-99183099D01*
X154176359Y-99445920D01*
X154350412Y-99679269D01*
X154566645Y-99874178D01*
X154683534Y-99943805D01*
X154501368Y-100065525D01*
X154294525Y-100272368D01*
X154132010Y-100515589D01*
X154020068Y-100785842D01*
X153963000Y-101072740D01*
X153963000Y-101365260D01*
X154020068Y-101652158D01*
X154132010Y-101922411D01*
X154294525Y-102165632D01*
X154501368Y-102372475D01*
X154675760Y-102489000D01*
X153731631Y-102489000D01*
X153289000Y-102046370D01*
X153289000Y-97470630D01*
X153858631Y-96901000D01*
X154171158Y-96901000D01*
X154294525Y-97085632D01*
X154501368Y-97292475D01*
X154683534Y-97414195D01*
X154566645Y-97483822D01*
X154350412Y-97678731D01*
X154176359Y-97912080D01*
X154051175Y-98174901D01*
X154006524Y-98322110D01*
X154127845Y-98552000D01*
X155321000Y-98552000D01*
X155321000Y-98532000D01*
X155575000Y-98532000D01*
X155575000Y-98552000D01*
X156768155Y-98552000D01*
X156858925Y-98380000D01*
X157382928Y-98380000D01*
X157395188Y-98504482D01*
X157431498Y-98624180D01*
X157490463Y-98734494D01*
X157569815Y-98831185D01*
X157666506Y-98910537D01*
X157776820Y-98969502D01*
X157896518Y-99005812D01*
X158021000Y-99018072D01*
X158210250Y-99015000D01*
X158369000Y-98856250D01*
X158369000Y-98069500D01*
X158623000Y-98069500D01*
X158623000Y-98856250D01*
X158781750Y-99015000D01*
X158971000Y-99018072D01*
X159095482Y-99005812D01*
X159215180Y-98969502D01*
X159258000Y-98946614D01*
X159300820Y-98969502D01*
X159420518Y-99005812D01*
X159545000Y-99018072D01*
X159734250Y-99015000D01*
X159893000Y-98856250D01*
X159893000Y-98069500D01*
X158623000Y-98069500D01*
X158369000Y-98069500D01*
X157544750Y-98069500D01*
X157386000Y-98228250D01*
X157382928Y-98380000D01*
X156858925Y-98380000D01*
X156889476Y-98322110D01*
X156844825Y-98174901D01*
X156719641Y-97912080D01*
X156545588Y-97678731D01*
X156329355Y-97483822D01*
X156212466Y-97414195D01*
X156394632Y-97292475D01*
X156601475Y-97085632D01*
X156763990Y-96842411D01*
X156875932Y-96572158D01*
X156933000Y-96285260D01*
X156933000Y-95992740D01*
X156875932Y-95705842D01*
X156763990Y-95435589D01*
X156601475Y-95192368D01*
X156469620Y-95060513D01*
X156542180Y-95038502D01*
X156652494Y-94979537D01*
X156749185Y-94900185D01*
X156828537Y-94803494D01*
X156880115Y-94707000D01*
X162260572Y-94707000D01*
X162272071Y-94823745D01*
G37*
X162272071Y-94823745D02*
X162316916Y-94971582D01*
X162389742Y-95107829D01*
X162487749Y-95227251D01*
X162607171Y-95325258D01*
X162743418Y-95398084D01*
X162891255Y-95442929D01*
X163045000Y-95458072D01*
X163345000Y-95458072D01*
X163498745Y-95442929D01*
X163646582Y-95398084D01*
X163703001Y-95367927D01*
X163703001Y-95569369D01*
X163666870Y-95605500D01*
X162457501Y-95605500D01*
X162406115Y-95542885D01*
X162276275Y-95436329D01*
X162128142Y-95357150D01*
X161967408Y-95308392D01*
X161800250Y-95291928D01*
X161287750Y-95291928D01*
X161120592Y-95308392D01*
X160959858Y-95357150D01*
X160811725Y-95436329D01*
X160782000Y-95460723D01*
X160752275Y-95436329D01*
X160604142Y-95357150D01*
X160443408Y-95308392D01*
X160276250Y-95291928D01*
X159763750Y-95291928D01*
X159596592Y-95308392D01*
X159435858Y-95357150D01*
X159287725Y-95436329D01*
X159258000Y-95460723D01*
X159228275Y-95436329D01*
X159080142Y-95357150D01*
X158919408Y-95308392D01*
X158752250Y-95291928D01*
X158239750Y-95291928D01*
X158072592Y-95308392D01*
X157911858Y-95357150D01*
X157763725Y-95436329D01*
X157633885Y-95542885D01*
X157527329Y-95672725D01*
X157448150Y-95820858D01*
X157399392Y-95981592D01*
X157382928Y-96148750D01*
X157382928Y-96586250D01*
X157399392Y-96753408D01*
X157448150Y-96914142D01*
X157527329Y-97062275D01*
X157545100Y-97083930D01*
X157490463Y-97150506D01*
X157431498Y-97260820D01*
X157395188Y-97380518D01*
X157382928Y-97505000D01*
X157386000Y-97656750D01*
X157544750Y-97815500D01*
X158369000Y-97815500D01*
X158369000Y-97795500D01*
X158623000Y-97795500D01*
X158623000Y-97815500D01*
X159893000Y-97815500D01*
X159893000Y-97795500D01*
X160147000Y-97795500D01*
X160147000Y-97815500D01*
X160167000Y-97815500D01*
X160167000Y-98069500D01*
X160147000Y-98069500D01*
X160147000Y-98856250D01*
X160305750Y-99015000D01*
X160451103Y-99017359D01*
X160447392Y-99029592D01*
X160430928Y-99196750D01*
X160430928Y-99634250D01*
X160447392Y-99801408D01*
X160496150Y-99962142D01*
X160575329Y-100110275D01*
X160651426Y-100203000D01*
X160630499Y-100228500D01*
X156557607Y-100228500D01*
X156394632Y-100065525D01*
X156212466Y-99943805D01*
X156329355Y-99874178D01*
X156545588Y-99679269D01*
X156719641Y-99445920D01*
X156844825Y-99183099D01*
X156889476Y-99035890D01*
X156768155Y-98806000D01*
X155575000Y-98806000D01*
X155575000Y-98826000D01*
X155321000Y-98826000D01*
X155321000Y-98806000D01*
X154127845Y-98806000D01*
X154006524Y-99035890D01*
X154051175Y-99183099D01*
X154176359Y-99445920D01*
X154350412Y-99679269D01*
X154566645Y-99874178D01*
X154683534Y-99943805D01*
X154501368Y-100065525D01*
X154294525Y-100272368D01*
X154132010Y-100515589D01*
X154020068Y-100785842D01*
X153963000Y-101072740D01*
X153963000Y-101365260D01*
X154020068Y-101652158D01*
X154132010Y-101922411D01*
X154294525Y-102165632D01*
X154501368Y-102372475D01*
X154675760Y-102489000D01*
X153731631Y-102489000D01*
X153289000Y-102046370D01*
X153289000Y-97470630D01*
X153858631Y-96901000D01*
X154171158Y-96901000D01*
X154294525Y-97085632D01*
X154501368Y-97292475D01*
X154683534Y-97414195D01*
X154566645Y-97483822D01*
X154350412Y-97678731D01*
X154176359Y-97912080D01*
X154051175Y-98174901D01*
X154006524Y-98322110D01*
X154127845Y-98552000D01*
X155321000Y-98552000D01*
X155321000Y-98532000D01*
X155575000Y-98532000D01*
X155575000Y-98552000D01*
X156768155Y-98552000D01*
X156858925Y-98380000D01*
X157382928Y-98380000D01*
X157395188Y-98504482D01*
X157431498Y-98624180D01*
X157490463Y-98734494D01*
X157569815Y-98831185D01*
X157666506Y-98910537D01*
X157776820Y-98969502D01*
X157896518Y-99005812D01*
X158021000Y-99018072D01*
X158210250Y-99015000D01*
X158369000Y-98856250D01*
X158369000Y-98069500D01*
X158623000Y-98069500D01*
X158623000Y-98856250D01*
X158781750Y-99015000D01*
X158971000Y-99018072D01*
X159095482Y-99005812D01*
X159215180Y-98969502D01*
X159258000Y-98946614D01*
X159300820Y-98969502D01*
X159420518Y-99005812D01*
X159545000Y-99018072D01*
X159734250Y-99015000D01*
X159893000Y-98856250D01*
X159893000Y-98069500D01*
X158623000Y-98069500D01*
X158369000Y-98069500D01*
X157544750Y-98069500D01*
X157386000Y-98228250D01*
X157382928Y-98380000D01*
X156858925Y-98380000D01*
X156889476Y-98322110D01*
X156844825Y-98174901D01*
X156719641Y-97912080D01*
X156545588Y-97678731D01*
X156329355Y-97483822D01*
X156212466Y-97414195D01*
X156394632Y-97292475D01*
X156601475Y-97085632D01*
X156763990Y-96842411D01*
X156875932Y-96572158D01*
X156933000Y-96285260D01*
X156933000Y-95992740D01*
X156875932Y-95705842D01*
X156763990Y-95435589D01*
X156601475Y-95192368D01*
X156469620Y-95060513D01*
X156542180Y-95038502D01*
X156652494Y-94979537D01*
X156749185Y-94900185D01*
X156828537Y-94803494D01*
X156880115Y-94707000D01*
X162260572Y-94707000D01*
X162272071Y-94823745D01*
%TD*%
M02*
