%TF.GenerationSoftware,KiCad,Pcbnew,5.1.6-c6e7f7d~87~ubuntu18.04.1*%
%TF.CreationDate,2021-12-08T10:02:53-08:00*%
%TF.ProjectId,wien-bridge-oscillator,7769656e-2d62-4726-9964-67652d6f7363,rev?*%
%TF.SameCoordinates,Original*%
%TF.FileFunction,Copper,L2,Bot*%
%TF.FilePolarity,Positive*%
%FSLAX46Y46*%
G04 Gerber Fmt 4.6, Leading zero omitted, Abs format (unit mm)*
G04 Created by KiCad (PCBNEW 5.1.6-c6e7f7d~87~ubuntu18.04.1) date 2021-12-08 10:02:53*
%MOMM*%
%LPD*%
G01*
G04 APERTURE LIST*
%TA.AperFunction,ComponentPad*%
%ADD10O,1.700000X1.700000*%
%TD*%
%TA.AperFunction,ComponentPad*%
%ADD11R,1.700000X1.700000*%
%TD*%
%TA.AperFunction,ViaPad*%
%ADD12C,0.800000*%
%TD*%
%TA.AperFunction,Conductor*%
%ADD13C,0.254000*%
%TD*%
G04 APERTURE END LIST*
D10*
%TO.P,J2,4*%
%TO.N,/Vout*%
X155448000Y-101219000D03*
%TO.P,J2,3*%
%TO.N,GND*%
X155448000Y-98679000D03*
%TO.P,J2,2*%
%TO.N,+9V*%
X155448000Y-96139000D03*
D11*
%TO.P,J2,1*%
%TO.N,-9V*%
X155448000Y-93599000D03*
%TD*%
D12*
%TO.N,GND*%
X158496000Y-98806000D03*
X160020000Y-98806000D03*
%TO.N,Net-(U1-Pad8)*%
X167132000Y-98298000D03*
%TO.N,+9V*%
X165735000Y-102616000D03*
X165735000Y-100711000D03*
%TD*%
D13*
%TO.N,+9V*%
X165735000Y-100711000D02*
X165735000Y-102616000D01*
%TD*%
%TO.N,GND*%
G36*
X175743000Y-109830000D02*
G01*
X144170000Y-109830000D01*
X144170000Y-106230495D01*
X170735000Y-106230495D01*
X170735000Y-106621505D01*
X170811282Y-107005003D01*
X170960915Y-107366250D01*
X171178149Y-107691364D01*
X171454636Y-107967851D01*
X171779750Y-108185085D01*
X172140997Y-108334718D01*
X172524495Y-108411000D01*
X172915505Y-108411000D01*
X173299003Y-108334718D01*
X173660250Y-108185085D01*
X173985364Y-107967851D01*
X174261851Y-107691364D01*
X174479085Y-107366250D01*
X174628718Y-107005003D01*
X174705000Y-106621505D01*
X174705000Y-106230495D01*
X174628718Y-105846997D01*
X174479085Y-105485750D01*
X174261851Y-105160636D01*
X173985364Y-104884149D01*
X173660250Y-104666915D01*
X173299003Y-104517282D01*
X172915505Y-104441000D01*
X172524495Y-104441000D01*
X172140997Y-104517282D01*
X171779750Y-104666915D01*
X171454636Y-104884149D01*
X171178149Y-105160636D01*
X170960915Y-105485750D01*
X170811282Y-105846997D01*
X170735000Y-106230495D01*
X144170000Y-106230495D01*
X144170000Y-101072740D01*
X153963000Y-101072740D01*
X153963000Y-101365260D01*
X154020068Y-101652158D01*
X154132010Y-101922411D01*
X154294525Y-102165632D01*
X154501368Y-102372475D01*
X154744589Y-102534990D01*
X155014842Y-102646932D01*
X155301740Y-102704000D01*
X155594260Y-102704000D01*
X155881158Y-102646932D01*
X156151411Y-102534990D01*
X156394632Y-102372475D01*
X156601475Y-102165632D01*
X156763990Y-101922411D01*
X156875932Y-101652158D01*
X156933000Y-101365260D01*
X156933000Y-101072740D01*
X156875932Y-100785842D01*
X156802708Y-100609061D01*
X164700000Y-100609061D01*
X164700000Y-100812939D01*
X164739774Y-101012898D01*
X164817795Y-101201256D01*
X164931063Y-101370774D01*
X164973000Y-101412711D01*
X164973001Y-101914288D01*
X164931063Y-101956226D01*
X164817795Y-102125744D01*
X164739774Y-102314102D01*
X164700000Y-102514061D01*
X164700000Y-102717939D01*
X164739774Y-102917898D01*
X164817795Y-103106256D01*
X164931063Y-103275774D01*
X165075226Y-103419937D01*
X165244744Y-103533205D01*
X165433102Y-103611226D01*
X165633061Y-103651000D01*
X165836939Y-103651000D01*
X166036898Y-103611226D01*
X166225256Y-103533205D01*
X166394774Y-103419937D01*
X166538937Y-103275774D01*
X166652205Y-103106256D01*
X166730226Y-102917898D01*
X166770000Y-102717939D01*
X166770000Y-102514061D01*
X166730226Y-102314102D01*
X166652205Y-102125744D01*
X166538937Y-101956226D01*
X166497000Y-101914289D01*
X166497000Y-101412711D01*
X166538937Y-101370774D01*
X166652205Y-101201256D01*
X166730226Y-101012898D01*
X166770000Y-100812939D01*
X166770000Y-100609061D01*
X166730226Y-100409102D01*
X166652205Y-100220744D01*
X166538937Y-100051226D01*
X166394774Y-99907063D01*
X166225256Y-99793795D01*
X166036898Y-99715774D01*
X165836939Y-99676000D01*
X165633061Y-99676000D01*
X165433102Y-99715774D01*
X165244744Y-99793795D01*
X165075226Y-99907063D01*
X164931063Y-100051226D01*
X164817795Y-100220744D01*
X164739774Y-100409102D01*
X164700000Y-100609061D01*
X156802708Y-100609061D01*
X156763990Y-100515589D01*
X156601475Y-100272368D01*
X156394632Y-100065525D01*
X156212466Y-99943805D01*
X156329355Y-99874178D01*
X156545588Y-99679269D01*
X156719641Y-99445920D01*
X156844825Y-99183099D01*
X156889476Y-99035890D01*
X156768155Y-98806000D01*
X155575000Y-98806000D01*
X155575000Y-98826000D01*
X155321000Y-98826000D01*
X155321000Y-98806000D01*
X154127845Y-98806000D01*
X154006524Y-99035890D01*
X154051175Y-99183099D01*
X154176359Y-99445920D01*
X154350412Y-99679269D01*
X154566645Y-99874178D01*
X154683534Y-99943805D01*
X154501368Y-100065525D01*
X154294525Y-100272368D01*
X154132010Y-100515589D01*
X154020068Y-100785842D01*
X153963000Y-101072740D01*
X144170000Y-101072740D01*
X144170000Y-92749000D01*
X153959928Y-92749000D01*
X153959928Y-94449000D01*
X153972188Y-94573482D01*
X154008498Y-94693180D01*
X154067463Y-94803494D01*
X154146815Y-94900185D01*
X154243506Y-94979537D01*
X154353820Y-95038502D01*
X154426380Y-95060513D01*
X154294525Y-95192368D01*
X154132010Y-95435589D01*
X154020068Y-95705842D01*
X153963000Y-95992740D01*
X153963000Y-96285260D01*
X154020068Y-96572158D01*
X154132010Y-96842411D01*
X154294525Y-97085632D01*
X154501368Y-97292475D01*
X154683534Y-97414195D01*
X154566645Y-97483822D01*
X154350412Y-97678731D01*
X154176359Y-97912080D01*
X154051175Y-98174901D01*
X154006524Y-98322110D01*
X154127845Y-98552000D01*
X155321000Y-98552000D01*
X155321000Y-98532000D01*
X155575000Y-98532000D01*
X155575000Y-98552000D01*
X156768155Y-98552000D01*
X156889476Y-98322110D01*
X156851244Y-98196061D01*
X166097000Y-98196061D01*
X166097000Y-98399939D01*
X166136774Y-98599898D01*
X166214795Y-98788256D01*
X166328063Y-98957774D01*
X166472226Y-99101937D01*
X166641744Y-99215205D01*
X166830102Y-99293226D01*
X167030061Y-99333000D01*
X167233939Y-99333000D01*
X167433898Y-99293226D01*
X167622256Y-99215205D01*
X167791774Y-99101937D01*
X167935937Y-98957774D01*
X168049205Y-98788256D01*
X168127226Y-98599898D01*
X168167000Y-98399939D01*
X168167000Y-98196061D01*
X168127226Y-97996102D01*
X168049205Y-97807744D01*
X167935937Y-97638226D01*
X167791774Y-97494063D01*
X167622256Y-97380795D01*
X167433898Y-97302774D01*
X167233939Y-97263000D01*
X167030061Y-97263000D01*
X166830102Y-97302774D01*
X166641744Y-97380795D01*
X166472226Y-97494063D01*
X166328063Y-97638226D01*
X166214795Y-97807744D01*
X166136774Y-97996102D01*
X166097000Y-98196061D01*
X156851244Y-98196061D01*
X156844825Y-98174901D01*
X156719641Y-97912080D01*
X156545588Y-97678731D01*
X156329355Y-97483822D01*
X156212466Y-97414195D01*
X156394632Y-97292475D01*
X156601475Y-97085632D01*
X156763990Y-96842411D01*
X156875932Y-96572158D01*
X156933000Y-96285260D01*
X156933000Y-95992740D01*
X156875932Y-95705842D01*
X156763990Y-95435589D01*
X156601475Y-95192368D01*
X156469620Y-95060513D01*
X156542180Y-95038502D01*
X156652494Y-94979537D01*
X156749185Y-94900185D01*
X156828537Y-94803494D01*
X156887502Y-94693180D01*
X156923812Y-94573482D01*
X156936072Y-94449000D01*
X156936072Y-92749000D01*
X156923812Y-92624518D01*
X156887502Y-92504820D01*
X156828537Y-92394506D01*
X156749185Y-92297815D01*
X156652494Y-92218463D01*
X156542180Y-92159498D01*
X156422482Y-92123188D01*
X156298000Y-92110928D01*
X154598000Y-92110928D01*
X154473518Y-92123188D01*
X154353820Y-92159498D01*
X154243506Y-92218463D01*
X154146815Y-92297815D01*
X154067463Y-92394506D01*
X154008498Y-92504820D01*
X153972188Y-92624518D01*
X153959928Y-92749000D01*
X144170000Y-92749000D01*
X144170000Y-86926495D01*
X147367000Y-86926495D01*
X147367000Y-87317505D01*
X147443282Y-87701003D01*
X147592915Y-88062250D01*
X147810149Y-88387364D01*
X148086636Y-88663851D01*
X148411750Y-88881085D01*
X148772997Y-89030718D01*
X149156495Y-89107000D01*
X149547505Y-89107000D01*
X149931003Y-89030718D01*
X150292250Y-88881085D01*
X150617364Y-88663851D01*
X150893851Y-88387364D01*
X151111085Y-88062250D01*
X151260718Y-87701003D01*
X151337000Y-87317505D01*
X151337000Y-86926495D01*
X151260718Y-86542997D01*
X151111085Y-86181750D01*
X150893851Y-85856636D01*
X150617364Y-85580149D01*
X150292250Y-85362915D01*
X149931003Y-85213282D01*
X149547505Y-85137000D01*
X149156495Y-85137000D01*
X148772997Y-85213282D01*
X148411750Y-85362915D01*
X148086636Y-85580149D01*
X147810149Y-85856636D01*
X147592915Y-86181750D01*
X147443282Y-86542997D01*
X147367000Y-86926495D01*
X144170000Y-86926495D01*
X144170000Y-84480000D01*
X175743001Y-84480000D01*
X175743000Y-109830000D01*
G37*
X175743000Y-109830000D02*
X144170000Y-109830000D01*
X144170000Y-106230495D01*
X170735000Y-106230495D01*
X170735000Y-106621505D01*
X170811282Y-107005003D01*
X170960915Y-107366250D01*
X171178149Y-107691364D01*
X171454636Y-107967851D01*
X171779750Y-108185085D01*
X172140997Y-108334718D01*
X172524495Y-108411000D01*
X172915505Y-108411000D01*
X173299003Y-108334718D01*
X173660250Y-108185085D01*
X173985364Y-107967851D01*
X174261851Y-107691364D01*
X174479085Y-107366250D01*
X174628718Y-107005003D01*
X174705000Y-106621505D01*
X174705000Y-106230495D01*
X174628718Y-105846997D01*
X174479085Y-105485750D01*
X174261851Y-105160636D01*
X173985364Y-104884149D01*
X173660250Y-104666915D01*
X173299003Y-104517282D01*
X172915505Y-104441000D01*
X172524495Y-104441000D01*
X172140997Y-104517282D01*
X171779750Y-104666915D01*
X171454636Y-104884149D01*
X171178149Y-105160636D01*
X170960915Y-105485750D01*
X170811282Y-105846997D01*
X170735000Y-106230495D01*
X144170000Y-106230495D01*
X144170000Y-101072740D01*
X153963000Y-101072740D01*
X153963000Y-101365260D01*
X154020068Y-101652158D01*
X154132010Y-101922411D01*
X154294525Y-102165632D01*
X154501368Y-102372475D01*
X154744589Y-102534990D01*
X155014842Y-102646932D01*
X155301740Y-102704000D01*
X155594260Y-102704000D01*
X155881158Y-102646932D01*
X156151411Y-102534990D01*
X156394632Y-102372475D01*
X156601475Y-102165632D01*
X156763990Y-101922411D01*
X156875932Y-101652158D01*
X156933000Y-101365260D01*
X156933000Y-101072740D01*
X156875932Y-100785842D01*
X156802708Y-100609061D01*
X164700000Y-100609061D01*
X164700000Y-100812939D01*
X164739774Y-101012898D01*
X164817795Y-101201256D01*
X164931063Y-101370774D01*
X164973000Y-101412711D01*
X164973001Y-101914288D01*
X164931063Y-101956226D01*
X164817795Y-102125744D01*
X164739774Y-102314102D01*
X164700000Y-102514061D01*
X164700000Y-102717939D01*
X164739774Y-102917898D01*
X164817795Y-103106256D01*
X164931063Y-103275774D01*
X165075226Y-103419937D01*
X165244744Y-103533205D01*
X165433102Y-103611226D01*
X165633061Y-103651000D01*
X165836939Y-103651000D01*
X166036898Y-103611226D01*
X166225256Y-103533205D01*
X166394774Y-103419937D01*
X166538937Y-103275774D01*
X166652205Y-103106256D01*
X166730226Y-102917898D01*
X166770000Y-102717939D01*
X166770000Y-102514061D01*
X166730226Y-102314102D01*
X166652205Y-102125744D01*
X166538937Y-101956226D01*
X166497000Y-101914289D01*
X166497000Y-101412711D01*
X166538937Y-101370774D01*
X166652205Y-101201256D01*
X166730226Y-101012898D01*
X166770000Y-100812939D01*
X166770000Y-100609061D01*
X166730226Y-100409102D01*
X166652205Y-100220744D01*
X166538937Y-100051226D01*
X166394774Y-99907063D01*
X166225256Y-99793795D01*
X166036898Y-99715774D01*
X165836939Y-99676000D01*
X165633061Y-99676000D01*
X165433102Y-99715774D01*
X165244744Y-99793795D01*
X165075226Y-99907063D01*
X164931063Y-100051226D01*
X164817795Y-100220744D01*
X164739774Y-100409102D01*
X164700000Y-100609061D01*
X156802708Y-100609061D01*
X156763990Y-100515589D01*
X156601475Y-100272368D01*
X156394632Y-100065525D01*
X156212466Y-99943805D01*
X156329355Y-99874178D01*
X156545588Y-99679269D01*
X156719641Y-99445920D01*
X156844825Y-99183099D01*
X156889476Y-99035890D01*
X156768155Y-98806000D01*
X155575000Y-98806000D01*
X155575000Y-98826000D01*
X155321000Y-98826000D01*
X155321000Y-98806000D01*
X154127845Y-98806000D01*
X154006524Y-99035890D01*
X154051175Y-99183099D01*
X154176359Y-99445920D01*
X154350412Y-99679269D01*
X154566645Y-99874178D01*
X154683534Y-99943805D01*
X154501368Y-100065525D01*
X154294525Y-100272368D01*
X154132010Y-100515589D01*
X154020068Y-100785842D01*
X153963000Y-101072740D01*
X144170000Y-101072740D01*
X144170000Y-92749000D01*
X153959928Y-92749000D01*
X153959928Y-94449000D01*
X153972188Y-94573482D01*
X154008498Y-94693180D01*
X154067463Y-94803494D01*
X154146815Y-94900185D01*
X154243506Y-94979537D01*
X154353820Y-95038502D01*
X154426380Y-95060513D01*
X154294525Y-95192368D01*
X154132010Y-95435589D01*
X154020068Y-95705842D01*
X153963000Y-95992740D01*
X153963000Y-96285260D01*
X154020068Y-96572158D01*
X154132010Y-96842411D01*
X154294525Y-97085632D01*
X154501368Y-97292475D01*
X154683534Y-97414195D01*
X154566645Y-97483822D01*
X154350412Y-97678731D01*
X154176359Y-97912080D01*
X154051175Y-98174901D01*
X154006524Y-98322110D01*
X154127845Y-98552000D01*
X155321000Y-98552000D01*
X155321000Y-98532000D01*
X155575000Y-98532000D01*
X155575000Y-98552000D01*
X156768155Y-98552000D01*
X156889476Y-98322110D01*
X156851244Y-98196061D01*
X166097000Y-98196061D01*
X166097000Y-98399939D01*
X166136774Y-98599898D01*
X166214795Y-98788256D01*
X166328063Y-98957774D01*
X166472226Y-99101937D01*
X166641744Y-99215205D01*
X166830102Y-99293226D01*
X167030061Y-99333000D01*
X167233939Y-99333000D01*
X167433898Y-99293226D01*
X167622256Y-99215205D01*
X167791774Y-99101937D01*
X167935937Y-98957774D01*
X168049205Y-98788256D01*
X168127226Y-98599898D01*
X168167000Y-98399939D01*
X168167000Y-98196061D01*
X168127226Y-97996102D01*
X168049205Y-97807744D01*
X167935937Y-97638226D01*
X167791774Y-97494063D01*
X167622256Y-97380795D01*
X167433898Y-97302774D01*
X167233939Y-97263000D01*
X167030061Y-97263000D01*
X166830102Y-97302774D01*
X166641744Y-97380795D01*
X166472226Y-97494063D01*
X166328063Y-97638226D01*
X166214795Y-97807744D01*
X166136774Y-97996102D01*
X166097000Y-98196061D01*
X156851244Y-98196061D01*
X156844825Y-98174901D01*
X156719641Y-97912080D01*
X156545588Y-97678731D01*
X156329355Y-97483822D01*
X156212466Y-97414195D01*
X156394632Y-97292475D01*
X156601475Y-97085632D01*
X156763990Y-96842411D01*
X156875932Y-96572158D01*
X156933000Y-96285260D01*
X156933000Y-95992740D01*
X156875932Y-95705842D01*
X156763990Y-95435589D01*
X156601475Y-95192368D01*
X156469620Y-95060513D01*
X156542180Y-95038502D01*
X156652494Y-94979537D01*
X156749185Y-94900185D01*
X156828537Y-94803494D01*
X156887502Y-94693180D01*
X156923812Y-94573482D01*
X156936072Y-94449000D01*
X156936072Y-92749000D01*
X156923812Y-92624518D01*
X156887502Y-92504820D01*
X156828537Y-92394506D01*
X156749185Y-92297815D01*
X156652494Y-92218463D01*
X156542180Y-92159498D01*
X156422482Y-92123188D01*
X156298000Y-92110928D01*
X154598000Y-92110928D01*
X154473518Y-92123188D01*
X154353820Y-92159498D01*
X154243506Y-92218463D01*
X154146815Y-92297815D01*
X154067463Y-92394506D01*
X154008498Y-92504820D01*
X153972188Y-92624518D01*
X153959928Y-92749000D01*
X144170000Y-92749000D01*
X144170000Y-86926495D01*
X147367000Y-86926495D01*
X147367000Y-87317505D01*
X147443282Y-87701003D01*
X147592915Y-88062250D01*
X147810149Y-88387364D01*
X148086636Y-88663851D01*
X148411750Y-88881085D01*
X148772997Y-89030718D01*
X149156495Y-89107000D01*
X149547505Y-89107000D01*
X149931003Y-89030718D01*
X150292250Y-88881085D01*
X150617364Y-88663851D01*
X150893851Y-88387364D01*
X151111085Y-88062250D01*
X151260718Y-87701003D01*
X151337000Y-87317505D01*
X151337000Y-86926495D01*
X151260718Y-86542997D01*
X151111085Y-86181750D01*
X150893851Y-85856636D01*
X150617364Y-85580149D01*
X150292250Y-85362915D01*
X149931003Y-85213282D01*
X149547505Y-85137000D01*
X149156495Y-85137000D01*
X148772997Y-85213282D01*
X148411750Y-85362915D01*
X148086636Y-85580149D01*
X147810149Y-85856636D01*
X147592915Y-86181750D01*
X147443282Y-86542997D01*
X147367000Y-86926495D01*
X144170000Y-86926495D01*
X144170000Y-84480000D01*
X175743001Y-84480000D01*
X175743000Y-109830000D01*
%TD*%
M02*
